<?xml version="1.0" encoding="utf-8"?>
<svg version="1.1" id="Layer_1"
xmlns="http://www.w3.org/2000/svg"
xmlns:xlink="http://www.w3.org/1999/xlink"
xmlns:author="http://www.sothink.com"
width="260px" height="308px"
xml:space="preserve">
<g id="PathID_682" transform="matrix(0.0352941, 0, 0, 0.0352941, 48, 37.8)">
<path style="fill:#EFF5E2;fill-opacity:1" d="M128 -97q23.5 0 39.5 16.5q16 16 16 39q0 23 -16 39.5q-16.5 16 -39.5 16q-23 0 -39 -16q-16.5 -16.5 -16.5 -39.5q0 -23.5 16.5 -39.5q16 -16 39 -16l0 0" />
</g>
<g id="PathID_683" transform="matrix(0.0352941, 0, 0, 0.0352941, 96, 37.8)">
<path style="fill:#EFF5E2;fill-opacity:1" d="M587 -187.5l16.5 3.5l-58 184l-525 0l0 -18.5l25.5 0q43 0 61.5 -28q10.5 -16 10.5 -74l0 -437.5q0 -63.5 -14 -79.5q-19.5 -22 -58 -22l-25.5 0l0 -18.5l307 0l0 18.5q-54 -0.5 -75.5 10q-22 10.5 -30 26.5q-8 16 -8 76.5l0 426q0 41.5 8 57q6 10.5 18.5 15.5q12.5 5 78 5l49.5 0q78 0 109.5 -11.5q31.5 -11.5 57.5 -40.5q26 -29.5 52 -92.5l0 0" />
</g>
<g id="PathID_684" transform="matrix(0.0352941, 0, 0, 0.0352941, 144, 37.8)">
<path style="fill:#EFF5E2;fill-opacity:1" d="M419 0l-262 -570.5l0 453q0 62.5 13.5 78q18.5 21 58.5 21l24 0l0 18.5l-236 0l0 -18.5l24 0q43 0 61 -26q11 -16 11 -73l0 -443q0 -45 -10 -65q-7 -14.5 -25.5 -24q-19 -10 -60.5 -10l0 -18.5l192 0l246 530.5l242 -530.5l192 0l0 18.5l-23.5 0q-43.5 0 -61.5 26q-11 16 -11 73l0 443q0 62.5 14 78q18.5 21 58.5 21l23.5 0l0 18.5l-288 0l0 -18.5l24 0q43.5 0 61 -26q11 -16 11 -73l0 -453l-261.5 570.5l-16.5 0" />
</g>
<g id="PathID_685" transform="matrix(0.0352941, 0, 0, 0.0352941, 192, 37.8)">
<path style="fill:#EFF5E2;fill-opacity:1" d="M210 -317.5l0 197.5q0 64 14 79.5q19 22 57.5 22l26 0l0 18.5l-290.5 0l0 -18.5l25.5 0q43 0 61.5 -28q10 -15.5 10 -73.5l0 -438q0 -64 -13.5 -79.5q-19.5 -22 -58 -22l-25.5 0l0 -18.5l248.5 0q91 0 143.5 19q52.5 18.5 88.5 63q36 44.5 36 105.5q0 83 -54.5 135q-55 52 -155 52q-24.5 0 -53 -3.5q-28.5 -3.5 -61 -10.5l0 0M210 -346q26.5 5 47 7.5q20.5 2.5 35 2.5q52 0 90 -40q37.5 -40.5 37.5 -104.5q0 -44 -18 -81.5q-18 -38 -51 -56.5q-33 -19 -75 -19q-25.5 0 -65.5 9.5l0 282" />
</g>
<g id="PathID_686" transform="matrix(0.0352941, 0, 0, 0.0352941, 0, 84)">
<path style="fill:#EFF5E2;fill-opacity:1" d="M418 -375.5l145.5 217q60.5 90 90 114q29 23.5 74 26l0 18.5l-291 0l0 -18.5q29 -0.5 43 -6q10.5 -4.5 17.5 -13.5q6.5 -9.5 6.5 -19q0 -11.5 -4.5 -23q-3.5 -8.5 -27.5 -44l-115 -174l-142 182q-22.5 29 -27 39q-4.5 9.5 -4.5 20q0 16 13.5 26.5q13.5 10.5 51.5 12l0 18.5l-240.5 0l0 -18.5q25.5 -2.5 44 -10.5q31 -13 59 -35q28 -22 64 -67.5l160 -202l-133.5 -195.5q-54.5 -79.5 -92.5 -104q-38 -25 -87.5 -26.5l0 -18.5l313.5 0l0 18.5q-40 1.5 -54.5 13q-15 11.5 -15 25.5q0 18.5 24 54l104 155.5l120.5 -152.5q21 -27 26 -37q4.5 -10 4.5 -20.5q0 -10.5 -6 -18.5q-7.5 -10.5 -19 -14.5q-11.5 -4.5 -47.5 -5l0 -18.5l240.5 0l0 18.5q-28.5 1.5 -46.5 9q-27 11.5 -49.5 31q-22.5 19.5 -63.5 72l-134.5 172" />
</g>
<g id="PathID_687" transform="matrix(0.0352941, 0, 0, 0.0352941, 48, 84)">
<path style="fill:#EFF5E2;fill-opacity:1" d="M291.5 -66q-70.5 54.5 -88.5 63q-27 12.5 -57.5 12.5q-47.5 0 -78 -32.5q-31 -32.5 -31 -85.5q0 -33.5 15 -58q20.5 -34 71.5 -64q50.5 -30 168.5 -73l0 -18q0 -68.5 -21.5 -94q-22 -25.5 -63.5 -25.5q-31.5 0 -50 17q-19 17 -19 39l1 29q0 23 -11.5 35.5q-12 12.5 -31 12.5q-18.5 0 -30 -13q-12 -13 -12 -35.5q0 -43 44 -79q44 -36 123.5 -36q61 0 100 20.5q29.5 15.5 43.5 48.5q9 21.5 9 88l0 155.5q0 65.5 2.5 80.5q2.5 14.5 8.5 19.5q5.5 5 13 5q8 0 14 -3.5q10.5 -6.5 40.5 -36.5l0 28q-56 75 -107 75q-24.5 0 -39 -17q-14.5 -17 -15 -58l0 0M291.5 -98.5l0 -174.5q-75.5 30 -97.5 42.5q-39.5 22 -56.5 46q-17 24 -17 52.5q0 36 21.5 60q21.5 23.5 49.5 23.5q38 0 100 -50l0 0" />
</g>
<g id="PathID_688" transform="matrix(0.0352941, 0, 0, 0.0352941, 96, 84)">
<path style="fill:#EFF5E2;fill-opacity:1" d="M109 -285.5q-0.5 102 49.5 160q50 58 117.5 58q45 0 78.5 -24.5q33 -25 55.5 -85l15.5 10q-10.5 68.5 -61 125q-50.5 56 -126.5 56q-82.5 0 -141 -64q-59 -64.5 -59 -173q0 -117.5 60.5 -183q60 -66 151 -66q77 0 126.5 51q49.5 50.5 49.5 135.5l-316.5 0M109 -314.5l212 0q-2.5 -44 -10.5 -62q-12.5 -28 -37 -44q-25 -16 -52 -16q-41.5 0 -74 32.5q-33 32 -38.5 89.5l0 0" />
</g>
<g id="PathID_689" transform="matrix(0.0352941, 0, 0, 0.0352941, 144, 84)">
<path style="fill:#EFF5E2;fill-opacity:1" d="M211 -422l0 301q0 64 14 81q18.5 22 49.5 22l41.5 0l0 18l-273.5 0l0 -18l20.5 0q20 0 36.5 -10q16.5 -10 23 -27q6 -17 6 -66l0 -301l-89 0l0 -36l89 0l0 -30q0 -68.5 22 -116q22 -47.5 67.5 -76.5q45 -29.5 101.5 -29.5q52.5 0 96.5 34q29 22.5 29 50.5q0 15 -13 28.5q-13 13 -28 13q-11.5 0 -24 -8q-13 -8.5 -31.5 -35.5q-18.5 -27.5 -34 -37q-15.5 -9.5 -34.5 -9.5q-23 0 -39 12.5q-16 12 -23 38q-7 25.5 -7 132.5l0 33l118 0l0 36l-118 0" />
</g>
<g id="PathID_690" transform="matrix(0.0352941, 0, 0, 0.0352941, 192, 84)">
<path style="fill:#EFF5E2;fill-opacity:1" d="M154.5 -167q-42 -20.5 -64.5 -57q-22.5 -37 -22.5 -81.5q0 -68 51.5 -117q51 -49 131 -49q65.5 0 113.5 32l97 0q21.5 0 25 1.5q3.5 1 5 4q3 4.5 3 16q0 13 -2.5 18q-1.5 2.5 -5 4q-4 1.5 -25.5 1.5l-59.5 0q28 36 28 92q0 64 -49 109.5q-49 45.5 -131.5 45.5q-34 0 -69.5 -10q-22 19 -29.5 33.5q-8 14 -8 24q0 8.5 8.5 16.5q8 8 32 11.5q14 2 70 3.5q103 2.5 133.5 7q46.5 6.5 74.5 34.5q27.5 28 27.5 69q0 56.5 -53 106q-78 73 -203.5 73q-96.5 0 -163 -43.5q-37.5 -25 -37.5 -52q0 -12 5.5 -24q8.5 -18.5 35 -51.5q3.5 -4.5 51 -54q-26 -15.5 -36.5 -27.5q-11 -12.5 -11 -28q0 -17.5 14.5 -41q14 -23.5 65.5 -66.5l0 0M241.5 -447.5q-37 0 -62 29.5q-25 29.5 -25 90.5q0 79 34 122.5q26 33 66 33q38 0 62.5 -28.5q24.5 -28.5 24.5 -89.5q0 -79.5 -34.5 -124.5q-25.5 -33 -65.5 -33l0 0M149.5 0q-23.5 25.5 -35.5 47.5q-12 22 -12 40.5q0 24 29 42q50 31 144.5 31q90 0 133 -31.5q42.5 -32 42.5 -68q0 -26 -25.5 -37q-26 -11 -103 -13q-112.5 -3 -173 -11.5l0 0" />
</g>
<g id="PathID_691" transform="matrix(0.0352941, 0, 0, 0.0352941, 0, 132)">
<path style="fill:#EFF5E2;fill-opacity:1" d="M166.5 -711l0 335q55.5 -61 88 -78q32.5 -17.5 65 -17.5q39 0 67 21.5q28 21.5 41.5 67.5q9.5 32 9.5 117l0 162q0 43.5 7 59.5q5 12 17 19q12 7 44 7l0 18l-225 0l0 -18l10.5 0q32 0 44.5 -9.5q12.5 -10 17.5 -29q1.5 -8 1.5 -47l0 -162q0 -75 -7.5 -98.5q-8 -23.5 -25 -35q-17 -12 -41 -12q-24.5 0 -51 13q-26.5 13 -63.5 52.5l0 242q0 47 5.5 58.5q5 11.5 19.5 19.5q14 7.5 49 7.5l0 18l-227 0l0 -18q30.5 0 48 -9.5q10 -5 16 -19q6 -14 6 -57l0 -414.5q0 -78.5 -3.5 -96.5q-4 -18 -11.5 -24.5q-8 -6.5 -21 -6.5q-10.5 0 -34 8l-7 -17.5l137 -56l23 0" />
</g>
<g id="PathID_692" transform="matrix(0.0352941, 0, 0, 0.0352941, 48, 132)">
<path style="fill:#EFF5E2;fill-opacity:1" d="M148.5 -711q21 0 36 15q14.5 14.5 14.5 35.5q0 21 -14.5 36q-15 15 -36 15q-21 0 -36 -15q-15 -15 -15 -36q0 -21 15 -35.5q14.5 -15 36 -15l0 0M190 -471.5l0 368q0 43 6.5 57.5q6 14 18.5 21q12 7 44.5 7l0 18l-222.5 0l0 -18q33.5 0 45 -6.5q11.5 -6.5 18.5 -21.5q6.5 -15 6.5 -57.5l0 -176.5q0 -74.5 -4.5 -96.5q-3.5 -16 -11 -22q-7.5 -6.5 -20.5 -6.5q-14 0 -34 7.5l-7 -18l138 -56l22 0" />
</g>
<g id="PathID_693" transform="matrix(0.0352941, 0, 0, 0.0352941, 96, 132)">
<path style="fill:#EFF5E2;fill-opacity:1" d="M189.5 -711l0 607.5q0 43 6.5 57q6 14 19 21.5q13 7 48.5 7l0 18l-224.5 0l0 -18q31.5 0 43 -6.5q11.5 -6.5 18 -21.5q6.5 -15 6.5 -57.5l0 -416q0 -77.5 -3.5 -95q-3.5 -18 -11 -24.5q-8 -6.5 -20 -6.5q-13 0 -33 8l-8.5 -17.5l136.5 -56l22.5 0" />
</g>
<g id="PathID_694" transform="matrix(0.0352941, 0, 0, 0.0352941, 144, 132)">
<path style="fill:#EFF5E2;fill-opacity:1" d="M168 -374q50 -50 59 -57.5q22.5 -19 48.5 -29.5q26 -10.5 51.5 -10.5q43 0 74 25q31 25 41.5 72.5q51.5 -60 87 -78.5q35.5 -19 73 -19q36.5 0 65 19q28 18.5 44.5 61q11 29 11 91l0 197q0 43 6.5 59q5 11 18.5 19q13.5 7.5 44 7.5l0 18l-226 0l0 -18l9.5 0q29.5 0 46 -11.5q11.5 -8 16.5 -25.5q2 -8.5 2 -48.5l0 -197q0 -56 -13.5 -79q-19.5 -32 -62.5 -32q-26.5 0 -53 13.5q-27 13 -65 49l-1 5.5l1 21.5l0 218.5q0 47 5.5 58.5q5 11.5 19.5 19.5q14.5 7.5 49.5 7.5l0 18l-231.5 0l0 -18q38 0 52.5 -9q14 -9 19.5 -27q2.5 -8.5 2.5 -49.5l0 -197q0 -56 -16.5 -80.5q-22 -32 -61.5 -32q-27 0 -53.5 14.5q-41.5 22 -64 49.5l0 245.5q0 45 6.5 58.5q6 13.5 18.5 20.5q12 6.5 49.5 6.5l0 18l-226.5 0l0 -18q31.5 0 44 -6.5q12.5 -7 19 -21.5q6.5 -15 6.5 -57.5l0 -175q0 -75.5 -4.5 -97.5q-3.5 -16.5 -11 -22.5q-7.5 -6.5 -20.5 -6.5q-14 0 -33.5 7.5l-7.5 -18l138 -56l21.5 0l0 97.5" />
</g>
<g id="PathID_695" transform="matrix(0.0352941, 0, 0, 0.0352941, 192, 132)">
<path style="fill:#EFF5E2;fill-opacity:1" d="M165.5 -374.5q80.5 -97 153.5 -97q37.5 0 64.5 19q27 18.5 43 61.5q11 30 11 92l0 195.5q0 43.5 7 59q5.5 12.5 18 19.5q12 7 45 7l0 18l-226.5 0l0 -18l9.5 0q32 0 45 -9.5q12.5 -10 17.5 -29q2 -7.5 2 -47l0 -187.5q0 -62.5 -16 -90.5q-16.5 -28.5 -55 -28.5q-59.5 0 -118.5 65l0 241.5q0 46.5 5.5 57.5q7 14.5 19.5 21.5q12 6.5 49.5 6.5l0 18l-226.5 0l0 -18l10 0q35 0 47.5 -17.5q12 -18 12 -68l0 -170q0 -82.5 -3.5 -100.5q-4 -18 -11.5 -24.5q-8 -6.5 -21 -6.5q-14 0 -33.5 7.5l-7.5 -18l138 -56l21.5 0l0 97" />
</g>
<g id="PathID_696" transform="matrix(0.0352941, 0, 0, 0.0352941, 0, 180)">
<path style="fill:#EFF5E2;fill-opacity:1" d="M256 -471.5q104 0 167 79q53.5 67.5 53.5 155q0 61.5 -29.5 124.5q-29.5 63 -81 95q-52 32 -115.5 32q-103.5 0 -164.5 -82.5q-51.5 -69.5 -51.5 -156q0 -63 31.5 -125q31 -62.5 82 -92q51 -30 108 -30l0 0M240.5 -439q-26.5 0 -53 16q-27 15.5 -43.5 55q-16.5 39.5 -16.5 101.5q0 100 40 172.5q39.5 72.5 104.5 72.5q48.5 0 80 -40q31.5 -40 31.5 -137.5q0 -122 -52.5 -192q-35.5 -48 -90.5 -48l0 0" />
</g>
<g id="PathID_697" transform="matrix(0.0352941, 0, 0, 0.0352941, 48, 180)">
<path style="fill:#EFF5E2;fill-opacity:1" d="M166 -471.5l0 103q57.5 -103 118 -103q27.5 0 45.5 17q18 16.5 18 38.5q0 19.5 -13 33q-13 13.5 -31 13.5q-17.5 0 -39 -17q-22 -17.5 -32.5 -17.5q-9 0 -19.5 10q-22.5 20.5 -46.5 67.5l0 219.5q0 38 9.5 57.5q6.5 13.5 23 22.5q16.5 9 47.5 9l0 18l-234.5 0l0 -18q35 0 52 -11q12.5 -8 17.5 -25.5q2.5 -8.5 2.5 -48.5l0 -177.5q0 -80 -3 -95q-3.5 -15.5 -12 -22.5q-9 -7 -22 -7q-15.5 0 -35 7.5l-5 -18l138.5 -56l21 0" />
</g>
<g id="PathID_698" transform="matrix(0.0352941, 0, 0, 0.0352941, 96, 180)">
<path style="fill:#EFF5E2;fill-opacity:1" d="M328 -471.5l0 156l-16.5 0q-19 -73.5 -48.5 -100q-30 -26.5 -76 -26.5q-35 0 -56.5 18.5q-21.5 18.5 -21.5 41q0 28 16 48q15.5 20.5 63 43.5l73 35.5q101.5 49.5 101.5 130.5q0 62.5 -47 101q-47.5 38 -106 38q-42 0 -96 -15q-16.5 -5 -27 -5q-11.5 0 -18 13l-16.5 0l0 -163.5l16.5 0q14 70 53.5 105.5q39.5 35.5 88.5 35.5q34.5 0 56.5 -20q21.5 -20.5 21.5 -49q0 -34.5 -24 -58q-24.5 -23.5 -97 -59.5q-72.5 -36 -95 -65q-22.5 -28.5 -22.5 -72q0 -56.5 39 -94.5q38.5 -38 100 -38q27 0 65.5 11.5q25.5 7.5 34 7.5q8 0 12.5 -3.5q4.5 -3.5 10.5 -15.5l16.5 0" />
</g>
<g id="PathID_699" transform="matrix(0.0352941, 0, 0, 0.0352941, 144, 180)">
<path style="fill:#EFF5E2;fill-opacity:1" d="M165 -608.5l0 150.5l107 0l0 35l-107 0l0 297q0 44.5 13 60q12.5 15.5 32.5 15.5q16.5 0 32 -10q15.5 -10.5 24 -30.5l19.5 0q-17.5 49 -49.5 74q-32 24.5 -66 24.5q-23 0 -45 -12.5q-22 -13 -32.5 -36.5q-10.5 -24 -10.5 -73.5l0 -308l-72.5 0l0 -16.5q27.5 -11 56.5 -37q28.5 -26.5 51 -62.5q11.5 -19 32 -69.5l15.5 0" />
</g>
<g id="PathID_700" transform="matrix(0.0352941, 0, 0, 0.0352941, 192, 180)">
<path style="fill:#EFF5E2;fill-opacity:1" d="M433.5 -458l0 277.5q0 79.5 4 97.5q3.5 17.5 12 24.5q8 7 19 7q15.5 0 35 -8.5l7 17.5l-137 56.5l-22.5 0l0 -97q-59 64 -90 80.5q-31 16.5 -65.5 16.5q-38.5 0 -66.5 -22q-28.5 -22.5 -39.5 -57.5q-11 -35 -11 -99l0 -204.5q0 -32.5 -7 -45q-7 -12.5 -20.5 -19q-14 -7 -50 -6.5l0 -18.5l160.5 0l0 306.5q0 64 22.5 84q22 20 53.5 20q21.5 0 49 -13.5q27 -13.5 64.5 -51.5l0 -259.5q0 -39 -14 -52.5q-14.5 -14 -59.5 -15l0 -18.5l156 0" />
</g>
<g id="PathID_701" transform="matrix(0.0352941, 0, 0, 0.0352941, 0, 228)">
<path style="fill:#EFF5E2;fill-opacity:1" d="M6.5 -458l192 0l0 18.5q-26.5 2 -34.5 9.5q-8.5 7.5 -8.5 21.5q0 15.5 8.5 37.5l98 263.5l98.5 -214.5l-26 -67.5q-12 -30 -31.5 -41.5q-11 -7 -41 -8.5l0 -18.5l218 0l0 18.5q-36 1.5 -51 13q-10 8 -10 25.5q0 10 4 20.5l104 263l96.5 -253.5q10 -27 10 -43q0 -9.5 -9.5 -17q-10 -7.5 -38.5 -8.5l0 -18.5l144.5 0l0 18.5q-43.5 6.5 -64 59l-153 394.5l-20.5 0l-114.5 -292.5l-133.5 292.5l-18.5 0l-147 -385q-14.5 -36.5 -28.5 -49q-14 -13 -44 -19.5l0 -18.5" />
</g>
<g id="PathID_702" transform="matrix(0.0352941, 0, 0, 0.0352941, 48, 228)">
<path style="fill:#EFF5E2;fill-opacity:1" d="M13.5 -458l215.5 0l0 18.5q-20.5 0 -28.5 7q-8.5 7 -8.5 18.5q0 12 17.5 37q5.5 8 16.5 25l32.5 52l37.5 -52q36 -49.5 36 -62.5q0 -10.5 -8.5 -17.5q-8.5 -7.5 -27.5 -7.5l0 -18.5l155 0l0 18.5q-24.5 1.5 -42.5 13.5q-24.5 17 -67 74l-62.5 83.5l114 164q42 60.5 60 73q18 12 46.5 13.5l0 18l-216 0l0 -18q22.5 0 35 -10q9.5 -7 9.5 -18.5q0 -11.5 -32 -58l-67 -98l-73.5 98q-34 45.5 -34 54q0 12 11.5 22q11 9.5 33.5 10.5l0 18l-149.5 0l0 -18q18 -2.5 31.5 -12.5q19 -14.5 64 -74l96 -127.5l-87 -126q-37 -54 -57 -67.5q-20.5 -14 -51 -14l0 -18.5" />
</g>
<g id="PathID_703" transform="matrix(0.0352941, 0, 0, 0.0352941, 96, 228)">
<path style="fill:#EFF5E2;fill-opacity:1" d="M6 -458l213.5 0l0 18.5l-10.5 0q-22.5 0 -33.5 10q-11.5 9.5 -11.5 24q0 19.5 16.5 54l111.5 231l102.5 -253q8.5 -20.5 8.5 -40.5q0 -9 -3.5 -13.5q-4 -5.5 -12.5 -8.5q-8.5 -3.5 -30 -3.5l0 -18.5l149 0l0 18.5q-18.5 2 -28.5 8q-10 6 -22 22.5q-4.5 7 -17 38.5l-186.5 457q-27 66.5 -70.5 100.5q-44 34 -84.5 34q-29.5 0 -48.5 -17q-19 -17 -19 -39q0 -21 14 -33.5q13.5 -13 37.5 -13q16.5 0 45 11q20 7.5 25 7.5q15 0 33 -15.5q17.5 -15.5 35.5 -60l32.5 -79.5l-164.5 -345.5q-7.5 -15.5 -24 -38.5q-12.5 -17.5 -20.5 -23.5q-11.5 -8 -37 -14l0 -18.5" />
</g>
</svg>
