<?xml version="1.0" encoding="utf-8"?>
<svg version="1.1" id="Layer_1"
xmlns="http://www.w3.org/2000/svg"
xmlns:xlink="http://www.w3.org/1999/xlink"
xmlns:author="http://www.sothink.com"
width="164px" height="212px"
xml:space="preserve">
<g id="PathID_547" transform="matrix(0.0352941, 0, 0, 0.0352941, 0, 37.8)">
<path style="fill:#EFF5E2;fill-opacity:1" d="M424 -648l2.5 0q0 5 8 5l2.5 70.5q0 18.5 -15.5 30.5l2.5 -3l2.5 0l3 3l2.5 0l0 -8l5 5l-2.5 20.5l2.5 63l0 43q0 20.5 -10.5 20.5l-19.5 -2.5l-10.5 2.5l-20 -2.5l-20.5 2.5l-2.5 -23l2.5 -30l-2.5 -10.5l8 -14.5q-8 -2.5 -8 -15.5l2.5 -18q0 -23 -58 -47.5l-15 -2.5q-52 0 -65.5 20l-2.5 0q-5 101 -10.5 113.5q6 0 8 18l-5 27.5l5 5l-2.5 2.5l2.5 2.5l0 2.5l-2.5 15q0 30.5 17 30.5l20.5 -7.5l28 5q22.5 -6.5 22.5 -40.5q0 -14.5 -17.5 -28l0 -4.5l2.5 0q50.5 13.5 50.5 45l3 10l0 2.5q0 35 -15.5 51q0 12 10 12l7 33.5q-12 52.5 -52.5 52.5l-13 2.5l0 -2.5q23.5 -23.5 23.5 -38q0 -6 -28.5 -10l-7.5 0l-17.5 2.5l-2.5 -2.5l0 -2q-32.5 2 -32.5 14.5l5 10.5l-2.5 52.5l2.5 2.5l0 2.5l-5 20.5l0 8l5 0l0 14.5l-5 15.5l2.5 2.5l0 2.5l-2.5 17.5l2.5 28l-2.5 0l7.5 22.5l-5 5.5l2.5 7.5l-2.5 2.5l0 2.5l5 12l-5 5q9.5 11.5 9.5 25l36 10.5q44 0 98 -45.5l2.5 -27.5l-2.5 -2.5l0 -2.5l2.5 -30l-2.5 -3l0 -2.5l5 -15l-5 -20l5 -5l-5 -8l0 -7l2.5 -2.5l0 -2.5l27.5 5l8 -5l25.5 2.5l15 0l2.5 2.5l2.5 0l-5 15l0 2.5l5 20.5l0 7l-5 20.5l5 14.5l0 8q-5 10 -15.5 10l0 5.5l13 -8l2.5 18l0 9.5q-1.5 27.5 -83.5 98.5q-63 30.5 -81 30.5l-2.5 -3l-12 3l-10.5 0q-64.5 0 -104 -38q-18.5 18 -27.5 18l-12.5 0q-37 0 -85.5 -40.5l-5 -5l-8 -10.5l2.5 -2.5q24 15.5 33 15.5l13 0q22 -10.5 22 -33.5l-2.5 -9.5l5.5 -5l-5.5 -13l2.5 -17l-2.5 -20.5l5.5 -5l-8 -8l2.5 -32.5l-2.5 -7l2.5 -23l0 -10.5l2.5 -2.5l-5 -9.5l2.5 -40.5l0 -10.5l-2.5 -15l5 -10q-5 0 -5 -7.5l2.5 -18l-5 -5l5 0l0 -2q-14 0 -25 -28l5.5 -5.5l-3 -2.5l-18 0l0 -2.5l38 -47.5l0 -25.5l2.5 -15l-2.5 -7.5l5 -30q-5 0 -5 -8l2.5 -35l-2.5 -2.5l0 -2.5l5 -20l-5 -10.5l2.5 -18q-2 -68 -5 -68l-40.5 -12.5l-25 18l-2.5 0l0 -2.5q0 -32.5 75.5 -65.5l23.5 0q21.5 0 40 22.5q56 -33 76 -33l35.5 2.5l27.5 -5q0 6.5 32.5 8l70.5 30q14.5 0 43 -40.5l0 0M186.5 -625.5q0 5 8 5l2.5 0l0 -2.5l-10.5 -2.5M235 -600l5 5l2.5 0l-5 -5l-2.5 0M91 -592l-2.5 7l0 2.5l2.5 0l5.5 -5l0 -2l2.5 2l9.5 0l0 -2l-12 -2.5l-3 2.5l-2.5 -2.5M280.5 -580l0 2.5l15.5 5l2 0l0 -2.5l-15 -5l-2.5 0M336.5 -545l12 10.5l0 -5l-10.5 -5.5l-1.5 0M417 -537l0 7.5l4.5 0l0 -7.5l-4.5 0M366.5 -484l2.5 0l5 -5l-2.5 0l-5 5M407 -478.5q0 5 22.5 12l2.5 0l0 -2.5l-25 -9.5M189.5 -360l0 2.5l5 4.5l5 -4.5l-7.5 -2.5l-2.5 0M181.5 -345.5l0 2.5l8 0l0 -5l-8 2.5M167 -332.5l5 5l9.5 0l-4.5 -5l-10 0M156.5 -327.5l0 5l8 -2.5l0 -5l-8 2.5M308 -315l0 2.5l10.5 -12.5l0 -2.5l-10.5 12.5M134 -315q-4.5 10 -18 10l0 5l25 -12.5l0 -2.5l-7 0M83.5 -292l-2.5 2.5l0 2.5l2.5 0l7.5 -2.5l0 -2.5l-7.5 0M116 -277.5l2.5 0l10.5 -4.5l0 -2.5l-2.5 0q-10.5 4 -10.5 7l0 0M83.5 -252l0 3l7.5 0l0 -5.5l-7.5 2.5M409.5 -19.5l-5 5l0 2.5l5 0l5 -7.5l-5 0M391.5 -7.5l0 5l7.5 -2.5l0 -2.5l-7.5 0M371.5 10l2.5 0l4.5 -5l-2 0l-5 5M346 25.5l2.5 0l7.5 -7.5l-2.5 0l-7.5 7.5M326 38l2.5 0l5 -5.5l-2.5 0l-5 5.5M303 45.5l0 2.5l2.5 0l15.5 -5l0 -5l-18 7.5M267.5 75.5l2.5 0l5.5 -5l-3 0l-5 5M235 96l2.5 0l5 -5l-2.5 0l-5 5M217.5 106.5l0 2l12 -7.5l0 -2.5l-2.5 0l-9.5 8" />
</g>
<g id="PathID_548" transform="matrix(0.0352941, 0, 0, 0.0352941, 48, 37.8)">
<path style="fill:#EFF5E2;fill-opacity:1" d="M487.5 -651q39 0 85.5 44l5 19q-24.5 -21.5 -44 -21.5l-13.5 0l-19.5 32.5q6 0 6 8l-3 19l3 11l-8.5 35.5l5.5 6l0 2.5q0 53 -5.5 79.5l2.5 14l-2.5 2.5l2.5 2.5l3 0l-5.5 33l0 19.5l49 62.5q-5.5 13.5 -49 58l5.5 7.5l0 44l-5.5 49.5l2.5 3l3 0l-3 21.5l3 60l-3 8.5l3 8.5l-3 2.5l3 13.5l0 27.5l-3 16q5.5 39 33 39l19.5 0l24.5 -6l0 3q-31 44 -71 44q0 5.5 -14 5.5l-30 0q-14 0 -32.5 -11q-18.5 8 -39 8l-22 0q-42 0 -68 -49.5l2.5 0l22 6l16.5 0q10.5 0 19.5 -57.5l-11 -41l2.5 -2.5l24.5 7.5l2.5 0l0 -2.5q-18 -4 -29.5 -24.5l0 -38.5l5 -5.5l-2.5 -19l0 -3l5 -41q-7.5 -1.5 -7.5 -22l0 -2.5l2.5 -22l-2.5 -22l0 -16l-82.5 -6l-5.5 6l-11 -3l-10.5 3l-6 0l-8.5 -6l-5 11l2.5 13.5l-2.5 8.5l2.5 2.5l-5 50l5 43.5l-2.5 84.5l-2.5 3.5l0 2.5l5 8.5l-8.5 48.5q12.5 5 22 44l0 2.5l14 -8l16.5 3q0 -6.5 13.5 -8.5l0 2.5q-28.5 52.5 -88 52.5l-46.5 -19.5q-29.5 14 -43.5 14l-5.5 -5.5l-5.5 5.5l-2.5 -3l0 -2.5l-3 2.5l-5.5 0q-5 0 -5 -8l-3 0l0 5.5l-3 0q-34 0 -71 -41.5l0 -2.5l52.5 5.5q8 -14 21.5 -14l-5.5 -7.5l5.5 -6l-3 -2.5l0 -2.5l6 -39l-3 -10.5l19 0l0 -2.5l-19 -2.5l0 -8.5l-3 -11l6 -13.5l-3 -3.5l3 -13.5l-6 -16l3 -38.5l0 -11l3 -2.5l0 -3l-6 -5.5l3 -27l-3 -2.5l0 -3.5l3 -2.5l0 -2.5l-3 -11l8.5 -11l-8.5 0l0 -6l3 0l-3 -18.5l0 -11q-5 0 -38 -44l0 -3q38 -46 38 -51.5l0 -44l6 0l-6 -33l0 -2.5l3 -11l-3 -11l0 -11l6 -5.5l-3 -2.5l0 -19.5l16.5 0l0 -2.5q-13.5 0 -13.5 -6l-3 -13.5l3 -38l-3 0l-3 -3q0 -63 -35.5 -63l-8.5 0l-27 11l0 -5.5q46 -49 93 -49l19 0q14.5 0 35.5 18.5q21.5 -24.5 55 -24.5q50.5 0 74 60.5l-5.5 0l-22 -11q-24.5 3.5 -24.5 22l2.5 33q-2 71 -7.5 71l5 24.5l-5 22l2.5 27.5l-2.5 46.5l5 16l41.5 3.5l16 0q5.5 0 5.5 7.5q12 -11 22 -11l33 0q6.5 0 11 -27l-2.5 -11l2.5 -2.5l2.5 0l-2.5 -14l0 -32.5l2.5 -16.5l-5 -8.5l2.5 -13.5l-2.5 -79.5l7.5 -41q-4.5 0 -7.5 -13.5l-19.5 -3l-30 11l0 -3q3 -12.5 30 -24.5q22 -30.5 57.5 -30.5l8.5 0l35.5 11q26.5 -16 54.5 -16l0 0M391.5 -629l0 2.5l6 -5l0 -3.5l-6 6M373 -607q-6 11 -14.5 11l0 2.5l6 0l11 -13.5l-2.5 0M364.5 -577l0 2.5l11 0l0 -2.5l-11 0M184 -566l0 2.5l5 0l11 -8l-2.5 0l-13.5 5.5M131.5 -541.5l-2.5 0l-3 -2.5l-3 0l0 5l3 0l27.5 -8l0 -3l-8.5 0l-13.5 8.5M471 -369l0 5.5q16.5 -8.5 25 -22l-3 0l-19 16.5l-3 0M433 -352.5l0 2.5l5 0q18 -7 19.5 -13.5l-2.5 0l-22 11M320.5 -317l0 -2.5l-49.5 16l0 3l3 0l62.5 -16.5l3.5 2.5q0 -5 33 -13.5l0 -5l-52.5 16M211 -281.5l2.5 0q11.5 -11 30.5 -19l2.5 0q0 -5.5 13.5 -5.5q0 -7 19.5 -13.5l0 -2.5l-3 0q-65 31.5 -65.5 40.5l0 0M235.5 -284l2.5 0l6 -5.5l-2.5 0l-6 5.5M194 -270.5l3.5 0l5 -5.5l-2.5 0l-6 5.5M151 -248.5l2.5 0l2.5 -2.5l0 2.5l35.5 -16.5l0 -5.5l-38 16.5l-2.5 3l0 2.5M112 -226.5l0 3l6 0l11 -8.5l-3 0l-14 5.5M93 -207.5l5.5 0q0 -8.5 8.5 -8.5l0 -5l-14 13.5M82 -199l3 0l5.5 -6l-3 0l-5.5 6M391.5 -10l0 2.5q2.5 8 17 8l2.5 0l0 -5.5q-13 0 -19.5 -5l0 0M87.5 -5l5.5 5.5l5.5 0l-5.5 -5.5l-5.5 0M416 9l6 5l2.5 0l6 -5l-3.5 -3l-11 3M446.5 22.5l0 5q5.5 0 5.5 11l5.5 0l0 -5l-11 -11M419.5 27.5l7.5 8.5l0 -2.5l-5 -6l-2.5 0M173 38.5l0 3.5q29.5 7.5 46.5 24.5l2.5 0q-0.5 -9 -44 -28l-5 0M460 38.5l0 3.5l14 13.5l2.5 0l-16.5 -17M476.5 58l0 2.5l14 3.5l2.5 0l0 -3.5l-13.5 -2.5l-3 0M455 60.5l0 8.5q8 0 8 11l13.5 13.5l5.5 -5q-6.5 0 -22 -24.5l-2.5 -3.5l-2.5 0M504 77.5l-3 2.5l0 2.5l24.5 14l3.5 -3l2.5 0q0 11 8.5 11l0 -2.5q-6.5 -12 -36 -24.5l0 0M482 99l0 8.5l3 2.5l2.5 0l0 -2.5l-2.5 -8.5l-3 0M504 107.5l0 8l5.5 0l-2.5 -8l-3 0" />
</g>
<g id="PathID_549" transform="matrix(0.0352941, 0, 0, 0.0352941, 96, 37.8)">
<path style="fill:#EFF5E2;fill-opacity:1" d="M195 -649q58 0 96 70l-2.5 0q-16 -13 -31.5 -13l-5 0q-29.5 0 -34 31.5l3 20.5l-3 55l-5 5l2.5 2.5l0 2.5l-5 5.5l5 7.5l-2.5 13l5 5.5l-5 5l5 18.5l-5 13l5 5l0 5l-2.5 10.5l2.5 10.5l0 2.5l-5 8l0 2.5l15.5 44q9 0 31 29q-44 51.5 -44 64.5l-2.5 16l5 20.5l-2.5 36.5l2.5 28.5l-5 5.5l0 2.5l5 7.5l-2.5 16l2.5 33.5l0 5.5l-5 7.5l5 5.5l-2.5 2.5l0 2.5l5.5 5l0 23.5q0 52 49 52q45 0 78 -85.5l2.5 -29l-5 -15.5l0 -2.5l13 0l0 -5l-2.5 2.5l-3 0l-10 -5.5l2.5 -15.5l-2.5 -46.5q1.5 -16 7.5 -16l13 0l5.5 5.5l2.5 -2.5l26 2.5l41.5 -5.5l2.5 3l-2.5 52l0 13l-5.5 5q8 30.5 8 65q-12 57 -31 75q-29 49.5 -49.5 49.5q0 12.5 -41.5 18.5l-8 -3q0 16 -75 16q-36 0 -91 -31.5l-5.5 5.5l-2.5 -3l-2.5 0l-18 5.5q-50.5 0 -114.5 -44.5l-2.5 -2.5l0 -5l2.5 0l41.5 7.5q28.5 -9.5 28.5 -33.5q0 -10.5 5.5 -10.5l-2.5 -13l5 -7.5l-5 -8l0 -10.5l2.5 -13l-2.5 -2.5l-3 0l3 -26l0 -44l2.5 -2.5l-2.5 -8l-3 -47l3 -15.5l-3 -13l3 -20.5q0 -24.5 -39 -62.5q32.5 -36 44 -67.5q-8 -18.5 -8 -36.5l5.5 -28.5l-5.5 -31.5l5.5 -33.5l-2.5 -10.5l0 -2.5l2.5 -2.5l0 -3l-5.5 -5l0 -31q-8 -55 -36 -55l-5.5 0q-11.5 0 -28.5 16l-2.5 -3q11 -29.5 39 -46.5l2.5 0l10.5 5l2.5 0l0 -2.5l-10.5 -2.5q23 -21 57.5 -21q24.5 0 46.5 23.5q23 -26 47 -26l0 0M75.5 -612.5l5 5l2.5 0l-5 -5l-2.5 0M96 -605l0 5.5l8 2.5l0 -5l-8 -3M122 -592l0 3l8 2.5l0 -5.5l-8 0M137.5 -586.5l0 2.5l10.5 0l0 -2.5l-10.5 0M189.5 -467l2.5 0l5.5 -5l-2.5 0l-5.5 5M161 -441l0 2.5l5 -5l0 -2.5l-5 5M140 -428l0 2.5l8 -7.5l-2.5 0l-5.5 5M150.5 -410l0 3l8 -8l-2.5 0l-5.5 5M114.5 -402l-5.5 8l5.5 0l2.5 -8l-2.5 0M96 -381l0 2.5l5.5 -5.5l0 -2.5l-5.5 5.5M104 -376l2.5 0l5 -5l-2.5 0l-5 5M428.5 -147.5l0 3l5 -5.5l0 -2.5l-5 5M379 -150l0 5.5l8 -3l0 -2.5l-8 0M397.5 -118.5l0 5q25.5 -9.5 28.5 -18l-2.5 0q-14 13 -26 13l0 0M171.5 -14.5l0 2.5l2.5 0q20 -3.5 36.5 -15.5l-2.5 0q-27 13 -36.5 13l0 0M153 -7l0 2.5l5.5 0l7.5 -2.5l0 -2.5l-5 0l-8 2.5M137.5 -1.5l-2.5 2l0 3l8 0l-5.5 -5M124.5 0.5l-2.5 3l0 2.5l2.5 0l8 -2.5l0 -3l-8 0M111.5 8.5l3 0l5 -5l-2.5 0l-5.5 5M306.5 45l5 5l2.5 0l-5 -5l-2.5 0M324.5 52.5l5.5 5.5l2.5 0l-5.5 -5.5l-2.5 0M356 68.5l0 2.5l18 2.5l0 -5l-18 0" />
</g>
<g id="PathID_550" transform="matrix(0.0352941, 0, 0, 0.0352941, 0, 84)">
<path style="fill:#EFF5E2;fill-opacity:1" d="M114.5 -650.5l5 5l5.5 -5l13 8l0 -3q51.5 24.5 54.5 34q14.5 0 21 18q7.5 0 7.5 10.5q16.5 0 26 39l-2.5 8l2.5 -2.5l2.5 0q16 17.5 55 161l13 34l-3 2.5l0 2.5q10.5 14 36.5 109.5l2.5 0l5.5 -62.5l-2.5 -10.5l0 -10.5l5 -5l-5 -10.5l2.5 -13l-2.5 -21l2.5 -2.5l0 -2.5l-5.5 -15.5l8 -8l-8 0l0 -41.5q0 -30.5 5.5 -41.5l-5.5 -23.5l3 -2.5l-3 -13l3 -13l-3 -13l3 -8q-5.5 -49.5 -34 -49.5q-10 0 -39 18.5l-2.5 -3l0 -2.5q33.5 -41.5 62.5 -49.5q0 -5 7.5 -5l8 2.5l0 -2.5l7.5 -8l10.5 0q17.5 0 34 18.5q18 -15.5 31 -15.5l10.5 2.5l15.5 -2.5l42 20.5l-3 8l3 -2.5l2.5 0q25.5 25 28.5 36l-2.5 3l-2.5 0q-11.5 -16 -44.5 -16q-26 0 -26 49.5l-2.5 0l2.5 13l0 28.5q0 5.5 -7.5 5.5l7.5 13l-7.5 7.5l0 3l7.5 2.5l0 5l-2.5 0l2.5 18.5l0 41.5q0 18.5 -5 28.5l2.5 2.5l0 3l-2.5 2.5l0 2.5l2.5 10.5l-2.5 2.5l2.5 8q5 0 5 20.5q18.5 6 18.5 18.5l0 5l7.5 -5l13 15.5l0 5q-46.5 52 -46.5 70.5l5 5l-5 8l2.5 2.5l2.5 0l-2.5 13l0 5l2.5 10.5l-2.5 2.5l0 2.5l2.5 3l0 2.5l-2.5 2.5l0 2.5l2.5 8l-2.5 2.5l0 2.5l2.5 2.5l0 3l-2.5 2.5l0 2.5l2.5 2.5l0 2.5l-2.5 8l2.5 15.5l-5 5.5l0 7.5l5 8l0 5l-2.5 10.5l2.5 10.5l-5 15.5l5 5.5l0 2.5l-2.5 2.5l2.5 2.5l0 5.5l-2.5 2.5l2.5 2.5l0 10.5l-5 5l5 18l-2.5 2.5q2 26 18 47l31.5 0l23.5 -21l2.5 2.5q-20 49 -57.5 62.5l-39 16l-7.5 0q-75.5 0 -75.5 -13.5l-15.5 -5q-29.5 -19 -52 -104l2.5 -2.5l2.5 0l0 -5q-13 0 -13 -15.5l2.5 -8l-5 -5l5 -8q-10.5 0 -10.5 -23.5l-2.5 3l-2.5 0l-5 -16l5 -5q-8.5 0 -10.5 -15.5l-2.5 0l2.5 -18.5l0 -5q-14 0 -18 -39q-15.5 -17 -41.5 -122.5q-10 -13 -16 -41.5l-2.5 0l0 65l-5 8l5 18l-5 23.5l5 15.5l0 8l-2.5 49.5l2.5 2.5l0 2.5l-2.5 2.5l0 2.5l2.5 36.5l0 13q0 5.5 -7.5 5.5l7.5 10.5l-2.5 10l2.5 26l-2.5 16q0 43 39 67l2.5 0l0 -5l8 0q8.5 0 18 -8l2.5 0l5.5 5.5q-30 31 -52 31q-20 15.5 -41.5 15.5q-18 0 -36.5 -13l-26 10.5l-10.5 0q-5.5 0 -5.5 -8l-2.5 0l-7.5 5.5q-9 -9 -39 -15.5l-34 -29l0 -2.5l5 0l21 5.5l8 0l13 -3l5 5.5l2.5 0l-2.5 -2.5l0 -3l23.5 -26l-5.5 -18l5.5 -12.5l-5.5 -26l3 -13l-3 -8l3 -2.5l-3 -13l0 -21l3 -10.5l-3 -10.5l3 -28.5l-3 -33.5l0 -8l3 -15.5l-3 -13l0 -5.5l3 -2.5q0 -28.5 -29 -49.5l-10 -15.5l0 -7.5q39 -36 39 -62.5l-3 -28.5l0 -39l3 -23.5l-3 -18.5q0 -22.5 23.5 -31l0 -2.5l-2.5 0l-15.5 10l-5.5 -5l0 -31l5.5 0l-2.5 -10.5l2.5 -8q-6 0 -8 -31l-20.5 -15.5l-10.5 0q-15 0 -28.5 10l-5.5 0l0 -2.5q46.5 -46.5 54.5 -46.5l23.5 -13q7 -5.5 34 -8l0 0M361.5 -593.5q0 6 13 8q0 -6 -13 -8l0 0M398 -572.5l0 5l15.5 5.5l2.5 0l0 -2.5l-18 -8M424 -557l5 5.5l5.5 0l0 -5.5l-10.5 0M117 -515.5l0 3l2.5 7.5l2.5 0l0 -2.5l-2.5 -8l-2.5 0M104 -510l0 2.5l2.5 8l2.5 0l0 -8l-2.5 -2.5l-2.5 0M91 -489.5l2.5 0l5.5 -5l-3 0l-5 5M481 -302l-5 5l-8 10.5l3 0l13 -13l0 -2.5l-3 0M460.5 -294l-2.5 7.5l0 5.5l2.5 0l2.5 -10.5l0 -2.5l-2.5 0M463 -271l0 3l10.5 0l0 -3l-10.5 0M445 -263l2.5 0l5 -5l-2.5 0l-5 5M429 -247.5l0 5.5l8 -3l0 -2.5l-8 0M398 -221.5l2.5 0l5.5 -5l-3 0l-5 5M429 -208.5l-2.5 2.5l0 3l15.5 -3l0 -2.5l-13 0M374.5 -206l-26 21l0 2.5q28.5 -17 28.5 -23.5l-2.5 0M333 -177l-2.5 2.5l0 2.5l2.5 0l7.5 -2.5l0 -2.5l-7.5 0M309.5 -164q0 5 -8 5l-2.5 2.5l0 2.5l2.5 0l10.5 -10l-2.5 0M286 -148.5l2.5 0l8 -2.5l0 -5.5l-10.5 8M260 -135.5l0 5l8 -2.5l0 -5l-8 2.5M135.5 -83.5l0 7.5l5 0l10.5 -10l-2.5 -3l2.5 -2.5l-15.5 8M117 -65.5l2.5 0l5.5 -5l-3 0l-5 5" />
</g>
<g id="PathID_551" transform="matrix(0.0352941, 0, 0, 0.0352941, 48, 84)">
<path style="fill:#EFF5E2;fill-opacity:1" d="M239.5 -649l7.5 0q39.5 0 86.5 34.5l34.5 42l7.5 -2.5l0 2.5q29 43.5 42 89q8.5 7 17 49.5l-2 7.5q7 0 12 42l-7.5 0q10 16 10 24.5l-2.5 15q4.5 0 12.5 22l-2.5 -2.5l-2.5 0l0 2.5q17.5 2.5 17.5 15q12 5.5 24.5 22.5l-37 42l-7.5 12l2.5 7.5l-2.5 7.5l2.5 12.5l-22 118.5l2.5 10q-12 42 -30 61.5q0 45.5 -71.5 98.5q-43 35.5 -62 37.5l-19.5 -5l-12.5 2.5q-61 0 -121 -72l-34.5 -56.5q0 -22 -15 -42l2.5 -7.5l-7 -7.5l4.5 -7l0 -2.5q-17 0 -22 -94q-4 0 -5 -17.5l0 -14.5l2.5 -10l-2.5 -10l0 -2.5l2.5 -12.5l-42 -44.5l0 -4.5q39.5 -43.5 39.5 -52q0 -46 24.5 -133.5q15 -22.5 22.5 -57q33.5 -58.5 61.5 -66.5l-2.5 -2.5l0 -2.5q24.5 -37 57 -37q6 -12.5 37 -12.5l0 0M225 -580l0 2.5l12 2.5l2.5 0l0 -2.5l-12.5 -2.5l-2 0M247 -575l0 5l12.5 2.5l5 0l0 -2.5l-17.5 -5M190 -530.5l2.5 12.5l0 2.5l-5 5l2.5 19.5l-2.5 111.5l-2 17l2 2.5l0 2.5l-2 2.5l0 2.5l2 2.5l0 2.5l-2 2.5l0 2.5q3.5 16 41.5 54.5l0 2.5q-39.5 44 -39.5 56.5l-2 47l2 10l-4.5 5l4.5 5l0 9.5l-2 2.5l2 2.5l0 2.5l-2 12.5l2 7.5l-2 10l2 61.5l0 2.5q0 5 -9.5 5l0 5q12 0 12 22q12.5 52 49.5 52l12.5 0q38.5 0 57 -66.5q-1.5 -12.5 -7.5 -12.5l5 -15l-5 -17l2.5 -10l-2.5 -54.5l2.5 -2.5l2.5 0l-5 -12l2.5 -22.5l-2.5 -20l2.5 -27q0 -11 -42 -59q42 -47 42 -57l-2.5 -2.5l0 -2.5l7.5 -10q-7.5 -9 -7.5 -17l2.5 -37.5l-2.5 -29.5l2.5 -7.5l-2.5 -14.5l0 -22.5l2.5 -10q-2.5 -19.5 -22.5 -61.5l-2.5 0l-2.5 2.5q-11 -5 -32 -5l-2.5 0q-33 0 -49.5 29.5l-2.5 0M420 -389.5l0 2.5l5 0l9.5 -2.5l0 -2.5l-4.5 0l-10 2.5M380.5 -387l0 5l2.5 0l9.5 -7.5l-2 0l-10 2.5M407.5 -387l0 2.5l10 0l0 -2.5l-10 0M368 -374.5l0 2.5l7.5 0q0 -5 7.5 -5l0 -2.5l-2.5 0l-12.5 5M353 -372l0 2l2.5 2.5l0 2.5l-2.5 2.5l0 5l2.5 0q0 -7.5 7.5 -7.5l7.5 2.5l-12.5 -9.5l-5 0M336 -360l2.5 0l5 -5l-2.5 0l-5 5M427.5 -337.5l0 2.5l9.5 2.5l2.5 0l0 -2.5l-9.5 -2.5l-2.5 0M168 -310.5l0 5l10 -2.5l0 -2.5l-10 0M153 -300.5l2.5 0l5 -5l-2.5 0l-5 5M118.5 -293l0 2.5l2.5 0l12.5 -2.5l0 -5l-15 5M84 -278.5l2.5 0l15 -5l0 -2l-2.5 0q-15 2 -15 7l0 0M89 -68.5l5 5l2.5 0l0 -5l-7.5 0M145.5 -56q0 5 7.5 5l5 0l0 -2.5l-12.5 -2.5M165.5 -48.5q0 5 7.5 5l2.5 0l0 -2.5l-10 -2.5M311 -1.5l10 7l5 0l0 -2.5l-12.5 -4.5l-2.5 0M328.5 5.5l0 5l2.5 0l5 -5l-7.5 0M368 20.5l0 2.5l10 0l0 -2.5l-10 0M267 65l0 2.5l4.5 0l10 -2.5l0 -2.5l-5 0l-9.5 2.5" />
</g>
<g id="PathID_552" transform="matrix(0.0352941, 0, 0, 0.0352941, 96, 84)">
<path style="fill:#EFF5E2;fill-opacity:1" d="M254.5 -650.5l2.5 2.5l2.5 0l16 -2.5l15.5 0l7.5 5l3 -2.5l0 -2.5q59.5 0 122 57l13 13q0 6.5 13 18.5l26 83l2.5 0l0 15.5l-2.5 15.5l5 20.5q-8 0 -8 5.5q8 0 8 7.5q-4 80.5 -18 80.5l2.5 10.5q-21 36.5 -44 62.5q-56.5 57 -127.5 57l-31 0l-44.5 -2.5l0 18q0 5 -7.5 5l7.5 21l-5 15.5l5 5l-2.5 36.5l2.5 34l-5 10l5 5.5l0 10.5l-5 7.5l5 5.5l0 31l-2.5 2.5l2.5 2.5l0 7.5l-5 0q12 47 46.5 47l3 2.5l18 -2.5l8 0l5 5q-52 60 -75.5 60q-49 0 -49 -18.5l-3 2.5l-5 0l-20.5 -5q-20 21 -47 21q-42.5 0 -78 -36.5l-15.5 -26l2.5 -2.5l10.5 0q57 0 57 -21q8 -28 8 -54l-5.5 -15.5l0 -16l5.5 -26l-5.5 -5l0 -18l3 -15.5l-3 -3l0 -2.5l8 -15.5q-8 0 -8 -5l3 -13l-3 -18.5l5.5 -33.5q-4 0 -10.5 -34q-20 -25.5 -26 -26l-7.5 -10l33.5 -41.5l5 -10.5l0 -23.5l3 -36l-3 -8l3 -18l-3 -41.5l3 -10.5l-3 -21l3 -7.5q0 -64.5 -28.5 -73l-16 3l-5 -5.5l-23.5 5.5l0 -5.5q54 -62 119.5 -62q9 0 23.5 20.5l2.5 2.5l2.5 0q30 -28.5 57.5 -33.5l7.5 2.5q0 -10.5 39 -13l0 0M213 -632.5l0 3l18 0l0 -3l-18 0M296 -617l0 3q8 0 8 5l2.5 0l0 -5l-2.5 -3l-8 0M311.5 -614q0 5 8 5l2.5 0l0 -2.5l-10.5 -2.5M324.5 -614l3 7.5l10 0l-2.5 -7.5l-10.5 0M343 -606.5l5 5.5l2.5 0l-5 -5.5l-2.5 0M265 -562l-13 -3l-36.5 34l2.5 13l0 20.5l-5 5.5l2.5 7.5l-2.5 47l5 52l-2.5 10l2.5 21l0 7.5q0 4.5 -26 16l0 2.5l3 0l20.5 -8l0 2.5l-2.5 10.5q0 18 46.5 18l8 3l2.5 -3q49.5 -15.5 49.5 -38.5q6 -2 10.5 -65l-2.5 -15.5l0 -23.5l2.5 -23.5l-2.5 -10.5l2.5 -10q-14 -70 -52 -70l-5.5 -5.5l-7.5 5.5M452 -482l0 5.5l10.5 -5.5l0 -5l-10.5 5M405 -440.5l10.5 -2.5l13 2.5l-5 -7.5l0 -2.5l13 -15.5l0 -3q-15 18.5 -26 18.5l-5.5 10M444 -440.5l0 3l18.5 5l0 -5l-16 -3l-2.5 0M337.5 -404l-2.5 2.5l0 5.5l2.5 0l5.5 -5.5l0 -2.5l-5.5 0M101.5 -289.5l0 2.5l7.5 0l2.5 -2.5l0 -3l-2.5 0l-7.5 3M65 -271.5l-8 10.5l5.5 0q0 -5.5 7.5 -5.5l-5 -5M184.5 -74.5l2.5 0l13 -7.5l0 -5q-10.5 3.5 -15.5 12.5l0 0M161 -53.5l0 2.5l5 0l3 -2.5l0 -2.5l-8 2.5M148 -38l0 2.5l10.5 -5l0 -5l-10.5 7.5M117 -7l2.5 0l8 -7.5l2.5 0l0 -5.5l-13 13M104 3.5l2.5 0l8 -7.5l0 -3l-10.5 10.5M153 1l0 5l10.5 0l0 -2.5l-10.5 -2.5" />
</g>
<g id="PathID_553" transform="matrix(0.0352941, 0, 0, 0.0352941, 0, 132)">
<path style="fill:#EFF5E2;fill-opacity:1" d="M244 -651q31.5 0 80 30l0 7.5q-18 0 -27.5 12.5l2.5 0q13.5 -10 25 -10l2.5 -2.5l0 -2.5q13 3 32.5 20q22 0 22 -22.5l10 0l-2.5 -2.5l0 -2.5q20.5 -27.5 25 -27.5l2.5 2.5l0 12.5l-5 5l5 20l-5 37l5 37.5l-2.5 10l2.5 2.5l-2.5 27.5l2.5 37.5l-5 4.5l2.5 2.5l0 2.5l-2.5 2.5l0 2.5l5 35l0 10q0 18.5 -7.5 20l-2.5 -2.5l-2.5 0l-10 2.5l-2.5 -2.5l-12.5 2.5l-49.5 0q-7.5 -2.5 -7.5 -15l0 -35l2.5 -12.5l-5 -5l0 -5l10 -12l-5 0l0 -37.5l-2.5 -2.5l0 -2.5q5.5 0 7.5 -12.5l-7.5 5l-2.5 0q0 -13 -20 -35l0 -2.5l2.5 -2.5l0 -2.5l-2.5 0l-2.5 2.5l-2.5 0q-26 -7.5 -52.5 -7.5q-57.5 0 -69.5 77.5q0 76.5 84.5 129.5l25 -2.5l25 0q7.5 0 7.5 27.5l-2.5 0l15 34.5q94.5 86 94.5 122q5 0 10 25l-2.5 10l0 7.5l5 7.5l-2.5 15l2.5 12.5l-5 12.5l2.5 2.5l2.5 0q-4 52 -17.5 52l2.5 10q-36.5 89.5 -74.5 104.5q-14 22.5 -72.5 35q-9.5 5 -27.5 5l-22.5 0q-29.5 0 -97 -40l-35 -37.5q-5.5 -10.5 -27 -25q-22.5 -49.5 -22.5 -62l2.5 -10l-2.5 -10l2.5 -14.5l-2.5 -2.5l0 -2.5l2.5 -10l-2.5 -7.5q4 0 7.5 -17.5q-7.5 -35 -17.5 -35l-7.5 0q-9 0 -20 10l-2.5 0l0 -5q13 -42.5 42.5 -42.5l37 10l0 -2.5q22 -17.5 32.5 -17.5l17.5 0q22 0 35 45l0 7.5l-5 0q0 -10 -15 -12.5l-7.5 2.5l2.5 2.5l0 20l-5 7.5l0 2.5l5 7.5l0 10l-5 17.5l2.5 2.5l2.5 0l-2.5 12.5l2.5 17q-5 0 -5 7.5q6 27.5 42.5 62q29.5 20 44.5 20l30 0q11.5 0 37.5 -30l15 5l2.5 0l0 -2.5l-15 -2.5l0 -5q13 -27 17.5 -79q-7.5 -32.5 -35 -70q-29.5 -35 -40 -35l-42 -2.5l-25 2.5l-2.5 -2.5l0 -2.5l2.5 -2.5l0 -2.5l-5 -19.5l0 -17.5q-16.5 -32 -45 -47.5q-26 -32.5 -44.5 -45l-22.5 -44.5l2.5 -7.5l-7.5 -20l2.5 -2.5l-10 -42.5l0 -5l12.5 -69.5l2.5 -2.5l-2.5 -2.5l0 -2.5q17 -58.5 84.5 -102l65 -25l44.5 -2.5M259 -591l0 4.5l7.5 -2l0 -2.5l-7.5 0M224 -584l0 5l7.5 -2.5l0 -2.5l-7.5 0M199.5 -574l0 2.5l5 0l7.5 -2.5l0 -2.5l-2.5 0l-10 2.5M114.5 -534l2.5 0l15 -5l0 -2.5l-2.5 0q-15 2.5 -15 7.5l0 0M122 -529l-2.5 2.5l0 2.5l2.5 0l7.5 -2.5l0 -2.5l-7.5 0M92 -511.5l-2.5 2.5l0 2.5l2.5 0l7.5 -2.5l0 -2.5l-7.5 0M403.5 -506.5l2.5 0l5 -5l-2.5 0l-5 5M356.5 -484l0 5l19.5 -10l0 -5l-19.5 10M52.5 -484l0 2.5l10 0l0 -2.5l-10 0M331.5 -469l0 2.5l5 0l10 -7.5l-2.5 0l-12.5 5M162 -384.5l0 2.5l5 0l7.5 -2.5l0 -2.5l-5 0l-7.5 2.5M152 -379.5l0 5l7.5 -2.5l0 -2.5l-7.5 0M134.5 -367l2.5 0l5 -5l-2.5 0l-5 5M119.5 -359.5l2.5 0l5 -5l0 -2.5l-7.5 7.5M92 -347l2.5 0l5 -5l-2.5 0l-5 5M74.5 -70.5l0 2l12.5 0l0 -2l-12.5 0M109.5 -56l0 5l17.5 5q0 -4 -17.5 -10l0 0M314 11l0 2.5l10 2.5l5 0l0 -2.5l-12.5 -2.5l-2.5 0M339 21l0 2.5l17.5 2.5q0 -5 -7.5 -5l-10 0M361.5 26l0 5l9.5 0l0 -2.5l-9.5 -2.5" />
</g>
<g id="PathID_554" transform="matrix(0.0352941, 0, 0, 0.0352941, 48, 132)">
<path style="fill:#EFF5E2;fill-opacity:1" d="M192 -648.5q30 0 41.5 19q22.5 0 42 67.5l-3.5 3l-25.5 -12.5l-25.5 9.5q0 20.5 16 45q0 13 13 38l-13 0l0 3.5q16 0 16 6.5l19 41.5q5.5 0 35.5 -77l12.5 -22.5l-3 -3l0 -3.5l9.5 -25.5q-4.5 -16 -22.5 -16q-8 0 -9.5 13l-3 3l-6.5 0l0 -6.5q14 -42.5 51 -60.5l29 -13q14 0.5 32 13l6.5 0l16 -13l3 0q12 0 29 13l-3 3l0 6.5l3 -3l9.5 0q38.5 43 38.5 60.5q-13.5 -12.5 -25.5 -12.5l-29 35l-9.5 0l0 3l6.5 0l0 3.5l-16 19q0 8 -9.5 16l6 6.5l-25.5 41.5l-3 10l3 9.5q-8.5 0 -22.5 32q-8 0 -22.5 51l0 9.5q0 15.5 32 51.5l0 3q-51 51 -51 67.5l-3 19l3 80l-3 3.5l-3.5 0l6.5 19l-3 3l0 3.5l3 3l0 3.5l-3 16l3 12.5l-3 35.5l0 22l-3.5 13q16.5 35 38.5 35l29 -6.5l0 6.5q-51 54.5 -74 54.5l-3 -3.5q0 13 -41.5 16.5l-22.5 -16.5q-11.5 10 -38.5 10l-3 0q-30.5 0 -67.5 -35.5l-3 3.5l-3.5 0q-32 -25.5 -38 -45l3 0l45 13l16 0q11.5 -6 16 -19.5l-3.5 -54l3.5 -13l-6.5 -6.5l0 -3l3 -16l-3 -19l0 -19.5l3 0l13 9.5l3 0l-22.5 -22l3.5 -10l-3.5 -19l3.5 -64q0 -35 -54.5 -77l0 -3l29 -38.5l-48 -128q-5 0 -10 -13l3.5 -16l-3.5 3.5l-3 0l-6.5 -9.5q0 -6.5 9.5 -6.5l0 -3.5q-22 0 -32 -44.5l-19 -32l-38.5 9.5l0 -3.5q7 -20 77 -73.5l32 -3l25.5 16q12 0 38.5 -22.5l19 0M387.5 -520.5l-3.5 3.5l0 3l3.5 0l9.5 -3l0 -3.5l-9.5 0M198.5 -472.5l-3 9.5l9.5 0l3 -9.5l-9.5 0M125 -453l-6.5 6l-9.5 -3l0 6.5l3 0q13 0 35.5 -13l0 6.5l3 0q12 -11 32 -13l0 -3l-3 0l-54.5 13M336 -357l0 3l13 -13l0 -3l-13 13M301 -341l3 3l0 3l-3 3.5l0 3l3 0l3.5 -3l3 0l-3 -13l-3.5 3.5l-3 0M282 -325q0 6 -22.5 12.5l0 6.5q16.5 -13 38.5 -13l0 -3l-16 -3M205 -283.5l3 0q16 -4 16 -9.5l-3 0q-16 4 -16 9.5l0 0M179.5 -280.5l0 6.5l9.5 -3l0 -3.5l-9.5 0M150.5 -264.5l0 3.5l9.5 0l0 -6.5l-9.5 3M205 -78.5l16 12.5l0 -6.5l-13 -6l-3 0M176 -75.5l0 3l13 3.5l3 0l0 -3.5l-12.5 -3l-3.5 0M272 -30.5l6.5 6l3.5 0l-6.5 -6l-3.5 0M285 -21l9.5 9.5l9.5 0l0 -3q-12.5 0 -12.5 -6.5l-6.5 0" />
</g>
</svg>
