<?xml version="1.0" encoding="utf-8"?>
<svg version="1.1" id="Layer_1"
xmlns="http://www.w3.org/2000/svg"
xmlns:xlink="http://www.w3.org/1999/xlink"
xmlns:author="http://www.sothink.com"
width="212px" height="260px"
xml:space="preserve">
<g id="PathID_574" transform="matrix(0.0352941, 0, 0, 0.0352941, 48, 37.8)">
<path style="fill:#EFF5E2;fill-opacity:1" d="M732 -228q0 54 -21.5 96.5q-22 42.5 -60 70.5q-44 33 -96.5 47q-53 14 -134 14l-325 0l0 -744.5l289 0q90 0 132 6q41.5 6 82.5 26.5q42.5 21.5 63.5 58q20.5 36 20.5 82.5q0 54 -28.5 95.5q-28.5 41 -80.5 64l0 4q73 14.5 116 60q42.5 45.5 42.5 120l0 0M486 -534q0 -18.5 -9 -37q-9.5 -18.5 -33 -27.5q-21 -8 -52 -8.5q-31.5 -1 -88 -1l-18 0l0 157.5l30 0q45.5 0 77.5 -1.5q32 -1.5 50.5 -10q26 -11.5 34 -29.5q8 -18.5 8 -42.5l0 0M532.5 -231q0 -35.5 -13.5 -54.5q-14 -19.5 -47 -29q-22.5 -6.5 -61.5 -7q-39.5 -0.5 -82.5 -0.5l-42 0l0 185.5l14 0q81 0 115.5 -0.5q35 -0.5 64.5 -13q30 -12.5 41.5 -33q11 -21 11 -48l0 0" />
</g>
<g id="PathID_575" transform="matrix(0.0352941, 0, 0, 0.0352941, 96, 37.8)">
<path style="fill:#EFF5E2;fill-opacity:1" d="M633.5 0l-538.5 0l0 -744.5l538.5 0l0 144l-347.5 0l0 128.5l322.5 0l0 144l-322.5 0l0 184l347.5 0l0 144" />
</g>
<g id="PathID_576" transform="matrix(0.0352941, 0, 0, 0.0352941, 144, 37.8)">
<path style="fill:#EFF5E2;fill-opacity:1" d="M497.5 0l-436 0l0 -132l122 0l0 -480.5l-122 0l0 -132l436 0l0 132l-122 0l0 480.5l122 0l0 132" />
</g>
<g id="PathID_577" transform="matrix(0.0352941, 0, 0, 0.0352941, 0, 84)">
<path style="fill:#EFF5E2;fill-opacity:1" d="M790 0l-236 0l-222.5 -298l-44.5 55l0 243l-192 0l0 -744.5l192 0l0 337.5l266 -337.5l222.5 0l-291 344.5l305.5 400" />
</g>
<g id="PathID_578" transform="matrix(0.0352941, 0, 0, 0.0352941, 48, 84)">
<path style="fill:#EFF5E2;fill-opacity:1" d="M632 0l-537 0l0 -744.5l192 0l0 600.5l345 0l0 144" />
</g>
<g id="PathID_579" transform="matrix(0.0352941, 0, 0, 0.0352941, 96, 84)">
<path style="fill:#EFF5E2;fill-opacity:1" d="M772 0l-185 0l-316 -511l0 511l-176 0l0 -744.5l229.5 0l271.5 426.5l0 -426.5l176 0l0 744.5" />
</g>
<g id="PathID_580" transform="matrix(0.0352941, 0, 0, 0.0352941, 144, 84)">
<path style="fill:#EFF5E2;fill-opacity:1" d="M677.5 -600.5l-232.5 0l0 600.5l-192 0l0 -600.5l-232.5 0l0 -144l657 0l0 144" />
</g>
<g id="PathID_581" transform="matrix(0.0352941, 0, 0, 0.0352941, 0, 132)">
<path style="fill:#EFF5E2;fill-opacity:1" d="M770 0l-222 0l-160.5 -244.5l-163.5 244.5l-212 0l264 -375l-258.5 -369.5l221.5 0l155 232l159.5 -232l212.5 0l-260 361.5l264 383" />
</g>
<g id="PathID_582" transform="matrix(0.0352941, 0, 0, 0.0352941, 48, 132)">
<path style="fill:#EFF5E2;fill-opacity:1" d="M631 0l-180.5 0l0 -58.5q-46.5 38 -87 56q-40.5 18 -93.5 18q-102 0 -163.5 -79q-61.5 -79 -61.5 -213q0 -71.5 20.5 -126.5q21 -55.5 57 -95q34 -37.5 82.5 -58q48 -21 96.5 -21q50.5 0 83 11q32 10.5 66 27l0 -239l180.5 0l0 778M450.5 -154.5l0 -276q-19 -8 -40 -11.5q-21 -3.5 -38.5 -3.5q-70.5 0 -106 44.5q-35.5 44 -35.5 123q0 82.5 28.5 119.5q28.5 37.5 91 37.5q24.5 0 52 -9.5q27.5 -9 48.5 -24l0 0" />
</g>
<g id="PathID_583" transform="matrix(0.0352941, 0, 0, 0.0352941, 96, 132)">
<path style="fill:#EFF5E2;fill-opacity:1" d="M638 -247.5l-412 0q4 66 50.5 101q46 35 136 35q57 0 110.5 -20.5q53.5 -20.5 84.5 -44l20 0l0 144.5q-61 24.5 -115 35.5q-54 11 -119.5 11q-169 0 -259 -76q-90 -76 -90 -216.5q0 -139 85.5 -220q85 -81.5 233.5 -81.5q137 0 206 69.5q69 69 69 199l0 63M459 -353q-1.5 -56.5 -28 -85q-26.5 -28.5 -82.5 -28.5q-52 0 -85.5 27q-33.5 27 -37.5 86.5l233.5 0" />
</g>
<g id="PathID_584" transform="matrix(0.0352941, 0, 0, 0.0352941, 144, 132)">
<path style="fill:#EFF5E2;fill-opacity:1" d="M659 -280.5q0 138.5 -80.5 218.5q-81 79.5 -227 79.5q-146 0 -226.5 -79.5q-81 -80 -81 -218.5q0 -139.5 81.5 -219q81 -79.5 226 -79.5q147 0 227.5 80q80 80 80 218.5l0 0M437.5 -144q17.5 -21.5 26.5 -51.5q8.5 -30.5 8.5 -84q0 -49.5 -9 -83q-9 -33.5 -25 -53.5q-16 -20.5 -38.5 -29q-22.5 -8.5 -48.5 -8.5q-26 0 -46 7q-20.5 7 -39 28q-16.5 19.5 -26 53.5q-10 34 -10 85.5q0 46 8.5 80q8.5 33.5 25 54q16 19.5 38.5 28.5q22 9 50.5 9q24.5 0 47 -8q22 -8.5 37.5 -28l0 0" />
</g>
<g id="PathID_585" transform="matrix(0.0352941, 0, 0, 0.0352941, 0, 180)">
<path style="fill:#EFF5E2;fill-opacity:1" d="M444 -5q-29 7.5 -61.5 12q-32.5 4 -79.5 4q-105 0 -156 -42.5q-51.5 -42.5 -51.5 -145.5l0 -262.5l-74 0l0 -122l74 0l0 -160.5l180.5 0l0 160.5l168 0l0 122l-168 0l0 199.5q0 29.5 0.5 51.5q0.5 22 8 39.5q7 17.5 24.5 27.5q18 10.5 52 10.5q13.5 0 36.5 -6q22.5 -6 31.5 -11l15 0l0 123" />
</g>
<g id="PathID_586" transform="matrix(0.0352941, 0, 0, 0.0352941, 48, 180)">
<path style="fill:#EFF5E2;fill-opacity:1" d="M672 0l-210 0l-120 -168l-123 168l-206 0l221.5 -281l-218 -280.5l210 0l118 165l118.5 -165l206.5 0l-218.5 276.5l221 285" />
</g>
<g id="PathID_587" transform="matrix(0.0352941, 0, 0, 0.0352941, 96, 180)">
<path style="fill:#EFF5E2;fill-opacity:1" d="M338.5 -198.5l128 -363l185 0l-312 767.5l-195.5 0l89.5 -210.5l-218.5 -557l189 0l134.5 363" />
</g>
</svg>
