<?xml version="1.0" encoding="utf-8"?>
<svg version="1.1" id="Layer_1"
xmlns="http://www.w3.org/2000/svg"
xmlns:xlink="http://www.w3.org/1999/xlink"
xmlns:author="http://www.sothink.com"
width="500px" height="548px"
xml:space="preserve">
<g id="PathID_588" transform="matrix(0.0352941, 0, 0, 0.0352941, 48, 37.8)">
<path style="fill:#EFF5E2;fill-opacity:1" d="M92 -399.5l-30.5 31l-31 -31l0 -246l30.5 -30.5l20.5 20.5l0 92l10.5 20.5l0 143.5M92 -174l-10.5 20.5l0 41l-20.5 20.5l-30.5 -31l0 -194.5l31 -30.5l30.5 30.5l0 143.5M91.5 -30.5l-30.5 30.5l-30 -30.5l30.5 -30.5l30 30.5" />
</g>
<g id="PathID_589" transform="matrix(0.0352941, 0, 0, 0.0352941, 96, 37.8)">
<path style="fill:#EFF5E2;fill-opacity:1" d="M163.5 -624.5l-31 31l-30.5 -31l0 -61.5l30.5 -31l31 31l0 61.5M92 -624.5l-30.5 30.5l-31 -30.5l0 -61.5l31 -31l30.5 31l0 61.5" />
</g>
<g id="PathID_590" transform="matrix(0.0352941, 0, 0, 0.0352941, 144, 37.8)">
<path style="fill:#EFF5E2;fill-opacity:1" d="M379 -686l-31 30.5l-245.5 0l-31 -30.5l31 -31l245.5 0l31 31M420 -399.5l-31 31l-30.5 -31l0 -143l10 -20.5l0 -92.5l20.5 -20.5l31 31l0 245.5M358.5 -563l-102.5 163.5l0 -82l102.5 -163.5l0 82M256 -502l-10 20.5l0 92.5l-20.5 20.5l-20.5 -20.5l0 -92.5l-10.5 -20.5l0 -143l61.5 0l0 143M194.5 -399.5l-102.5 -163.5l0 -82l102.5 163.5l0 82M379 -358.5l-31 31l-87 0l-30.5 -31l30.5 -30.5l87 0l31 30.5M92 -399.5l-30.5 31l-31 -31l0 -245.5l31 -31l20.5 20.5l0 92.5l10 20.5l0 143M420 -71.5l-31 30.5l-20.5 -20.5l0 -92l-10 -20.5l0 -143.5l30.5 -30.5l31 30.5l0 246M220 -358.5l-30.5 31l-87 0l-31 -31l31 -30.5l87 0l30.5 30.5M358.5 -71.5l-102.5 -164l0 -82l102.5 164l0 82M256 -71.5l-61.5 0l0 -143.5l10.5 -20.5l0 -92l20.5 -20.5l20.5 20.5l0 92l10 20.5l0 143.5M194.5 -235.5l-102.5 164l0 -82l102.5 -164l0 82M92 -174l-10 20.5l0 92l-20.5 20.5l-31 -30.5l0 -246l31 -30.5l30.5 30.5l0 143.5M379 -30.5l-31 30.5l-245.5 0l-31 -30.5l31 -31l245.5 0l31 31" />
</g>
<g id="PathID_591" transform="matrix(0.0352941, 0, 0, 0.0352941, 192, 37.8)">
<path style="fill:#EFF5E2;fill-opacity:1" d="M256 -727l-61.5 0l0 -41l31 -30.5l30.5 30.5l0 41M379 -686l-31 30.5l-245.5 0l-31 -30.5l31 -31l245.5 0l31 31M256 -502l-10 20.5l0 92.5l-20.5 20.5l-20.5 -20.5l0 -92.5l-10.5 -20.5l0 -143l61.5 0l0 143M379 -358.5l-31 31l-87 0l-30.5 -31l30.5 -30.5l87 0l31 30.5M92 -399.5l-30.5 31l-31 -31l0 -245.5l31 -31l20.5 20.5l0 92.5l10 20.5l0 143M420 -71.5l-31 30.5l-20.5 -20.5l0 -92l-10 -20.5l0 -143.5l30.5 -30.5l31 30.5l0 246M220 -358.5l-30.5 31l-87 0l-31 -31l31 -30.5l87 0l30.5 30.5M256 -71.5l-61.5 0l0 -143.5l10.5 -20.5l0 -92l20.5 -20.5l20.5 20.5l0 92l10 20.5l0 143.5M379 -30.5l-31 30.5l-245.5 0l-31 -30.5l31 -31l245.5 0l31 31M256 51l-30.5 31l-31 -31l0 -41l61.5 0l0 41" />
</g>
<g id="PathID_592" transform="matrix(0.0352941, 0, 0, 0.0352941, 240, 37.8)">
<path style="fill:#EFF5E2;fill-opacity:1" d="M379 -686l-31 30.5l-245.5 0l-31 -30.5l31 -31l245.5 0l31 31M420 -399.5l-31 31l-30.5 -31l0 -143l10 -20.5l0 -92.5l20.5 -20.5l31 31l0 245.5M358.5 -563l-102.5 163.5l0 -82l102.5 -163.5l0 82M256 -502l-10 20.5l0 92.5l-20.5 20.5l-20.5 -20.5l0 -92.5l-10.5 -20.5l0 -143l61.5 0l0 143M194.5 -399.5l-102.5 -163.5l0 -82l102.5 163.5l0 82M379 -358.5l-31 31l-87 0l-30.5 -31l30.5 -30.5l87 0l31 30.5M92 -399.5l-30.5 31l-31 -31l0 -245.5l31 -31l20.5 20.5l0 92.5l10 20.5l0 143M420 -71.5l-31 30.5l-20.5 -20.5l0 -92l-10 -20.5l0 -143.5l30.5 -30.5l31 30.5l0 246M220 -358.5l-30.5 31l-87 0l-31 -31l31 -30.5l87 0l30.5 30.5M358.5 -71.5l-102.5 -164l0 -82l102.5 164l0 82M256 -71.5l-61.5 0l0 -143.5l10.5 -20.5l0 -92l20.5 -20.5l20.5 20.5l0 92l10 20.5l0 143.5M194.5 -235.5l-102.5 164l0 -82l102.5 -164l0 82M92 -174l-10 20.5l0 92l-20.5 20.5l-31 -30.5l0 -246l31 -30.5l30.5 30.5l0 143.5M379 -30.5l-31 30.5l-245.5 0l-31 -30.5l31 -31l245.5 0l31 31" />
</g>
<g id="PathID_593" transform="matrix(0.0352941, 0, 0, 0.0352941, 288, 37.8)">
<path style="fill:#EFF5E2;fill-opacity:1" d="M378.5 -686l-30.5 30.5l-246 0l-30.5 -30.5l30.5 -31l246 0l30.5 31M92 -399.5l-30.5 31l-31 -31l0 -245.5l30.5 -31l20.5 20.5l0 92.5l10.5 20.5l0 143M419.5 -71.5l-30.5 30.5l-20.5 -20.5l0 -92l-10.5 -20.5l0 -143.5l31 -30.5l30.5 30.5l0 246M220 -358l-31 30.5l-87 0l-30.5 -30.5l30.5 -31l87 0l31 31M92 -174l-10.5 20.5l0 92l-20.5 20.5l-30.5 -30.5l0 -246l31 -30.5l30.5 30.5l0 143.5M378.5 -30.5l-30.5 30.5l-246 0l-30.5 -30.5l30.5 -31l246 0l30.5 31" />
</g>
<g id="PathID_594" transform="matrix(0.0352941, 0, 0, 0.0352941, 336, 37.8)">
<path style="fill:#EFF5E2;fill-opacity:1" d="M92 -624.5l-31 30.5l-30.5 -30.5l0 -61.5l31 -31l30.5 31l0 61.5" />
</g>
<g id="PathID_595" transform="matrix(0.0352941, 0, 0, 0.0352941, 384, 37.8)">
<path style="fill:#EFF5E2;fill-opacity:1" d="M220 -686l-31 30.5l-87 0l-30.5 -30.5l30.5 -31l87 0l31 31M92 -399.5l-30.5 31l-31 -31l0 -245.5l30.5 -31l20.5 20.5l0 92.5l10.5 20.5l0 143M92 -174l-10.5 20.5l0 92l-20.5 20.5l-30.5 -30.5l0 -246l31 -30.5l30.5 30.5l0 143.5M220 -30.5l-31 30.5l-87 0l-30.5 -30.5l30.5 -31l87 0l31 31" />
</g>
<g id="PathID_596" transform="matrix(0.0352941, 0, 0, 0.0352941, 432, 37.8)">
<path style="fill:#EFF5E2;fill-opacity:1" d="M179 -686l-30.5 30.5l-87.5 0l-30.5 -30.5l30.5 -31l87.5 0l30.5 31M220 -399.5l-30.5 31l-31 -31l0 -143l10.5 -20.5l0 -92.5l20.5 -20.5l30.5 31l0 245.5M220 -71.5l-30.5 30.5l-20.5 -20.5l0 -92l-10.5 -20.5l0 -143.5l31 -30.5l30.5 30.5l0 246M179 -30.5l-30.5 30.5l-87.5 0l-30.5 -30.5l30.5 -31l87.5 0l30.5 31" />
</g>
<g id="PathID_597" transform="matrix(0.0352941, 0, 0, 0.0352941, 0, 84)">
<path style="fill:#EFF5E2;fill-opacity:1" d="M358.5 -564l-102.5 164l0 -81.5l102.5 -163.5l0 81M256 -501.5l-10.5 20.5l0 92l-20.5 20.5l-20.5 -20.5l0 -92l-10 -20.5l0 -143.5l61.5 0l0 143.5M194.5 -400.5l-102.5 -163.5l0 -81l102.5 163.5l0 81M378.5 -358.5l-30.5 31l-87 0l-31 -31l31 -30.5l87 0l30.5 30.5M220 -358.5l-30.5 31l-87.5 0l-30.5 -31l30.5 -30.5l87.5 0l30.5 30.5M358.5 -71.5l-102.5 -164l0 -81l102.5 164l0 81M256 -71.5l-61.5 0l0 -143.5l10 -20.5l0 -92l20.5 -20.5l20.5 20.5l0 92l10.5 20.5l0 143.5M194.5 -235.5l-102.5 164l0 -81l102.5 -164l0 81" />
</g>
<g id="PathID_598" transform="matrix(0.0352941, 0, 0, 0.0352941, 48, 84)">
<path style="fill:#EFF5E2;fill-opacity:1" d="M256 -501.5l-10.5 20.5l0 92l-20.5 20.5l-20.5 -20.5l0 -92l-10 -20.5l0 -143.5l61.5 0l0 143.5M378.5 -358.5l-30.5 31l-87 0l-31 -31l31 -30.5l87 0l30.5 30.5M220 -358.5l-30.5 31l-87.5 0l-30.5 -31l30.5 -30.5l87.5 0l30.5 30.5M256 -71.5l-61.5 0l0 -143.5l10 -20.5l0 -92l20.5 -20.5l20.5 20.5l0 92l10.5 20.5l0 143.5" />
</g>
<g id="PathID_599" transform="matrix(0.0352941, 0, 0, 0.0352941, 96, 84)">
<path style="fill:#EFF5E2;fill-opacity:1" d="M92 30.5l-31 31l-30.5 -31l0 -61.5l31 -30.5l30.5 30.5l0 61.5" />
</g>
<g id="PathID_600" transform="matrix(0.0352941, 0, 0, 0.0352941, 144, 84)">
<path style="fill:#EFF5E2;fill-opacity:1" d="M378.5 -358l-30.5 30.5l-87 0l-31 -30.5l31 -31l87 0l30.5 31M220 -358l-30.5 30.5l-87.5 0l-30.5 -30.5l30.5 -31l87.5 0l30.5 31" />
</g>
<g id="PathID_601" transform="matrix(0.0352941, 0, 0, 0.0352941, 192, 84)">
<path style="fill:#EFF5E2;fill-opacity:1" d="M91.5 -30.5l-30.5 30.5l-30 -30.5l30 -30.5l30.5 30.5" />
</g>
<g id="PathID_602" transform="matrix(0.0352941, 0, 0, 0.0352941, 240, 84)">
<path style="fill:#EFF5E2;fill-opacity:1" d="M358 -564l-102 164l0 -81.5l102 -163.5l0 81M194.5 -235l-102.5 163.5l0 -81l102.5 -164l0 81.5" />
</g>
<g id="PathID_603" transform="matrix(0.0352941, 0, 0, 0.0352941, 288, 84)">
<path style="fill:#EFF5E2;fill-opacity:1" d="M378.5 -686l-30.5 30.5l-246 0l-30.5 -30.5l30.5 -31l246 0l30.5 31M419.5 -399.5l-30.5 31l-31 -31l0 -143l10.5 -20.5l0 -92.5l20.5 -20.5l30.5 31l0 245.5M92 -399.5l-30.5 31l-31 -31l0 -245.5l30.5 -31l20.5 20.5l0 92.5l10.5 20.5l0 143M419.5 -71.5l-30.5 30.5l-20.5 -20.5l0 -92l-10.5 -20.5l0 -143.5l31 -30.5l30.5 30.5l0 246M92 -174l-10.5 20.5l0 92l-20.5 20.5l-30.5 -30.5l0 -246l31 -30.5l30.5 30.5l0 143.5M378.5 -30.5l-30.5 30.5l-246 0l-30.5 -30.5l30.5 -31l246 0l30.5 31" />
</g>
<g id="PathID_604" transform="matrix(0.0352941, 0, 0, 0.0352941, 336, 84)">
<path style="fill:#EFF5E2;fill-opacity:1" d="M420 -399.5l-30.5 31l-31 -31l0 -143.5l10.5 -20.5l0 -92l20.5 -20.5l30.5 30.5l0 246M420 -71.5l-30.5 30.5l-20.5 -20.5l0 -92l-10.5 -20.5l0 -143.5l31 -30.5l30.5 30.5l0 246" />
</g>
<g id="PathID_605" transform="matrix(0.0352941, 0, 0, 0.0352941, 384, 84)">
<path style="fill:#EFF5E2;fill-opacity:1" d="M378.5 -686l-30.5 30.5l-246 0l-30.5 -30.5l30.5 -31l246 0l30.5 31M419.5 -399.5l-30.5 31l-31 -31l0 -143l10.5 -20.5l0 -92.5l20.5 -20.5l30.5 31l0 245.5M378.5 -358l-30.5 30.5l-87 0l-31 -30.5l31 -31l87 0l30.5 31M220 -358l-31 30.5l-87 0l-30.5 -30.5l30.5 -31l87 0l31 31M92 -174l-10.5 20.5l0 92l-20.5 20.5l-30.5 -30.5l0 -246l31 -30.5l30.5 30.5l0 143.5M378.5 -30.5l-30.5 30.5l-246 0l-30.5 -30.5l30.5 -31l246 0l30.5 31" />
</g>
<g id="PathID_606" transform="matrix(0.0352941, 0, 0, 0.0352941, 432, 84)">
<path style="fill:#EFF5E2;fill-opacity:1" d="M378.5 -686l-30.5 30.5l-246 0l-30.5 -30.5l30.5 -31l246 0l30.5 31M419.5 -399.5l-30.5 31l-31 -31l0 -143l10.5 -20.5l0 -92.5l20.5 -20.5l30.5 31l0 245.5M378.5 -358l-30.5 30.5l-87 0l-31 -30.5l31 -31l87 0l30.5 31M419.5 -71.5l-30.5 30.5l-20.5 -20.5l0 -92l-10.5 -20.5l0 -143.5l31 -30.5l30.5 30.5l0 246M220 -358l-30.5 30.5l-87.5 0l-30.5 -30.5l30.5 -31l87.5 0l30.5 31M378.5 -30.5l-30.5 30.5l-246 0l-30.5 -30.5l30.5 -31l246 0l30.5 31" />
</g>
<g id="PathID_607" transform="matrix(0.0352941, 0, 0, 0.0352941, 0, 132)">
<path style="fill:#EFF5E2;fill-opacity:1" d="M419.5 -399.5l-30.5 31l-31 -31l0 -143.5l10.5 -20.5l0 -92l20.5 -20.5l30.5 30.5l0 246M378.5 -358l-30.5 30.5l-87 0l-31 -30.5l31 -31l87 0l30.5 31M92 -399.5l-30.5 31l-31 -31l0 -246l30.5 -30.5l20.5 20.5l0 92l10.5 20.5l0 143.5M419.5 -71.5l-30.5 30.5l-20.5 -20.5l0 -92l-10.5 -20.5l0 -143.5l31 -30.5l30.5 30.5l0 246M220 -358l-31 30.5l-87 0l-30.5 -30.5l30.5 -31l87 0l31 31" />
</g>
<g id="PathID_608" transform="matrix(0.0352941, 0, 0, 0.0352941, 48, 132)">
<path style="fill:#EFF5E2;fill-opacity:1" d="M378.5 -686l-30.5 30.5l-246 0l-30.5 -30.5l30.5 -31l246 0l30.5 31M378.5 -358l-30.5 30.5l-87 0l-31 -30.5l31 -31l87 0l30.5 31M92 -399.5l-30.5 31l-31 -31l0 -245.5l30.5 -31l20.5 20.5l0 92.5l10.5 20.5l0 143M419.5 -71.5l-30.5 30.5l-20.5 -20.5l0 -92l-10.5 -20.5l0 -143.5l31 -30.5l30.5 30.5l0 246M220 -358l-31 30.5l-87 0l-30.5 -30.5l30.5 -31l87 0l31 31M378.5 -30.5l-30.5 30.5l-246 0l-30.5 -30.5l30.5 -31l246 0l30.5 31" />
</g>
<g id="PathID_609" transform="matrix(0.0352941, 0, 0, 0.0352941, 96, 132)">
<path style="fill:#EFF5E2;fill-opacity:1" d="M378.5 -686l-30.5 30.5l-246 0l-30.5 -30.5l30.5 -31l246 0l30.5 31M378.5 -358l-30.5 30.5l-87 0l-31 -30.5l31 -31l87 0l30.5 31M92 -399.5l-30.5 31l-31 -31l0 -245.5l30.5 -31l20.5 20.5l0 92.5l10.5 20.5l0 143M419.5 -71.5l-30.5 30.5l-20.5 -20.5l0 -92l-10.5 -20.5l0 -143.5l31 -30.5l30.5 30.5l0 246M220 -358l-31 30.5l-87 0l-30.5 -30.5l30.5 -31l87 0l31 31M92 -174l-10.5 20.5l0 92l-20.5 20.5l-30.5 -30.5l0 -246l31 -30.5l30.5 30.5l0 143.5M378.5 -30.5l-30.5 30.5l-246 0l-30.5 -30.5l30.5 -31l246 0l30.5 31" />
</g>
<g id="PathID_610" transform="matrix(0.0352941, 0, 0, 0.0352941, 144, 132)">
<path style="fill:#EFF5E2;fill-opacity:1" d="M378.5 -686l-30.5 30.5l-246 0l-30.5 -30.5l30.5 -31l246 0l30.5 31M419.5 -399.5l-30.5 31l-31 -31l0 -143l10.5 -20.5l0 -92.5l20.5 -20.5l30.5 31l0 245.5M419.5 -71.5l-30.5 30.5l-20.5 -20.5l0 -92l-10.5 -20.5l0 -143.5l31 -30.5l30.5 30.5l0 246" />
</g>
<g id="PathID_611" transform="matrix(0.0352941, 0, 0, 0.0352941, 192, 132)">
<path style="fill:#EFF5E2;fill-opacity:1" d="M378.5 -686l-30.5 30.5l-246 0l-30.5 -30.5l30.5 -31l246 0l30.5 31M419.5 -399.5l-30.5 31l-31 -31l0 -143l10.5 -20.5l0 -92.5l20.5 -20.5l30.5 31l0 245.5M378.5 -358l-30.5 30.5l-87 0l-31 -30.5l31 -31l87 0l30.5 31M92 -399.5l-30.5 31l-31 -31l0 -245.5l30.5 -31l20.5 20.5l0 92.5l10.5 20.5l0 143M419.5 -71.5l-30.5 30.5l-20.5 -20.5l0 -92l-10.5 -20.5l0 -143.5l31 -30.5l30.5 30.5l0 246M220 -358l-31 30.5l-87 0l-30.5 -30.5l30.5 -31l87 0l31 31M92 -174l-10.5 20.5l0 92l-20.5 20.5l-30.5 -30.5l0 -246l31 -30.5l30.5 30.5l0 143.5M378.5 -30.5l-30.5 30.5l-246 0l-30.5 -30.5l30.5 -31l246 0l30.5 31" />
</g>
<g id="PathID_612" transform="matrix(0.0352941, 0, 0, 0.0352941, 240, 132)">
<path style="fill:#EFF5E2;fill-opacity:1" d="M378.5 -686l-30.5 30.5l-246 0l-30.5 -30.5l30.5 -31l246 0l30.5 31M419.5 -399.5l-30.5 31l-31 -31l0 -143l10.5 -20.5l0 -92.5l20.5 -20.5l30.5 31l0 245.5M378.5 -358l-30.5 30.5l-87 0l-31 -30.5l31 -31l87 0l30.5 31M92 -399.5l-30.5 31l-31 -31l0 -245.5l30.5 -31l20.5 20.5l0 92.5l10.5 20.5l0 143M419.5 -71.5l-30.5 30.5l-20.5 -20.5l0 -92l-10.5 -20.5l0 -143.5l31 -30.5l30.5 30.5l0 246M220 -358l-31 30.5l-87 0l-30.5 -30.5l30.5 -31l87 0l31 31M378.5 -30.5l-30.5 30.5l-246 0l-30.5 -30.5l30.5 -31l246 0l30.5 31" />
</g>
<g id="PathID_613" transform="matrix(0.0352941, 0, 0, 0.0352941, 288, 132)">
<path style="fill:#EFF5E2;fill-opacity:1" d="M92 -317.5l-30.5 30l-30.5 -30l30.5 -30.5l30.5 30.5M92 -30.5l-30.5 30.5l-30 -30.5l30 -30.5l30.5 30.5" />
</g>
<g id="PathID_614" transform="matrix(0.0352941, 0, 0, 0.0352941, 336, 132)">
<path style="fill:#EFF5E2;fill-opacity:1" d="M92 -317.5l-30 30l-31 -30l30.5 -30.5l30.5 30.5M92.5 30.5l-31 31l-30.5 -31l0 -61.5l31 -30.5l30.5 30.5l0 61.5" />
</g>
<g id="PathID_615" transform="matrix(0.0352941, 0, 0, 0.0352941, 384, 132)">
<path style="fill:#EFF5E2;fill-opacity:1" d="M358.5 -564l-102.5 164l0 -81.5l102.5 -163.5l0 81M358.5 -71.5l-102.5 -164l0 -81l102.5 164l0 81" />
</g>
<g id="PathID_616" transform="matrix(0.0352941, 0, 0, 0.0352941, 432, 132)">
<path style="fill:#EFF5E2;fill-opacity:1" d="M378.5 -414.5l-30.5 30.5l-87 0l-30.5 -30.5l31 -31l86.5 0l30.5 31M378.5 -302l-30.5 30.5l-87 0l-30.5 -30.5l30.5 -31l87 0l30.5 31M220 -414.5l-31 30.5l-87 0l-30.5 -30.5l30.5 -31l87 0l31 31M220 -302l-31 30.5l-87 0l-30.5 -30.5l30.5 -31l87 0l31 31" />
</g>
<g id="PathID_617" transform="matrix(0.0352941, 0, 0, 0.0352941, 0, 180)">
<path style="fill:#EFF5E2;fill-opacity:1" d="M358.5 -564l-102.5 164l0 -81.5l102.5 -163.5l0 81M358.5 -71.5l-102.5 -164l0 -81l102.5 164l0 81" />
</g>
<g id="PathID_618" transform="matrix(0.0352941, 0, 0, 0.0352941, 48, 180)">
<path style="fill:#EFF5E2;fill-opacity:1" d="M378.5 -686l-30.5 30.5l-246 0l-30.5 -30.5l30.5 -31l246 0l30.5 31M419.5 -399.5l-30.5 31l-31 -31l0 -143l10.5 -20.5l0 -92.5l20.5 -20.5l30.5 31l0 245.5M378.5 -358l-30.5 30.5l-87 0l-31 -30.5l31 -31l87 0l30.5 31M220 -358l-31 30.5l-87 0l-30.5 -30.5l30.5 -31l87 0l31 31M92 -174l-10.5 20.5l0 41l-20.5 20.5l-30.5 -31l0 -194.5l31 -30.5l30.5 30.5l0 143.5M91.5 -30.5l-30.5 30.5l-30 -30.5l30.5 -30.5l30 30.5" />
</g>
<g id="PathID_619" transform="matrix(0.0352941, 0, 0, 0.0352941, 96, 180)">
<path style="fill:#EFF5E2;fill-opacity:1" d="M379 -686l-31 30.5l-245.5 0l-31 -30.5l31 -31l245.5 0l31 31M420 -399.5l-31 31l-30.5 -31l0 -143l10 -20.5l0 -92.5l20.5 -20.5l31 31l0 245.5M358.5 -563l-102.5 163.5l0 -82l102.5 -163.5l0 82M256 -502l-10 20.5l0 92.5l-20.5 20.5l-20.5 -20.5l0 -92.5l-10.5 -20.5l0 -143l61.5 0l0 143M194.5 -399.5l-102.5 -163.5l0 -82l102.5 163.5l0 82M379 -358.5l-31 31l-87 0l-30.5 -31l30.5 -30.5l87 0l31 30.5M92 -399.5l-30.5 31l-31 -31l0 -245.5l31 -31l20.5 20.5l0 92.5l10 20.5l0 143M420 -71.5l-31 30.5l-20.5 -20.5l0 -92l-10 -20.5l0 -143.5l30.5 -30.5l31 30.5l0 246M220 -358.5l-30.5 31l-87 0l-31 -31l31 -30.5l87 0l30.5 30.5M358.5 -71.5l-102.5 -164l0 -82l102.5 164l0 82M256 -71.5l-61.5 0l0 -143.5l10.5 -20.5l0 -92l20.5 -20.5l20.5 20.5l0 92l10 20.5l0 143.5M194.5 -235.5l-102.5 164l0 -82l102.5 -164l0 82M92 -174l-10 20.5l0 92l-20.5 20.5l-31 -30.5l0 -246l31 -30.5l30.5 30.5l0 143.5M379 -30.5l-31 30.5l-245.5 0l-31 -30.5l31 -31l245.5 0l31 31" />
</g>
<g id="PathID_620" transform="matrix(0.0352941, 0, 0, 0.0352941, 144, 180)">
<path style="fill:#EFF5E2;fill-opacity:1" d="M378.5 -686l-30.5 30.5l-246 0l-30.5 -30.5l30.5 -31l246 0l30.5 31M419.5 -399.5l-30.5 31l-31 -31l0 -143l10.5 -20.5l0 -92.5l20.5 -20.5l30.5 31l0 245.5M378.5 -358l-30.5 30.5l-87 0l-31 -30.5l31 -31l87 0l30.5 31M92 -399.5l-30.5 31l-31 -31l0 -245.5l30.5 -31l20.5 20.5l0 92.5l10.5 20.5l0 143M419.5 -71.5l-30.5 30.5l-20.5 -20.5l0 -92l-10.5 -20.5l0 -143.5l31 -30.5l30.5 30.5l0 246M220 -358l-31 30.5l-87 0l-30.5 -30.5l30.5 -31l87 0l31 31M92 -174l-10.5 20.5l0 92l-20.5 20.5l-30.5 -30.5l0 -246l31 -30.5l30.5 30.5l0 143.5" />
</g>
<g id="PathID_621" transform="matrix(0.0352941, 0, 0, 0.0352941, 192, 180)">
<path style="fill:#EFF5E2;fill-opacity:1" d="M378.5 -686l-30.5 30.5l-246 0l-30.5 -30.5l30.5 -31l246 0l30.5 31M419.5 -399.5l-30.5 31l-31 -31l0 -143l10.5 -20.5l0 -92.5l20.5 -20.5l30.5 31l0 245.5M256 -501.5l-10.5 20.5l0 92l-20.5 20.5l-20.5 -20.5l0 -92l-10 -20.5l0 -143.5l61.5 0l0 143.5M378.5 -358.5l-30.5 31l-87 0l-31 -31l31 -30.5l87 0l30.5 30.5M419.5 -71.5l-30.5 30.5l-20.5 -20.5l0 -92l-10.5 -20.5l0 -143.5l31 -30.5l30.5 30.5l0 246M256 -71.5l-61.5 0l0 -143.5l10 -20.5l0 -92l20.5 -20.5l20.5 20.5l0 92l10.5 20.5l0 143.5M378.5 -30.5l-30.5 30.5l-246 0l-30.5 -30.5l30.5 -31l246 0l30.5 31" />
</g>
<g id="PathID_622" transform="matrix(0.0352941, 0, 0, 0.0352941, 240, 180)">
<path style="fill:#EFF5E2;fill-opacity:1" d="M379 -686l-30.5 30.5l-246 0l-30.5 -30.5l30.5 -31l246 0l30.5 31M92.5 -399.5l-30.5 31l-31 -31l0 -245.5l30.5 -31l20.5 20.5l0 92.5l10.5 20.5l0 143M92.5 -174l-10.5 20.5l0 92l-20.5 20.5l-30.5 -30.5l0 -246l31 -30.5l30.5 30.5l0 143.5M379 -30.5l-30.5 30.5l-246 0l-30.5 -30.5l30.5 -31l246 0l30.5 31" />
</g>
<g id="PathID_623" transform="matrix(0.0352941, 0, 0, 0.0352941, 288, 180)">
<path style="fill:#EFF5E2;fill-opacity:1" d="M378.5 -686l-30.5 30.5l-246 0l-30.5 -30.5l30.5 -31l246 0l30.5 31M419.5 -399.5l-30.5 31l-31 -31l0 -143l10.5 -20.5l0 -92.5l20.5 -20.5l30.5 31l0 245.5M256 -502l-10.5 20.5l0 92.5l-20.5 20.5l-20.5 -20.5l0 -92.5l-10 -20.5l0 -143l61.5 0l0 143M419.5 -71.5l-30.5 30.5l-20.5 -20.5l0 -92l-10.5 -20.5l0 -143.5l31 -30.5l30.5 30.5l0 246M256 -71.5l-61.5 0l0 -143.5l10 -20.5l0 -92l20.5 -20.5l20.5 20.5l0 92l10.5 20.5l0 143.5M378.5 -30.5l-30.5 30.5l-246 0l-30.5 -30.5l30.5 -31l246 0l30.5 31" />
</g>
<g id="PathID_624" transform="matrix(0.0352941, 0, 0, 0.0352941, 336, 180)">
<path style="fill:#EFF5E2;fill-opacity:1" d="M379 -686l-30.5 30.5l-246 0l-30.5 -30.5l30.5 -31l246 0l30.5 31M379 -358l-30.5 30.5l-87 0l-31 -30.5l31 -31l87 0l30.5 31M92.5 -399.5l-30.5 31l-31 -31l0 -245.5l30.5 -31l20.5 20.5l0 92.5l10.5 20.5l0 143M220.5 -358l-31 30.5l-87 0l-30.5 -30.5l30.5 -31l87 0l31 31M92.5 -174l-10.5 20.5l0 92l-20.5 20.5l-30.5 -30.5l0 -246l31 -30.5l30.5 30.5l0 143.5M379 -30.5l-30.5 30.5l-246 0l-30.5 -30.5l30.5 -31l246 0l30.5 31" />
</g>
<g id="PathID_625" transform="matrix(0.0352941, 0, 0, 0.0352941, 384, 180)">
<path style="fill:#EFF5E2;fill-opacity:1" d="M379 -686l-30.5 30.5l-246 0l-30.5 -30.5l30.5 -31l246 0l30.5 31M379 -358l-30.5 30.5l-87 0l-31 -30.5l31 -31l87 0l30.5 31M92.5 -399.5l-30.5 31l-31 -31l0 -245.5l30.5 -31l20.5 20.5l0 92.5l10.5 20.5l0 143M220.5 -358l-31 30.5l-87 0l-30.5 -30.5l30.5 -31l87 0l31 31M92.5 -174l-10.5 20.5l0 92l-20.5 20.5l-30.5 -30.5l0 -246l31 -30.5l30.5 30.5l0 143.5" />
</g>
<g id="PathID_626" transform="matrix(0.0352941, 0, 0, 0.0352941, 432, 180)">
<path style="fill:#EFF5E2;fill-opacity:1" d="M378.5 -686l-30.5 30.5l-246 0l-30.5 -30.5l30.5 -31l246 0l30.5 31M378.5 -358l-30.5 30.5l-87 0l-31 -30.5l31 -31l87 0l30.5 31M92 -399.5l-30.5 31l-31 -31l0 -245.5l30.5 -31l20.5 20.5l0 92.5l10.5 20.5l0 143M419.5 -71.5l-30.5 30.5l-20.5 -20.5l0 -92l-10.5 -20.5l0 -143.5l31 -30.5l30.5 30.5l0 246M92 -174l-10.5 20.5l0 92l-20.5 20.5l-30.5 -30.5l0 -246l31 -30.5l30.5 30.5l0 143.5M378.5 -30.5l-30.5 30.5l-246 0l-30.5 -30.5l30.5 -31l246 0l30.5 31" />
</g>
<g id="PathID_627" transform="matrix(0.0352941, 0, 0, 0.0352941, 0, 228)">
<path style="fill:#EFF5E2;fill-opacity:1" d="M419.5 -399.5l-30.5 31l-31 -31l0 -143.5l10.5 -20.5l0 -92l20.5 -20.5l30.5 30.5l0 246M378.5 -358l-30.5 30.5l-87 0l-31 -30.5l31 -31l87 0l30.5 31M92 -399.5l-30.5 31l-31 -31l0 -246l30.5 -30.5l20.5 20.5l0 92l10.5 20.5l0 143.5M419.5 -71.5l-30.5 30.5l-20.5 -20.5l0 -92l-10.5 -20.5l0 -143.5l31 -30.5l30.5 30.5l0 246M220 -358l-31 30.5l-87 0l-30.5 -30.5l30.5 -31l87 0l31 31M92 -174l-10.5 20.5l0 92l-20.5 20.5l-30.5 -30.5l0 -246l31 -30.5l30.5 30.5l0 143.5" />
</g>
<g id="PathID_628" transform="matrix(0.0352941, 0, 0, 0.0352941, 48, 228)">
<path style="fill:#EFF5E2;fill-opacity:1" d="M256 -501.5l-10.5 20.5l0 92l-20.5 20.5l-20.5 -20.5l0 -92l-10 -20.5l0 -143.5l61.5 0l0 143.5M256 -71.5l-61.5 0l0 -143.5l10 -20.5l0 -92l20.5 -20.5l20.5 20.5l0 92l10.5 20.5l0 143.5" />
</g>
<g id="PathID_629" transform="matrix(0.0352941, 0, 0, 0.0352941, 96, 228)">
<path style="fill:#EFF5E2;fill-opacity:1" d="M419.5 -399.5l-30.5 31l-31 -31l0 -143.5l10.5 -20.5l0 -92l20.5 -20.5l30.5 30.5l0 246M419.5 -71.5l-30.5 30.5l-20.5 -20.5l0 -92l-10.5 -20.5l0 -143.5l31 -30.5l30.5 30.5l0 246M92 -174l-10.5 20.5l0 92l-20.5 20.5l-30.5 -30.5l0 -246l31 -30.5l30.5 30.5l0 143.5M378.5 -30.5l-30.5 30.5l-246 0l-30.5 -30.5l30.5 -31l246 0l30.5 31" />
</g>
<g id="PathID_630" transform="matrix(0.0352941, 0, 0, 0.0352941, 144, 228)">
<path style="fill:#EFF5E2;fill-opacity:1" d="M358.5 -563l-102 163.5l0 -81l102 -164l0 81.5M92.5 -399.5l-30.5 31l-31 -31l0 -246l30.5 -30.5l20.5 20.5l0 92l10.5 20.5l0 143.5M220.5 -358l-31 30.5l-87 0l-30.5 -30.5l30.5 -31l87 0l31 31M358.5 -72.5l-102 -163.5l0 -81.5l102 164l0 81M92.5 -174l-10.5 20.5l0 92l-20.5 20.5l-30.5 -30.5l0 -246l31 -30.5l30.5 30.5l0 143.5" />
</g>
<g id="PathID_631" transform="matrix(0.0352941, 0, 0, 0.0352941, 192, 228)">
<path style="fill:#EFF5E2;fill-opacity:1" d="M92.5 -399.5l-30.5 31l-31 -31l0 -246l30.5 -30.5l20.5 20.5l0 92l10.5 20.5l0 143.5M92.5 -174l-10.5 20.5l0 92l-20.5 20.5l-30.5 -30.5l0 -246l31 -30.5l30.5 30.5l0 143.5M379 -30.5l-30.5 30.5l-246 0l-30.5 -30.5l30.5 -31l246 0l30.5 31" />
</g>
<g id="PathID_632" transform="matrix(0.0352941, 0, 0, 0.0352941, 240, 228)">
<path style="fill:#EFF5E2;fill-opacity:1" d="M419.5 -399.5l-30.5 31l-31 -31l0 -143.5l10.5 -20.5l0 -92l20.5 -20.5l30.5 30.5l0 246M358 -564l-102 164l0 -81.5l102 -163.5l0 81M194.5 -400l-102.5 -164l0 -81l102.5 163.5l0 81.5M92 -399.5l-30.5 31l-31 -31l0 -246l30.5 -30.5l20.5 20.5l0 92l10.5 20.5l0 143.5M419.5 -71.5l-30.5 30.5l-20.5 -20.5l0 -92l-10.5 -20.5l0 -143.5l31 -30.5l30.5 30.5l0 246M256 -71.5l-61.5 0l0 -143.5l10 -20.5l0 -92l20.5 -20.5l20.5 20.5l0 92l10.5 20.5l0 143.5M92 -174l-10.5 20.5l0 92l-20.5 20.5l-30.5 -30.5l0 -246l31 -30.5l30.5 30.5l0 143.5" />
</g>
<g id="PathID_633" transform="matrix(0.0352941, 0, 0, 0.0352941, 288, 228)">
<path style="fill:#EFF5E2;fill-opacity:1" d="M378.5 -686l-30.5 30.5l-246 0l-30.5 -30.5l30.5 -31l246 0l30.5 31M419.5 -399.5l-30.5 31l-31 -31l0 -143l10.5 -20.5l0 -92.5l20.5 -20.5l30.5 31l0 245.5M92 -399.5l-30.5 31l-31 -31l0 -245.5l30.5 -31l20.5 20.5l0 92.5l10.5 20.5l0 143M419.5 -71.5l-30.5 30.5l-20.5 -20.5l0 -92l-10.5 -20.5l0 -143.5l31 -30.5l30.5 30.5l0 246M92 -174l-10.5 20.5l0 92l-20.5 20.5l-30.5 -30.5l0 -246l31 -30.5l30.5 30.5l0 143.5" />
</g>
<g id="PathID_634" transform="matrix(0.0352941, 0, 0, 0.0352941, 336, 228)">
<path style="fill:#EFF5E2;fill-opacity:1" d="M378.5 -686l-30.5 30.5l-246 0l-30.5 -30.5l30.5 -31l246 0l30.5 31M419.5 -399.5l-30.5 31l-31 -31l0 -143l10.5 -20.5l0 -92.5l20.5 -20.5l30.5 31l0 245.5M92 -399.5l-30.5 31l-31 -31l0 -245.5l30.5 -31l20.5 20.5l0 92.5l10.5 20.5l0 143M419.5 -71.5l-30.5 30.5l-20.5 -20.5l0 -92l-10.5 -20.5l0 -143.5l31 -30.5l30.5 30.5l0 246M92 -174l-10.5 20.5l0 92l-20.5 20.5l-30.5 -30.5l0 -246l31 -30.5l30.5 30.5l0 143.5M378.5 -30.5l-30.5 30.5l-246 0l-30.5 -30.5l30.5 -31l246 0l30.5 31" />
</g>
<g id="PathID_635" transform="matrix(0.0352941, 0, 0, 0.0352941, 384, 228)">
<path style="fill:#EFF5E2;fill-opacity:1" d="M378.5 -686l-30.5 30.5l-246 0l-30.5 -30.5l30.5 -31l246 0l30.5 31M419.5 -399.5l-30.5 31l-31 -31l0 -143l10.5 -20.5l0 -92.5l20.5 -20.5l30.5 31l0 245.5M378.5 -358l-30.5 30.5l-87 0l-31 -30.5l31 -31l87 0l30.5 31M92 -399.5l-30.5 31l-31 -31l0 -245.5l30.5 -31l20.5 20.5l0 92.5l10.5 20.5l0 143M220 -358l-31 30.5l-87 0l-30.5 -30.5l30.5 -31l87 0l31 31M92 -174l-10.5 20.5l0 92l-20.5 20.5l-30.5 -30.5l0 -246l31 -30.5l30.5 30.5l0 143.5" />
</g>
<g id="PathID_636" transform="matrix(0.0352941, 0, 0, 0.0352941, 432, 228)">
<path style="fill:#EFF5E2;fill-opacity:1" d="M378.5 -686l-30.5 30.5l-246 0l-30.5 -30.5l30.5 -31l246 0l30.5 31M419.5 -399.5l-30.5 31l-31 -31l0 -143l10.5 -20.5l0 -92.5l20.5 -20.5l30.5 31l0 245.5M92 -399.5l-30.5 31l-31 -31l0 -245.5l30.5 -31l20.5 20.5l0 92.5l10.5 20.5l0 143M419.5 -71.5l-30.5 30.5l-20.5 -20.5l0 -92l-10.5 -20.5l0 -143.5l31 -30.5l30.5 30.5l0 246M358 -71.5l-102.5 -164l0 -81l102.5 163.5l0 81.5M92 -174l-10.5 20.5l0 92l-20.5 20.5l-30.5 -30.5l0 -246l31 -30.5l30.5 30.5l0 143.5M378.5 -30.5l-30.5 30.5l-246 0l-30.5 -30.5l30.5 -31l246 0l30.5 31" />
</g>
<g id="PathID_637" transform="matrix(0.0352941, 0, 0, 0.0352941, 0, 276)">
<path style="fill:#EFF5E2;fill-opacity:1" d="M378.5 -686l-30.5 30.5l-246 0l-30.5 -30.5l30.5 -31l246 0l30.5 31M419.5 -399.5l-30.5 31l-31 -31l0 -143l10.5 -20.5l0 -92.5l20.5 -20.5l30.5 31l0 245.5M378.5 -358l-30.5 30.5l-87 0l-31 -30.5l31 -31l87 0l30.5 31M92 -399.5l-30.5 31l-31 -31l0 -245.5l30.5 -31l20.5 20.5l0 92.5l10.5 20.5l0 143M220 -358l-31 30.5l-87 0l-30.5 -30.5l30.5 -31l87 0l31 31M358 -71.5l-102 -164l0 -81.5l102 164l0 81.5M92 -174l-10.5 20.5l0 92l-20.5 20.5l-30.5 -30.5l0 -246l31 -30.5l30.5 30.5l0 143.5" />
</g>
<g id="PathID_638" transform="matrix(0.0352941, 0, 0, 0.0352941, 48, 276)">
<path style="fill:#EFF5E2;fill-opacity:1" d="M378.5 -686l-30.5 30.5l-246 0l-30.5 -30.5l30.5 -31l246 0l30.5 31M378.5 -358l-30.5 30.5l-87 0l-31 -30.5l31 -31l87 0l30.5 31M92 -399.5l-30.5 31l-31 -31l0 -245.5l30.5 -31l20.5 20.5l0 92.5l10.5 20.5l0 143M419.5 -71.5l-30.5 30.5l-20.5 -20.5l0 -92l-10.5 -20.5l0 -143.5l31 -30.5l30.5 30.5l0 246M220 -358l-31 30.5l-87 0l-30.5 -30.5l30.5 -31l87 0l31 31M378.5 -30.5l-30.5 30.5l-246 0l-30.5 -30.5l30.5 -31l246 0l30.5 31" />
</g>
<g id="PathID_639" transform="matrix(0.0352941, 0, 0, 0.0352941, 96, 276)">
<path style="fill:#EFF5E2;fill-opacity:1" d="M378.5 -686l-30.5 30.5l-246 0l-30.5 -30.5l30.5 -31l246 0l30.5 31M256 -502l-10.5 20.5l0 92.5l-20.5 20.5l-20.5 -20.5l0 -92.5l-10 -20.5l0 -143l61.5 0l0 143M256 -71.5l-61.5 0l0 -143.5l10 -20.5l0 -92l20.5 -20.5l20.5 20.5l0 92l10.5 20.5l0 143.5" />
</g>
<g id="PathID_640" transform="matrix(0.0352941, 0, 0, 0.0352941, 144, 276)">
<path style="fill:#EFF5E2;fill-opacity:1" d="M419.5 -399.5l-30.5 31l-31 -31l0 -143.5l10.5 -20.5l0 -92l20.5 -20.5l30.5 30.5l0 246M92 -399.5l-30.5 31l-31 -31l0 -246l30.5 -30.5l20.5 20.5l0 92l10.5 20.5l0 143.5M419.5 -71.5l-30.5 30.5l-20.5 -20.5l0 -92l-10.5 -20.5l0 -143.5l31 -30.5l30.5 30.5l0 246M92 -174l-10.5 20.5l0 92l-20.5 20.5l-30.5 -30.5l0 -246l31 -30.5l30.5 30.5l0 143.5M378.5 -30.5l-30.5 30.5l-246 0l-30.5 -30.5l30.5 -31l246 0l30.5 31" />
</g>
<g id="PathID_641" transform="matrix(0.0352941, 0, 0, 0.0352941, 192, 276)">
<path style="fill:#EFF5E2;fill-opacity:1" d="M419.5 -399.5l-30.5 31l-31 -31l0 -143.5l10.5 -20.5l0 -92l20.5 -20.5l30.5 30.5l0 246M194.5 -399.5l-102.5 -163.5l0 -81.5l102.5 164l0 81M419.5 -71.5l-30.5 30.5l-20.5 -20.5l0 -92l-10.5 -20.5l0 -143.5l31 -30.5l30.5 30.5l0 246M358 -71.5l-102.5 -164l0 -81l102.5 163.5l0 81.5" />
</g>
<g id="PathID_642" transform="matrix(0.0352941, 0, 0, 0.0352941, 240, 276)">
<path style="fill:#EFF5E2;fill-opacity:1" d="M419.5 -399.5l-30.5 31l-31 -31l0 -143.5l10.5 -20.5l0 -92l20.5 -20.5l30.5 30.5l0 246M256 -502l-10.5 20.5l0 92.5l-20.5 20.5l-20.5 -20.5l0 -92.5l-10 -20.5l0 -143l61.5 0l0 143M92 -399.5l-30.5 31l-31 -31l0 -246l30.5 -30.5l20.5 20.5l0 92l10.5 20.5l0 143.5M419.5 -71.5l-30.5 30.5l-20.5 -20.5l0 -92l-10.5 -20.5l0 -143.5l31 -30.5l30.5 30.5l0 246M358 -71.5l-102 -164l0 -81.5l102 164l0 81.5M194.5 -235.5l-102.5 164l0 -81l102.5 -164l0 81M92 -174l-10.5 20.5l0 92l-20.5 20.5l-30.5 -30.5l0 -246l31 -30.5l30.5 30.5l0 143.5" />
</g>
<g id="PathID_643" transform="matrix(0.0352941, 0, 0, 0.0352941, 288, 276)">
<path style="fill:#EFF5E2;fill-opacity:1" d="M358 -564l-102 164l0 -81.5l102 -163.5l0 81M194.5 -400l-102.5 -164l0 -81l102.5 163.5l0 81.5M358 -71.5l-102 -164l0 -81.5l102 164l0 81.5M194.5 -235.5l-102.5 164l0 -81l102.5 -164l0 81" />
</g>
<g id="PathID_644" transform="matrix(0.0352941, 0, 0, 0.0352941, 336, 276)">
<path style="fill:#EFF5E2;fill-opacity:1" d="M419.5 -399.5l-30.5 31l-31 -31l0 -143.5l10.5 -20.5l0 -92l20.5 -20.5l30.5 30.5l0 246M378.5 -358l-30.5 30.5l-87 0l-31 -30.5l31 -31l87 0l30.5 31M92 -399.5l-30.5 31l-31 -31l0 -246l30.5 -30.5l20.5 20.5l0 92l10.5 20.5l0 143.5M220 -358l-31 30.5l-87 0l-30.5 -30.5l30.5 -31l87 0l31 31M256 -71.5l-61.5 0l0 -143.5l10 -20.5l0 -92l20.5 -20.5l20.5 20.5l0 92l10.5 20.5l0 143.5" />
</g>
<g id="PathID_645" transform="matrix(0.0352941, 0, 0, 0.0352941, 384, 276)">
<path style="fill:#EFF5E2;fill-opacity:1" d="M378.5 -686l-30.5 30.5l-246 0l-30.5 -30.5l30.5 -31l246 0l30.5 31M358 -564l-102 164l0 -81.5l102 -163.5l0 81M194.5 -235l-102.5 163.5l0 -81.5l102.5 -163.5l0 81.5M378.5 -30.5l-30.5 30.5l-246 0l-30.5 -30.5l30.5 -31l246 0l30.5 31" />
</g>
<g id="PathID_646" transform="matrix(0.0352941, 0, 0, 0.0352941, 432, 276)">
<path style="fill:#EFF5E2;fill-opacity:1" d="M220 -686l-31 30.5l-87 0l-30.5 -30.5l30.5 -31l87 0l31 31M92 -399.5l-30.5 31l-31 -31l0 -245.5l30.5 -31l20.5 20.5l0 92.5l10.5 20.5l0 143M92 -174l-10.5 20.5l0 92l-20.5 20.5l-30.5 -30.5l0 -246l31 -30.5l30.5 30.5l0 143.5M220 -30.5l-31 30.5l-87 0l-30.5 -30.5l30.5 -31l87 0l31 31" />
</g>
<g id="PathID_647" transform="matrix(0.0352941, 0, 0, 0.0352941, 0, 324)">
<path style="fill:#EFF5E2;fill-opacity:1" d="M194.5 -400l-102.5 -164l0 -81l102.5 163.5l0 81.5M358 -71.5l-102 -164l0 -81l102 164l0 81" />
</g>
<g id="PathID_648" transform="matrix(0.0352941, 0, 0, 0.0352941, 48, 324)">
<path style="fill:#EFF5E2;fill-opacity:1" d="M179 -686l-30.5 30.5l-87.5 0l-30.5 -30.5l30.5 -31l87.5 0l30.5 31M220 -399.5l-30.5 31l-31 -31l0 -143l10.5 -20.5l0 -92.5l20.5 -20.5l30.5 31l0 245.5M220 -71.5l-30.5 30.5l-20.5 -20.5l0 -92l-10.5 -20.5l0 -143.5l31 -30.5l30.5 30.5l0 246M179 -30.5l-30.5 30.5l-87.5 0l-30.5 -30.5l30.5 -31l87.5 0l30.5 31" />
</g>
<g id="PathID_649" transform="matrix(0.0352941, 0, 0, 0.0352941, 96, 324)">
<path style="fill:#EFF5E2;fill-opacity:1" d="M358 -400l-102 -164l0 -81l102 163.5l0 81.5M194.5 -564l-102.5 164l0 -81.5l102.5 -163.5l0 81" />
</g>
<g id="PathID_650" transform="matrix(0.0352941, 0, 0, 0.0352941, 144, 324)">
<path style="fill:#EFF5E2;fill-opacity:1" d="M379 -686l-31 30.5l-245.5 0l-31 -30.5l31 -31l245.5 0l31 31M420 -399.5l-31 31l-30.5 -31l0 -143l10 -20.5l0 -92.5l20.5 -20.5l31 31l0 245.5M358.5 -563l-102.5 163.5l0 -82l102.5 -163.5l0 82M256 -502l-10 20.5l0 92.5l-20.5 20.5l-20.5 -20.5l0 -92.5l-10.5 -20.5l0 -143l61.5 0l0 143M194.5 -399.5l-102.5 -163.5l0 -82l102.5 163.5l0 82M379 -358.5l-31 31l-87 0l-30.5 -31l30.5 -30.5l87 0l31 30.5M92 -399.5l-30.5 31l-31 -31l0 -245.5l31 -31l20.5 20.5l0 92.5l10 20.5l0 143M420 -71.5l-31 30.5l-20.5 -20.5l0 -92l-10 -20.5l0 -143.5l30.5 -30.5l31 30.5l0 246M220 -358.5l-30.5 31l-87 0l-31 -31l31 -30.5l87 0l30.5 30.5M358.5 -71.5l-102.5 -164l0 -82l102.5 164l0 82M256 -71.5l-61.5 0l0 -143.5l10.5 -20.5l0 -92l20.5 -20.5l20.5 20.5l0 92l10 20.5l0 143.5M194.5 -235.5l-102.5 164l0 -82l102.5 -164l0 82M92 -174l-10 20.5l0 92l-20.5 20.5l-31 -30.5l0 -246l31 -30.5l30.5 30.5l0 143.5M379 -30.5l-31 30.5l-245.5 0l-31 -30.5l31 -31l245.5 0l31 31" />
</g>
<g id="PathID_651" transform="matrix(0.0352941, 0, 0, 0.0352941, 192, 324)">
<path style="fill:#EFF5E2;fill-opacity:1" d="M379 -686l-31 30.5l-245.5 0l-31 -30.5l31 -31l245.5 0l31 31M420 -399.5l-31 31l-30.5 -31l0 -143l10 -20.5l0 -92.5l20.5 -20.5l31 31l0 245.5M358.5 -563l-102.5 163.5l0 -82l102.5 -163.5l0 82M256 -502l-10 20.5l0 92.5l-20.5 20.5l-20.5 -20.5l0 -92.5l-10.5 -20.5l0 -143l61.5 0l0 143M194.5 -399.5l-102.5 -163.5l0 -82l102.5 163.5l0 82M379 -358.5l-31 31l-87 0l-30.5 -31l30.5 -30.5l87 0l31 30.5M92 -399.5l-30.5 31l-31 -31l0 -245.5l31 -31l20.5 20.5l0 92.5l10 20.5l0 143M420 -71.5l-31 30.5l-20.5 -20.5l0 -92l-10 -20.5l0 -143.5l30.5 -30.5l31 30.5l0 246M220 -358.5l-30.5 31l-87 0l-31 -31l31 -30.5l87 0l30.5 30.5M358.5 -71.5l-102.5 -164l0 -82l102.5 164l0 82M256 -71.5l-61.5 0l0 -143.5l10.5 -20.5l0 -92l20.5 -20.5l20.5 20.5l0 92l10 20.5l0 143.5M194.5 -235.5l-102.5 164l0 -82l102.5 -164l0 82M92 -174l-10 20.5l0 92l-20.5 20.5l-31 -30.5l0 -246l31 -30.5l30.5 30.5l0 143.5M379 -30.5l-31 30.5l-245.5 0l-31 -30.5l31 -31l245.5 0l31 31" />
</g>
<g id="PathID_652" transform="matrix(0.0352941, 0, 0, 0.0352941, 240, 324)">
<path style="fill:#EFF5E2;fill-opacity:1" d="M378.5 -686l-30.5 30.5l-246 0l-30.5 -30.5l30.5 -31l246 0l30.5 31M419.5 -399.5l-30.5 31l-31 -31l0 -143l10.5 -20.5l0 -92.5l20.5 -20.5l30.5 31l0 245.5M378.5 -358l-30.5 30.5l-87 0l-31 -30.5l31 -31l87 0l30.5 31M92 -399.5l-30.5 31l-31 -31l0 -245.5l30.5 -31l20.5 20.5l0 92.5l10.5 20.5l0 143M419.5 -71.5l-30.5 30.5l-20.5 -20.5l0 -92l-10.5 -20.5l0 -143.5l31 -30.5l30.5 30.5l0 246M220 -358l-31 30.5l-87 0l-30.5 -30.5l30.5 -31l87 0l31 31M92 -174l-10.5 20.5l0 92l-20.5 20.5l-30.5 -30.5l0 -246l31 -30.5l30.5 30.5l0 143.5" />
</g>
<g id="PathID_653" transform="matrix(0.0352941, 0, 0, 0.0352941, 288, 324)">
<path style="fill:#EFF5E2;fill-opacity:1" d="M378.5 -686l-30.5 30.5l-246 0l-30.5 -30.5l30.5 -31l246 0l30.5 31M419.5 -399.5l-30.5 31l-31 -31l0 -143l10.5 -20.5l0 -92.5l20.5 -20.5l30.5 31l0 245.5M256 -501.5l-10.5 20.5l0 92l-20.5 20.5l-20.5 -20.5l0 -92l-10 -20.5l0 -143.5l61.5 0l0 143.5M378.5 -358.5l-30.5 31l-87 0l-31 -31l31 -30.5l87 0l30.5 30.5M419.5 -71.5l-30.5 30.5l-20.5 -20.5l0 -92l-10.5 -20.5l0 -143.5l31 -30.5l30.5 30.5l0 246M256 -71.5l-61.5 0l0 -143.5l10 -20.5l0 -92l20.5 -20.5l20.5 20.5l0 92l10.5 20.5l0 143.5M378.5 -30.5l-30.5 30.5l-246 0l-30.5 -30.5l30.5 -31l246 0l30.5 31" />
</g>
<g id="PathID_654" transform="matrix(0.0352941, 0, 0, 0.0352941, 336, 324)">
<path style="fill:#EFF5E2;fill-opacity:1" d="M379 -686l-30.5 30.5l-246 0l-30.5 -30.5l30.5 -31l246 0l30.5 31M92.5 -399.5l-30.5 31l-31 -31l0 -245.5l30.5 -31l20.5 20.5l0 92.5l10.5 20.5l0 143M92.5 -174l-10.5 20.5l0 92l-20.5 20.5l-30.5 -30.5l0 -246l31 -30.5l30.5 30.5l0 143.5M379 -30.5l-30.5 30.5l-246 0l-30.5 -30.5l30.5 -31l246 0l30.5 31" />
</g>
<g id="PathID_655" transform="matrix(0.0352941, 0, 0, 0.0352941, 384, 324)">
<path style="fill:#EFF5E2;fill-opacity:1" d="M378.5 -686l-30.5 30.5l-246 0l-30.5 -30.5l30.5 -31l246 0l30.5 31M419.5 -399.5l-30.5 31l-31 -31l0 -143l10.5 -20.5l0 -92.5l20.5 -20.5l30.5 31l0 245.5M256 -502l-10.5 20.5l0 92.5l-20.5 20.5l-20.5 -20.5l0 -92.5l-10 -20.5l0 -143l61.5 0l0 143M419.5 -71.5l-30.5 30.5l-20.5 -20.5l0 -92l-10.5 -20.5l0 -143.5l31 -30.5l30.5 30.5l0 246M256 -71.5l-61.5 0l0 -143.5l10 -20.5l0 -92l20.5 -20.5l20.5 20.5l0 92l10.5 20.5l0 143.5M378.5 -30.5l-30.5 30.5l-246 0l-30.5 -30.5l30.5 -31l246 0l30.5 31" />
</g>
<g id="PathID_656" transform="matrix(0.0352941, 0, 0, 0.0352941, 432, 324)">
<path style="fill:#EFF5E2;fill-opacity:1" d="M379 -686l-30.5 30.5l-246 0l-30.5 -30.5l30.5 -31l246 0l30.5 31M379 -358l-30.5 30.5l-87 0l-31 -30.5l31 -31l87 0l30.5 31M92.5 -399.5l-30.5 31l-31 -31l0 -245.5l30.5 -31l20.5 20.5l0 92.5l10.5 20.5l0 143M220.5 -358l-31 30.5l-87 0l-30.5 -30.5l30.5 -31l87 0l31 31M92.5 -174l-10.5 20.5l0 92l-20.5 20.5l-30.5 -30.5l0 -246l31 -30.5l30.5 30.5l0 143.5M379 -30.5l-30.5 30.5l-246 0l-30.5 -30.5l30.5 -31l246 0l30.5 31" />
</g>
<g id="PathID_657" transform="matrix(0.0352941, 0, 0, 0.0352941, 0, 372)">
<path style="fill:#EFF5E2;fill-opacity:1" d="M379 -686l-30.5 30.5l-246 0l-30.5 -30.5l30.5 -31l246 0l30.5 31M379 -358l-30.5 30.5l-87 0l-31 -30.5l31 -31l87 0l30.5 31M92.5 -399.5l-30.5 31l-31 -31l0 -245.5l30.5 -31l20.5 20.5l0 92.5l10.5 20.5l0 143M220.5 -358l-31 30.5l-87 0l-30.5 -30.5l30.5 -31l87 0l31 31M92.5 -174l-10.5 20.5l0 92l-20.5 20.5l-30.5 -30.5l0 -246l31 -30.5l30.5 30.5l0 143.5" />
</g>
<g id="PathID_658" transform="matrix(0.0352941, 0, 0, 0.0352941, 48, 372)">
<path style="fill:#EFF5E2;fill-opacity:1" d="M378.5 -686l-30.5 30.5l-246 0l-30.5 -30.5l30.5 -31l246 0l30.5 31M378.5 -358l-30.5 30.5l-87 0l-31 -30.5l31 -31l87 0l30.5 31M92 -399.5l-30.5 31l-31 -31l0 -245.5l30.5 -31l20.5 20.5l0 92.5l10.5 20.5l0 143M419.5 -71.5l-30.5 30.5l-20.5 -20.5l0 -92l-10.5 -20.5l0 -143.5l31 -30.5l30.5 30.5l0 246M92 -174l-10.5 20.5l0 92l-20.5 20.5l-30.5 -30.5l0 -246l31 -30.5l30.5 30.5l0 143.5M378.5 -30.5l-30.5 30.5l-246 0l-30.5 -30.5l30.5 -31l246 0l30.5 31" />
</g>
<g id="PathID_659" transform="matrix(0.0352941, 0, 0, 0.0352941, 96, 372)">
<path style="fill:#EFF5E2;fill-opacity:1" d="M419.5 -399.5l-30.5 31l-31 -31l0 -143.5l10.5 -20.5l0 -92l20.5 -20.5l30.5 30.5l0 246M378.5 -358l-30.5 30.5l-87 0l-31 -30.5l31 -31l87 0l30.5 31M92 -399.5l-30.5 31l-31 -31l0 -246l30.5 -30.5l20.5 20.5l0 92l10.5 20.5l0 143.5M419.5 -71.5l-30.5 30.5l-20.5 -20.5l0 -92l-10.5 -20.5l0 -143.5l31 -30.5l30.5 30.5l0 246M220 -358l-31 30.5l-87 0l-30.5 -30.5l30.5 -31l87 0l31 31M92 -174l-10.5 20.5l0 92l-20.5 20.5l-30.5 -30.5l0 -246l31 -30.5l30.5 30.5l0 143.5" />
</g>
<g id="PathID_660" transform="matrix(0.0352941, 0, 0, 0.0352941, 144, 372)">
<path style="fill:#EFF5E2;fill-opacity:1" d="M256 -501.5l-10.5 20.5l0 92l-20.5 20.5l-20.5 -20.5l0 -92l-10 -20.5l0 -143.5l61.5 0l0 143.5M256 -71.5l-61.5 0l0 -143.5l10 -20.5l0 -92l20.5 -20.5l20.5 20.5l0 92l10.5 20.5l0 143.5" />
</g>
<g id="PathID_661" transform="matrix(0.0352941, 0, 0, 0.0352941, 192, 372)">
<path style="fill:#EFF5E2;fill-opacity:1" d="M419.5 -399.5l-30.5 31l-31 -31l0 -143.5l10.5 -20.5l0 -92l20.5 -20.5l30.5 30.5l0 246M419.5 -71.5l-30.5 30.5l-20.5 -20.5l0 -92l-10.5 -20.5l0 -143.5l31 -30.5l30.5 30.5l0 246M92 -174l-10.5 20.5l0 92l-20.5 20.5l-30.5 -30.5l0 -246l31 -30.5l30.5 30.5l0 143.5M378.5 -30.5l-30.5 30.5l-246 0l-30.5 -30.5l30.5 -31l246 0l30.5 31" />
</g>
<g id="PathID_662" transform="matrix(0.0352941, 0, 0, 0.0352941, 240, 372)">
<path style="fill:#EFF5E2;fill-opacity:1" d="M358.5 -563l-102 163.5l0 -81l102 -164l0 81.5M92.5 -399.5l-30.5 31l-31 -31l0 -246l30.5 -30.5l20.5 20.5l0 92l10.5 20.5l0 143.5M220.5 -358l-31 30.5l-87 0l-30.5 -30.5l30.5 -31l87 0l31 31M358.5 -72.5l-102 -163.5l0 -81.5l102 164l0 81M92.5 -174l-10.5 20.5l0 92l-20.5 20.5l-30.5 -30.5l0 -246l31 -30.5l30.5 30.5l0 143.5" />
</g>
<g id="PathID_663" transform="matrix(0.0352941, 0, 0, 0.0352941, 288, 372)">
<path style="fill:#EFF5E2;fill-opacity:1" d="M92.5 -399.5l-30.5 31l-31 -31l0 -246l30.5 -30.5l20.5 20.5l0 92l10.5 20.5l0 143.5M92.5 -174l-10.5 20.5l0 92l-20.5 20.5l-30.5 -30.5l0 -246l31 -30.5l30.5 30.5l0 143.5M379 -30.5l-30.5 30.5l-246 0l-30.5 -30.5l30.5 -31l246 0l30.5 31" />
</g>
<g id="PathID_664" transform="matrix(0.0352941, 0, 0, 0.0352941, 336, 372)">
<path style="fill:#EFF5E2;fill-opacity:1" d="M419.5 -399.5l-30.5 31l-31 -31l0 -143.5l10.5 -20.5l0 -92l20.5 -20.5l30.5 30.5l0 246M358 -564l-102 164l0 -81.5l102 -163.5l0 81M194.5 -400l-102.5 -164l0 -81l102.5 163.5l0 81.5M92 -399.5l-30.5 31l-31 -31l0 -246l30.5 -30.5l20.5 20.5l0 92l10.5 20.5l0 143.5M419.5 -71.5l-30.5 30.5l-20.5 -20.5l0 -92l-10.5 -20.5l0 -143.5l31 -30.5l30.5 30.5l0 246M256 -71.5l-61.5 0l0 -143.5l10 -20.5l0 -92l20.5 -20.5l20.5 20.5l0 92l10.5 20.5l0 143.5M92 -174l-10.5 20.5l0 92l-20.5 20.5l-30.5 -30.5l0 -246l31 -30.5l30.5 30.5l0 143.5" />
</g>
<g id="PathID_665" transform="matrix(0.0352941, 0, 0, 0.0352941, 384, 372)">
<path style="fill:#EFF5E2;fill-opacity:1" d="M378.5 -686l-30.5 30.5l-246 0l-30.5 -30.5l30.5 -31l246 0l30.5 31M419.5 -399.5l-30.5 31l-31 -31l0 -143l10.5 -20.5l0 -92.5l20.5 -20.5l30.5 31l0 245.5M92 -399.5l-30.5 31l-31 -31l0 -245.5l30.5 -31l20.5 20.5l0 92.5l10.5 20.5l0 143M419.5 -71.5l-30.5 30.5l-20.5 -20.5l0 -92l-10.5 -20.5l0 -143.5l31 -30.5l30.5 30.5l0 246M92 -174l-10.5 20.5l0 92l-20.5 20.5l-30.5 -30.5l0 -246l31 -30.5l30.5 30.5l0 143.5" />
</g>
<g id="PathID_666" transform="matrix(0.0352941, 0, 0, 0.0352941, 432, 372)">
<path style="fill:#EFF5E2;fill-opacity:1" d="M378.5 -686l-30.5 30.5l-246 0l-30.5 -30.5l30.5 -31l246 0l30.5 31M419.5 -399.5l-30.5 31l-31 -31l0 -143l10.5 -20.5l0 -92.5l20.5 -20.5l30.5 31l0 245.5M92 -399.5l-30.5 31l-31 -31l0 -245.5l30.5 -31l20.5 20.5l0 92.5l10.5 20.5l0 143M419.5 -71.5l-30.5 30.5l-20.5 -20.5l0 -92l-10.5 -20.5l0 -143.5l31 -30.5l30.5 30.5l0 246M92 -174l-10.5 20.5l0 92l-20.5 20.5l-30.5 -30.5l0 -246l31 -30.5l30.5 30.5l0 143.5M378.5 -30.5l-30.5 30.5l-246 0l-30.5 -30.5l30.5 -31l246 0l30.5 31" />
</g>
<g id="PathID_667" transform="matrix(0.0352941, 0, 0, 0.0352941, 0, 420)">
<path style="fill:#EFF5E2;fill-opacity:1" d="M378.5 -686l-30.5 30.5l-246 0l-30.5 -30.5l30.5 -31l246 0l30.5 31M419.5 -399.5l-30.5 31l-31 -31l0 -143l10.5 -20.5l0 -92.5l20.5 -20.5l30.5 31l0 245.5M378.5 -358l-30.5 30.5l-87 0l-31 -30.5l31 -31l87 0l30.5 31M92 -399.5l-30.5 31l-31 -31l0 -245.5l30.5 -31l20.5 20.5l0 92.5l10.5 20.5l0 143M220 -358l-31 30.5l-87 0l-30.5 -30.5l30.5 -31l87 0l31 31M92 -174l-10.5 20.5l0 92l-20.5 20.5l-30.5 -30.5l0 -246l31 -30.5l30.5 30.5l0 143.5" />
</g>
<g id="PathID_668" transform="matrix(0.0352941, 0, 0, 0.0352941, 48, 420)">
<path style="fill:#EFF5E2;fill-opacity:1" d="M378.5 -686l-30.5 30.5l-246 0l-30.5 -30.5l30.5 -31l246 0l30.5 31M419.5 -399.5l-30.5 31l-31 -31l0 -143l10.5 -20.5l0 -92.5l20.5 -20.5l30.5 31l0 245.5M92 -399.5l-30.5 31l-31 -31l0 -245.5l30.5 -31l20.5 20.5l0 92.5l10.5 20.5l0 143M419.5 -71.5l-30.5 30.5l-20.5 -20.5l0 -92l-10.5 -20.5l0 -143.5l31 -30.5l30.5 30.5l0 246M358 -71.5l-102.5 -164l0 -81l102.5 163.5l0 81.5M92 -174l-10.5 20.5l0 92l-20.5 20.5l-30.5 -30.5l0 -246l31 -30.5l30.5 30.5l0 143.5M378.5 -30.5l-30.5 30.5l-246 0l-30.5 -30.5l30.5 -31l246 0l30.5 31" />
</g>
<g id="PathID_669" transform="matrix(0.0352941, 0, 0, 0.0352941, 96, 420)">
<path style="fill:#EFF5E2;fill-opacity:1" d="M378.5 -686l-30.5 30.5l-246 0l-30.5 -30.5l30.5 -31l246 0l30.5 31M419.5 -399.5l-30.5 31l-31 -31l0 -143l10.5 -20.5l0 -92.5l20.5 -20.5l30.5 31l0 245.5M378.5 -358l-30.5 30.5l-87 0l-31 -30.5l31 -31l87 0l30.5 31M92 -399.5l-30.5 31l-31 -31l0 -245.5l30.5 -31l20.5 20.5l0 92.5l10.5 20.5l0 143M220 -358l-31 30.5l-87 0l-30.5 -30.5l30.5 -31l87 0l31 31M358 -71.5l-102 -164l0 -81.5l102 164l0 81.5M92 -174l-10.5 20.5l0 92l-20.5 20.5l-30.5 -30.5l0 -246l31 -30.5l30.5 30.5l0 143.5" />
</g>
<g id="PathID_670" transform="matrix(0.0352941, 0, 0, 0.0352941, 144, 420)">
<path style="fill:#EFF5E2;fill-opacity:1" d="M378.5 -686l-30.5 30.5l-246 0l-30.5 -30.5l30.5 -31l246 0l30.5 31M378.5 -358l-30.5 30.5l-87 0l-31 -30.5l31 -31l87 0l30.5 31M92 -399.5l-30.5 31l-31 -31l0 -245.5l30.5 -31l20.5 20.5l0 92.5l10.5 20.5l0 143M419.5 -71.5l-30.5 30.5l-20.5 -20.5l0 -92l-10.5 -20.5l0 -143.5l31 -30.5l30.5 30.5l0 246M220 -358l-31 30.5l-87 0l-30.5 -30.5l30.5 -31l87 0l31 31M378.5 -30.5l-30.5 30.5l-246 0l-30.5 -30.5l30.5 -31l246 0l30.5 31" />
</g>
<g id="PathID_671" transform="matrix(0.0352941, 0, 0, 0.0352941, 192, 420)">
<path style="fill:#EFF5E2;fill-opacity:1" d="M378.5 -686l-30.5 30.5l-246 0l-30.5 -30.5l30.5 -31l246 0l30.5 31M256 -502l-10.5 20.5l0 92.5l-20.5 20.5l-20.5 -20.5l0 -92.5l-10 -20.5l0 -143l61.5 0l0 143M256 -71.5l-61.5 0l0 -143.5l10 -20.5l0 -92l20.5 -20.5l20.5 20.5l0 92l10.5 20.5l0 143.5" />
</g>
<g id="PathID_672" transform="matrix(0.0352941, 0, 0, 0.0352941, 240, 420)">
<path style="fill:#EFF5E2;fill-opacity:1" d="M419.5 -399.5l-30.5 31l-31 -31l0 -143.5l10.5 -20.5l0 -92l20.5 -20.5l30.5 30.5l0 246M92 -399.5l-30.5 31l-31 -31l0 -246l30.5 -30.5l20.5 20.5l0 92l10.5 20.5l0 143.5M419.5 -71.5l-30.5 30.5l-20.5 -20.5l0 -92l-10.5 -20.5l0 -143.5l31 -30.5l30.5 30.5l0 246M92 -174l-10.5 20.5l0 92l-20.5 20.5l-30.5 -30.5l0 -246l31 -30.5l30.5 30.5l0 143.5M378.5 -30.5l-30.5 30.5l-246 0l-30.5 -30.5l30.5 -31l246 0l30.5 31" />
</g>
<g id="PathID_673" transform="matrix(0.0352941, 0, 0, 0.0352941, 288, 420)">
<path style="fill:#EFF5E2;fill-opacity:1" d="M419.5 -399.5l-30.5 31l-31 -31l0 -143.5l10.5 -20.5l0 -92l20.5 -20.5l30.5 30.5l0 246M194.5 -399.5l-102.5 -163.5l0 -81.5l102.5 164l0 81M419.5 -71.5l-30.5 30.5l-20.5 -20.5l0 -92l-10.5 -20.5l0 -143.5l31 -30.5l30.5 30.5l0 246M358 -71.5l-102.5 -164l0 -81l102.5 163.5l0 81.5" />
</g>
<g id="PathID_674" transform="matrix(0.0352941, 0, 0, 0.0352941, 336, 420)">
<path style="fill:#EFF5E2;fill-opacity:1" d="M419.5 -399.5l-30.5 31l-31 -31l0 -143.5l10.5 -20.5l0 -92l20.5 -20.5l30.5 30.5l0 246M256 -502l-10.5 20.5l0 92.5l-20.5 20.5l-20.5 -20.5l0 -92.5l-10 -20.5l0 -143l61.5 0l0 143M92 -399.5l-30.5 31l-31 -31l0 -246l30.5 -30.5l20.5 20.5l0 92l10.5 20.5l0 143.5M419.5 -71.5l-30.5 30.5l-20.5 -20.5l0 -92l-10.5 -20.5l0 -143.5l31 -30.5l30.5 30.5l0 246M358 -71.5l-102 -164l0 -81.5l102 164l0 81.5M194.5 -235.5l-102.5 164l0 -81l102.5 -164l0 81M92 -174l-10.5 20.5l0 92l-20.5 20.5l-30.5 -30.5l0 -246l31 -30.5l30.5 30.5l0 143.5" />
</g>
<g id="PathID_675" transform="matrix(0.0352941, 0, 0, 0.0352941, 384, 420)">
<path style="fill:#EFF5E2;fill-opacity:1" d="M358 -564l-102 164l0 -81.5l102 -163.5l0 81M194.5 -400l-102.5 -164l0 -81l102.5 163.5l0 81.5M358 -71.5l-102 -164l0 -81.5l102 164l0 81.5M194.5 -235.5l-102.5 164l0 -81l102.5 -164l0 81" />
</g>
<g id="PathID_676" transform="matrix(0.0352941, 0, 0, 0.0352941, 432, 420)">
<path style="fill:#EFF5E2;fill-opacity:1" d="M419.5 -399.5l-30.5 31l-31 -31l0 -143.5l10.5 -20.5l0 -92l20.5 -20.5l30.5 30.5l0 246M378.5 -358l-30.5 30.5l-87 0l-31 -30.5l31 -31l87 0l30.5 31M92 -399.5l-30.5 31l-31 -31l0 -246l30.5 -30.5l20.5 20.5l0 92l10.5 20.5l0 143.5M220 -358l-31 30.5l-87 0l-30.5 -30.5l30.5 -31l87 0l31 31M256 -71.5l-61.5 0l0 -143.5l10 -20.5l0 -92l20.5 -20.5l20.5 20.5l0 92l10.5 20.5l0 143.5" />
</g>
<g id="PathID_677" transform="matrix(0.0352941, 0, 0, 0.0352941, 0, 468)">
<path style="fill:#EFF5E2;fill-opacity:1" d="M378.5 -686l-30.5 30.5l-246 0l-30.5 -30.5l30.5 -31l246 0l30.5 31M358 -564l-102 164l0 -81.5l102 -163.5l0 81M194.5 -235l-102.5 163.5l0 -81.5l102.5 -163.5l0 81.5M378.5 -30.5l-30.5 30.5l-246 0l-30.5 -30.5l30.5 -31l246 0l30.5 31" />
</g>
<g id="PathID_678" transform="matrix(0.0352941, 0, 0, 0.0352941, 48, 468)">
<path style="fill:#EFF5E2;fill-opacity:1" d="M220 -686l-31 30.5l-87 0l-30.5 -30.5l30.5 -31l87 0l31 31M92 -399.5l-30.5 31l-31 -31l0 -245.5l30.5 -31l20.5 20.5l0 92.5l10.5 20.5l0 143M92 -174l-10.5 20.5l0 92l-20.5 20.5l-30.5 -30.5l0 -246l31 -30.5l30.5 30.5l0 143.5M220 -30.5l-31 30.5l-87 0l-30.5 -30.5l30.5 -31l87 0l31 31" />
</g>
<g id="PathID_679" transform="matrix(0.0352941, 0, 0, 0.0352941, 96, 468)">
<path style="fill:#EFF5E2;fill-opacity:1" d="M92 -501.5l-10.5 20.5l0 92l-20.5 20.5l-20.5 -20.5l0 -92l-10 -20.5l0 -143.5l61.5 0l0 143.5M92 -71.5l-61.5 0l0 -143.5l10 -20.5l0 -92l20.5 -20.5l20.5 20.5l0 92l10.5 20.5l0 143.5" />
</g>
<g id="PathID_680" transform="matrix(0.0352941, 0, 0, 0.0352941, 144, 468)">
<path style="fill:#EFF5E2;fill-opacity:1" d="M179 -686l-30.5 30.5l-87.5 0l-30.5 -30.5l30.5 -31l87.5 0l30.5 31M220 -399.5l-30.5 31l-31 -31l0 -143l10.5 -20.5l0 -92.5l20.5 -20.5l30.5 31l0 245.5M220 -71.5l-30.5 30.5l-20.5 -20.5l0 -92l-10.5 -20.5l0 -143.5l31 -30.5l30.5 30.5l0 246M179 -30.5l-30.5 30.5l-87.5 0l-30.5 -30.5l30.5 -31l87.5 0l30.5 31" />
</g>
<g id="PathID_681" transform="matrix(0.0352941, 0, 0, 0.0352941, 192, 468)">
<path style="fill:#EFF5E2;fill-opacity:1" d="M379 -686l-31 30.5l-245.5 0l-31 -30.5l31 -31l245.5 0l31 31M420 -399.5l-31 31l-30.5 -31l0 -143l10 -20.5l0 -92.5l20.5 -20.5l31 31l0 245.5M358.5 -563l-102.5 163.5l0 -82l102.5 -163.5l0 82M256 -502l-10 20.5l0 92.5l-20.5 20.5l-20.5 -20.5l0 -92.5l-10.5 -20.5l0 -143l61.5 0l0 143M194.5 -399.5l-102.5 -163.5l0 -82l102.5 163.5l0 82M379 -358.5l-31 31l-87 0l-30.5 -31l30.5 -30.5l87 0l31 30.5M92 -399.5l-30.5 31l-31 -31l0 -245.5l31 -31l20.5 20.5l0 92.5l10 20.5l0 143M420 -71.5l-31 30.5l-20.5 -20.5l0 -92l-10 -20.5l0 -143.5l30.5 -30.5l31 30.5l0 246M220 -358.5l-30.5 31l-87 0l-31 -31l31 -30.5l87 0l30.5 30.5M358.5 -71.5l-102.5 -164l0 -82l102.5 164l0 82M256 -71.5l-61.5 0l0 -143.5l10.5 -20.5l0 -92l20.5 -20.5l20.5 20.5l0 92l10 20.5l0 143.5M194.5 -235.5l-102.5 164l0 -82l102.5 -164l0 82M92 -174l-10 20.5l0 92l-20.5 20.5l-31 -30.5l0 -246l31 -30.5l30.5 30.5l0 143.5M379 -30.5l-31 30.5l-245.5 0l-31 -30.5l31 -31l245.5 0l31 31" />
</g>
</svg>
