<?xml version="1.0" encoding="utf-8"?>
<svg version="1.1" id="Layer_1"
xmlns="http://www.w3.org/2000/svg"
xmlns:xlink="http://www.w3.org/1999/xlink"
xmlns:author="http://www.sothink.com"
width="260px" height="308px"
xml:space="preserve">
<g id="PathID_475" transform="matrix(0.0352941, 0, 0, 0.0352941, 48, 37.8)">
<path style="fill:#EFF5E2;fill-opacity:1" d="M40 -226q-1 35 11 76.5q12.5 42 45.5 80.5q33 38 95.5 63q62.5 24.5 162 25.5q20.5 0.5 55 -4q35 -4 75 -17q40 -13 76.5 -39.5q36.5 -26 59.5 -70q23 -44 24 -110q-1 -65.5 -27.5 -104.5q-27 -39 -70.5 -60.5q-43.5 -21 -94.5 -32.5l-179 -44q-16 -3.5 -34 -10.5q-18 -7 -30.5 -22.5q-13 -15.5 -13.5 -44q0.5 -33 20 -52.5q19.5 -19 49 -27.5q29 -8.5 59 -8q66 1 97.5 21.5q32 20 42 46q10 25.5 11 43l147.5 0q0 -34.5 -13.5 -75q-13.5 -40.5 -46 -77.5q-32 -37 -87.5 -60.5q-55.5 -23.5 -140 -24.5q-88.5 1 -144.5 24q-56 23 -86 58.5q-30 35.5 -41.5 74q-11 38 -10.5 70q0.5 60 20 98q19 38 52.5 60q33 22.5 74.5 35q41.5 13 86.5 23l79 18q39 9 69 19.5q30 10 47 27q16.5 16.5 17 45q-1 38.5 -23.5 59q-23 21 -58 28.5q-35 8 -72 7.5q-66.5 -1 -100 -21.5q-33.5 -21 -44.5 -48q-11.5 -27.5 -11 -49l-147.5 0" />
</g>
<g id="PathID_476" transform="matrix(0.0352941, 0, 0, 0.0352941, 96, 37.8)">
<path style="fill:#EFF5E2;fill-opacity:1" d="M224.5 0l143.5 0q23.5 -113 39.5 -191.5q16.5 -78.5 28 -133q11 -54.5 19 -95q7.5 -40 14 -76q6.5 -36 13 -77.5l2 0q7 41.5 14 79q6.5 38 15 80q8 42 19 97.5q11 55 27 132q16 77 38.5 184.5l147.5 0l207 -735l-155.5 0q-28.5 120.5 -48 204.5q-19.5 84 -32 139.5q-12.5 55.5 -20 90.5q-7.5 35.5 -12 59q-4.5 24 -8 44l-2 0q-5 -27.5 -9.5 -53.5q-4.5 -26 -11.5 -60.5q-6.5 -34.5 -17.5 -87.5q-11 -53 -28.5 -134.5q-17 -81.5 -42.5 -201.5l-163 0q-29 143.5 -47 236q-18 92.5 -28.5 148.5q-10 56.5 -16 91q-6 34.5 -11 62l-2 0q-3.5 -24.5 -8 -49.5q-4.5 -25 -11.5 -60q-7 -35 -19 -89q-12 -54 -31 -136.5q-19 -82.5 -47 -202.5l-164 0l208 735" />
</g>
<g id="PathID_477" transform="matrix(0.0352941, 0, 0, 0.0352941, 144, 37.8)">
<path style="fill:#EFF5E2;fill-opacity:1" d="M508 -402q-1 -50 -23 -81q-22.5 -31.5 -57 -48q-34 -16.5 -71 -22.5q-36.5 -6.5 -66.5 -6q-56.5 -1 -109 12.5q-52.5 13 -89 54.5q-36.5 41 -45.5 123.5l138 0q2 -16.5 9 -34q7 -17.5 25.5 -29.5q18.5 -12 54 -12.5q19 -0.5 40.5 3q22 3.5 37.5 17q15.5 14 16 43.5q-1 22.5 -16.5 32q-15.5 9.5 -33.5 11l-129 19.5q-46 6.5 -82 27.5q-35.5 21 -56 57.5q-20.5 36 -21 89.5q1 56 25 91.5q24 35 61.5 51.5q37.5 16 79.5 16q48.5 -0.5 81.5 -13q33.5 -12.5 56 -30.5q22.5 -18 38.5 -35.5q2.5 22 5 34q2.5 12.5 8.5 30.5l154.5 0l0 -21.5q-8.5 -2.5 -16 -10.5q-7 -7.5 -11 -25q-4.5 -17.5 -4.5 -49.5l0 -295.5M367.5 -196q-0.5 33.5 -19 58q-18.5 24 -47.5 37q-29 13 -61.5 13q-14.5 0 -29.5 -6q-15.5 -6 -26 -20q-10.5 -14.5 -11 -39.5q0.5 -29.5 13.5 -46q13 -16 35 -24q22 -8 49 -12q43.5 -7 65.5 -14.5q21.5 -7 31.5 -15.5l0 69.5" />
</g>
<g id="PathID_478" transform="matrix(0.0352941, 0, 0, 0.0352941, 192, 37.8)">
<path style="fill:#EFF5E2;fill-opacity:1" d="M390.5 -198.5q0 13.5 -9 36q-9.5 22 -31 40q-21.5 18 -57.5 19q-40 -0.5 -63 -19.5q-23 -18.5 -33 -47q-10 -28 -12.5 -58q-2.5 -30 -2 -52.5q-0.5 -35 9.5 -71q10 -36.5 34.5 -61q25 -25 69.5 -26q33 -1.5 53 13q20 14.5 29.5 35.5q10 21 13 39.5l145.5 0q-6 -63.5 -31.5 -104.5q-25.5 -41 -62 -63.5q-36.5 -23 -75.5 -32q-39 -9.5 -72 -9q-91.5 1 -149.5 39.5q-57.5 38.5 -84.5 106q-27.5 68 -27 157q-0.5 43.5 10.5 90.5q11 47 38.5 88q28 41 77 66.5q49.5 25.5 126 26.5q74.5 -1 122.5 -25.5q48 -24.5 75 -60q27 -35.5 38.5 -70.5q11.5 -35 12.5 -57l-145 0" />
</g>
<g id="PathID_479" transform="matrix(0.0352941, 0, 0, 0.0352941, 0, 84)">
<path style="fill:#EFF5E2;fill-opacity:1" d="M564.5 -735l-143.5 0l0 260.5l-2 0q-11 -18 -30.5 -37.5q-19.5 -19.5 -50.5 -33q-31 -14 -76.5 -14.5q-61 0 -112 31q-51 31 -82.5 93q-31 62.5 -32 157q0 56.5 13 108.5q13.5 52.5 41 94q28 41.5 71.5 65.5q43.5 24.5 104 25q45.5 0.5 88 -18.5q42.5 -19 69.5 -64.5l2 0l0 68.5l140.5 0l0 -735M182.5 -268.5q-0.5 -43.5 11.5 -81.5q11.5 -38 38 -61.5q27 -23.5 72.5 -24q48.5 1 75.5 26q26.5 25.5 37 65q10.5 40 10 84q0.5 41.5 -12.5 77q-13 35.5 -41 57.5q-28 22 -73.5 22.5q-34 -0.5 -57 -16.5q-23 -16.5 -36 -41.5q-13.5 -25.5 -19 -54q-5.5 -28 -5.5 -53l0 0" />
</g>
<g id="PathID_480" transform="matrix(0.0352941, 0, 0, 0.0352941, 48, 84)">
<path style="fill:#EFF5E2;fill-opacity:1" d="M387 -159.5q-9.5 29.5 -35.5 44.5q-26 15 -56.5 15q-43 -0.5 -68.5 -15q-25 -14.5 -37.5 -36.5q-12.5 -21.5 -16.5 -44q-4.5 -22 -5.5 -38l373.5 0l0 -25.5q-1 -93 -25 -152q-24 -59.5 -62.5 -91.5q-39 -32.5 -83 -45q-44.5 -12.5 -85.5 -12q-71 1 -118.5 22.5q-47.5 21.5 -76.5 56q-28.5 34 -43 72q-14 38 -18.5 71.5q-5 33.5 -4.5 54q1 111.5 36 177q35.5 65.5 96.5 93.5q61.5 28 139 27.5q47 0.5 95 -16q47.5 -16.5 86 -54.5q38.5 -38.5 58.5 -103.5l-147.5 0M171 -326.5q6 -54.5 33.5 -84.5q27.5 -30 78 -30.5q23.5 -0.5 47.5 10q23.5 10.5 41 36q17.5 25 22 69l-222 0" />
</g>
<g id="PathID_481" transform="matrix(0.0352941, 0, 0, 0.0352941, 96, 84)">
<path style="fill:#EFF5E2;fill-opacity:1" d="M232.5 -442.5l93 0l0 -102.5l-93 0l0 -21.5q-0.5 -22 2 -35.5q2.5 -13 13.5 -19q10.5 -5.5 34.5 -5.5l40 0l0 -116q-8.5 -0.5 -25.5 -1.5q-17 -0.5 -48 -0.5q-74.5 -1 -117 35.5q-42 36.5 -43 120l0 44l-79 0l0 102.5l79 0l0 442.5l143.5 0l0 -442.5" />
</g>
<g id="PathID_482" transform="matrix(0.0352941, 0, 0, 0.0352941, 144, 84)">
<path style="fill:#EFF5E2;fill-opacity:1" d="M429 -545l0 81l-2 0q-8 -19 -26.5 -41q-18 -22 -50.5 -37.5q-32.5 -16 -82.5 -17q-61 0 -112 31q-51 31 -82.5 93q-31 62.5 -32 156.5q0.5 95.5 31.5 158q31 62.5 84 93q53 31 119 31q63.5 -1.5 96 -25.5q33 -24 49.5 -56.5l2 2l0 65.5q0 66 -28 96q-28 30 -85.5 29.5q-41 0 -61.5 -8q-21 -8 -28.5 -21q-8 -12.5 -10.5 -26.5l-155.5 0q4 57.5 39 94q35 36.5 88 53q53 17 110.5 17q99.5 -1 156 -26q57 -25 82.5 -64q25.5 -39.5 31.5 -82q6.5 -43 5.5 -79.5l0 -516l-137.5 0M188.5 -269.5q0.5 -63 17.5 -99.5q16.5 -36.5 42.5 -51.5q25.5 -15.5 52.5 -15q40 0.5 67.5 22q27.5 21 41.5 57q14 36 14 81q0.5 38 -10 74q-10.5 36 -37 59.5q-26.5 23 -75 24q-42 -1 -67 -24q-25 -22.5 -36 -57.5q-11 -34.5 -10.5 -70l0 0" />
</g>
<g id="PathID_483" transform="matrix(0.0352941, 0, 0, 0.0352941, 192, 84)">
<path style="fill:#EFF5E2;fill-opacity:1" d="M559 -377q-0.5 -60 -25.5 -100.5q-25 -40.5 -67.5 -61.5q-42.5 -20.5 -96.5 -20.5q-59 1 -101 25.5q-42 24.5 -56.5 59.5l-2 0l0 -260.5l-143.5 0l0 735l143.5 0l0 -312.5q1 -62.5 32.5 -94q31.5 -32 80 -32q44.5 1 64.5 19q20 18 24.5 43q5 24.5 4 45.5l0 331l143.5 0l0 -377" />
</g>
<g id="PathID_484" transform="matrix(0.0352941, 0, 0, 0.0352941, 0, 132)">
<path style="fill:#EFF5E2;fill-opacity:1" d="M70.5 -545l0 545l143.5 0l0 -545l-143.5 0M214 -742.5l-143.5 0l0 133l143.5 0l0 -133" />
</g>
<g id="PathID_485" transform="matrix(0.0352941, 0, 0, 0.0352941, 48, 132)">
<path style="fill:#EFF5E2;fill-opacity:1" d="M559 -377q-0.5 -60 -25.5 -100.5q-25 -40.5 -67.5 -61.5q-42.5 -20.5 -96.5 -20.5q-51.5 1 -84 17q-33 16.5 -51.5 38.5q-19 21.5 -28 39l-2 0l0 -80l-137.5 0l0 545l143.5 0l0 -312.5q1 -62.5 32.5 -94q31.5 -32 80 -32q44.5 1 64.5 19q20 18 24.5 43q5 24.5 4 45.5l0 331l143.5 0l0 -377" />
</g>
<g id="PathID_486" transform="matrix(0.0352941, 0, 0, 0.0352941, 96, 132)">
<path style="fill:#EFF5E2;fill-opacity:1" d="M592 -272.5q-1 -98 -39.5 -162q-39 -63.5 -101.5 -94.5q-63 -30.5 -137.5 -30.5q-74.5 0 -137.5 30.5q-62.5 31 -101.5 94.5q-38.5 64 -39.5 162q1 98 39.5 162q39 63.5 101.5 94.5q63 30.5 137.5 30.5q74.5 0 137.5 -30.5q62.5 -31 101.5 -94.5q38.5 -64 39.5 -162l0 0M444.5 -272.5q0.5 36 -9.5 74q-10 38 -38.5 64.5q-28.5 26.5 -83 27.5q-54.5 -1 -83 -27.5q-28.5 -26.5 -38.5 -64.5q-10 -38 -9.5 -74q-0.5 -36 9.5 -74q10 -38 38.5 -64.5q28.5 -26.5 83 -27.5q54.5 1 83 27.5q28.5 26.5 38.5 64.5q10 38 9.5 74l0 0" />
</g>
<g id="PathID_487" transform="matrix(0.0352941, 0, 0, 0.0352941, 144, 132)">
<path style="fill:#EFF5E2;fill-opacity:1" d="M201 -260.5q-0.5 -44 9.5 -84q10.5 -39.5 37 -65q26.5 -25 75 -26q45.5 0.5 72.5 24q26.5 23.5 38 61.5q12 38 11.5 81.5q0 25 -5.5 53q-5.5 28.5 -19 54q-13 25 -36 41.5q-23 16 -57 16.5q-45.5 -0.5 -73.5 -22.5q-27.5 -22 -40.5 -57.5q-12.5 -35.5 -12 -77l0 0M201 -545l-137.5 0l0 758l143.5 0l0 -282.5l2 0q8.5 15.5 25 35q17 19.5 48 33.5q31 14.5 80.5 15.5q60.5 -0.5 104 -25q43.5 -24 71.5 -65.5q27.5 -41.5 41 -94q13 -52 13 -108.5q-1 -94.5 -32 -157q-31.5 -62 -82.5 -93q-51 -31 -112 -31q-47.5 0.5 -79 14.5q-31.5 14 -51 35.5q-20 21 -32.5 43l-2 0l0 -78.5" />
</g>
<g id="PathID_488" transform="matrix(0.0352941, 0, 0, 0.0352941, 192, 132)">
<path style="fill:#EFF5E2;fill-opacity:1" d="M65.5 0l143.5 0l0 -284q-0.5 -31 9.5 -60.5q10 -29.5 38.5 -49q29 -20 84 -20.5q10 0 21 0q10.5 0.5 20 2l0 -145.5q-7 -0.5 -14 -1.5q-6.5 -0.5 -13.5 -0.5q-43 0.5 -71 16q-28 15.5 -46 40q-18.5 24.5 -32.5 52.5l-2 0l0 -94l-137.5 0l0 545" />
</g>
<g id="PathID_489" transform="matrix(0.0352941, 0, 0, 0.0352941, 0, 180)">
<path style="fill:#EFF5E2;fill-opacity:1" d="M515 -379q-4.5 -57.5 -28 -93q-23 -36 -58.5 -55q-35.5 -19 -76.5 -26q-41 -7 -81.5 -6.5q-84.5 1 -133 29.5q-48 28.5 -68 70q-20 41.5 -19.5 83q1 50.5 25 81q24.5 31 62.5 48q38.5 17 81.5 26.5q43 9.5 81.5 17q38.5 7.5 62.5 19.5q24.5 12 25 34.5q0.5 11 -7 24q-8 13 -27.5 22.5q-20 9.5 -56.5 10q-66.5 -0.5 -93.5 -22.5q-26.5 -22.5 -25.5 -57.5l-147.5 0q2 54.5 25.5 91q23 36.5 60.5 58q38 21.5 83.5 30.5q45.5 9 93 9q32.5 0.5 73 -7q40.5 -7.5 78 -27q37.5 -20 62 -57q24.5 -37.5 25.5 -96.5q-1 -50 -25.5 -80.5q-24.5 -30.5 -63 -48q-38.5 -17.5 -82 -27q-43.5 -9.5 -82 -17.5q-39 -7.5 -63.5 -19q-24.5 -11.5 -25 -32.5q-0.5 -12.5 5.5 -24.5q6 -12 25 -20.5q19 -8 57.5 -8.5q38.5 0.5 58 11q20 10.5 28 26.5q7.5 16.5 10.5 34.5l140 0" />
</g>
<g id="PathID_490" transform="matrix(0.0352941, 0, 0, 0.0352941, 48, 180)">
<path style="fill:#EFF5E2;fill-opacity:1" d="M227.5 -692.5l-143.5 0l0 147.5l-73.5 0l0 102.5l73.5 0l0 331q-0.5 35.5 10.5 61.5q11 26.5 43 41q32 15 93 15l18.5 0q17 0 33.5 -0.5q17 -1 34 -1.5l0 -108.5q-7.5 1 -15 1.5q-7.5 0.5 -14.5 0.5q-29 0 -41.5 -4.5q-12.5 -4.5 -15.5 -14q-3 -9.5 -2.5 -25.5l0 -296l89 0l0 -102.5l-89 0l0 -147.5" />
</g>
<g id="PathID_491" transform="matrix(0.0352941, 0, 0, 0.0352941, 96, 180)">
<path style="fill:#EFF5E2;fill-opacity:1" d="M556 -545l-152.5 0l-115.5 401.5l-2 0l-113 -401.5l-159.5 0l195.5 545l150.5 0l196.5 -545" />
</g>
<g id="PathID_492" transform="matrix(0.0352941, 0, 0, 0.0352941, 144, 180)">
<path style="fill:#EFF5E2;fill-opacity:1" d="M368.5 -277.5l179.5 -267.5l-169 0l-90 159l-92.5 -159l-174 0l178.5 267.5l-185.5 277.5l173 0l94 -164l94.5 164l177 0l-185.5 -277.5" />
</g>
<g id="PathID_493" transform="matrix(0.0352941, 0, 0, 0.0352941, 192, 180)">
<path style="fill:#EFF5E2;fill-opacity:1" d="M552 -545l-151.5 0l-111.5 401.5l-2 0l-117 -401.5l-159.5 0l200.5 567.5q-6.5 37 -18.5 54.5q-12 17.5 -31 23q-18.5 5 -44.5 4.5q-9 0 -16 -0.5q-7 -0.5 -11.5 -1.5l0 114.5q15.5 0.5 32.5 1.5q17 0.5 32 0.5q46 0.5 76 -7.5q30 -7.5 50.5 -31q21 -23.5 40.5 -69q19 -45.5 43.5 -120.5l187.5 -536" />
</g>
</svg>
