<?xml version="1.0" encoding="utf-8"?>
<svg version="1.1" id="Layer_1"
xmlns="http://www.w3.org/2000/svg"
xmlns:xlink="http://www.w3.org/1999/xlink"
xmlns:author="http://www.sothink.com"
width="260px" height="308px"
xml:space="preserve">
<g id="PathID_555" transform="matrix(0.0352941, 0, 0, 0.0352941, 0, 37.8)">
<path style="fill:#EFF5E2;fill-opacity:1" d="M452 -314l-116 -313.5l-110.5 313.5l226.5 0M691 0l-124.5 0l-83.5 -218.5l-286.5 0l-79.5 218.5l-118 0l279 -738.5l116.5 0l296.5 738.5" />
</g>
<g id="PathID_556" transform="matrix(0.0352941, 0, 0, 0.0352941, 48, 37.8)">
<path style="fill:#EFF5E2;fill-opacity:1" d="M80.5 -738.5l238 0q376.5 0 376.5 365q0 373.5 -376.5 373.5l-238 0l0 -738.5M196 -105.5l120.5 0q151.5 0 205.5 -69.5q54.5 -69.5 54.5 -198.5q0 -125 -54 -192.5q-54 -67.5 -206 -67.5l-120.5 0l0 528" />
</g>
<g id="PathID_557" transform="matrix(0.0352941, 0, 0, 0.0352941, 96, 37.8)">
<path style="fill:#EFF5E2;fill-opacity:1" d="M208.5 0l-116.5 0l0 -738.5l116.5 0l0 738.5" />
</g>
<g id="PathID_558" transform="matrix(0.0352941, 0, 0, 0.0352941, 144, 37.8)">
<path style="fill:#EFF5E2;fill-opacity:1" d="M688 0l-141 0l-251 -358.5l-100 103.5l0 255l-115.5 0l0 -738.5l115.5 0l0 356l336 -356l143 0l-301 306l314 432.5" />
</g>
<g id="PathID_559" transform="matrix(0.0352941, 0, 0, 0.0352941, 192, 37.8)">
<path style="fill:#EFF5E2;fill-opacity:1" d="M776.5 0l-111 0l0 -611.5l-187 611.5l-100.5 0l-187 -611.5l0 611.5l-110.5 0l0 -738.5l160 0l187.5 599l188 -599l160.5 0l0 738.5" />
</g>
<g id="PathID_560" transform="matrix(0.0352941, 0, 0, 0.0352941, 0, 84)">
<path style="fill:#EFF5E2;fill-opacity:1" d="M700 0l-120.5 0l-70 -198q-17.5 -48.5 -57 -79q-39.5 -30.5 -91 -30.5l-165.5 0l0 307.5l-115.5 0l0 -738.5l328 0q85 0 140.5 17q55.5 17 90.5 71.5q35.5 55 35.5 123q0 78 -45.5 130.5q-45.5 53 -116 67l0 -13q73 23.5 113.5 133.5l73 209M196 -412.5l202 0q85.5 0 122 -25.5q36.5 -25.5 36.5 -89q0 -113 -144 -113l-216.5 0l0 227.5" />
</g>
<g id="PathID_561" transform="matrix(0.0352941, 0, 0, 0.0352941, 48, 84)">
<path style="fill:#EFF5E2;fill-opacity:1" d="M372.5 12.5q-129 0 -193.5 -51q-65 -50.5 -81.5 -118q-17 -68 -17 -156.5l0 -425.5l115.5 0l0 424q0 138 44.5 179.5q44 41.5 132 41.5q87.5 0 132 -42q44.5 -41.5 44.5 -179l0 -424l116 0l0 425.5q0 132.5 -32.5 197q-32 64.5 -97.5 96.5q-65.5 32 -162.5 32l0 0" />
</g>
<g id="PathID_562" transform="matrix(0.0352941, 0, 0, 0.0352941, 96, 84)">
<path style="fill:#EFF5E2;fill-opacity:1" d="M181.5 -478q46.5 -74 138 -74q107 0 165.5 76q58.5 75.5 58.5 202q0 131 -65 208.5q-65.5 78 -165.5 78q-88.5 0 -131.5 -52.5l0 40l-113.5 0l0 -738.5l113.5 0l0 260.5M181.5 -137q53 56.5 125.5 56.5q54.5 0 87.5 -47.5q33 -48 33 -146q0 -93 -31 -139.5q-31 -46.5 -85.5 -46.5q-71.5 0 -129.5 82.5l0 240.5" />
</g>
<g id="PathID_563" transform="matrix(0.0352941, 0, 0, 0.0352941, 144, 84)">
<path style="fill:#EFF5E2;fill-opacity:1" d="M397.5 -163l0 -239.5q-54 -57.5 -126.5 -57.5q-54 0 -87 48q-33 47.5 -33 146q0 93.5 31 139.5q31 46 85 46q72 0 130.5 -82.5l0 0M397.5 -62.5q-46.5 75 -138.5 75q-107 0 -165.5 -76q-58 -75.5 -58 -202.5q0 -131 65 -208.5q65 -77.5 164.5 -77.5q88 0 132.5 52l0 -238.5l112.5 0l0 738.5l-112.5 0l0 -62.5" />
</g>
<g id="PathID_564" transform="matrix(0.0352941, 0, 0, 0.0352941, 192, 84)">
<path style="fill:#EFF5E2;fill-opacity:1" d="M299 12.5q-119 0 -191 -75q-72.5 -75 -72.5 -207.5q0 -131 70 -206.5q70.5 -75.5 183.5 -75.5q115.5 0 185 74.5q69.5 74 69.5 207.5l0 32l-391.5 0q5.5 76 46.5 117q41 40.5 100.5 40.5q46 0 81.5 -22.5q35.5 -22.5 37.5 -72.5l116 0q-11.5 96 -77 142q-65 46 -158 46l0 0M425.5 -330.5q-10.5 -60 -47.5 -94.5q-36.5 -35 -89 -35q-51 0 -88 34.5q-37 34.5 -47 95l271.5 0" />
</g>
<g id="PathID_565" transform="matrix(0.0352941, 0, 0, 0.0352941, 0, 132)">
<path style="fill:#EFF5E2;fill-opacity:1" d="M181.5 0l-113.5 0l0 -738.5l113.5 0l0 738.5" />
</g>
<g id="PathID_566" transform="matrix(0.0352941, 0, 0, 0.0352941, 48, 132)">
<path style="fill:#EFF5E2;fill-opacity:1" d="M791.5 0l-113 0l0 -346.5q0 -61.5 -16.5 -85.5q-16 -24 -54.5 -24q-62 0 -121.5 76.5l0 379.5l-112.5 0l0 -346.5q0 -61.5 -16 -85.5q-16.5 -24 -55.5 -24q-61.5 0 -120.5 76.5l0 379.5l-113.5 0l0 -540l113.5 0l0 66q50.5 -78 135 -78q121.5 0 149.5 94q42 -59 80 -76.5q38.5 -17.5 75.5 -17.5q170 0 170 202l0 350" />
</g>
<g id="PathID_567" transform="matrix(0.0352941, 0, 0, 0.0352941, 96, 132)">
<path style="fill:#EFF5E2;fill-opacity:1" d="M289 -552q115.5 0 185 74.5q69.5 74 69.5 207.5q0 133.5 -69.5 208q-69 74.5 -185 74.5q-115.5 0 -184.5 -74.5q-69 -74.5 -69 -208q0 -133.5 69 -208q69.5 -74 184.5 -74l0 0M289 -80.5q61.5 0 100 -47q38.5 -47 38.5 -142.5q0 -95.5 -38.5 -142.5q-38.5 -47.5 -100 -47.5q-61 0 -99.5 47q-38.5 47 -38.5 143q0 96 38.5 143q38 46.5 99.5 46.5l0 0" />
</g>
<g id="PathID_568" transform="matrix(0.0352941, 0, 0, 0.0352941, 144, 132)">
<path style="fill:#EFF5E2;fill-opacity:1" d="M181.5 -478q46.5 -74 138 -74q107 0 165.5 76q58.5 75.5 58.5 202q0 131 -65 208.5q-65.5 78 -165.5 78q-88.5 0 -131.5 -52.5l0 240l-113.5 0l0 -740l113.5 0l0 62M181.5 -137q53 56.5 125.5 56.5q54.5 0 87.5 -47.5q33 -48 33 -146q0 -93 -31 -139.5q-31 -46.5 -85.5 -46.5q-71.5 0 -129.5 82.5l0 240.5" />
</g>
<g id="PathID_569" transform="matrix(0.0352941, 0, 0, 0.0352941, 192, 132)">
<path style="fill:#EFF5E2;fill-opacity:1" d="M359 -436q-32.5 -5.5 -67 -5.5q-65 0 -110.5 66.5l0 375l-113.5 0l0 -540l113.5 0l0 72.5q42.5 -84.5 124.5 -84.5q20.5 0 53 5.5l0 110.5" />
</g>
<g id="PathID_570" transform="matrix(0.0352941, 0, 0, 0.0352941, 0, 180)">
<path style="fill:#EFF5E2;fill-opacity:1" d="M264 12.5q-223 0 -233 -188l113 0q1 95 119 95q54 0 80.5 -21q27 -21 27 -52q0 -29 -26 -42q-26 -12.5 -118.5 -36q-92 -23 -137.5 -53.5q-45.5 -30.5 -45.5 -107.5q0 -69.5 56 -114.5q56 -45 148 -45q214.5 0 219 165.5l-112 0q-5 -73.5 -101 -73.5q-43.5 0 -70.5 15.5q-26.5 15.5 -26.5 44q0 24.5 20 36q20 12 114.5 34.5q95 23 144 55.5q49 32.5 49 112q0 75.5 -60 125q-60 50 -159.5 50l0 0" />
</g>
<g id="PathID_571" transform="matrix(0.0352941, 0, 0, 0.0352941, 48, 180)">
<path style="fill:#EFF5E2;fill-opacity:1" d="M290.5 -1q-39.5 8 -76.5 8q-60.5 0 -89.5 -22.5q-29.5 -22.5 -36.5 -56.5q-6.5 -34.5 -6.5 -90.5l0 -285l-64.5 0l0 -92.5l64.5 0l0 -129.5l112.5 0l0 129.5l84.5 0l0 92.5l-84.5 0l0 290q0 50 10.5 61q10.5 11.5 29.5 11.5q23 0 56.5 -4l0 88" />
</g>
<g id="PathID_572" transform="matrix(0.0352941, 0, 0, 0.0352941, 96, 180)">
<path style="fill:#EFF5E2;fill-opacity:1" d="M515.5 0l-130.5 0l-124 -203l-123.5 203l-130.5 0l192 -280l-177 -260l130.5 0l108.5 181.5l108.5 -181.5l131 0l-177 259l192 281" />
</g>
<g id="PathID_573" transform="matrix(0.0352941, 0, 0, 0.0352941, 144, 180)">
<path style="fill:#EFF5E2;fill-opacity:1" d="M107.5 105.5q61.5 0 102.5 -115.5l-197 -530l118 0l130 407l130.5 -407l118 0l-197.5 533.5q-29 76 -49 117q-20.5 41 -54.5 70.5q-34.5 30 -85.5 30q-36 0 -69.5 -9.5l0 -103q32.5 7 54 7l0 0" />
</g>
</svg>
