<?xml version="1.0" encoding="utf-8"?>
<svg version="1.1" id="Layer_1"
xmlns="http://www.w3.org/2000/svg"
xmlns:xlink="http://www.w3.org/1999/xlink"
xmlns:author="http://www.sothink.com"
width="35px" height="35px"
xml:space="preserve">
<g id="653" transform="matrix(1, 0, 0, 1, 17.3, 20.45)">
<path style="fill:#000000;fill-opacity:1" d="M11.85,-15.05Q16.8 -10.15 16.8 -3.15Q16.8 3.8 11.85 8.7Q6.95 13.65 0 13.65Q-7 13.65 -11.9 8.7Q-16.8 3.8 -16.8 -3.15Q-16.8 -10.15 -11.9 -15.05Q-7 -19.95 0 -19.95Q6.95 -19.95 11.85 -15.05" />
<path style="fill:none;stroke-width:1;stroke-linecap:round;stroke-linejoin:round;stroke-miterlimit:3;stroke:#000000;stroke-opacity:1" d="M11.85,-15.05Q16.8 -10.15 16.8 -3.15Q16.8 3.8 11.85 8.7Q6.95 13.65 0 13.65Q-7 13.65 -11.9 8.7Q-16.8 3.8 -16.8 -3.15Q-16.8 -10.15 -11.9 -15.05Q-7 -19.95 0 -19.95Q6.95 -19.95 11.85 -15.05z" />
</g>
</svg>
