<?xml version="1.0" encoding="utf-8"?>
<svg version="1.1" id="Layer_1"
xmlns="http://www.w3.org/2000/svg"
xmlns:xlink="http://www.w3.org/1999/xlink"
xmlns:author="http://www.sothink.com"
width="30px" height="30px"
xml:space="preserve">
<g id="726" transform="matrix(1, 0, 0, 1, 0, 0)">
<path style="fill:#FFFF00;fill-opacity:1" d="M18.25,0L20.4 0L20.4 2.15L18.25 2.15L18.25 0M14.95,0L17.25 0L17.25 2.15L14.95 2.15L14.95 0M14.35,2.15L12.1 2.15L12.1 0L14.35 0L14.35 2.15M17.25,3L17.25 5.15L14.95 5.15L14.95 3L17.25 3M11.25,2.15L9.1 2.15L9.1 0L11.25 0L11.25 2.15M11.25,8.15L9.1 8.15L9.1 6L11.25 6L11.25 8.15M12.1,6L14.35 6L14.35 8.15L12.1 8.15L12.1 6M17.25,9L17.25 11.15L14.95 11.15L14.95 9L17.25 9M14.95,6L17.25 6L17.25 8.15L14.95 8.15L14.95 6M18.25,6L20.4 6L20.4 8.15L18.25 8.15L18.25 6M14.35,9L14.35 11.15L12.1 11.15L12.1 9L14.35 9M14.35,3L14.35 5.15L12.1 5.15L12.1 3L14.35 3M11.25,5.15L9.1 5.15L9.1 3L11.25 3L11.25 5.15M18.25,3L20.4 3L20.4 5.15L18.25 5.15L18.25 3M23.4,3L23.4 5.15L21.25 5.15L21.25 3L23.4 3M21,2.15L21 0L23.15 0L23.15 2.15L21 2.15M23.4,9L23.4 11.15L21.25 11.15L21.25 9L23.4 9M23.4,8.15L21.25 8.15L21.25 6L23.4 6L23.4 8.15M24.2,6L26.35 6L26.35 8.15L24.2 8.15L24.2 6M29.25,9L29.25 11.15L27.1 11.15L27.1 9L29.25 9M26.35,9L26.35 11.15L24.2 11.15L24.2 9L26.35 9M24.1,5.15L24.1 3L26.25 3L26.25 5.15L24.1 5.15M20.4,9L20.4 11.15L18.25 11.15L18.25 9L20.4 9M29.3,14.95L29.3 17.1L27.15 17.1L27.15 14.95L29.3 14.95M26.35,14.15L24.2 14.15L24.2 12L26.35 12L26.35 14.15M27.1,12L29.25 12L29.25 14.15L27.1 14.15L27.1 12M20.4,14.15L18.25 14.15L18.25 12L20.4 12L20.4 14.15M23.45,14.95L23.45 17.1L21.3 17.1L21.3 14.95L23.45 14.95M21.25,12L23.4 12L23.4 14.15L21.25 14.15L21.25 12M21.3,17.95L23.45 17.95L23.45 20.1L21.3 20.1L21.3 17.95M24.25,17.95L26.4 17.95L26.4 20.1L24.25 20.1L24.25 17.95M20.45,20.1L18.3 20.1L18.3 17.95L20.45 17.95L20.45 20.1M23.45,20.95L23.45 23.1L21.3 23.1L21.3 20.95L23.45 20.95M27.15,17.95L29.3 17.95L29.3 20.1L27.15 20.1L27.15 17.95M26.4,20.95L26.4 23.1L24.25 23.1L24.25 20.95L26.4 20.95M26.4,17.1L24.25 17.1L24.25 14.95L26.4 14.95L26.4 17.1M20.45,17.1L18.3 17.1L18.3 14.95L20.45 14.95L20.45 17.1M17.3,14.95L17.3 17.1L15 17.1L15 14.95L17.3 14.95M14.35,14.15L12.1 14.15L12.1 12L14.35 12L14.35 14.15M17.25,14.15L14.95 14.15L14.95 12L17.25 12L17.25 14.15M11.3,14.95L11.3 17.1L9.15 17.1L9.15 14.95L11.3 14.95M11.25,14.15L9.1 14.15L9.1 12L11.25 12L11.25 14.15M11.3,20.95L11.3 23.1L9.15 23.1L9.15 20.95L11.3 20.95M11.3,20.1L9.15 20.1L9.15 17.95L11.3 17.95L11.3 20.1M12.15,17.95L14.4 17.95L14.4 20.1L12.15 20.1L12.15 17.95M17.3,20.95L17.3 23.1L15 23.1L15 20.95L17.3 20.95M15,20.1L15 17.95L17.3 17.95L17.3 20.1L15 20.1M14.4,20.95L14.4 23.1L12.15 23.1L12.15 20.95L14.4 20.95M14.4,17.1L12.15 17.1L12.15 14.95L14.4 14.95L14.4 17.1M18.3,23.95L20.45 23.95L20.45 26.1L18.3 26.1L18.3 23.95M17.3,26.1L15 26.1L15 23.95L17.3 23.95L17.3 26.1M17.3,26.95L17.3 29.1L15 29.1L15 26.95L17.3 26.95M14.4,26.1L12.15 26.1L12.15 23.95L14.4 23.95L14.4 26.1M11.3,26.95L11.3 29.1L9.15 29.1L9.15 26.95L11.3 26.95M11.3,26.1L9.15 26.1L9.15 23.95L11.3 23.95L11.3 26.1M14.4,29.1L12.15 29.1L12.15 26.95L14.4 26.95L14.4 29.1M18.3,26.95L20.45 26.95L20.45 29.1L18.3 29.1L18.3 26.95M26.3,26.1L24.15 26.1L24.15 23.95L26.3 23.95L26.3 26.1M21.3,23.95L23.45 23.95L23.45 26.1L21.3 26.1L21.3 23.95M23.2,26.95L23.2 29.1L21.05 29.1L21.05 26.95L23.2 26.95M20.45,20.95L20.45 23.1L18.3 23.1L18.3 20.95L20.45 20.95M11.25,11.15L9.1 11.15L9.1 9L11.25 9L11.25 11.15M8.25,3L8.25 5.15L6.1 5.15L6.1 3L8.25 3M8.25,2.15L6.1 2.15L6.1 0L8.25 0L8.25 2.15M3.1,6L5.25 6L5.25 8.15L3.1 8.15L3.1 6M2.15,9L2.15 11.15L0 11.15L0 9L2.15 9M8.25,9L8.25 11.15L6.1 11.15L6.1 9L8.25 9M8.25,8.15L6.1 8.15L6.1 6L8.25 6L8.25 8.15M5.25,9L5.25 11.15L3.1 11.15L3.1 9L5.25 9M3.1,5.15L3.1 3L5.25 3L5.25 5.15L3.1 5.15M8.3,14.95L8.3 17.1L6.15 17.1L6.15 14.95L8.3 14.95M8.25,14.15L6.1 14.15L6.1 12L8.25 12L8.25 14.15M5.25,14.15L3.1 14.15L3.1 12L5.25 12L5.25 14.15M2.2,14.95L2.2 17.1L0.05 17.1L0.05 14.95L2.2 14.95M2.15,12L2.15 14.15L0 14.15L0 12L2.15 12M3.15,17.95L5.3 17.95L5.3 20.1L3.15 20.1L3.15 17.95M2.2,17.95L2.2 20.1L0.05 20.1L0.05 17.95L2.2 17.95M8.3,20.95L8.3 23.1L6.15 23.1L6.15 20.95L8.3 20.95M8.3,17.95L8.3 20.1L6.15 20.1L6.15 17.95L8.3 17.95M5.3,20.95L5.3 23.1L3.15 23.1L3.15 20.95L5.3 20.95M3.15,17.1L3.15 14.95L5.3 14.95L5.3 17.1L3.15 17.1M8.3,26.1L6.15 26.1L6.15 23.95L8.3 23.95L8.3 26.1M8.3,26.95L8.3 29.1L6.15 29.1L6.15 26.95L8.3 26.95M5.3,26.1L3.15 26.1L3.15 23.95L5.3 23.95L5.3 26.1" />
</g>
</svg>
