<?xml version="1.0" encoding="utf-8"?>
<svg version="1.1" id="Layer_1"
xmlns="http://www.w3.org/2000/svg"
xmlns:xlink="http://www.w3.org/1999/xlink"
xmlns:author="http://www.sothink.com"
width="34px" height="20px"
xml:space="preserve">
<g id="912" transform="matrix(1, 0, 0, 1, -6.05, -12.65)">
<path style="fill:#8C8CD9;fill-opacity:1" d="M26.1,13.65L22.1 13.65L22.15 13.7L27.4 21.75L21.65 30.65L25.7 30.65L25.8 30.6L29.45 25.15L33.25 30.65L37.35 30.6L31.65 21.8L36.9 13.75L36.95 13.75L36.95 13.7L36.9 13.65L32.95 13.65L32.9 13.7L29.6 18.95L26.2 13.75L26.2 13.7L26.1 13.65M29.55,17.25L32.4 12.65L38.7 12.65L32.75 21.9L39.35 31.6L37.4 31.65L32.75 31.7L29.5 26.75L26.4 31.65L19.7 31.65L26.2 21.75L20.4 12.65L22.1 12.65L26.7 12.65L29.55 17.25M15.65,23.6L15.95 24.85L15.7 26.2L15.05 27.1L15 27.15Q14.45 27.65 13.45 27.9L13.4 27.9L11.75 28.05L9.15 27.65L7.05 26.65L7.05 29.55L9 30.15L9.05 30.15L9.05 30.1L12.4 30.4L15.4 30.05Q16.65 29.6 17.75 28.75L19 27L19.45 24.7Q19.45 23.3 18.95 22.35L19 22.35Q18.45 21.4 17.45 20.85L15.7 20.15L13.25 19.8L12.35 19.85L12.3 19.85L11.45 19.9L10.2 20.15L10.6 16.1L18.7 16.1L18.95 13.75L8.45 13.8L7.55 22.6L9.3 22.15L9.35 22.15L11.35 22L13.05 22.1Q14 22.2 14.75 22.7L15.65 23.6M19.85,21.85Q20.5 22.95 20.5 24.7Q20.5 26.1 19.9 27.4L18.4 29.6Q17.15 30.5 15.7 31L12.4 31.4L8.8 31.1L6.4 30.4L6.05 30.25L6.1 25.5L7.3 25.6L9.5 26.65L13.6 26.8L14.4 26.35L14.8 25.75L14.85 25.7L14.95 24.85L14.8 24.15L14.8 24.1L14.25 23.6L12.95 23.15L11.35 23L9.5 23.2L7.8 23.65L6.35 23.65L7.55 12.8L19.95 12.75L19.5 17.15L11.65 17.15L11.5 18.9L12.25 18.85L13.25 18.8L15.95 19.15Q17.05 19.4 18 19.95Q19.15 20.65 19.85 21.85" />
<path style="fill:#B4D2FE;fill-opacity:1" d="M26.2,13.7L26.2 13.75L29.6 18.95L32.9 13.7L32.95 13.65L36.9 13.65L36.95 13.7L36.95 13.75L36.9 13.75L31.65 21.8L37.35 30.6L33.25 30.65L29.45 25.15L25.8 30.6L25.7 30.65L21.65 30.65L27.4 21.75L22.15 13.7L22.1 13.65L26.1 13.65L26.2 13.7M9,30.1L9 30.15L7.05 29.55L7.05 26.65L9.15 27.65L11.75 28.05L13.4 27.9L13.45 27.9Q14.45 27.65 15 27.15L15.05 27.1L15.7 26.2L15.95 24.85L15.65 23.6L14.75 22.7Q14 22.2 13.05 22.1L11.35 22L9.35 22.15L9.3 22.15L7.55 22.6L8.45 13.8L18.95 13.75L18.7 16.1L10.6 16.1L10.2 20.15L11.45 19.9L12.3 19.85L12.35 19.85L13.25 19.8L15.7 20.15L17.45 20.85Q18.45 21.4 19 22.35L18.95 22.35Q19.45 23.3 19.45 24.7L19 27L17.75 28.75Q16.65 29.6 15.4 30.05L12.4 30.4L9.05 30.1L9 30.1M14.8,22.7L14.75 22.7L14.8 22.7" />
<path style="fill:#5354C6;fill-opacity:1" d="M14.75,22.7L14.8 22.7L14.75 22.7M18,19.95L18.05 19.95L18 19.95M9.05,30.1L9.05 30.15L9 30.1L9.05 30.1" />
<path style="fill:#6699FF;fill-opacity:1" d="M19,22.35L18.95 22.35L19 22.35" />
</g>
</svg>
