<?xml version="1.0" encoding="utf-8"?>
<svg version="1.1" id="Layer_1"
xmlns="http://www.w3.org/2000/svg"
xmlns:xlink="http://www.w3.org/1999/xlink"
xmlns:author="http://www.sothink.com"
width="170px" height="3px"
xml:space="preserve">
<g id="750" transform="matrix(1, 0, 0, 1, 0, 0)">
<path style="fill:#FFFFFF;fill-opacity:1" d="M146.25,2.3L144 2.3L144 0.05L146.25 0.05L146.25 2.3M150,2.3L150 0.05L152.25 0.05L152.25 2.3L150 2.3M138,0.05L140.25 0.05L140.25 2.3L138 2.3L138 0.05M132,0.05L134.25 0.05L134.25 2.3L132 2.3L132 0.05M128.25,0.05L128.25 2.3L126 2.3L126 0.05L128.25 0.05M116,2.3L113.75 2.3L113.75 0.05L116 0.05L116 2.3M122.1,0.05L122.1 2.3L119.85 2.3L119.85 0.05L122.1 0.05M170,2.3L167.75 2.3L167.75 0.05L170 0.05L170 2.3M156,0.05L158.25 0.05L158.25 2.3L156 2.3L156 0.05M164.15,2.3L161.9 2.3L161.9 0.05L164.15 0.05L164.15 2.3M68.25,2.25L66 2.25L66 0L68.25 0L68.25 2.25M72,0L74.25 0L74.25 2.25L72 2.25L72 0M54,2.25L54 0L56.25 0L56.25 2.25L54 2.25M60,2.25L60 0L62.25 0L62.25 2.25L60 2.25M50.1,0L50.1 2.25L47.85 2.25L47.85 0L50.1 0M44,2.25L41.75 2.25L41.75 0L44 0L44 2.25M35.9,2.25L35.9 0L38.15 0L38.15 2.25L35.9 2.25M110.15,2.3L107.9 2.3L107.9 0.05L110.15 0.05L110.15 2.3M104.1,2.25L101.85 2.25L101.85 0L104.1 0L104.1 2.25M98,2.25L95.75 2.25L95.75 0L98 0L98 2.25M92.15,0L92.15 2.25L89.9 2.25L89.9 0L92.15 0M84,2.25L84 0L86.25 0L86.25 2.25L84 2.25M80.25,2.25L78 2.25L78 0L80.25 0L80.25 2.25M26.25,2.25L24 2.25L24 0L26.25 0L26.25 2.25M32.25,2.25L30 2.25L30 0L32.25 0L32.25 2.25M14.25,2.25L12 2.25L12 0L14.25 0L14.25 2.25M18,2.25L18 0L20.25 0L20.25 2.25L18 2.25M8.25,0L8.25 2.25L6 2.25L6 0L8.25 0M2.25,0L2.25 2.25L0 2.25L0 0L2.25 0" />
</g>
</svg>
