<?xml version="1.0" encoding="utf-8"?>
<svg version="1.1" id="Layer_1"
xmlns="http://www.w3.org/2000/svg"
xmlns:xlink="http://www.w3.org/1999/xlink"
xmlns:author="http://www.sothink.com"
width="51px" height="61px"
xml:space="preserve">
<g id="929" transform="matrix(1, 0, 0, 1, -1.5, -1.3)">
<path style="fill:#FFFF00;fill-opacity:1" d="M6.9,1.45L7.25 1.65L7.35 2.05L7.25 2.2L8.1 3.15L8.15 3.15L51.25 58.45Q51.6 58.5 51.6 59.05L51.55 59.2Q51.35 60 50.55 60.85Q49.75 61.7 48.15 61.75Q46.75 61.75 43.35 59.9L43.3 59.85L5.4 33.85L5.4 33.9L4.6 33.4L4.6 33.35Q3.05 32.25 2.4 30.6Q1.4 27.8 1.55 24.8L1.55 24.6L1.5 6.9L1.7 5.25Q2.05 3.9 2.65 2.95Q4 0.95 6.3 1.35L6.9 1.45M7.35,3.75L6 2.35Q4.45 2.1 3.5 3.5Q2.95 4.3 2.65 5.5L2.5 6.9L2.55 24.6L2.55 24.8L2.55 24.85L2.55 26.25L2.9 28.75L3.35 30.25Q3.85 31.65 5.15 32.55L5.95 33.05L43.85 59.05Q46.9 60.7 48.1 60.75Q49.25 60.7 49.85 60.15L49.8 60.15L50.55 59.15L7.35 3.8L7.35 3.75" />
<path style="fill:none;stroke-width:2;stroke-linecap:round;stroke-linejoin:round;stroke-miterlimit:3;stroke:#FF9900;stroke-opacity:1" d="M8.5,8.05L6.1 4.85Q4.5 4.8 4.2 6.3Q3.95 7.35 4.1 9.3L4.1 20.75Q3.8 26.55 4.7 28.4L4.75 28.55Q5.3 30 6.15 30.65L7.6 31.95L34.5 50.65Q38.75 53.55 40.8 54.7Q42.95 55.8 45.35 57.45L46.75 57.45L8.5 8.1L8.5 8.05z" />
</g>
</svg>
