<?xml version="1.0" encoding="utf-8"?>
<svg version="1.1" id="Layer_1"
xmlns="http://www.w3.org/2000/svg"
xmlns:xlink="http://www.w3.org/1999/xlink"
xmlns:author="http://www.sothink.com"
width="18px" height="18px"
xml:space="preserve">
<g id="877" transform="matrix(1, 0, 0, 1, 0.25, 0.25)">
<radialGradient
id="RadialGradID_728" gradientUnits="userSpaceOnUse" gradientTransform="matrix(0.0137024, 0, 0, 0.0137024, 8.3, 8.3)" spreadMethod ="pad" cx="0" cy="0" r="819.2" fx="0" fy="0" >
<stop  offset="0"  style="stop-color:#FF0000;stop-opacity:1" />
<stop  offset="1"  style="stop-color:#FF00FF;stop-opacity:1" />
</radialGradient>
<path style="fill:url(#RadialGradID_728) " d="M8.25,16.6Q4.9 16.6 2.4 14.15Q0 11.75 0 8.3Q0 4.85 2.4 2.4Q4.9 0 8.25 0Q11.7 0 14.15 2.4Q16.55 4.85 16.55 8.3Q16.55 11.75 14.15 14.15Q11.7 16.6 8.25 16.6" />
<path style="fill:none;stroke-width:0.5;stroke-linecap:round;stroke-linejoin:round;stroke-miterlimit:3;stroke:#996699;stroke-opacity:1" d="M8.25,16.6Q4.9 16.6 2.4 14.15Q0 11.75 0 8.3Q0 4.85 2.4 2.4Q4.9 0 8.25 0Q11.7 0 14.15 2.4Q16.55 4.85 16.55 8.3Q16.55 11.75 14.15 14.15Q11.7 16.6 8.25 16.6z" />
<path style="fill:#CC0000;fill-opacity:1" d="M10.35,5.75Q10.1 5.5 9.65 5.4L8.3 5.35L6.8 5.35L6.8 7.75L8.2 7.75L9.9 7.65L10.45 7.25L10.6 6.5L10.35 5.75M12.55,6.45Q12.55 7.45 11.9 8.15Q11.35 8.8 10.1 9L11.1 9.8L12.2 11.3L13.3 13.15L11.05 13.15L9.65 11.1L8.7 9.7L8.15 9.35L7.2 9.2L6.8 9.2L6.8 13.15L4.9 13.15L4.9 3.75L8.9 3.75L11.05 4.05L12.15 4.95Q12.55 5.55 12.55 6.45" />
</g>
</svg>
