<?xml version="1.0" encoding="utf-8"?>
<svg version="1.1" id="Layer_1"
xmlns="http://www.w3.org/2000/svg"
xmlns:xlink="http://www.w3.org/1999/xlink"
xmlns:author="http://www.sothink.com"
width="168px" height="24px"
xml:space="preserve">
<g id="776" transform="matrix(1, 0, 0, 1, -0.25, 0)">
<path style="fill:#FFFFFF;fill-opacity:1" d="M165.2,21L167.45 21L167.45 23.25L165.2 23.25L165.2 21M164.45,21L164.45 23.25L162.15 23.25L162.15 21L164.45 21M158.4,2.25L156.15 2.25L156.15 0L158.4 0L158.4 2.25M158.4,5.25L156.15 5.25L156.15 3L158.4 3L158.4 5.25M156.15,9L158.4 9L158.4 11.25L156.15 11.25L156.15 9M158.4,12L158.4 14.25L156.15 14.25L156.15 12L158.4 12M158.4,8.25L156.15 8.25L156.15 6L158.4 6L158.4 8.25M143.55,2.4L141.3 2.4L141.3 0.15L143.55 0.15L143.55 2.4M143.55,5.4L141.3 5.4L141.3 3.15L143.55 3.15L143.55 5.4M143.55,11.4L141.3 11.4L141.3 9.15L143.55 9.15L143.55 11.4M143.55,8.4L141.3 8.4L141.3 6.15L143.55 6.15L143.55 8.4M143.55,17.4L141.3 17.4L141.3 15.1L143.55 15.1L143.55 17.4M144.35,23.4L144.35 21.15L146.6 21.15L146.6 23.4L144.35 23.4M143.55,23.4L141.3 23.4L141.3 21.15L143.55 21.15L143.55 23.4M147.3,21.15L149.6 21.15L149.6 23.4L147.3 23.4L147.3 21.15M150.35,21.15L152.6 21.15L152.6 23.4L150.35 23.4L150.35 21.15M143.55,20.4L141.3 20.4L141.3 18.15L143.55 18.15L143.55 20.4M158.4,17.25L156.15 17.25L156.15 14.95L158.4 14.95L158.4 17.25M156.15,21L158.4 21L158.4 23.25L156.15 23.25L156.15 21M159.2,21L161.45 21L161.45 23.25L159.2 23.25L159.2 21M158.4,20.25L156.15 20.25L156.15 18L158.4 18L158.4 20.25M143.55,14.4L141.3 14.4L141.3 12.15L143.55 12.15L143.55 14.4M137.45,2.4L135.2 2.4L135.2 0.15L137.45 0.15L137.45 2.4M137.4,5.5L135.15 5.5L135.15 3.25L137.4 3.25L137.4 5.5M134.45,0.15L134.45 2.4L132.2 2.4L132.2 0.15L134.45 0.15M135.15,6.25L137.4 6.25L137.4 8.5L135.15 8.5L135.15 6.25M135.2,9.15L137.45 9.15L137.45 11.4L135.2 11.4L135.2 9.15M132.25,11.45L132.25 9.2L134.5 9.2L134.5 11.45L132.25 11.45M137.45,12.15L137.45 14.4L135.2 14.4L135.2 12.15L137.45 12.15M131.45,0.15L131.45 2.4L129.15 2.4L129.15 0.15L131.45 0.15M128.45,2.4L126.2 2.4L126.2 0.15L128.45 0.15L128.45 2.4M125.4,2.4L123.15 2.4L123.15 0.15L125.4 0.15L125.4 2.4M123.15,3.15L125.4 3.15L125.4 5.4L123.15 5.4L123.15 3.15M125.4,6.15L125.4 8.45L123.15 8.45L123.15 6.15L125.4 6.15M126.25,9.2L128.5 9.2L128.5 11.45L126.25 11.45L126.25 9.2M125.4,12.15L125.4 14.4L123.15 14.4L123.15 12.15L125.4 12.15M123.15,11.4L123.15 9.15L125.4 9.15L125.4 11.4L123.15 11.4M129.2,11.45L129.2 9.2L131.5 9.2L131.5 11.45L129.2 11.45M125.4,15.15L125.4 17.4L123.15 17.4L123.15 15.15L125.4 15.15M125.4,18.15L125.4 20.4L123.15 20.4L123.15 18.15L125.4 18.15M123.15,21.15L125.4 21.15L125.4 23.4L123.15 23.4L123.15 21.15M137.4,17.5L135.15 17.5L135.15 15.25L137.4 15.25L137.4 17.5M135.2,21.15L137.45 21.15L137.45 23.4L135.2 23.4L135.2 21.15M137.4,20.5L135.15 20.5L135.15 18.25L137.4 18.25L137.4 20.5M117.4,5.6L117.4 3.35L119.65 3.35L119.65 5.6L117.4 5.6M116.85,2.55L114.6 2.55L114.6 0.3L116.85 0.3L116.85 2.55M111.55,2.5L111.55 0.25L113.8 0.25L113.8 2.5L111.55 2.5M113.6,11.45L111.35 11.45L111.35 9.2L113.6 9.2L113.6 11.45M114.35,9.25L116.6 9.25L116.6 11.5L114.35 11.5L114.35 9.25M119.55,12.35L119.55 14.6L117.3 14.6L117.3 12.35L119.55 12.35M117.4,8.55L117.4 6.3L119.65 6.3L119.65 8.55L117.4 8.55M108.5,0.25L110.75 0.25L110.75 2.5L108.5 2.5L108.5 0.25M107.65,2.45L105.4 2.45L105.4 0.2L107.65 0.2L107.65 2.45M107.65,5.45L105.4 5.45L105.4 3.2L107.65 3.2L107.65 5.45M105.4,6.2L107.65 6.2L107.65 8.45L105.4 8.45L105.4 6.2M105.4,9.2L107.65 9.2L107.65 11.45L105.4 11.45L105.4 9.2M108.4,11.45L108.4 9.2L110.65 9.2L110.65 11.45L108.4 11.45M107.75,12.25L107.75 14.5L105.5 14.5L105.5 12.25L107.75 12.25M107.75,17.5L105.5 17.5L105.5 15.25L107.75 15.25L107.75 17.5M105.5,21.25L107.75 21.25L107.75 23.5L105.5 23.5L105.5 21.25M108.4,21.25L110.65 21.25L110.65 23.5L108.4 23.5L108.4 21.25M107.75,20.5L105.5 20.5L105.5 18.25L107.75 18.25L107.75 20.5M119.55,15.25L119.55 17.5L117.3 17.5L117.3 15.25L119.55 15.25M119.55,18.25L119.55 20.5L117.3 20.5L117.3 18.25L119.55 18.25M111.45,21.25L113.7 21.25L113.7 23.5L111.45 23.5L111.45 21.25M114.6,21.35L116.85 21.35L116.85 23.6L114.6 23.6L114.6 21.35M95.2,2.4L92.95 2.4L92.95 0.15L95.2 0.15L95.2 2.4M92.2,2.4L89.95 2.4L89.95 0.15L92.2 0.15L92.2 2.4M92.9,3.25L95.15 3.25L95.15 5.5L92.9 5.5L92.9 3.25M95.15,8.5L92.9 8.5L92.9 6.25L95.15 6.25L95.15 8.5M92.95,9.15L95.2 9.15L95.2 11.4L92.95 11.4L92.95 9.15M95.2,12.15L95.2 14.4L92.95 14.4L92.95 12.15L95.2 12.15M92.25,11.45L90 11.45L90 9.2L92.25 9.2L92.25 11.45M86.2,2.4L83.95 2.4L83.95 0.15L86.2 0.15L86.2 2.4M86.9,0.15L89.2 0.15L89.2 2.4L86.9 2.4L86.9 0.15M83.15,5.4L80.9 5.4L80.9 3.15L83.15 3.15L83.15 5.4M83.15,2.4L80.9 2.4L80.9 0.15L83.15 0.15L83.15 2.4M84,9.2L86.25 9.2L86.25 11.45L84 11.45L84 9.2M83.15,11.4L80.9 11.4L80.9 9.15L83.15 9.15L83.15 11.4M89.25,9.2L89.25 11.45L86.95 11.45L86.95 9.2L89.25 9.2M83.15,8.45L80.9 8.45L80.9 6.15L83.15 6.15L83.15 8.45M83.15,17.4L80.9 17.4L80.9 15.15L83.15 15.15L83.15 17.4M83.15,23.4L80.9 23.4L80.9 21.15L83.15 21.15L83.15 23.4M83.15,20.4L80.9 20.4L80.9 18.15L83.15 18.15L83.15 20.4M92.9,17.5L92.9 15.25L95.15 15.25L95.15 17.5L92.9 17.5M95.15,18.25L95.15 20.5L92.9 20.5L92.9 18.25L95.15 18.25M95.2,23.4L92.95 23.4L92.95 21.15L95.2 21.15L95.2 23.4M83.15,14.4L80.9 14.4L80.9 12.15L83.15 12.15L83.15 14.4M77.4,5.5L75.15 5.5L75.15 3.25L77.4 3.25L77.4 5.5M71.45,2.4L69.15 2.4L69.15 0.15L71.45 0.15L71.45 2.4M74.45,2.4L72.2 2.4L72.2 0.15L74.45 0.15L74.45 2.4M75.15,6.25L77.4 6.25L77.4 8.5L75.15 8.5L75.15 6.25M71.5,11.45L69.2 11.45L69.2 9.2L71.5 9.2L71.5 11.45M74.5,9.2L74.5 11.45L72.2 11.45L72.2 9.2L74.5 9.2M66.2,2.4L66.2 0.15L68.45 0.15L68.45 2.4L66.2 2.4M65.4,2.4L63.15 2.4L63.15 0.15L65.4 0.15L65.4 2.4M63.15,3.15L65.4 3.15L65.4 5.4L63.15 5.4L63.15 3.15M65.4,6.15L65.4 8.45L63.15 8.45L63.15 6.15L65.4 6.15M65.4,12.15L65.4 14.4L63.15 14.4L63.15 12.15L65.4 12.15M63.15,11.4L63.15 9.15L65.4 9.15L65.4 11.4L63.15 11.4M68.5,9.2L68.5 11.45L66.25 11.45L66.25 9.2L68.5 9.2M65.4,15.15L65.4 17.4L63.15 17.4L63.15 15.15L65.4 15.15M65.4,18.15L65.4 20.4L63.15 20.4L63.15 18.15L65.4 18.15M63.15,21.15L65.4 21.15L65.4 23.4L63.15 23.4L63.15 21.15M77.4,17.5L75.15 17.5L75.15 15.25L77.4 15.25L77.4 17.5M72.15,12.5L74.4 12.5L74.4 14.75L72.15 14.75L72.15 12.5M75.2,21.15L77.45 21.15L77.45 23.4L75.2 23.4L75.2 21.15M75.15,18.25L77.4 18.25L77.4 20.5L75.15 20.5L75.15 18.25M56.7,2.45L54.4 2.45L54.4 0.2L56.7 0.2L56.7 2.45M59.7,0.2L59.7 2.45L57.45 2.45L57.45 0.2L59.7 0.2M50.65,2.45L48.4 2.45L48.4 0.2L50.65 0.2L50.65 2.45M50.65,5.45L48.4 5.45L48.4 3.2L50.65 3.2L50.65 5.45M53.7,0.2L53.7 2.45L51.45 2.45L51.45 0.2L53.7 0.2M50.65,8.5L48.4 8.5L48.4 6.2L50.65 6.2L50.65 8.5M50.65,11.45L48.4 11.45L48.4 9.2L50.65 9.2L50.65 11.45M47.7,2.45L45.45 2.45L45.45 0.2L47.7 0.2L47.7 2.45M41.7,2.45L39.45 2.45L39.45 0.2L41.7 0.2L41.7 2.45M44.7,2.45L42.4 2.45L42.4 0.2L44.7 0.2L44.7 2.45M48.4,15.2L50.65 15.2L50.65 17.45L48.4 17.45L48.4 15.2M48.4,21.2L50.65 21.2L50.65 23.45L48.4 23.45L48.4 21.2M48.4,18.2L50.65 18.2L50.65 20.45L48.4 20.45L48.4 18.2M48.4,12.2L50.65 12.2L50.65 14.45L48.4 14.45L48.4 12.2M38.15,0.3L38.15 2.55L35.9 2.55L35.9 0.3L38.15 0.3M35.05,5.55L32.8 5.55L32.8 3.3L35.05 3.3L35.05 5.55M32.2,8.65L29.95 8.65L29.95 6.4L32.2 6.4L32.2 8.65M23.65,3.3L23.65 5.55L21.4 5.55L21.4 3.3L23.65 3.3M20.55,2.55L18.3 2.55L18.3 0.3L20.55 0.3L20.55 2.55M24.25,6.4L26.5 6.4L26.5 8.65L24.25 8.65L24.25 6.4M29.25,9.3L29.25 11.55L27 11.55L27 9.3L29.25 9.3M29.35,12.35L29.35 14.6L27.1 14.6L27.1 12.35L29.35 12.35M30.05,15.25L32.3 15.25L32.3 17.5L30.05 17.5L30.05 15.25M26.4,17.5L24.15 17.5L24.15 15.25L26.4 15.25L26.4 17.5M23.55,18.35L23.55 20.6L21.3 20.6L21.3 18.35L23.55 18.35M20.45,23.6L18.2 23.6L18.2 21.35L20.45 21.35L20.45 23.6M35.15,18.35L35.15 20.6L32.9 20.6L32.9 18.35L35.15 18.35M36,21.35L38.25 21.35L38.25 23.6L36 23.6L36 21.35M11.55,11.7L9.3 11.7L9.3 9.45L11.55 9.45L11.55 11.7M11.55,2.7L9.3 2.7L9.3 0.45L11.55 0.45L11.55 2.7M12.3,0.45L14.55 0.45L14.55 2.7L12.3 2.7L12.3 0.45M5.55,2.7L3.3 2.7L3.3 0.45L5.55 0.45L5.55 2.7M6.25,0.45L8.55 0.45L8.55 2.7L6.25 2.7L6.25 0.45M0.25,2.7L0.25 0.45L2.5 0.45L2.5 2.7L0.25 2.7M0.25,5.7L0.25 3.45L2.5 3.45L2.5 5.7L0.25 5.7M0.25,6.45L2.5 6.45L2.5 8.75L0.25 8.75L0.25 6.45M2.5,11.7L0.25 11.7L0.25 9.45L2.5 9.45L2.5 11.7M3.3,9.45L5.55 9.45L5.55 11.7L3.3 11.7L3.3 9.45M6.25,11.7L6.25 9.45L8.55 9.45L8.55 11.7L6.25 11.7M2.5,15.45L2.5 17.7L0.25 17.7L0.25 15.45L2.5 15.45M2.5,14.7L0.25 14.7L0.25 12.45L2.5 12.45L2.5 14.7M2.5,18.45L2.5 20.7L0.25 20.7L0.25 18.45L2.5 18.45M3.3,21.35L5.55 21.35L5.55 23.6L3.3 23.6L3.3 21.35M2.5,21.45L2.5 23.7L0.25 23.7L0.25 21.45L2.5 21.45M9.3,21.35L11.55 21.35L11.55 23.6L9.3 23.6L9.3 21.35M6.25,23.6L6.25 21.35L8.55 21.35L8.55 23.6L6.25 23.6M12.3,23.6L12.3 21.35L14.55 21.35L14.55 23.6L12.3 23.6" />
</g>
</svg>
