<?xml version="1.0" encoding="utf-8"?>
<svg version="1.1" id="Layer_1"
xmlns="http://www.w3.org/2000/svg"
xmlns:xlink="http://www.w3.org/1999/xlink"
xmlns:author="http://www.sothink.com"
width="81px" height="18px"
xml:space="preserve">
<g id="788" transform="matrix(1, 0, 0, 1, -11.8, -15.15)">
<path style="fill:#FFFFFF;fill-opacity:1" d="M53.8,15.2L56.05 15.2L56.05 17.45L53.8 17.45L53.8 15.2M53.05,18.15L53.05 20.4L50.8 20.4L50.8 18.15L53.05 18.15M53,17.45L50.75 17.45L50.75 15.2L53 15.2L53 17.45M59.05,17.45L56.8 17.45L56.8 15.2L59.05 15.2L59.05 17.45M64.95,18.25L64.95 20.5L62.7 20.5L62.7 18.25L64.95 18.25M62.7,15.15L64.95 15.15L64.95 17.4L62.7 17.4L62.7 15.15M67.85,15.15L67.85 17.4L65.6 17.4L65.6 15.15L67.85 15.15M68.6,15.15L70.85 15.15L70.85 17.4L68.6 17.4L68.6 15.15M34.9,18L34.9 20.25L32.65 20.25L32.65 18L34.9 18M37.8,17.4L35.55 17.4L35.55 15.15L37.8 15.15L37.8 17.4M37.9,18.1L37.9 20.35L35.65 20.35L35.65 18.1L37.9 18.1M46.8,17.4L44.55 17.4L44.55 15.15L46.8 15.15L46.8 17.4M47.55,17.4L47.55 15.15L49.8 15.15L49.8 17.4L47.55 17.4M40.9,18L40.9 20.25L38.65 20.25L38.65 18L40.9 18M43.8,23.3L41.55 23.3L41.55 21.05L43.8 21.05L43.8 23.3M40.9,23.4L38.65 23.4L38.65 21.15L40.9 21.15L40.9 23.4M43.8,24.05L43.8 26.3L41.55 26.3L41.55 24.05L43.8 24.05M43.8,27.05L43.8 29.3L41.55 29.3L41.55 27.05L43.8 27.05M43.8,30.1L43.8 32.35L41.55 32.35L41.55 30.1L43.8 30.1M40.95,26.25L38.7 26.25L38.7 24L40.95 24L40.95 26.25M38,24.05L38 26.3L35.75 26.3L35.75 24.05L38 24.05M34.9,23.3L32.65 23.3L32.65 21.05L34.9 21.05L34.9 23.3M31.8,23.3L29.55 23.3L29.55 21.05L31.8 21.05L31.8 23.3M34.9,24L34.9 26.25L32.65 26.25L32.65 24L34.9 24M31.8,29.3L29.55 29.3L29.55 27.05L31.8 27.05L31.8 29.3M31.8,26.3L29.55 26.3L29.55 24.05L31.8 24.05L31.8 26.3M31.8,32.35L29.55 32.35L29.55 30.1L31.8 30.1L31.8 32.35M64.95,23.4L62.7 23.4L62.7 21.15L64.95 21.15L64.95 23.4M64.95,24.15L64.95 26.4L62.7 26.4L62.7 24.15L64.95 24.15M62.7,27.05L64.95 27.05L64.95 29.3L62.7 29.3L62.7 27.05M64.95,30.1L64.95 32.35L62.7 32.35L62.7 30.1L64.95 30.1M67.85,30.1L67.85 32.35L65.6 32.35L65.6 30.1L67.85 30.1M50.8,21.15L53.05 21.15L53.05 23.4L50.8 23.4L50.8 21.15M53.05,24.1L53.05 26.35L50.8 26.35L50.8 24.1L53.05 24.1M50.8,29.35L50.8 27.1L53.05 27.1L53.05 29.35L50.8 29.35M53.05,30.15L53.05 32.4L50.8 32.4L50.8 30.15L53.05 30.15M68.6,30.1L70.85 30.1L70.85 32.35L68.6 32.35L68.6 30.1M92.15,17.4L89.9 17.4L89.9 15.15L92.15 15.15L92.15 17.4M71.5,15.15L73.75 15.15L73.75 17.4L71.5 17.4L71.5 15.15M77.9,17.4L77.9 15.15L80.15 15.15L80.15 17.4L77.9 17.4M80.2,18.1L80.2 20.35L77.95 20.35L77.95 18.1L80.2 18.1M86.85,23.4L86.85 21.15L89.1 21.15L89.1 23.4L86.85 23.4M89.95,21.1L92.2 21.1L92.2 23.35L89.95 23.35L89.95 21.1M86.3,23.4L84.05 23.4L84.05 21.15L86.3 21.15L86.3 23.4M81.15,23.4L81.15 21.15L83.4 21.15L83.4 23.4L81.15 23.4M89.95,27.05L92.2 27.05L92.2 29.3L89.95 29.3L89.95 27.05M89.95,24.05L92.2 24.05L92.2 26.3L89.95 26.3L89.95 24.05M77.95,21.1L80.2 21.1L80.2 23.35L77.95 23.35L77.95 21.1M80.2,24.05L80.2 26.3L77.95 26.3L77.95 24.05L80.2 24.05M73.75,30.1L73.75 32.35L71.5 32.35L71.5 30.1L73.75 30.1M77.95,27.05L80.2 27.05L80.2 29.3L77.95 29.3L77.95 27.05M80.2,30.1L80.2 32.35L77.95 32.35L77.95 30.1L80.2 30.1M89.95,30.1L92.2 30.1L92.2 32.35L89.95 32.35L89.95 30.1M92.2,20.35L89.95 20.35L89.95 18.1L92.2 18.1L92.2 20.35M11.9,15.15L14.15 15.15L14.15 17.4L11.9 17.4L11.9 15.15M17.25,18.15L17.25 20.4L15 20.4L15 18.15L17.25 18.15M14.05,18.1L14.05 20.35L11.8 20.35L11.8 18.1L14.05 18.1M23.9,15.15L26.15 15.15L26.15 17.4L23.9 17.4L23.9 15.15M26.05,18.1L26.05 20.35L23.8 20.35L23.8 18.1L26.05 18.1M22.95,18.15L22.95 20.4L20.7 20.4L20.7 18.15L22.95 18.15M26.05,23.35L23.8 23.35L23.8 21.1L26.05 21.1L26.05 23.35M20.7,23.4L20.7 21.15L22.95 21.15L22.95 23.4L20.7 23.4M20.15,23.4L17.9 23.4L17.9 21.15L20.15 21.15L20.15 23.4M23.8,27.05L26.05 27.05L26.05 29.3L23.8 29.3L23.8 27.05M20.15,26.25L17.9 26.25L17.9 24L20.15 24L20.15 26.25M26.05,26.3L23.8 26.3L23.8 24.05L26.05 24.05L26.05 26.3M26.05,30.1L26.05 32.35L23.8 32.35L23.8 30.1L26.05 30.1M15,21.15L17.25 21.15L17.25 23.4L15 23.4L15 21.15M11.8,23.35L11.8 21.1L14.05 21.1L14.05 23.35L11.8 23.35M14.05,24.05L14.05 26.3L11.8 26.3L11.8 24.05L14.05 24.05M14.05,27.05L14.05 29.3L11.8 29.3L11.8 27.05L14.05 27.05M14.05,30.1L14.05 32.35L11.8 32.35L11.8 30.1L14.05 30.1" />
</g>
</svg>
