<?xml version="1.0" encoding="utf-8"?>
<svg version="1.1" id="Layer_1"
xmlns="http://www.w3.org/2000/svg"
xmlns:xlink="http://www.w3.org/1999/xlink"
xmlns:author="http://www.sothink.com"
width="42px" height="42px"
xml:space="preserve">
<g id="962" transform="matrix(1, 0, 0, 1, 0.85, 0.8)">
<path style="fill:#FF9900;fill-opacity:1" d="M31.5,8.05Q26.6 3.4 19.8 3.4Q12.9 3.4 8 8.15L7.85 8.25Q3.3 13 3.3 19.75Q3.3 26.55 8 31.35L8.05 31.4Q12.9 36.15 19.8 36.15Q26.6 36.15 31.55 31.4L31.55 31.35Q36.35 26.55 36.35 19.75Q36.35 12.95 31.55 8.1L31.5 8.05M5.95,35.05L5.2 34.35L5.2 34.3Q-0.85 28.25 -0.85 19.7Q-0.85 11.35 5 5.3L5.2 5.1Q11.3 -0.8 19.75 -0.8Q27.7 -0.8 33.45 4.3L34.45 4.55L34.7 4.75L33.5 4.35L34.3 5.05L34.4 5.2Q40.45 11.2 40.45 19.7Q40.45 28.25 34.35 34.3Q28.3 40.25 19.75 40.25Q11.85 40.25 6 35.05L5.95 35.05" />
<path style="fill:#FFFF00;fill-opacity:1" d="M5.95,35.05L5.15 34.85L4.8 34.6L5.95 35.05M4.6,5L4.45 5.3L4.45 5.25L4.6 5" />
</g>
</svg>
