<?xml version="1.0" encoding="utf-8"?>
<svg version="1.1" id="Layer_1"
xmlns="http://www.w3.org/2000/svg"
xmlns:xlink="http://www.w3.org/1999/xlink"
xmlns:author="http://www.sothink.com"
width="6px" height="8px"
xml:space="preserve">
<g id="769" transform="matrix(1, 0, 0, 1, 0, 0)">
<path style="fill:#FFFF00;fill-opacity:1" d="M2.1,0L2.1 2.1L0 2.1L0 0L2.1 0M5.05,0L5.05 2.1L2.95 2.1L2.95 0L5.05 0M5.1,4.85L3 4.85L3 2.75L5.1 2.75L5.1 4.85M2.1,4.85L0 4.85L0 2.75L2.1 2.75L2.1 4.85M3,5.55L5.1 5.55L5.1 7.65L3 7.65L3 5.55M2.1,7.65L0 7.65L0 5.55L2.1 5.55L2.1 7.65" />
</g>
</svg>
