<?xml version="1.0" encoding="utf-8"?>
<svg version="1.1" id="Layer_1"
xmlns="http://www.w3.org/2000/svg"
xmlns:xlink="http://www.w3.org/1999/xlink"
xmlns:author="http://www.sothink.com"
width="19px" height="20px"
xml:space="preserve">
<g id="859" transform="matrix(1, 0, 0, 1, 8.85, 11.85)">
<path style="fill:#3366FF;fill-opacity:0.498039" d="M7.8,-9.75Q9.25 -7.5 9.25 -4.3L9.25 0.35Q9.25 3.45 7.8 5.6Q6.5 7.85 4.5 7.85L-4.1 7.85Q-6.05 7.85 -7.5 5.6Q-8.85 3.45 -8.85 0.35L-8.85 -4.3Q-8.85 -7.5 -7.5 -9.75Q-6.05 -11.85 -4.1 -11.85L4.5 -11.85Q6.5 -11.85 7.8 -9.75" />
<path style="fill:none;stroke-width:0.05;stroke-linecap:round;stroke-linejoin:round;stroke-miterlimit:3;stroke:#3399FF;stroke-opacity:1" d="M4.5,-11.85L-4.1 -11.85Q-6.05 -11.85 -7.5 -9.75Q-8.85 -7.5 -8.85 -4.3L-8.85 0.35Q-8.85 3.45 -7.5 5.6Q-6.05 7.85 -4.1 7.85L4.5 7.85Q6.5 7.85 7.8 5.6Q9.25 3.45 9.25 0.35L9.25 -4.3Q9.25 -7.5 7.8 -9.75Q6.5 -11.85 4.5 -11.85z" />
</g>
</svg>
