<?xml version="1.0" encoding="utf-8"?>
<svg version="1.1" id="Layer_1"
xmlns="http://www.w3.org/2000/svg"
xmlns:xlink="http://www.w3.org/1999/xlink"
xmlns:author="http://www.sothink.com"
width="46px" height="46px"
xml:space="preserve">
<g id="809" transform="matrix(1, 0, 0, 1, 0.75, 0.75)">
<path style="fill:#6666CC;fill-opacity:1" d="M1.25,-0.75L1.75 -0.55L2 0L1.75 0.5L1.25 0.75L0.7 0.5L0.5 0L0.7 -0.55L1.25 -0.75M3.75,-0.75L4.25 -0.55L4.5 0L4.25 0.5L3.75 0.75L3.2 0.5L3 0L3.2 -0.55L3.75 -0.75M6.25,-0.75L6.75 -0.55L7 0L6.75 0.5L6.25 0.75L5.7 0.5L5.5 0L5.7 -0.55L6.25 -0.75M8.75,-0.75L9.25 -0.55L9.5 0L9.25 0.5L8.75 0.75Q8.45 0.75 8.2 0.5L8 0L8.2 -0.55Q8.45 -0.75 8.75 -0.75M19.25,-0.55L19.5 0L19.25 0.5L18.75 0.75L18.2 0.5L18 0L18.2 -0.55L18.75 -0.75L19.25 -0.55M16.75,-0.55L17 0L16.75 0.5L16.25 0.75L15.7 0.5L15.5 0L15.7 -0.55L16.25 -0.75L16.75 -0.55M14.25,-0.55L14.5 0L14.25 0.5L13.75 0.75L13.2 0.5L13 0L13.2 -0.55L13.75 -0.75L14.25 -0.55M11.75,-0.55L12 0L11.75 0.5L11.25 0.75L10.7 0.5L10.5 0L10.7 -0.55L11.25 -0.75L11.75 -0.55M21.25,-0.75L21.75 -0.55L22 0L21.75 0.5L21.25 0.75L20.7 0.5L20.5 0L20.7 -0.55L21.25 -0.75M23.75,-0.75L24.25 -0.55L24.5 0L24.25 0.5L23.75 0.75L23.2 0.5L23 0L23.2 -0.55Q23.45 -0.75 23.75 -0.75M26.25,-0.75L26.75 -0.55L27 0L26.75 0.5L26.25 0.75L25.7 0.5L25.5 0L25.7 -0.55L26.25 -0.75M28.75,-0.75L29.25 -0.55L29.5 0L29.25 0.5L28.75 0.75L28.2 0.5L28 0L28.2 -0.55L28.75 -0.75M31.25,-0.75L31.75 -0.55L32 0L31.75 0.5L31.25 0.75L30.7 0.5L30.5 0L30.7 -0.55L31.25 -0.75M33.75,-0.75L34.25 -0.55L34.5 0L34.25 0.5L33.75 0.75L33.2 0.5L33 0L33.2 -0.55L33.75 -0.75M36.25,-0.75L36.75 -0.55L37 0L36.75 0.5L36.25 0.75Q35.95 0.75 35.7 0.5L35.5 0L35.7 -0.55L36.25 -0.75M38.75,-0.75L39.25 -0.55L39.5 0L39.25 0.5L38.75 0.75L38.2 0.5L38 0L38.2 -0.55Q38.45 -0.75 38.75 -0.75M41.25,-0.75L41.75 -0.55L42 0L41.75 0.5L41.25 0.75L40.7 0.5L40.5 0L40.7 -0.55L41.25 -0.75M43.75,-0.75L44.25 -0.55L44.5 0L44.25 0.5L44 0.7L44.25 0.85L44.5 1.4L44.25 1.9L43.75 2.15L43.2 1.9L43 1.4L43.2 0.85L43.5 0.7L43.2 0.5L43 0L43.2 -0.55L43.75 -0.75M44.5,3.9L44.25 4.4L43.75 4.65L43.2 4.4L43 3.9L43.2 3.35L43.75 3.15L44.25 3.35L44.5 3.9M43.75,5.65L44.25 5.85L44.5 6.4L44.25 6.9L43.75 7.15L43.2 6.9L43 6.4L43.2 5.85L43.75 5.65M44.5,8.9L44.25 9.4L43.75 9.65L43.2 9.4L43 8.9L43.2 8.35L43.75 8.15L44.25 8.35L44.5 8.9M44.25,10.85L44.5 11.4L44.25 11.9L43.75 12.15L43.2 11.9L43 11.4L43.2 10.85L43.75 10.65L44.25 10.85M44.5,13.9L44.25 14.4L43.75 14.65L43.2 14.4L43 13.9L43.2 13.35L43.75 13.15L44.25 13.35L44.5 13.9M44.25,18.35L44.5 18.9L44.25 19.4L43.75 19.65L43.2 19.4L43 18.9L43.2 18.35L43.75 18.15L44.25 18.35M44.25,15.85L44.5 16.4L44.25 16.9L43.75 17.15L43.2 16.9L43 16.4L43.2 15.85L43.75 15.65L44.25 15.85M44.5,21.4L44.25 21.9L43.75 22.15L43.2 21.9L43 21.4L43.2 20.85L43.75 20.65L44.25 20.85L44.5 21.4M44.5,23.9L44.25 24.4L43.75 24.65L43.2 24.4L43 23.9L43.2 23.35L43.75 23.15L44.25 23.35L44.5 23.9M44.5,26.4L44.25 26.9L43.75 27.15L43.2 26.9L43 26.4L43.2 25.85L43.75 25.65L44.25 25.85L44.5 26.4M44.25,30.85L44.5 31.4L44.25 31.9L43.75 32.15L43.2 31.9L43 31.4L43.2 30.85L43.75 30.65L44.25 30.85M44.25,28.35L44.5 28.9L44.25 29.4L43.75 29.65L43.2 29.4L43 28.9L43.2 28.35L43.75 28.15L44.25 28.35M44.5,33.9L44.25 34.4L43.75 34.65L43.2 34.4L43 33.9L43.2 33.35L43.75 33.15L44.25 33.35L44.5 33.9M44.5,36.4L44.25 36.9L43.75 37.15L43.2 36.9L43 36.4L43.2 35.85L43.75 35.65L44.25 35.85L44.5 36.4M44.5,38.9L44.25 39.4L43.75 39.65L43.2 39.4L43 38.9L43.2 38.35L43.75 38.15L44.25 38.35L44.5 38.9M44.25,40.85L44.5 41.4L44.25 41.9L43.75 42.15L43.2 41.9L43 41.4L43.2 40.85L43.75 40.65L44.25 40.85M44.5,43.9L44.25 44.4L43.75 44.65L43.2 44.4L43 43.9L43.2 43.35L43.75 43.15L44.25 43.35L44.5 43.9M42.3,43.95L42.55 44.5L42.3 45L41.8 45.25L41.25 45L41.05 44.5L41.25 43.95L41.8 43.75L42.3 43.95M0.75,1.3L0.5 1.8L0 2.05L-0.55 1.8L-0.75 1.3L-0.55 0.75L0 0.55L0.5 0.75L0.75 1.3M0.5,5.75L0.75 6.3L0.5 6.8L0 7.05L-0.55 6.8L-0.75 6.3L-0.55 5.75L0 5.55L0.5 5.75M0.75,3.8L0.5 4.3L0 4.55L-0.55 4.3L-0.75 3.8L-0.55 3.25L0 3.05L0.5 3.25L0.75 3.8M0.5,8.25L0.75 8.8L0.5 9.3L0 9.55L-0.55 9.3L-0.75 8.8L-0.55 8.25L0 8.05L0.5 8.25M0.75,11.3L0.5 11.8L0 12.05L-0.55 11.8L-0.75 11.3L-0.55 10.75L0 10.55L0.5 10.75L0.75 11.3M0.75,13.8L0.5 14.3L0 14.55L-0.55 14.3L-0.75 13.8L-0.55 13.25L0 13.05L0.5 13.25L0.75 13.8M0.5,18.25L0.75 18.8L0.5 19.3L0 19.55L-0.55 19.3L-0.75 18.8L-0.55 18.25L0 18.05L0.5 18.25M0.75,16.3L0.5 16.8L0 17.05L-0.55 16.8L-0.75 16.3L-0.55 15.75L0 15.55L0.5 15.75L0.75 16.3M0.5,20.75L0.75 21.3L0.5 21.8L0 22.05L-0.55 21.8L-0.75 21.3L-0.55 20.75L0 20.55L0.5 20.75M0.75,23.8L0.5 24.3L0 24.55L-0.55 24.3L-0.75 23.8L-0.55 23.25L0 23.05L0.5 23.25L0.75 23.8M0.5,25.75L0.75 26.3L0.5 26.8L0 27.05L-0.55 26.8L-0.75 26.3L-0.55 25.75L0 25.55L0.5 25.75M0.5,28.25L0.75 28.8L0.5 29.3L0 29.55L-0.55 29.3L-0.75 28.8L-0.55 28.25L0 28.05L0.5 28.25M0.5,30.75L0.75 31.3L0.5 31.8L0 32.05L-0.55 31.8L-0.75 31.3L-0.55 30.75L0 30.55L0.5 30.75M0.5,33.25L0.75 33.8L0.5 34.3L0 34.55L-0.55 34.3L-0.75 33.8L-0.55 33.25L0 33.05L0.5 33.25M0.75,36.3L0.5 36.8L0 37.05L-0.55 36.8L-0.75 36.3L-0.55 35.75L0 35.55L0.5 35.75L0.75 36.3M0.75,38.8L0.5 39.3L0 39.55L-0.55 39.3L-0.75 38.8L-0.55 38.25L0 38.05L0.5 38.25L0.75 38.8M0.5,43.25L0.75 43.8L0.5 44.3L0 44.55L-0.55 44.3L-0.75 43.8L-0.55 43.25L0 43.05L0.5 43.25M0.75,41.3L0.5 41.8L0 42.05L-0.55 41.8L-0.75 41.3L-0.55 40.75L0 40.55L0.5 40.75L0.75 41.3M3.75,43.95L4.3 43.75L4.8 43.95L5.05 44.5L4.8 45L4.3 45.25L3.75 45L3.55 44.5L3.75 43.95M1.25,43.95L1.8 43.75L2.3 43.95L2.55 44.5L2.3 45L1.8 45.25L1.25 45L1.05 44.5L1.25 43.95M8.75,43.95L9.3 43.75L9.8 43.95L10.05 44.5L9.8 45L9.3 45.25L8.75 45L8.55 44.5L8.75 43.95M7.3,43.95L7.55 44.5L7.3 45L6.8 45.25L6.25 45L6.05 44.5L6.25 43.95L6.8 43.75L7.3 43.95M13.75,43.95L14.3 43.75L14.8 43.95L15.05 44.5L14.8 45L14.3 45.25L13.75 45L13.55 44.5L13.75 43.95M11.25,43.95L11.8 43.75L12.3 43.95L12.55 44.5L12.3 45L11.8 45.25L11.25 45L11.05 44.5L11.25 43.95M18.75,43.95L19.3 43.75L19.8 43.95L20.05 44.5L19.8 45L19.3 45.25L18.75 45L18.55 44.5L18.75 43.95M17.3,43.95L17.55 44.5L17.3 45L16.8 45.25L16.25 45L16.05 44.5L16.25 43.95L16.8 43.75L17.3 43.95M23.75,43.95L24.3 43.75L24.8 43.95L25.05 44.5L24.8 45L24.3 45.25L23.75 45L23.55 44.5L23.75 43.95M22.3,43.95L22.55 44.5L22.3 45L21.8 45.25L21.25 45L21.05 44.5L21.25 43.95L21.8 43.75L22.3 43.95M28.75,43.95L29.3 43.75L29.8 43.95L30.05 44.5L29.8 45L29.3 45.25L28.75 45L28.55 44.5L28.75 43.95M27.3,43.95L27.55 44.5L27.3 45L26.8 45.25L26.25 45L26.05 44.5L26.25 43.95L26.8 43.75L27.3 43.95M33.75,43.95L34.3 43.75L34.8 43.95L35.05 44.5L34.8 45L34.3 45.25L33.75 45L33.55 44.5L33.75 43.95M31.25,43.95L31.8 43.75L32.3 43.95L32.55 44.5L32.3 45L31.8 45.25L31.25 45L31.05 44.5L31.25 43.95M38.75,43.95L39.3 43.75L39.8 43.95L40.05 44.5L39.8 45L39.3 45.25L38.75 45L38.55 44.5L38.75 43.95M37.3,43.95L37.55 44.5L37.3 45L36.8 45.25L36.25 45L36.05 44.5L36.25 43.95L36.8 43.75L37.3 43.95" />
</g>
</svg>
