<?xml version="1.0" encoding="utf-8"?>
<svg version="1.1" id="Layer_1"
xmlns="http://www.w3.org/2000/svg"
xmlns:xlink="http://www.w3.org/1999/xlink"
xmlns:author="http://www.sothink.com"
width="251px" height="208px"
xml:space="preserve">
<g id="706" transform="matrix(1, 0, 0, 1, 0.5, 0.5)">
<path style="fill:#FFFF00;fill-opacity:1" d="M3.5,206.4L3.5 205.65Q28.2 200.45 63.95 185.75Q99.65 171.05 103.45 150.1Q107.4 129.1 108.6 112.1Q109.8 95.1 110.15 81.3L110.5 40.1Q110.5 12.7 74.15 0L175.05 0Q138.5 11.9 138.35 36.7Q138.15 61.45 138.85 78.2Q139.5 94.95 140.8 112.05Q142.1 129.1 145.9 150.1Q149.75 171.05 185.5 185.75Q213.95 197.45 235.35 203.15L249.2 206.4L3.5 206.4" />
<path style="fill:none;stroke-width:1;stroke-linecap:round;stroke-linejoin:round;stroke-miterlimit:3;stroke:#FFFF00;stroke-opacity:1" d="M249.2,206.4L235.35 203.15Q213.95 197.45 185.5 185.75Q149.75 171.05 145.9 150.1Q142.1 129.1 140.8 112.05Q139.5 94.95 138.85 78.2Q138.15 61.45 138.35 36.7Q138.5 11.9 175.05 0M74.15,0Q110.5 12.7 110.5 40.1L110.15 81.3Q109.8 95.1 108.6 112.1Q107.4 129.1 103.45 150.1Q99.65 171.05 63.95 185.75Q28.2 200.45 3.5 205.65L1.75 206L0 206.4" />
</g>
</svg>
