<?xml version="1.0" encoding="utf-8"?>
<svg version="1.1" id="Layer_1"
xmlns="http://www.w3.org/2000/svg"
xmlns:xlink="http://www.w3.org/1999/xlink"
xmlns:author="http://www.sothink.com"
width="48px" height="17px"
xml:space="preserve">
<g id="855" transform="matrix(1, 0, 0, 1, 10.9, 0)">
<path style="fill:#FFFF00;fill-opacity:1" d="M36.95,0L37.05 14.85L35.35 14.85L35.25 0L36.95 0M30.7,0.05L30.85 14.85L27.9 14.85L27.75 0.05L30.7 0.05M24.15,14.85L19.65 14.85L19.35 0.05L23.9 0.05L24.15 14.85M6,0.1L7.5 14.75L1.6 15L0 0.1L6 0.1M10.65,14.8L10.1 0.1L15.1 0.1L15.65 14.8L10.65 14.8M-5.75,16.7L-10.9 0.2L-4.7 0L-0.4 15.35L-5.75 16.7" />
</g>
</svg>
