<?xml version="1.0" encoding="utf-8"?>
<svg version="1.1" id="Layer_1"
xmlns="http://www.w3.org/2000/svg"
xmlns:xlink="http://www.w3.org/1999/xlink"
xmlns:author="http://www.sothink.com"
width="21px" height="27px"
xml:space="preserve">
<g id="784" transform="matrix(1, 0, 0, 1, 0.05, 0)">
<path style="fill:#FF00FF;fill-opacity:1" d="M17.8,2.8L20.1 2.8L20.1 5.05L17.8 5.05L17.8 2.8M17.2,2.25L14.9 2.25L14.9 0L17.2 0L17.2 2.25M14.05,2.25L11.8 2.25L11.8 0L14.05 0L14.05 2.25M11.15,2.25L8.9 2.25L8.9 0L11.15 0L11.15 2.25M14.15,11.9L14.15 14.15L11.9 14.15L11.9 11.9L14.15 11.9M17.15,11.9L17.15 14.15L14.9 14.15L14.9 11.9L17.15 11.9M5.25,2.25L3 2.25L3 0L5.25 0L5.25 2.25M8.15,0L8.15 2.25L5.9 2.25L5.9 0L8.15 0M2.25,5.9L2.25 8.15L0 8.15L0 5.9L2.25 5.9M2.25,2.9L2.25 5.15L0 5.15L0 2.9L2.25 2.9M0,8.9L2.25 8.9L2.25 11.15L0 11.15L0 8.9M8.25,11.9L8.25 14.15L6 14.15L6 11.9L8.25 11.9M5.35,11.9L5.35 14.15L3.1 14.15L3.1 11.9L5.35 11.9M5.1,23.85L5.1 26.1L2.85 26.1L2.85 23.85L5.1 23.85M8.1,23.85L8.1 26.1L5.85 26.1L5.85 23.85L8.1 23.85M2.2,23.2L-0.05 23.2L-0.05 20.95L2.2 20.95L2.2 23.2M2.2,20.15L-0.05 20.15L-0.05 17.9L2.2 17.9L2.2 20.15M2.2,17.15L-0.05 17.15L-0.05 14.9L2.2 14.9L2.2 17.15M20.1,17.85L20.1 20.1L17.85 20.1L17.85 17.85L20.1 17.85M20.1,17.1L17.85 17.1L17.85 14.85L20.1 14.85L20.1 17.1M14.2,23.85L14.2 26.1L11.95 26.1L11.95 23.85L14.2 23.85M20.1,23.15L17.85 23.15L17.85 20.9L20.1 20.9L20.1 23.15M17.2,23.85L17.2 26.1L14.95 26.1L14.95 23.85L17.2 23.85M11,23.85L11 26.1L8.75 26.1L8.75 23.85L11 23.85M9,11.9L11.25 11.9L11.25 14.15L9 14.15L9 11.9M2.2,14.15L-0.05 14.15L-0.05 11.9L2.2 11.9L2.2 14.15" />
</g>
</svg>
