<?xml version="1.0" encoding="utf-8"?>
<svg version="1.1" id="Layer_1"
xmlns="http://www.w3.org/2000/svg"
xmlns:xlink="http://www.w3.org/1999/xlink"
xmlns:author="http://www.sothink.com"
width="51px" height="61px"
xml:space="preserve">
<g id="938" transform="matrix(1, 0, 0, 1, -1.5, -0.7)">
<path style="fill:#FFFF00;fill-opacity:1" d="M51.6,6.3L51.55 24L51.55 24.2Q51.7 27.2 50.7 30Q50.05 31.65 48.5 32.75L48.5 32.8L47.7 33.3L47.7 33.25L9.8 59.25L9.75 59.3Q6.35 61.15 4.95 61.15Q3.35 61.1 2.55 60.25Q1.75 59.4 1.55 58.6L1.5 58.45Q1.5 57.9 1.85 57.85L44.95 2.55L45 2.55L45.85 1.6L45.75 1.45L45.85 1.05Q45.95 0.9 46.2 0.85L46.8 0.75Q49.1 0.35 50.45 2.35L51.4 4.65L51.6 6.3M45.75,3.2L2.55 58.55L3.3 59.55L3.25 59.55Q3.85 60.1 5 60.15Q6.2 60.1 9.25 58.45L47.15 32.45L47.95 31.95Q49.25 31.05 49.75 29.65L50.2 28.15L50.55 25.65L50.55 24.25L50.55 24.2L50.55 24L50.6 6.3L50.45 4.9L49.6 2.9Q48.65 1.5 47.1 1.75L45.75 3.15L45.75 3.2" />
<path style="fill:none;stroke-width:2;stroke-linecap:round;stroke-linejoin:round;stroke-miterlimit:3;stroke:#FF9900;stroke-opacity:1" d="M48.9,5.7Q49.15 6.75 49 8.7L49 20.15Q49.3 25.95 48.4 27.8L48.35 27.95Q47.8 29.4 46.95 30.05Q46 30.65 45.5 31.35L18.6 50.05Q14.35 52.95 12.3 54.1Q10.15 55.2 7.75 56.85L6.35 56.85L44.6 7.5L44.6 7.45L47 4.25Q48.6 4.2 48.9 5.7z" />
</g>
</svg>
