<?xml version="1.0" encoding="utf-8"?>
<svg version="1.1" id="Layer_1"
xmlns="http://www.w3.org/2000/svg"
xmlns:xlink="http://www.w3.org/1999/xlink"
xmlns:author="http://www.sothink.com"
width="83px" height="83px"
xml:space="preserve">
<g id="804" transform="matrix(1, 0, 0, 1, -13.5, -13.5)">
<radialGradient
id="RadialGradID_658" gradientUnits="userSpaceOnUse" gradientTransform="matrix(0.0518799, 0, 0, 0.0518799, 55, 55)" spreadMethod ="pad" cx="0" cy="0" r="819.2" fx="0" fy="0" >
<stop  offset="0"  style="stop-color:#FF0000;stop-opacity:1" />
<stop  offset="1"  style="stop-color:#FFFF00;stop-opacity:1" />
</radialGradient>
<path style="fill:url(#RadialGradID_658) " d="M96.1,49.05L96.5 53.9L96.5 55.85L96.1 60.9Q95.55 65.1 94.25 68.95Q91.2 77.5 84.35 84.35Q72.2 96.5 55 96.5Q37.8 96.5 25.65 84.35Q18.8 77.5 15.8 68.95Q13.65 62.85 13.5 55.85L13.5 54.05Q13.85 37.45 25.65 25.65Q31.65 19.65 38.9 16.55Q46.15 13.55 54.6 13.5L55 13.5Q63.5 13.55 70.75 16.55Q78.2 19.5 84.35 25.65Q94.35 35.65 96.1 49.05" />
</g>
</svg>
