<?xml version="1.0" encoding="utf-8"?>
<svg version="1.1" id="Layer_1"
xmlns="http://www.w3.org/2000/svg"
xmlns:xlink="http://www.w3.org/1999/xlink"
xmlns:author="http://www.sothink.com"
width="139px" height="85px"
xml:space="preserve">
<g id="858" transform="matrix(1, 0, 0, 1, 0, -0.5)">
<path style="fill:#000000;fill-opacity:1" d="M133.4,32.9Q127.85 38.5 120 38.5Q112.1 38.5 106.5 32.9Q101 27.35 101 19.5Q101 11.65 106.5 6.05Q112.1 0.5 120 0.5Q127.85 0.5 133.4 6.05Q139 11.65 139 19.5Q139 27.35 133.4 32.9M84.9,79.9Q79.35 85.5 71.5 85.5Q63.6 85.5 58 79.9Q52.5 74.35 52.5 66.5Q52.5 58.65 58 53.05Q63.6 47.5 71.5 47.5Q79.35 47.5 84.9 53.05Q90.5 58.65 90.5 66.5Q90.5 74.35 84.9 79.9M32.4,41.4Q26.85 47 19 47Q11.1 47 5.5 41.4Q0 35.85 0 28Q0 20.15 5.5 14.55Q11.1 9 19 9Q26.85 9 32.4 14.55Q38 20.15 38 28Q38 35.85 32.4 41.4" />
</g>
</svg>
