<?xml version="1.0" encoding="utf-8"?>
<svg version="1.1" id="Layer_1"
xmlns="http://www.w3.org/2000/svg"
xmlns:xlink="http://www.w3.org/1999/xlink"
xmlns:author="http://www.sothink.com"
width="34px" height="4px"
xml:space="preserve">
<g id="917" transform="matrix(1, 0, 0, 1, 16.75, 2)">
<path style="fill:#0A76C3;fill-opacity:0.580392" d="M12.8,0.85L-12.9 0.85L-12.9 -0.85L12.8 -0.85L12.8 0.85" />
<path style="fill:none;stroke-width:0.05;stroke-linecap:round;stroke-linejoin:round;stroke-miterlimit:3;stroke:#3366FF;stroke-opacity:1" d="M12.8,0.85L-12.9 0.85L-12.9 -0.85L12.8 -0.85L12.8 0.85z" />
<path style="fill:#0A76C3;fill-opacity:0.580392" d="M-14.75,-2Q-13.95 -2 -13.35 -1.4Q-12.75 -0.85 -12.75 0Q-12.75 0.85 -13.35 1.4Q-13.95 2 -14.75 2Q-15.6 2 -16.2 1.4Q-16.75 0.85 -16.75 0Q-16.75 -0.85 -16.2 -1.4Q-15.6 -2 -14.75 -2" />
<path style="fill:none;stroke-width:0.05;stroke-linecap:round;stroke-linejoin:round;stroke-miterlimit:3;stroke:#3366FF;stroke-opacity:1" d="M-14.75,-2Q-13.95 -2 -13.35 -1.4Q-12.75 -0.85 -12.75 0Q-12.75 0.85 -13.35 1.4Q-13.95 2 -14.75 2Q-15.6 2 -16.2 1.4Q-16.75 0.85 -16.75 0Q-16.75 -0.85 -16.2 -1.4Q-15.6 -2 -14.75 -2z" />
<path style="fill:#0A76C3;fill-opacity:0.580392" d="M14.75,-1.85Q15.55 -1.85 16.15 -1.3Q16.7 -0.75 16.7 0.1Q16.7 0.85 16.15 1.45Q15.55 2 14.75 2Q13.95 2 13.4 1.45Q12.8 0.85 12.8 0.1Q12.8 -0.75 13.4 -1.3Q13.95 -1.85 14.75 -1.85" />
<path style="fill:none;stroke-width:0.05;stroke-linecap:round;stroke-linejoin:round;stroke-miterlimit:3;stroke:#3366FF;stroke-opacity:1" d="M14.75,-1.85Q15.55 -1.85 16.15 -1.3Q16.7 -0.75 16.7 0.1Q16.7 0.85 16.15 1.45Q15.55 2 14.75 2Q13.95 2 13.4 1.45Q12.8 0.85 12.8 0.1Q12.8 -0.75 13.4 -1.3Q13.95 -1.85 14.75 -1.85z" />
</g>
</svg>
