<?xml version="1.0" encoding="utf-8"?>
<svg version="1.1" id="Layer_1"
xmlns="http://www.w3.org/2000/svg"
xmlns:xlink="http://www.w3.org/1999/xlink"
xmlns:author="http://www.sothink.com"
width="18px" height="18px"
xml:space="preserve">
<g id="887" transform="matrix(1, 0, 0, 1, 0.25, 0.25)">
<radialGradient
id="RadialGradID_738" gradientUnits="userSpaceOnUse" gradientTransform="matrix(0.0137024, 0, 0, 0.0137024, 8.3, 8.3)" spreadMethod ="pad" cx="0" cy="0" r="819.2" fx="0" fy="0" >
<stop  offset="0"  style="stop-color:#FFCC00;stop-opacity:1" />
<stop  offset="1"  style="stop-color:#CC9900;stop-opacity:1" />
</radialGradient>
<path style="fill:url(#RadialGradID_738) " d="M16.3,8.3Q16.3 11.65 14 14Q11.6 16.35 8.25 16.35Q5 16.35 2.6 14Q0.25 11.65 0.25 8.3Q0.25 4.95 2.6 2.6Q5 0.25 8.25 0.25Q11.6 0.25 14 2.6Q16.3 4.95 16.3 8.3" />
<path style="fill:#996699;fill-opacity:1" d="M16.8,8.3Q16.8 11.85 14.35 14.35Q11.8 16.85 8.25 16.85Q4.8 16.85 2.25 14.35Q-0.25 11.85 -0.25 8.3Q-0.25 4.75 2.25 2.25Q4.8 -0.25 8.25 -0.25Q11.8 -0.25 14.35 2.25Q16.8 4.75 16.8 8.3M14,2.6Q11.6 0.25 8.25 0.25Q5 0.25 2.6 2.6Q0.25 4.95 0.25 8.3Q0.25 11.65 2.6 14Q5 16.35 8.25 16.35Q11.6 16.35 14 14Q16.3 11.65 16.3 8.3Q16.3 4.95 14 2.6" />
<path style="fill:#CC9900;fill-opacity:1" d="M10.6,6.5L10.35 5.75Q10.1 5.5 9.65 5.4L8.3 5.35L6.8 5.35L6.8 7.75L8.2 7.75L9.9 7.65L10.45 7.25L10.6 6.5M12.2,11.3L13.3 13.15L11.05 13.15L9.65 11.1L8.7 9.7L8.15 9.35L7.2 9.2L6.8 9.2L6.8 13.15L4.9 13.15L4.9 3.75L8.9 3.75L11.05 4.05L12.15 4.95Q12.55 5.55 12.55 6.45Q12.55 7.45 11.9 8.15Q11.35 8.8 10.1 9L11.1 9.8L12.2 11.3" />
</g>
</svg>
