<?xml version="1.0" encoding="utf-8"?>
<svg version="1.1" id="Layer_1"
xmlns="http://www.w3.org/2000/svg"
xmlns:xlink="http://www.w3.org/1999/xlink"
xmlns:author="http://www.sothink.com"
width="21px" height="27px"
xml:space="preserve">
<g id="785" transform="matrix(1, 0, 0, 1, 0, 0)">
<path style="fill:#FF00FF;fill-opacity:1" d="M20.05,2.9L20.05 5.15L17.8 5.15L17.8 2.9L20.05 2.9M20.05,2.25L17.8 2.25L17.8 0L20.05 0L20.05 2.25M17.05,2.25L14.8 2.25L14.8 0L17.05 0L17.05 2.25M20.05,5.95L20.05 8.2L17.8 8.2L17.8 5.95L20.05 5.95M17.15,5.15L14.9 5.15L14.9 2.9L17.15 2.9L17.15 5.15M11.15,2.25L8.9 2.25L8.9 0L11.15 0L11.15 2.25M14.25,0L14.25 2.25L12 2.25L12 0L14.25 0M14.8,9L17.05 9L17.05 11.25L14.8 11.25L14.8 9M20.05,11.25L17.8 11.25L17.8 9L20.05 9L20.05 11.25M20.05,11.9L20.05 14.15L17.8 14.15L17.8 11.9L20.05 11.9M14.8,5.85L17.05 5.85L17.05 8.1L14.8 8.1L14.8 5.85M17.15,11.9L17.15 14.15L14.9 14.15L14.9 11.9L17.15 11.9M8.25,0L8.25 2.25L6 2.25L6 0L8.25 0M5.15,2.25L2.9 2.25L2.9 0L5.15 0L5.15 2.25M2.25,0L2.25 2.25L0 2.25L0 0L2.25 0M17.05,17.1L14.8 17.1L14.8 14.85L17.05 14.85L17.05 17.1M20.05,14.95L20.05 17.2L17.8 17.2L17.8 14.95L20.05 14.95M20.05,18L20.05 20.25L17.8 20.25L17.8 18L20.05 18M14.9,20.9L17.15 20.9L17.15 23.15L14.9 23.15L14.9 20.9M20.05,23.95L20.05 26.2L17.8 26.2L17.8 23.95L20.05 23.95M17.8,20.9L20.05 20.9L20.05 23.15L17.8 23.15L17.8 20.9M17.05,18L17.05 20.25L14.8 20.25L14.8 18L17.05 18M17.05,23.85L17.05 26.1L14.8 26.1L14.8 23.85L17.05 23.85" />
</g>
</svg>
