<?xml version="1.0" encoding="utf-8"?>
<svg version="1.1" id="Layer_1"
xmlns="http://www.w3.org/2000/svg"
xmlns:xlink="http://www.w3.org/1999/xlink"
xmlns:author="http://www.sothink.com"
width="79px" height="28px"
xml:space="preserve">
<g id="955" transform="matrix(1, 0, 0, 1, 39.1, 14.1)">
<path style="fill:none;stroke-width:1;stroke-linecap:round;stroke-linejoin:round;stroke-miterlimit:3;stroke:#B2D8E8;stroke-opacity:1" d="M24.15,-13.6L25.9 -13.6L25 -13.6L24.15 -13.6L-24.2 -13.6L-25.1 -13.6Q-30.7 -13.6 -34.65 -9.65Q-38.6 -5.75 -38.6 -0.1Q-38.6 5.5 -34.65 9.45Q-30.7 13.35 -25.1 13.4L25.9 13.4L25.9 13.35Q30.95 13.05 34.55 9.45Q38.5 5.5 38.5 -0.1Q38.5 -5.75 34.55 -9.65Q30.95 -13.3 25.9 -13.6" />
<path style="fill:#FFFFFF;fill-opacity:1" d="M34.15,-3.9Q35 -2.05 35 0Q35 2 34.15 3.9Q33.35 5.65 31.95 7.05Q30.5 8.4 28.65 9.2L24.65 10L-24.65 10Q-26.75 9.95 -28.7 9.2Q-30.55 8.4 -32 7.05Q-33.4 5.65 -34.15 3.9Q-35 2 -35 0Q-35 -2.05 -34.15 -3.9Q-33.4 -5.7 -32 -7.05Q-30.55 -8.45 -28.7 -9.25Q-26.75 -10 -24.65 -10L24.65 -10Q26.7 -10 28.65 -9.25Q30.5 -8.45 31.95 -7.05Q33.35 -5.7 34.15 -3.9" />
</g>
</svg>
