<?xml version="1.0" encoding="utf-8"?>
<svg version="1.1" id="Layer_1"
xmlns="http://www.w3.org/2000/svg"
xmlns:xlink="http://www.w3.org/1999/xlink"
xmlns:author="http://www.sothink.com"
width="20px" height="23px"
xml:space="preserve">
<g id="950" transform="matrix(1, 0, 0, 1, 9.7, 11.25)">
<linearGradient
id="LinearGradID_770" gradientUnits="userSpaceOnUse" gradientTransform="matrix(0.00265503, 0.0127563, -0.00930786, 0.00209045, -0.25, 0.75)" spreadMethod ="pad" x1="-819.2" y1="0" x2="819.2" y2="0" >
<stop  offset="0" style="stop-color:#FFFFFF;stop-opacity:1" />
<stop  offset="0.298039" style="stop-color:#CCFFFF;stop-opacity:1" />
<stop  offset="0.643137" style="stop-color:#0099CC;stop-opacity:1" />
<stop  offset="1" style="stop-color:#000066;stop-opacity:1" />
</linearGradient>
<path style="fill:url(#LinearGradID_770) " d="M6.65,-8.35L9.15 5.6Q9.65 8.35 7.5 8.75L-3.4 10.75L-4.85 10.45L-6 9.2L-7 7.45L-8 4.9L-8.85 1.05L-9.15 -1.95L-9 -6.55Q-8.75 -7.85 -7.8 -8.35L-6.9 -8.7L4 -10.7Q6.15 -11.1 6.65 -8.35" />
<path style="fill:none;stroke-width:1;stroke-linecap:round;stroke-linejoin:round;stroke-miterlimit:3;stroke:#006699;stroke-opacity:1" d="M4,-10.7L-6.9 -8.7L-7.8 -8.35Q-8.75 -7.85 -9 -6.55L-9.15 -1.95L-8.85 1.05L-8 4.9L-7 7.45L-6 9.2L-4.85 10.45L-3.4 10.75L7.5 8.75Q9.65 8.35 9.15 5.6L6.65 -8.35Q6.15 -11.1 4 -10.7z" />
</g>
</svg>
