<?xml version="1.0" encoding="utf-8"?>
<svg version="1.1" id="Layer_1"
xmlns="http://www.w3.org/2000/svg"
xmlns:xlink="http://www.w3.org/1999/xlink"
xmlns:author="http://www.sothink.com"
width="44px" height="44px"
xml:space="preserve">
<g id="711" transform="matrix(1, 0, 0, 1, 0.75, 0.75)">
<path style="fill:#FFFF00;fill-opacity:1" d="M36.5,36.5Q32.3 40.7 26.85 41.8L22.75 42.2Q15.5 42.2 10.2 37.6L10.15 37.6L8.95 36.5Q3.3 30.8 3.3 22.75Q3.3 14.7 8.95 8.95Q14.7 3.3 22.75 3.3Q30.8 3.3 36.5 8.95L37.6 10.15L37.6 10.2Q42.2 15.5 42.2 22.75Q42.2 24.9 41.8 26.85Q40.7 32.3 36.5 36.5" />
<path style="fill:#DBDB02;fill-opacity:1" d="M21.25,42.5Q13.35 42.5 7.55 37.5L7.5 37.45L6.2 36.25Q0 30.05 0 21.25Q0 12.45 6.2 6.2Q12.45 0 21.25 0Q30.05 0 36.25 6.2L37.45 7.5L37.5 7.55Q42.5 13.35 42.5 21.25Q42.5 24.2 41.8 26.85Q42.2 24.9 42.2 22.75Q42.2 15.5 37.6 10.2L37.6 10.15L36.5 8.95Q30.8 3.3 22.75 3.3Q14.7 3.3 8.95 8.95Q3.3 14.7 3.3 22.75Q3.3 30.8 8.95 36.5L10.15 37.6L10.2 37.6Q15.5 42.2 22.75 42.2L26.85 41.8L21.25 42.5" />
<linearGradient
id="LinearGradID_593" gradientUnits="userSpaceOnUse" gradientTransform="matrix(0.0152283, 0.0184174, -0.0206604, 0.0170898, 25.35, 25.7)" spreadMethod ="pad" x1="-819.2" y1="0" x2="819.2" y2="0" >
<stop  offset="0" style="stop-color:#003399;stop-opacity:1" />
<stop  offset="1" style="stop-color:#000000;stop-opacity:1" />
</linearGradient>
<path style="fill:none;stroke-width:1.5;stroke-linecap:round;stroke-linejoin:bevel;stroke-miterlimit:3;stroke:url(#LinearGradID_593) " d="M37.45,7.5L37.5 7.55M7.55,37.5L7.5 37.45" />
<linearGradient
id="LinearGradID_594" gradientUnits="userSpaceOnUse" gradientTransform="matrix(0.0152283, 0.0184174, -0.0206604, 0.0170898, 25.35, 25.7)" spreadMethod ="pad" x1="-819.2" y1="0" x2="819.2" y2="0" >
<stop  offset="0" style="stop-color:#006699;stop-opacity:1" />
<stop  offset="1" style="stop-color:#000000;stop-opacity:1" />
</linearGradient>
<path style="fill:none;stroke-width:1.5;stroke-linecap:round;stroke-linejoin:bevel;stroke-miterlimit:3;stroke:url(#LinearGradID_594) " d="M7.5,37.45L6.2 36.25Q0 30.05 0 21.25Q0 12.45 6.2 6.2Q12.45 0 21.25 0Q30.05 0 36.25 6.2L37.45 7.5M37.5,7.55Q42.5 13.35 42.5 21.25Q42.5 30.05 36.25 36.25Q30.05 42.5 21.25 42.5Q13.35 42.5 7.55 37.5" />
</g>
</svg>
