<?xml version="1.0" encoding="utf-8"?>
<svg version="1.1" id="Layer_1"
xmlns="http://www.w3.org/2000/svg"
xmlns:xlink="http://www.w3.org/1999/xlink"
xmlns:author="http://www.sothink.com"
width="82px" height="35px"
xml:space="preserve">
<g id="854" transform="matrix(1, 0, 0, 1, 0, 0)">
<path style="fill:#FFFF00;fill-opacity:1" d="M43.8,0L43.8 13.8L37 13.8L35.95 0L43.8 0M29.05,17.05L20.15 2.75Q24.85 0.9 30.3 0.45L34.5 14.35Q30.95 15.8 29.05 17.05M15.75,3.95L26.75 18.65Q23.75 21.25 22.05 23.6L8.75 8.7Q12.15 5.75 15.75 3.95M17.15,33.85L2.4 34.15L0 18.4Q1.85 15.1 4.5 12.45L20.95 25.45L17.15 33.85M77.95,19.35L61.65 29.75L58.3 24.75L72.25 11.6Q75 14.45 77.95 19.35M53.1,18.75L61.75 4.6Q65.55 6.35 68 8.55L57.35 23.3L53.1 18.75M56.3,2.4L51.55 17.3L46.05 14.65L49.45 0.45Q53.15 0.95 56.3 2.4M62.1,31.35L80.4 24.6Q82.15 28.9 81.95 32.4L62.55 34.15L62.1 31.35" />
</g>
</svg>
