<?xml version="1.0" encoding="utf-8"?>
<svg version="1.1" id="Layer_1"
xmlns="http://www.w3.org/2000/svg"
xmlns:xlink="http://www.w3.org/1999/xlink"
xmlns:author="http://www.sothink.com"
width="81px" height="27px"
xml:space="preserve">
<g id="760" transform="matrix(1, 0, 0, 1, -12.35, -6.05)">
<path style="fill:#FF00FF;fill-opacity:1" d="M92.4,8.45L90.15 8.45L90.15 6.2L92.4 6.2L92.4 8.45M92.4,11.45L90.15 11.45L90.15 9.2L92.4 9.2L92.4 11.45M84.1,6.2L86.4 6.2L86.4 8.45L84.1 8.45L84.1 6.2M81.1,6.2L83.35 6.2L83.35 8.45L81.1 8.45L81.1 6.2M87.1,8.45L87.1 6.2L89.35 6.2L89.35 8.45L87.1 8.45M90.15,15.2L92.4 15.2L92.4 17.45L90.15 17.45L90.15 15.2M90.15,21.2L92.4 21.2L92.4 23.45L90.15 23.45L90.15 21.2M90.15,18.2L92.4 18.2L92.4 20.45L90.15 20.45L90.15 18.2M92.4,24.2L92.4 26.45L90.15 26.45L90.15 24.2L92.4 24.2M90.15,12.2L92.4 12.2L92.4 14.5L90.15 14.5L90.15 12.2M92.45,29.45L90.15 29.45L90.15 27.2L92.45 27.2L92.45 29.45M89.45,27.2L89.45 29.45L87.2 29.45L87.2 27.2L89.45 27.2M86.45,29.45L84.15 29.45L84.15 27.2L86.45 27.2L86.45 29.45M81.2,29.45L81.2 27.2L83.45 27.2L83.45 29.45L81.2 29.45M74,6.05L74 8.3L71.75 8.3L71.75 6.05L74 6.05M74,9.05L74 11.3L71.75 11.3L71.75 9.05L74 9.05M74,12.05L74 14.35L71.75 14.35L71.75 12.05L74 12.05M80.4,8.45L78.1 8.45L78.1 6.2L80.4 6.2L80.4 8.45M80.4,11.45L78.15 11.45L78.15 9.2L80.4 9.2L80.4 11.45M80.4,12.2L80.4 14.45L78.15 14.45L78.15 12.2L80.4 12.2M70.95,8.3L68.7 8.3L68.7 6.05L70.95 6.05L70.95 8.3M64.95,6.05L64.95 8.3L62.7 8.3L62.7 6.05L64.95 6.05M62,11.3L59.75 11.3L59.75 9.05L62 9.05L62 11.3M68,6.05L68 8.3L65.7 8.3L65.7 6.05L68 6.05M62,8.3L59.7 8.3L59.7 6.05L62 6.05L62 8.3M62,17.3L59.75 17.3L59.75 15.05L62 15.05L62 17.3M62,23.3L59.75 23.3L59.75 21L62 21L62 23.3M62,20.3L59.75 20.3L59.75 18.05L62 18.05L62 20.3M80.4,18.2L80.4 20.45L78.15 20.45L78.15 18.2L80.4 18.2M80.4,17.45L78.15 17.45L78.15 15.2L80.4 15.2L80.4 17.45M74,15.05L74 17.3L71.75 17.3L71.75 15.05L74 15.05M74,18.05L74 20.3L71.75 20.3L71.75 18.05L74 18.05M74,24.05L74 26.3L71.75 26.3L71.75 24.05L74 24.05M71.75,23.3L71.75 21.05L74 21.05L74 23.3L71.75 23.3M80.4,24.2L80.4 26.45L78.15 26.45L78.15 24.2L80.4 24.2M80.4,21.15L80.4 23.45L78.15 23.45L78.15 21.15L80.4 21.15M62,14.3L59.75 14.3L59.75 12.05L62 12.05L62 14.3M53.1,6.05L53.1 8.3L50.85 8.3L50.85 6.05L53.1 6.05M53.9,9.05L56.15 9.05L56.15 11.3L53.9 11.3L53.9 9.05M56.15,12.05L56.15 14.35L53.9 14.35L53.9 12.05L56.15 12.05M56.15,6.05L56.15 8.3L53.9 8.3L53.9 6.05L56.15 6.05M50.15,6.05L50.15 8.3L47.85 8.3L47.85 6.05L50.15 6.05M44.15,6.05L44.15 8.3L41.85 8.3L41.85 6.05L44.15 6.05M44.15,12.05L44.15 14.3L41.9 14.3L41.9 12.05L44.15 12.05M44.15,11.3L41.9 11.3L41.9 9.05L44.15 9.05L44.15 11.3M47.1,8.3L44.85 8.3L44.85 6.05L47.1 6.05L47.1 8.3M41.9,17.3L41.9 15.05L44.15 15.05L44.15 17.3L41.9 17.3M44.15,18.05L44.15 20.3L41.9 20.3L41.9 18.05L44.15 18.05M44.15,24.05L44.15 26.3L41.9 26.3L41.9 24.05L44.15 24.05M44.15,21L44.15 23.3L41.9 23.3L41.9 21L44.15 21M56.15,17.3L53.9 17.3L53.9 15.05L56.15 15.05L56.15 17.3M53.9,21.05L56.15 21.05L56.15 23.3L53.9 23.3L53.9 21.05M56.15,18.05L56.15 20.3L53.9 20.3L53.9 18.05L56.15 18.05M56.15,24.05L56.15 26.3L53.9 26.3L53.9 24.05L56.15 24.05M59.75,27.05L62 27.05L62 29.3L59.75 29.3L59.75 27.05M56.2,29.3L53.9 29.3L53.9 27.05L56.2 27.05L56.2 29.3M50.95,27.05L53.2 27.05L53.2 29.3L50.95 29.3L50.95 27.05M47.9,29.3L47.9 27.05L50.2 27.05L50.2 29.3L47.9 29.3M47.2,29.3L44.95 29.3L44.95 27.05L47.2 27.05L47.2 29.3M44.15,29.3L41.9 29.3L41.9 27.05L44.15 27.05L44.15 29.3M80.4,27.2L80.4 29.45L78.15 29.45L78.15 27.2L80.4 27.2M74.05,29.3L71.75 29.3L71.75 27.05L74.05 27.05L74.05 29.3M71.05,29.3L68.8 29.3L68.8 27.05L71.05 27.05L71.05 29.3M68.05,29.3L65.75 29.3L65.75 27.05L68.05 27.05L68.05 29.3M62.8,27.05L65.05 27.05L65.05 29.3L62.8 29.3L62.8 27.05M59.75,24.05L62 24.05L62 26.3L59.75 26.3L59.75 24.05M32.15,8.45L29.85 8.45L29.85 6.2L32.15 6.2L32.15 8.45M35.1,6.2L35.1 8.45L32.85 8.45L32.85 6.2L35.1 6.2M38.15,8.45L35.9 8.45L35.9 6.2L38.15 6.2L38.15 8.45M23.85,6.2L26.15 6.2L26.15 8.45L23.85 8.45L23.85 6.2M23.9,9.2L26.15 9.2L26.15 11.45L23.9 11.45L23.9 9.2M26.85,6.2L29.1 6.2L29.1 8.45L26.85 8.45L26.85 6.2M26.15,12.2L26.15 14.45L23.9 14.45L23.9 12.2L26.15 12.2M26.15,17.45L23.9 17.45L23.9 15.2L26.15 15.2L26.15 17.45M29.4,18.2L29.4 20.45L27.15 20.45L27.15 18.2L29.4 18.2M30.15,18.2L32.4 18.2L32.4 20.45L30.15 20.45L30.15 18.2M26.15,20.45L23.9 20.45L23.9 18.2L26.15 18.2L26.15 20.45M38.15,18.2L38.15 20.45L35.9 20.45L35.9 18.2L38.15 18.2M35.3,18.2L35.3 20.45L33.05 20.45L33.05 18.2L35.3 18.2M38.15,24.2L38.15 26.45L35.9 26.45L35.9 24.2L38.15 24.2M35.9,21.2L38.15 21.2L38.15 23.45L35.9 23.45L35.9 21.2M20.2,6.1L20.2 8.35L17.9 8.35L17.9 6.1L20.2 6.1M14.65,12.15L14.65 14.4L12.35 14.4L12.35 12.15L14.65 12.15M14.9,9.1L17.2 9.1L17.2 11.35L14.9 11.35L14.9 9.1M17.95,11.35L17.95 9.1L20.2 9.1L20.2 11.35L17.95 11.35M20.2,12.1L20.2 14.35L17.95 14.35L17.95 12.1L20.2 12.1M20.2,18.1L20.2 20.35L17.95 20.35L17.95 18.1L20.2 18.1M20.2,17.35L17.95 17.35L17.95 15.1L20.2 15.1L20.2 17.35M20.2,24.1L20.2 26.35L17.95 26.35L17.95 24.1L20.2 24.1M20.2,21.05L20.2 23.35L17.95 23.35L17.95 21.05L20.2 21.05M20.2,27.1L20.2 29.35L17.95 29.35L17.95 27.1L20.2 27.1M35.9,29.45L35.9 27.2L38.2 27.2L38.2 29.45L35.9 29.45M32.95,29.45L32.95 27.2L35.2 27.2L35.2 29.45L32.95 29.45M32.2,29.45L29.9 29.45L29.9 27.2L32.2 27.2L32.2 29.45M26.95,29.45L26.95 27.2L29.2 27.2L29.2 29.45L26.95 29.45M26.15,29.45L23.9 29.45L23.9 27.2L26.15 27.2L26.15 29.45" />
<path style="fill:#CCCCCC;fill-opacity:1" d="M41.25,29.35L39 29.35L39 27.1L41.25 27.1L41.25 29.35M41.3,32.35L39 32.35L39 30.1L41.3 30.1L41.3 32.35" />
</g>
</svg>
