<?xml version="1.0" encoding="utf-8"?>
<svg version="1.1" id="Layer_1"
xmlns="http://www.w3.org/2000/svg"
xmlns:xlink="http://www.w3.org/1999/xlink"
xmlns:author="http://www.sothink.com"
width="18px" height="18px"
xml:space="preserve">
<g id="873" transform="matrix(1, 0, 0, 1, 0.25, 0.25)">
<radialGradient
id="RadialGradID_724" gradientUnits="userSpaceOnUse" gradientTransform="matrix(0.0137024, 0, 0, 0.0137024, 8.3, 8.3)" spreadMethod ="pad" cx="0" cy="0" r="819.2" fx="0" fy="0" >
<stop  offset="0"  style="stop-color:#FF0000;stop-opacity:1" />
<stop  offset="1"  style="stop-color:#FF00FF;stop-opacity:1" />
</radialGradient>
<path style="fill:url(#RadialGradID_724) " d="M16.3,8.3Q16.3 11.65 14 14Q11.6 16.35 8.25 16.35Q5 16.35 2.6 14Q0.25 11.65 0.25 8.3Q0.25 4.95 2.6 2.6Q5 0.25 8.25 0.25Q11.6 0.25 14 2.6Q16.3 4.95 16.3 8.3" />
<path style="fill:#996699;fill-opacity:1" d="M14,2.6Q11.6 0.25 8.25 0.25Q5 0.25 2.6 2.6Q0.25 4.95 0.25 8.3Q0.25 11.65 2.6 14Q5 16.35 8.25 16.35Q11.6 16.35 14 14Q16.3 11.65 16.3 8.3Q16.3 4.95 14 2.6M16.8,8.3Q16.8 11.85 14.35 14.35Q11.8 16.85 8.25 16.85Q4.8 16.85 2.25 14.35Q-0.25 11.85 -0.25 8.3Q-0.25 4.75 2.25 2.25Q4.8 -0.25 8.25 -0.25Q11.8 -0.25 14.35 2.25Q16.8 4.75 16.8 8.3" />
<path style="fill:#CC0000;fill-opacity:1" d="M11.55,8.65Q11.9 9.25 11.9 10.15L11.45 11.65Q11.05 12.35 10.2 12.7L8.2 13.05Q6.4 13.05 5.5 12.25Q4.55 11.35 4.3 9.8L6.15 9.6Q6.35 10.55 6.85 11Q7.3 11.4 8.2 11.4L9.55 11.05L10 10.15L9.85 9.55L9.15 9.15L7.65 8.75Q6.15 8.4 5.5 7.85Q4.65 7.05 4.65 5.95Q4.65 5.25 5.05 4.6Q5.5 4 6.25 3.7Q7 3.35 8.1 3.35Q9.85 3.35 10.75 4.15Q11.6 4.9 11.65 6.2L9.75 6.3Q9.65 5.55 9.25 5.25Q8.85 4.9 8.05 4.9Q7.25 4.9 6.8 5.25Q6.45 5.5 6.45 5.85L6.75 6.4Q7.1 6.7 8.5 7L10.5 7.7Q11.2 8.05 11.55 8.65" />
</g>
</svg>
