<?xml version="1.0" encoding="utf-8"?>
<svg version="1.1" id="Layer_1"
xmlns="http://www.w3.org/2000/svg"
xmlns:xlink="http://www.w3.org/1999/xlink"
xmlns:author="http://www.sothink.com"
width="177px" height="45px"
xml:space="preserve">
<g id="770" transform="matrix(1, 0, 0, 1, 0, 0)">
<path style="fill:#FFFF00;fill-opacity:1" d="M162.35,6.25L164.45 6.25L164.45 8.35L162.35 8.35L162.35 6.25M174.35,2.35L174.35 0.25L176.45 0.25L176.45 2.35L174.35 2.35M168.35,5.35L168.35 3.25L170.45 3.25L170.45 5.35L168.35 5.35M170.25,21.4L170.25 23.5L168.15 23.5L168.15 21.4L170.25 21.4M176.2,21.4L176.2 23.5L174.1 23.5L174.1 21.4L176.2 21.4M164.25,21.4L164.25 23.5L162.15 23.5L162.15 21.4L164.25 21.4M176.2,44.5L174.1 44.5L174.1 42.4L176.2 42.4L176.2 44.5M170.2,39.65L170.2 41.75L168.1 41.75L168.1 39.65L170.2 39.65M164.2,36.65L164.2 38.75L162.1 38.75L162.1 36.65L164.2 36.65M0,2.1L0 0L2.1 0L2.1 2.1L0 2.1M12,6L14.1 6L14.1 8.1L12 8.1L12 6M6,3L8.1 3L8.1 5.1L6 5.1L6 3M20.05,9L20.05 11.1L17.95 11.1L17.95 9L20.05 9M26.1,14.35L24 14.35L24 12.25L26.1 12.25L26.1 14.35M20.05,21.4L20.05 23.5L17.95 23.5L17.95 21.4L20.05 21.4M20.3,33.65L20.3 35.75L18.2 35.75L18.2 33.65L20.3 33.65M24.25,30.65L26.35 30.65L26.35 32.75L24.25 32.75L24.25 30.65M26.1,21.4L26.1 23.5L24 23.5L24 21.4L26.1 21.4M14.1,21.4L14.1 23.5L12 23.5L12 21.4L14.1 21.4M8.1,21.4L8.1 23.5L6 23.5L6 21.4L8.1 21.4M2.1,21.4L2.1 23.5L0 23.5L0 21.4L2.1 21.4M14.35,38.75L12.25 38.75L12.25 36.65L14.35 36.65L14.35 38.75M6.25,41.75L6.25 39.65L8.35 39.65L8.35 41.75L6.25 41.75M2.35,42.4L2.35 44.5L0.25 44.5L0.25 42.4L2.35 42.4" />
</g>
</svg>
