<?xml version="1.0" encoding="utf-8"?>
<svg version="1.1" id="Layer_1"
xmlns="http://www.w3.org/2000/svg"
xmlns:xlink="http://www.w3.org/1999/xlink"
xmlns:author="http://www.sothink.com"
width="171px" height="45px"
xml:space="preserve">
<g id="771" transform="matrix(1, 0, 0, 1, 0, 0)">
<path style="fill:#FFFF00;fill-opacity:1" d="M162.25,3.15L164.35 3.15L164.35 5.25L162.25 5.25L162.25 3.15M170.35,2.25L168.25 2.25L168.25 0.15L170.35 0.15L170.35 2.25M170.35,23L168.25 23L168.25 20.9L170.35 20.9L170.35 23M164.35,23L162.25 23L162.25 20.9L164.35 20.9L164.35 23M168.25,44.25L168.25 42.15L170.35 42.15L170.35 44.25L168.25 44.25M162.25,39.15L164.35 39.15L164.35 41.25L162.25 41.25L162.25 39.15M0,0L2.1 0L2.1 2.1L0 2.1L0 0M6,3L8.1 3L8.1 5.1L6 5.1L6 3M11.95,6L14.05 6L14.05 8.1L11.95 8.1L11.95 6M20.1,9.25L20.1 11.35L18 11.35L18 9.25L20.1 9.25M20.45,20.9L20.45 23L18.35 23L18.35 20.9L20.45 20.9M20.1,32.9L20.1 35L18 35L18 32.9L20.1 32.9M14.4,23L12.3 23L12.3 20.9L14.4 20.9L14.4 23M8.45,20.9L8.45 23L6.35 23L6.35 20.9L8.45 20.9M2.45,20.9L2.45 23L0.35 23L0.35 20.9L2.45 20.9M11.95,35.9L14.05 35.9L14.05 38L11.95 38L11.95 35.9M6,41L6 38.9L8.1 38.9L8.1 41L6 41M2.1,44L0 44L0 41.9L2.1 41.9L2.1 44" />
</g>
</svg>
