<?xml version="1.0" encoding="utf-8"?>
<svg version="1.1" id="Layer_1"
xmlns="http://www.w3.org/2000/svg"
xmlns:xlink="http://www.w3.org/1999/xlink"
xmlns:author="http://www.sothink.com"
width="21px" height="27px"
xml:space="preserve">
<g id="780" transform="matrix(1, 0, 0, 1, -0.1, 0)">
<path style="fill:#FF00FF;fill-opacity:1" d="M17.25,2.25L15 2.25L15 0L17.25 0L17.25 2.25M17.8,2.9L20.05 2.9L20.05 5.15L17.8 5.15L17.8 2.9M17.15,5.15L14.9 5.15L14.9 2.9L17.15 2.9L17.15 5.15M20.05,5.8L20.05 8.05L17.8 8.05L17.8 5.8L20.05 5.8M11.35,2.25L9.1 2.25L9.1 0L11.35 0L11.35 2.25M14.25,2.25L12 2.25L12 0L14.25 0L14.25 2.25M15,8.8L17.25 8.8L17.25 11.05L15 11.05L15 8.8M14.25,11.9L14.25 14.15L12 14.15L12 11.9L14.25 11.9M14.25,11.05L12 11.05L12 8.8L14.25 8.8L14.25 11.05M17.15,8.05L14.9 8.05L14.9 5.8L17.15 5.8L17.15 8.05M8.45,0L8.45 2.25L6.2 2.25L6.2 0L8.45 0M5.55,2.25L3.3 2.25L3.3 0L5.55 0L5.55 2.25M0.6,5.15L0.6 2.9L2.85 2.9L2.85 5.15L0.6 5.15M9.1,14.9L11.35 14.9L11.35 17.15L9.1 17.15L9.1 14.9M8.3,17.9L8.3 20.15L6.05 20.15L6.05 17.9L8.3 17.9M8.35,17.15L6.1 17.15L6.1 14.9L8.35 14.9L8.35 17.15M2.35,23.85L2.35 26.1L0.1 26.1L0.1 23.85L2.35 23.85M2.85,20.9L5.1 20.9L5.1 23.15L2.85 23.15L2.85 20.9M2.35,20.9L2.35 23.15L0.1 23.15L0.1 20.9L2.35 20.9M8.45,23.85L8.45 26.1L6.2 26.1L6.2 23.85L8.45 23.85M5.1,17.9L5.1 20.15L2.85 20.15L2.85 17.9L5.1 17.9M5.55,23.85L5.55 26.1L3.3 26.1L3.3 23.85L5.55 23.85M14.25,23.85L14.25 26.1L12 26.1L12 23.85L14.25 23.85M17.25,23.85L17.25 26.1L15 26.1L15 23.85L17.25 23.85M11.35,23.85L11.35 26.1L9.1 26.1L9.1 23.85L11.35 23.85M9.05,11.9L11.3 11.9L11.3 14.15L9.05 14.15L9.05 11.9M20.25,26.1L18 26.1L18 23.85L20.25 23.85L20.25 26.1" />
</g>
</svg>
