<?xml version="1.0" encoding="utf-8"?>
<svg version="1.1" id="Layer_1"
xmlns="http://www.w3.org/2000/svg"
xmlns:xlink="http://www.w3.org/1999/xlink"
xmlns:author="http://www.sothink.com"
width="18px" height="10px"
xml:space="preserve">
<g id="906" transform="matrix(1, 0, 0, 1, 0, 0)">
<path style="fill:#0099CC;fill-opacity:1" d="M17.05,0.1L17.1 0.2L17.05 0.35L14 4.65L17.1 9.2L17.15 9.35L17.1 9.5L16.95 9.55L14.15 9.55L14.05 9.45L12.25 6.75L10.45 9.45L10.4 9.55L10.25 9.55L7.65 9.55L7.5 9.5L7.4 9.35L7.45 9.2L10.65 4.75L7.55 0.35L7.5 0.2L7.6 0.1L7.75 0L10.45 0L10.6 0.05L10.65 0.1L12.35 2.6L14.1 0.1L14.15 0.05L14.25 0L16.9 0L17.05 0.1M12.3,3.25L12.15 3.15L10.35 0.45L8.2 0.45L11.1 4.6L11.15 4.75L11.1 4.85L8.1 9.1L10.15 9.1L12.05 6.25Q12.1 6.15 12.2 6.15L12.35 6.15L12.45 6.25L14.35 9.1L16.5 9.1L13.55 4.75L13.5 4.65L13.55 4.5L16.45 0.45L14.4 0.45L12.5 3.15L12.45 3.25L12.3 3.25M0.45,2.8L2.15 2.8L2.3 2.9L2.35 3.05L2.35 7.75L2.3 7.95L2.15 8L0.45 8L0.45 9.1L6 9.1L6 8L4.4 8L4.25 7.95L4.15 7.75L4.15 0.55L2.65 0.55L2.45 1.05L2.4 1.05L1.8 1.55L1.85 1.55L1.1 1.75L0.45 1.8L0.45 2.8M0.1,1.4L0.25 1.3L1.05 1.3L1.6 1.15L2.05 0.75L2.05 0.8L2.15 0.3L2.25 0.2Q2.3 0.1 2.4 0.1L4.4 0.1L4.55 0.2L4.6 0.3L4.6 7.55L6.2 7.55L6.4 7.65L6.45 7.75L6.45 9.35L6.4 9.5L6.2 9.55L0.25 9.55L0.1 9.5L0 9.35L0 7.75L0.1 7.65L0.25 7.55L1.9 7.55L1.9 3.25L0.25 3.25L0.1 3.2L0 3.05L0 1.55L0.1 1.4" />
<path style="fill:#FFFF00;fill-opacity:1" d="M12.45,3.25L12.5 3.15L14.4 0.45L16.45 0.45L13.55 4.5L13.5 4.65L13.55 4.75L16.5 9.1L14.35 9.1L12.45 6.25L12.35 6.15L12.2 6.15Q12.1 6.15 12.05 6.25L10.15 9.1L8.1 9.1L11.1 4.85L11.15 4.75L11.1 4.6L8.2 0.45L10.35 0.45L12.15 3.15L12.3 3.25L12.45 3.25M0.45,1.8L1.1 1.75L1.85 1.55L1.8 1.55L2.4 1.05L2.45 1.05L2.65 0.55L4.15 0.55L4.15 7.75L4.25 7.95L4.4 8L6 8L6 9.1L0.45 9.1L0.45 8L2.15 8L2.3 7.95L2.35 7.75L2.35 3.05L2.3 2.9L2.15 2.8L0.45 2.8L0.45 1.8" />
</g>
</svg>
