<?xml version="1.0" encoding="utf-8"?>
<svg version="1.1" id="Layer_1"
xmlns="http://www.w3.org/2000/svg"
xmlns:xlink="http://www.w3.org/1999/xlink"
xmlns:author="http://www.sothink.com"
width="4px" height="4px"
xml:space="preserve">
<g id="656" transform="matrix(1, 0, 0, 1, 1.85, 1.9)">
<path style="fill:#0066FF;fill-opacity:1" d="M1.35,-1.4Q1.9 -0.8 1.9 0Q1.9 0.75 1.35 1.3Q0.8 1.85 0.05 1.85Q-0.75 1.85 -1.35 1.3Q-1.9 0.75 -1.85 0Q-1.9 -0.8 -1.35 -1.4Q-0.75 -1.95 0.05 -1.9Q0.8 -1.95 1.35 -1.4" />
<path style="fill:none;stroke-width:0.05;stroke-linecap:round;stroke-linejoin:round;stroke-miterlimit:3;stroke:#000000;stroke-opacity:1" d="M1.35,-1.4Q1.9 -0.8 1.9 0Q1.9 0.75 1.35 1.3Q0.8 1.85 0.05 1.85Q-0.75 1.85 -1.35 1.3Q-1.9 0.75 -1.85 0Q-1.9 -0.8 -1.35 -1.4Q-0.75 -1.95 0.05 -1.9Q0.8 -1.95 1.35 -1.4z" />
</g>
</svg>
