<?xml version="1.0" encoding="utf-8"?>
<svg version="1.1" id="Layer_1"
xmlns="http://www.w3.org/2000/svg"
xmlns:xlink="http://www.w3.org/1999/xlink"
xmlns:author="http://www.sothink.com"
width="3px" height="3px"
xml:space="preserve">
<g id="918" transform="matrix(1, 0, 0, 1, 1.2, 1.2)">
<path style="fill:#336633;fill-opacity:1" d="M1.15,0L0.85 0.85Q0.5 1.2 0 1.2Q-0.55 1.2 -0.9 0.85Q-1.25 0.5 -1.2 0Q-1.25 -0.5 -0.9 -0.85Q-0.55 -1.2 0 -1.2Q0.5 -1.2 0.85 -0.85L1.15 0" />
<path style="fill:none;stroke-width:0.05;stroke-linecap:round;stroke-linejoin:round;stroke-miterlimit:3;stroke:#000000;stroke-opacity:1" d="M1.15,0L0.85 0.85Q0.5 1.2 0 1.2Q-0.55 1.2 -0.9 0.85Q-1.25 0.5 -1.2 0Q-1.25 -0.5 -0.9 -0.85Q-0.55 -1.2 0 -1.2Q0.5 -1.2 0.85 -0.85L1.15 0z" />
</g>
</svg>
