<?xml version="1.0" encoding="utf-8"?>
<svg version="1.1" id="Layer_1"
xmlns="http://www.w3.org/2000/svg"
xmlns:xlink="http://www.w3.org/1999/xlink"
xmlns:author="http://www.sothink.com"
width="189px" height="81px"
xml:space="preserve">
<g id="793" transform="matrix(1, 0, 0, 1, -5.1, -1.45)">
<path style="fill:#66FF00;fill-opacity:1" d="M183,13.25Q183.4 13.8 183.4 14.65L183.05 17.05Q182.65 19.35 182.65 20.8Q182.65 22.05 183.4 24.75L184.15 27.5L183.45 29.4Q182.75 30.7 182.75 33.65L182.5 39.85Q182.5 40.95 183.1 42.5Q183.95 44.75 185.4 44.75Q189.55 44.75 189.85 39.45L190.15 35.75Q190.6 34.1 192.1 34.1Q193.55 34.1 193.85 36.2L193.85 38.35Q193.85 41.9 193 43.75Q191.2 47.75 185.75 47.75Q183.15 47.75 182.2 47.15L179.6 44.85Q178.35 46.25 177.35 46.25Q176.4 46.25 176.1 45.65L176 44.95Q176 44.25 176.55 43.75Q177.1 43.25 177.1 42.6Q177.1 39.3 176.45 34.85Q175.75 30.4 175.75 27.65L177.1 20.85Q177.1 17.7 176 14.4L174.85 11.7Q174.85 10.25 176 10.6Q178.8 11.4 180.5 11.4L181.6 11.05Q182.35 10.65 183 10.65Q184.1 10.65 184 11.8L183 13.25M164.6,22.3Q165.4 22.55 165.25 24L165.15 24.55L166.5 32.75Q167.65 40.55 167.65 41.9Q167.65 42.9 167 43.15L162.35 43.6Q161.4 43.6 161.15 43L161.1 42.35L161.55 41.7L162 40.9Q162 37.3 160.95 33.75L160.4 31.55L156.25 31.5L153.5 31.65L152.7 37.5Q151.95 41.5 150 41.5Q148.4 41.5 147.6 40.5L147.55 40.4Q147 40.35 146.85 39.9L146.75 39.35Q146.75 39.05 147.3 37.9Q147.6 35.75 148.6 31.5L150.5 24.15L151.05 22.6L150.6 21.35L151.8 18.45L153.5 14L153.5 6.9Q153.5 5 157.65 5.5Q161.8 6 162.4 7.75Q163 9.3 163.1 12.6Q163.3 18.1 164.6 22.3M174.9,56.5L174.45 59.3Q174 61.15 174 62L172.6 69.6Q171.15 76 169.7 76.9L169.6 77.3Q169.3 78 168.35 78Q166.45 78 165.5 72.5L164.35 63.85Q163.5 65.9 161.9 71.7L161.55 72.7Q161.2 77.6 159.5 77.6Q157.45 77.6 157.35 75.7L157.6 74.15L157.2 72.05L157 70.25L155.5 64.5Q153.35 56.7 153.35 54.2Q153.35 52.95 154.25 52.75L154.5 52.7L155.25 52.75Q157.1 53.15 157.1 54.3L156.55 55L156.5 55.1L156.7 55.5Q159.4 61.2 159.6 68.45Q159.9 67.7 160.3 67.55L161.4 64.2Q163.15 59 163.15 57.45Q163.15 56 164.5 56Q166.75 56 167.25 60.25L167.5 65.85L168.9 70.95L169.25 72.35Q169.45 70.75 170.2 67.7L171.25 62.9L172.25 58Q172.25 56.1 173.6 55Q174.9 53.95 174.9 56.5M145,4L145.25 4.8L143.95 6.5Q142.65 8.05 142.5 11.65L141.9 14.95Q141.25 17.85 141.25 18.55L141.5 19.3L141.75 20.05L139.4 27.45Q137 35 137 35.75Q137 36.15 137.5 37.05L138 38.4Q138 39.5 137 39.5L129.85 39Q128.9 38.75 128.9 37.95L129.9 37.15L130.85 36.35Q130.85 34.6 129.35 27.35L127.85 22.85Q126.6 19.3 126.6 18.8L126.25 15L125.4 10.9L124.9 7Q124.8 6 123.35 5.2Q121.9 4.45 121.9 3.7Q121.9 1.9 123.2 2.35Q126.1 3.4 127.4 3.4L128.95 2.9Q129.8 2.35 130.1 2.35Q131.9 2.35 132 3.95L131.4 4.9Q130.75 5.7 130.95 8.6Q131.1 11.5 133.4 20.35Q135.65 29.2 136.1 24.75Q136.35 22.7 137.1 19.3L138.35 13.65Q139.05 11.65 139.35 5.65Q139.5 3.15 143.25 3.15Q144.55 3.15 145 4M155.1,20.5Q154.65 22.6 154.35 26.6L154.35 26.65L159.7 27L159.5 24.75L159.45 20.45Q158.4 20.2 158.3 18.6Q158.15 16.65 157.75 16.65Q155.9 16.65 155.1 20.5M115.75,11.95L116.25 16.4L116 17.1L115.5 17.65Q116.9 18.9 116.9 19.4L116.05 21.1Q115.15 23.15 115.15 26.1L115.1 32.55L115.7 35.15L116.25 37.05Q116.25 38.25 115.25 38.25L109.45 37.9Q108.9 37.75 108.9 36.95L109.75 36.2Q110.6 35.1 110.6 33.25L110.4 24.25Q110.35 22.6 109.6 20.9L108.85 19.25Q108.85 18.5 109.75 17.6Q110.5 16.75 110.25 15.75Q110.1 15.25 110.2 14.15L110.35 12.7L110.15 7.5Q110.05 5.15 108.7 4.25Q107.4 3.4 107.4 2.95Q107.4 1 112.35 1.55Q117.25 2.15 117.25 3.25L116.5 7.15Q115.75 11.2 115.75 11.95M99.2,4.2Q98.5 5.55 98.5 5.85L98.75 12.15Q98.75 13.35 99.4 15.8L100 18.25Q100 19.5 99.4 22.15Q98.75 24.8 98.75 26.75L98.4 35Q98.4 35.3 99.35 35.9Q100.25 36.55 100.25 36.95Q100.25 38.6 96.25 38.6Q93.8 38.6 92.1 34.1L90.1 26.85L87.45 21.05L85.85 17.5Q85.25 20 84.7 26.6L84.1 35.6L84.75 36.25Q85.35 36.75 85.35 37Q85.35 37.5 84.75 38Q84.05 38.5 83 38.5Q79.75 38.5 79.75 36.55L80.45 25.05L81.15 14.55L80 4.45Q80 2.45 82.55 2.65Q85.2 2.85 87.4 5.5Q89 7.9 90.65 11.65Q91.45 13.45 92.8 18.55L93.65 21.9Q94.55 20.7 94.55 18.95Q94.2 16.05 94.35 14.75Q94.65 12.15 94.65 6.5L94.2 4.65L93.75 3.1Q93.75 1.75 96.85 1.5Q99.9 1.25 99.9 2.65L99.2 4.2M89.85,49.35L90.3 49.15Q91.65 48.65 91.85 50.4L92.25 50.85L91.9 51.25L92.15 52.65L91.75 56L91.5 57.15L92.35 57.25L92.4 57.25L92.4 57.4L92.6 57.4L92.75 57.2Q93.65 56.85 95.05 55.25L95.05 55.2L95 54.55L96.15 52.8Q97.25 51.3 97.25 50.15Q97.25 49 99.1 48.95L99.35 48.95L99.45 48.75L99.55 48.95Q100.9 49 100.9 50L99.2 52.35L96.25 59Q96.25 59.7 97.15 61.8L98 64.5Q98.05 66.4 99.3 68.1L100.6 69.65Q99.25 74.6 98.75 74.6Q97.8 74.6 96.55 71.6L95.1 67.5Q94.2 65.35 92.45 62.85L92.2 62.5L92.1 64.15L92.15 69.15Q91.85 72.6 89.75 72.6Q88.25 72.6 87.9 72.2L87.85 71.7L88.05 68.8L88.25 65.7Q88.5 59.35 88.35 56.15Q88.3 54.05 88.6 51.7L87.85 51.25Q87.15 50.7 87.15 50.1Q87.15 48.3 89.7 49.3L89.85 49.35M113.75,49.25Q115.5 50.35 115.5 52.4Q115.05 57 114.25 57Q113.8 57 112.75 53.4Q111.7 49.75 110.35 49.75Q108.35 49.75 107.35 51.65Q106.75 52.85 106.75 53.8Q106.75 54.2 109 56.9L110.4 58.7L111.45 59.3Q115.65 62.1 115.65 65.45L115.4 69.75Q114.35 73.6 110.25 73.6Q106.5 73.6 105.1 70.4Q104.4 68.85 104.4 66.75L104.4 64.75Q104.6 63.4 105.5 63.4Q106.35 63.4 106.25 64.75L106 66.15Q106 67.8 106.75 69.35Q107.9 71.75 110.25 71.75Q111.9 71.75 113 67.85Q113 64.95 110.15 62.75L108.5 61.45Q107.25 60.5 106 58.15L104.35 54.15Q104.35 49 109.95 48.45Q112.15 48.25 113.75 49.25M120,51.75Q119.65 49.55 121.4 49Q123.15 48.45 123.15 50.65L122.65 56.9L122.75 59.6L129.75 59.1Q129.1 57.8 128.95 56.35L128.9 53.75Q128.9 49.5 131.1 49.25Q131.85 49.15 132.55 49.7Q133.25 50.2 133.25 50.8L133 66.5L133 70.5Q132.65 74 131 74Q129.45 74 129.4 70.5L129.65 67L129.4 61.75L125.5 61.9L122.85 61.8L123.35 69.65L123.25 71.65Q123 73.25 122 73.25Q120.15 73.25 119.7 71.75L119.65 70.2Q119.65 69.85 120 68.85L120.35 67.95L119.75 57.05L120 51.75M81.95,72.65Q81.25 73.25 80.5 73.25Q79.25 73.25 78.3 66.45L78.2 65.85L77.95 65.9L73.2 66.45L72.5 69.95Q71.65 73.75 70.75 73.75Q70.25 73.75 69.9 73.2L69.65 72.55L70.1 69.05Q70.1 67.75 70.8 63.25L71.65 58.5Q73.1 52.75 73.8 51.45Q75.65 47.8 78.5 50.5Q79.15 51.2 80.9 59.85Q82.65 68.7 82.65 71.75L81.95 72.65M146.1,53.4Q143.85 51.15 142.45 54.95Q141.35 57.85 141.35 60.8Q141.35 62.6 141.85 66.3Q142.65 71.85 144 73.75Q146.2 72.05 147.4 68.85L147.65 68.25L147.6 67.2L147.85 64.15L147.25 56.75Q147.25 55.7 147.4 55.15Q146.85 54.2 146.1 53.4M148.65,53.95Q150.6 57.85 150.6 65.6Q150.6 67.75 149.45 70.65Q147.7 75.15 144.35 75.15Q142.3 75.15 140.35 72.6Q138.85 70.55 138.5 68.9Q138 66.5 138 62.05Q138 57.6 139.95 54.3Q141.85 51.2 144.3 50.9Q146.95 50.6 148.65 53.95M65,6.65Q63.6 4.75 59.9 7.15L59.9 19.15L64.8 19.4Q65.9 19.4 66.25 17.45L66.35 15.45Q66.35 13.35 65.75 9.65Q65.5 7.35 65 6.65M64.5,3.1Q65.95 3.2 67.1 4.1Q68.35 5.05 69.5 5.25Q71.4 5.55 71.85 10.4Q71.85 13.45 70.4 16.6L68.9 19.75L69.1 20.05L71 21.65Q72.2 23.45 72.35 26Q72.55 28.75 72.1 34.5L72.9 37.05Q72.9 37.5 72.15 38.35Q71.35 39.25 70.75 39.25L69.9 39L69.35 39.1Q66.95 39.1 66.7 35.7L66.85 30.5L67.05 29.1L66.75 24.8Q65.9 23.15 63.4 22.25L59.9 22.25L59.9 24.15Q60.9 27.6 60.6 31L60.1 37.5L60.55 38.15L61 38.95L60.55 39.9L59 40.35Q58.15 40.35 57.6 39.45Q57.1 38.5 56.65 38.5Q56.05 38.5 55.25 39.2L54.25 39.85Q53.35 39.85 53.35 38.9Q53.35 38.65 54.1 37.9Q54.85 37.15 54.85 36.7L54.7 31.7L54.5 27.45L53.75 7.35Q53.75 5.45 53.95 5.25Q54.5 4.65 57.75 4.65L60.75 3.9L64.5 3.1M44.1,23.7Q47 36.55 47 40.3Q47 42.75 43.1 42.75Q41.55 42.75 41.65 41.25L42.1 39.75L41.5 35.8L40.85 32L33 32.15L31.95 39.25Q30.8 44.35 28.5 44.35Q27.2 44.35 26.75 43.7L26.6 43L27.45 41.85Q28.4 40.8 28.65 38.5L28.9 34Q30.1 26.65 30.1 25.3L29.8 24.5L29.5 23.7L31.2 21Q32.95 17.9 33.1 15.1Q32.6 12.35 32.9 10.7Q33.4 7.6 37.75 7.6L41.25 8Q42.1 8.3 42.1 9.15L41.65 10.3Q41.15 11.2 41.15 11.55L44.1 23.7M20.75,11.2Q22.25 10.25 22.25 15.75L22.25 18.4L22.25 18.7L22.35 20.05Q22.35 20.8 21.95 21.5Q21.3 22.6 20 22.6Q18.45 22.6 18.05 21.2Q17.8 20.5 17.85 18.15Q17.9 14.35 15.6 13.75L15.45 13.75Q12.6 13.75 11 18.45L10.75 19.7Q10.2 22.75 10.25 25.85Q10.25 26.2 10.95 27.75L11.6 29.6L11.1 35.4L11.35 39.5L11.4 39.7L11.25 41L11.6 42.25Q12.3 43.5 13.85 43.5Q15 43.5 17.2 39.7L17.3 39.55L17.25 38.9Q17.25 34.9 19.25 34.9L19.25 34.75L19.5 34.65Q20.8 34.65 21.3 35.95Q21.75 36.75 21.75 38.05Q20 44.35 19 44.35L18.8 44.35Q16.85 46.75 13.85 46.75L11.65 46.4Q8.8 45.75 7.45 42Q6.45 39.85 5.85 36.75Q5.25 33.55 5.1 29.7L5.1 26.2Q5.1 25 5.45 23.3L5.5 22.05Q5.5 18.95 8.25 15.05L9.15 12.5Q10.1 9.9 15.7 9.85Q19.4 9.8 20.7 11.25L20.75 11.2M35,22.85L34 28.15Q34 28.55 34.4 28.65L40 28.9Q39.75 24.35 38.5 17.85L37.1 17.8L36.15 17.5L35 22.85M39.6,55.25L39.35 62.6L39.35 63.05L39.55 63.75Q41.35 63.5 43.4 61.8Q45.5 60.05 45.5 58.9L44.75 55.4Q44 54.35 42.75 54.35L39.9 54.75L39.6 55.25M31.75,61.25Q30.4 60.35 29.7 58.45Q29.35 57.4 26.6 57.4Q24 57.4 24.05 58.4L24.15 60.5L24.15 65.85L26.95 66.25Q27.6 66.45 27.6 67Q27.6 68.2 24.35 68.25L24.75 72.8L24.6 77.5L24.45 79L24.6 79.15Q25 79.45 25 79.95Q25 80.7 22.35 82Q20.2 82 20.15 80.3L20.1 80.1L20.15 79.85Q20.15 77.2 20.4 75.8L21.5 70.1L21.3 68.85L21 68.4Q20.25 67.45 20.25 66.95L20.7 65.35Q21.1 64.05 21.1 62.25L21.35 57.75Q23.95 53.5 28.4 54.85Q32.5 56.1 32.5 58.55Q32.5 60.7 31.75 61.25M36.05,53.65L38.2 52.9L39.65 52.45L42.7 52L43.1 52L43.9 52.1Q46.3 52.2 47.2 54.45Q47.75 55.75 47.75 57.5L47.25 59.6L47 60.35L47.2 60.7Q46.6 62.15 44.9 63.25L45.65 64.05Q48.6 67.4 48.6 70.45L48.5 73.5Q48.15 75.85 46.75 75.85Q45.3 75.85 44.75 74Q44.5 73.1 44.5 71.95L44.9 70.5L45.25 68.8Q45.25 67.4 43.95 65.55L43.05 64.25L39.6 65.75L39.55 69.35Q39.9 71.2 39.9 73.05L39.85 74.3L40 75.75L39.45 76.5Q38.85 77 38.5 77L37.9 76.9L37.75 77.1L37.25 77.25L37.15 77.25L37 77.5L36.9 77.2Q36.35 76.9 36.15 75.75L36.05 75L36 72.65L36 72.55L35.9 69.05L36.25 60.8L36.15 59.65L35.75 55.95Q35.75 54.4 36.05 53.65M73.85,60.05L73.55 64.6L75.65 64.05L77.9 63.8L76.65 56.1Q74.2 57.15 73.85 60.05M64.9,52.3Q64.9 53.15 64.25 53.15Q63.75 53.15 62.55 52.6Q61.4 52 60.25 52L59 52.25L57.75 52.5Q56.95 52.5 57 57.15L57.1 60.75Q58.2 60.25 59.75 60.25Q60.6 60.25 61.1 60.75L61.5 61.4Q61.5 62.6 57.25 62.6L57.15 62.6L57.15 67.3L57.4 68.65L57.65 72.85L57.7 72.95L58.1 73L61.25 72.6Q62.5 72.6 63.7 71.1L65.25 69.25L65.6 69.3L65.75 69.75Q65.75 70.9 64 72.95Q61.8 75.5 59 75.5Q54.5 75.5 54.5 73.45Q54.5 70.7 54.65 69.45L54.8 68.6L54.5 63.35L54.5 53.1Q54.5 51.25 54.95 50.85Q55.75 50.1 59.1 50.1Q61.65 50.1 63.2 50.65Q64.9 51.25 64.9 52.3" />
</g>
</svg>
