<?xml version="1.0" encoding="utf-8"?>
<svg version="1.1" id="Layer_1"
xmlns="http://www.w3.org/2000/svg"
xmlns:xlink="http://www.w3.org/1999/xlink"
xmlns:author="http://www.sothink.com"
width="189px" height="81px"
xml:space="preserve">
<g id="792" transform="matrix(1, 0, 0, 1, 0, 0)">
<path style="fill:#FF00FF;fill-opacity:1" d="M177.9,9.2Q179 9.2 178.9 10.35L177.9 11.8Q178.3 12.35 178.3 13.2L177.95 15.6Q177.55 17.9 177.55 19.35Q177.55 20.6 178.3 23.3L179.05 26.05L178.35 27.95Q177.65 29.25 177.65 32.2L177.4 38.4Q177.4 39.5 178 41.05Q178.85 43.3 180.3 43.3Q184.45 43.3 184.75 38L185.05 34.3Q185.5 32.65 187 32.65Q188.45 32.65 188.75 34.75L188.75 36.9Q188.75 40.45 187.9 42.3Q186.1 46.3 180.65 46.3Q178.05 46.3 177.1 45.7L174.5 43.4Q173.25 44.8 172.25 44.8Q171.3 44.8 171 44.2L170.9 43.5Q170.9 42.8 171.45 42.3Q172 41.8 172 41.15Q172 37.85 171.35 33.4Q170.65 28.95 170.65 26.2L172 19.4Q172 16.25 170.9 12.95L169.75 10.25Q169.75 8.8 170.9 9.15Q173.7 9.95 175.4 9.95L176.5 9.6Q177.25 9.2 177.9 9.2M168.9,60.55L167.5 68.15Q166.05 74.55 164.6 75.45L164.5 75.85Q164.2 76.55 163.25 76.55Q161.35 76.55 160.4 71.05L159.25 62.4Q158.4 64.45 156.8 70.25L156.45 71.25Q156.1 76.15 154.4 76.15Q152.35 76.15 152.25 74.25L152.5 72.7L152.1 70.6L151.9 68.8L150.4 63.05Q148.25 55.25 148.25 52.75Q148.25 51.5 149.15 51.3L149.4 51.25L150.15 51.3Q152 51.7 152 52.85L151.45 53.55L151.4 53.65L151.6 54.05Q154.3 59.75 154.5 67Q154.8 66.25 155.2 66.1L156.3 62.75Q158.05 57.55 158.05 56Q158.05 54.55 159.4 54.55Q161.65 54.55 162.15 58.8L162.4 64.4L163.8 69.5L164.15 70.9Q164.35 69.3 165.1 66.25L166.15 61.45L167.15 56.55Q167.15 54.65 168.5 53.55Q169.8 52.5 169.8 55.05L169.35 57.85Q168.9 59.7 168.9 60.55M157.3,6.3Q157.9 7.85 158 11.15Q158.2 16.65 159.5 20.85Q160.3 21.1 160.15 22.55L160.05 23.1L161.4 31.3L162.55 40.45Q162.55 41.45 161.9 41.7L157.25 42.15Q156.3 42.15 156.05 41.55L156 40.9L156.45 40.25L156.9 39.45Q156.9 35.85 155.85 32.3L155.3 30.1L151.15 30.05L148.4 30.2L147.6 36.05Q146.85 40.05 144.9 40.05Q143.3 40.05 142.5 39.05L142.45 38.95Q141.9 38.9 141.75 38.45L141.65 37.9Q141.65 37.6 142.2 36.45Q142.5 34.3 143.5 30.05L145.4 22.7L145.95 21.15L145.5 19.9Q145.5 19.6 146.7 17L148.4 12.55L148.4 5.45Q148.4 3.55 152.55 4.05Q156.7 4.55 157.3 6.3M154.35,19Q153.3 18.75 153.2 17.15Q153.05 15.2 152.65 15.2Q150.8 15.2 150 19.05Q149.55 21.15 149.25 25.15L149.25 25.2L154.6 25.55L154.4 23.3L154.35 19M137.4,10.2L136.8 13.5L136.15 17.1L136.4 17.85L136.65 18.6L134.3 26Q131.9 33.55 131.9 34.3Q131.9 34.7 132.4 35.6L132.9 36.95Q132.9 38.05 131.9 38.05L124.75 37.55Q123.8 37.3 123.8 36.5Q123.8 36.25 124.8 35.7Q125.75 35.1 125.75 34.9Q125.75 33.15 124.25 25.9L122.75 21.4Q121.5 17.85 121.5 17.35L121.15 13.55L120.3 9.45L119.8 5.55Q119.7 4.55 118.25 3.75Q116.8 3 116.8 2.25Q116.8 0.45 118.1 0.9Q121 1.95 122.3 1.95L123.85 1.45Q124.7 0.9 125 0.9Q126.8 0.9 126.9 2.5L126.3 3.45Q125.65 4.25 125.85 7.15Q126 10.05 128.3 18.9Q130.55 27.75 131 23.3Q131.25 21.25 132 17.85L133.25 12.2Q133.95 10.2 134.25 4.2Q134.4 1.7 138.15 1.7Q139.45 1.7 139.9 2.55L140.15 3.35L138.85 5.05Q137.55 6.6 137.4 10.2M128.15,49.35L127.9 65.05L127.9 69.05Q127.55 72.55 125.9 72.55Q124.35 72.55 124.3 69.05L124.55 65.55L124.3 60.3L120.4 60.45L117.75 60.35L118.25 68.2L118.15 70.2Q117.9 71.8 116.9 71.8Q115.05 71.8 114.6 70.3L114.55 68.75Q114.55 68.4 114.9 67.4L115.25 66.5L114.65 55.6L114.9 50.3Q114.55 48.1 116.3 47.55Q118.05 47 118.05 49.2L117.55 55.45L117.65 58.15L124.65 57.65Q124 56.35 123.85 54.9L123.8 52.3Q123.8 48.05 126 47.8Q126.75 47.7 127.45 48.25Q128.15 48.75 128.15 49.35M111.4,5.7Q110.65 9.75 110.65 10.5L111.15 14.95L110.9 15.65L110.4 16.2Q111.8 17.45 111.8 17.95L110.95 19.65Q110.05 21.7 110.05 24.65L110 31.1L110.6 33.7L111.15 35.6Q111.15 36.8 110.15 36.8L104.35 36.45Q103.8 36.3 103.8 35.5L104.65 34.75Q105.5 33.65 105.5 31.8L105.3 22.8Q105.25 21.15 104.5 19.45L103.75 17.8Q103.75 17.05 104.65 16.15Q105.4 15.3 105.15 14.3Q105 13.8 105.1 12.7L105.25 11.25L105.05 6.05Q104.95 3.7 103.6 2.8Q102.3 1.95 102.3 1.5Q102.3 -0.45 107.25 0.1Q112.15 0.7 112.15 1.8L111.4 5.7M94.1,2.75Q93.4 4.1 93.4 4.4L93.65 10.7Q93.65 11.9 94.3 14.35L94.9 16.8Q94.9 18.05 94.3 20.7Q93.65 23.35 93.65 25.3L93.3 33.55Q93.3 33.85 94.25 34.45Q95.15 35.1 95.15 35.5Q95.15 37.15 91.15 37.15Q88.7 37.15 87 32.65L85 25.4L82.35 19.6L80.75 16.05Q80.15 18.55 79.6 25.15L79 34.15L79.65 34.8Q80.25 35.3 80.25 35.55Q80.25 36.05 79.65 36.55Q78.95 37.05 77.9 37.05Q74.65 37.05 74.65 35.1L75.35 23.6L76.05 13.1L74.9 3Q74.9 1 77.45 1.2Q80.1 1.4 82.3 4.05Q83.9 6.45 85.55 10.2Q86.35 12 87.7 17.1L88.55 20.45Q89.45 19.25 89.45 17.5Q89.1 14.6 89.25 13.3Q89.55 10.7 89.55 5.05L89.1 3.2L88.65 1.65Q88.65 0.3 91.75 0.05Q94.8 -0.2 94.8 1.2L94.1 2.75M84.75,47.9L85.2 47.7Q86.55 47.2 86.75 48.95L87.15 49.4L86.8 49.8L87.05 51.2L86.65 54.55L86.4 55.7L87.25 55.8L87.3 55.8L87.3 55.95L87.5 55.95L87.65 55.75Q88.55 55.4 89.95 53.8L89.95 53.75L89.9 53.1Q89.9 52.9 91.05 51.35Q92.15 49.85 92.15 48.7Q92.15 47.55 94 47.5L94.25 47.5L94.35 47.3L94.45 47.5Q95.8 47.55 95.8 48.55L94.1 50.9L91.15 57.55Q91.15 58.25 92.05 60.35L92.9 63.05Q92.95 64.95 94.2 66.65L95.5 68.2Q94.15 73.15 93.65 73.15Q92.7 73.15 91.45 70.15L90 66.05Q89.1 63.9 87.35 61.4L87.1 61.05L87 62.7L87.05 67.7Q86.75 71.15 84.65 71.15Q83.15 71.15 82.8 70.75L82.75 70.25L82.95 67.35L83.15 64.25Q83.4 57.9 83.25 54.7Q83.2 52.6 83.5 50.25L82.75 49.8Q82.05 49.25 82.05 48.65Q82.05 46.85 84.6 47.85L84.75 47.9M108.65,47.8Q110.4 48.9 110.4 50.95Q109.95 55.55 109.15 55.55Q108.7 55.55 107.65 51.95Q106.6 48.3 105.25 48.3Q103.25 48.3 102.25 50.2Q101.65 51.4 101.65 52.35Q101.65 52.75 103.9 55.45L105.3 57.25L106.35 57.85Q110.55 60.65 110.55 64L110.3 68.3Q109.25 72.15 105.15 72.15Q101.4 72.15 100 68.95Q99.3 67.4 99.3 65.3L99.3 63.3Q99.5 61.95 100.4 61.95Q101.25 61.95 101.15 63.3L100.9 64.7Q100.9 66.35 101.65 67.9Q102.8 70.3 105.15 70.3Q106.8 70.3 107.9 66.4Q107.9 63.5 105.05 61.3L103.4 60Q102.15 59.05 100.9 56.7L99.25 52.7Q99.25 47.55 104.85 47Q107.05 46.8 108.65 47.8M142.3,53.7Q141.75 52.75 141 51.95Q138.75 49.7 137.35 53.5Q136.25 56.4 136.25 59.35Q136.25 61.15 136.75 64.85Q137.55 70.4 138.9 72.3Q141.1 70.6 142.3 67.4L142.55 66.8L142.5 65.75L142.75 62.7L142.15 55.3Q142.15 54.25 142.3 53.7M144.35,69.2Q142.6 73.7 139.25 73.7Q137.2 73.7 135.25 71.15Q133.75 69.1 133.4 67.45Q132.9 65.05 132.9 60.6Q132.9 56.15 134.85 52.85Q136.75 49.75 139.2 49.45Q141.85 49.15 143.55 52.5Q145.5 56.4 145.5 64.15Q145.5 66.3 144.35 69.2M66.75,8.95Q66.75 12 65.3 15.15L63.8 18.3L64 18.6L65.9 20.2Q67.1 22 67.25 24.55Q67.45 27.3 67 33.05L67.8 35.6Q67.8 36.05 67.05 36.9Q66.25 37.8 65.65 37.8L64.8 37.55L64.25 37.65Q61.85 37.65 61.6 34.25L61.75 29.05L61.95 27.65L61.65 23.35Q60.8 21.7 58.3 20.8L54.8 20.8L54.8 22.7Q55.8 26.15 55.5 29.55L55 36.05L55.45 36.7L55.9 37.5Q55.9 38.1 55.45 38.45L53.9 38.9Q53.05 38.9 52.5 38Q52 37.05 51.55 37.05Q50.95 37.05 50.15 37.75L49.15 38.4Q48.25 38.4 48.25 37.45Q48.25 37.2 49 36.45Q49.75 35.7 49.75 35.25L49.6 30.25Q49.4 29.2 49.4 26L48.65 5.9Q48.65 4 48.85 3.8Q49.4 3.2 52.65 3.2L55.65 2.45L59.4 1.65Q60.85 1.75 62 2.65Q63.25 3.6 64.4 3.8Q66.3 4.1 66.75 8.95M61.25,14Q61.25 11.9 60.65 8.2Q60.4 5.9 59.9 5.2Q58.5 3.3 54.8 5.7L54.8 17.7L59.7 17.95Q60.8 17.95 61.15 16L61.25 14M58.1,49.2Q59.8 49.8 59.8 50.85Q59.8 51.7 59.15 51.7L57.45 51.15Q56.3 50.55 55.15 50.55L53.9 50.8L52.65 51.05Q51.85 51.05 51.9 55.7L52 59.3Q53.1 58.8 54.65 58.8Q55.5 58.8 56 59.3L56.4 59.95Q56.4 61.15 52.15 61.15L52.05 61.15L52.05 65.85L52.3 67.2L52.55 71.4L52.6 71.5L53 71.55L56.15 71.15Q57.4 71.15 58.6 69.65L60.15 67.8L60.5 67.85L60.65 68.3Q60.65 69.45 58.9 71.5Q56.7 74.05 53.9 74.05Q49.4 74.05 49.4 72Q49.4 69.25 49.55 68L49.7 67.15L49.4 61.9L49.4 51.65Q49.4 49.8 49.85 49.4Q50.65 48.65 54 48.65Q56.55 48.65 58.1 49.2M36.15,6.55Q37 6.85 37 7.7L36.55 8.85L36.05 10.1L39 22.25Q41.9 35.1 41.9 38.85Q41.9 41.3 38 41.3Q36.45 41.3 36.55 39.8L37 38.3L36.4 34.35L35.75 30.55L27.9 30.7L26.85 37.8Q25.7 42.9 23.4 42.9Q22.1 42.9 21.65 42.25L21.5 41.55L22.35 40.4Q23.3 39.35 23.55 37.05L23.8 32.55Q25 25.2 25 23.85L24.7 23.05L24.4 22.25L26.1 19.55Q27.85 16.45 28 13.65Q27.5 10.9 27.8 9.25Q28.3 6.15 32.65 6.15L36.15 6.55M32,16.35L31.05 16.05L29.9 21.4L28.9 26.7Q28.9 27.1 29.3 27.2L34.9 27.45Q34.65 22.9 33.4 16.4L32 16.35M15.65,9.75Q17.15 8.8 17.15 14.3L17.15 16.95L17.15 17.25L17.25 18.6Q17.25 19.35 16.85 20.05Q16.2 21.15 14.9 21.15Q13.35 21.15 12.95 19.75Q12.7 19.05 12.75 16.7Q12.8 12.9 10.5 12.3L10.35 12.3Q7.5 12.3 5.9 17L5.65 18.25Q5.1 21.3 5.15 24.4Q5.15 24.75 5.85 26.3L6.5 28.15L6 33.95L6.25 38.05L6.3 38.25L6.15 39.55L6.5 40.8Q7.2 42.05 8.75 42.05Q9.9 42.05 12.1 38.25L12.2 38.1L12.15 37.45Q12.15 33.45 14.15 33.45L14.15 33.3L14.4 33.2Q15.7 33.2 16.2 34.5Q16.65 35.3 16.65 36.6Q14.9 42.9 13.9 42.9L13.7 42.9Q11.75 45.3 8.75 45.3L6.55 44.95Q3.7 44.3 2.35 40.55Q1.35 38.4 0.75 35.3Q0.15 32.1 0 28.25L0 24.75Q0 23.55 0.35 21.85L0.4 20.6Q0.4 17.5 3.15 13.6L4.05 11.05Q5 8.45 10.6 8.4Q14.3 8.35 15.6 9.8L15.65 9.75M37.65,52.9L34.8 53.3L34.5 53.8L34.25 61.15L34.25 61.6L34.45 62.3Q36.25 62.05 38.3 60.35Q40.4 58.6 40.4 57.45L39.65 53.95Q38.9 52.9 37.65 52.9M38,50.55L38.8 50.65Q41.2 50.75 42.1 53Q42.65 54.3 42.65 56.05L42.15 58.15L41.9 58.9L42.1 59.25Q41.5 60.7 39.8 61.8L40.55 62.6Q43.5 65.95 43.5 69L43.4 72.05Q43.05 74.4 41.65 74.4Q40.2 74.4 39.65 72.55Q39.4 71.65 39.4 70.5L39.8 69.05L40.15 67.35Q40.15 65.95 38.85 64.1L37.95 62.8L34.5 64.3L34.45 67.9L34.8 71.6L34.75 72.85L34.9 74.3L34.35 75.05L33.4 75.55L32.8 75.45L32.65 75.65L32.15 75.8L32.05 75.8L31.9 76.05L31.8 75.75Q31.25 75.45 31.05 74.3L30.95 73.55L30.9 71.2L30.9 71.1L30.8 67.6L31.15 59.35L31.05 58.2L30.65 54.5Q30.65 52.95 30.95 52.2L33.1 51.45L34.55 51L37.6 50.55L38 50.55M24.6,57Q24.25 55.95 21.5 55.95Q18.9 55.95 18.95 56.95L19.05 59.05L19.05 64.4L21.85 64.8Q22.5 65 22.5 65.55Q22.5 66.75 19.25 66.8L19.65 71.35L19.5 76.05L19.35 77.55L19.5 77.7Q19.9 78 19.9 78.5Q19.9 79.25 17.25 80.55Q15.1 80.55 15.05 78.85L15 78.65L15.05 78.4Q15.05 75.75 15.3 74.35L16.4 68.65L16.2 67.4L15.9 66.95Q15.15 66 15.15 65.5L15.6 63.9Q16 62.6 16 60.8L16.25 56.3Q18.85 52.05 23.3 53.4Q27.4 54.65 27.4 57.1Q27.4 59.25 26.65 59.8Q25.3 58.9 24.6 57M66.55,57.05Q68 51.3 68.7 50Q70.55 46.35 73.4 49.05Q74.05 49.75 75.8 58.4Q77.55 67.25 77.55 70.3Q77.55 70.7 76.85 71.2Q76.15 71.8 75.4 71.8Q74.15 71.8 73.2 65L73.1 64.4L72.85 64.45L68.1 65L67.4 68.5Q66.55 72.3 65.65 72.3Q65.15 72.3 64.8 71.75L64.55 71.1L65 67.6Q65 66.3 65.7 61.8L66.55 57.05M70.55,62.6L72.8 62.35L71.55 54.65Q69.1 55.7 68.75 58.6L68.45 63.15L70.55 62.6" />
</g>
</svg>
