<?xml version="1.0" encoding="utf-8"?>
<svg version="1.1" id="Layer_1"
xmlns="http://www.w3.org/2000/svg"
xmlns:xlink="http://www.w3.org/1999/xlink"
xmlns:author="http://www.sothink.com"
width="21px" height="27px"
xml:space="preserve">
<g id="786" transform="matrix(1, 0, 0, 1, 0, 0)">
<path style="fill:#FF00FF;fill-opacity:1" d="M20.1,5.9L20.1 8.15L17.85 8.15L17.85 5.9L20.1 5.9M17.2,2.25L14.9 2.25L14.9 0L17.2 0L17.2 2.25M17.85,5.15L17.85 2.9L20.1 2.9L20.1 5.15L17.85 5.15M11.15,2.25L8.9 2.25L8.9 0L11.15 0L11.15 2.25M14.05,0L14.05 2.25L11.8 2.25L11.8 0L14.05 0M14.05,11.9L14.05 14.15L11.8 14.15L11.8 11.9L14.05 11.9M20.1,11.15L17.85 11.15L17.85 8.9L20.1 8.9L20.1 11.15M17.2,11.9L17.2 14.15L14.9 14.15L14.9 11.9L17.2 11.9M5.25,2.25L3 2.25L3 0L5.25 0L5.25 2.25M8.15,2.25L5.9 2.25L5.9 0L8.15 0L8.15 2.25M2.25,5.9L2.25 8.15L0 8.15L0 5.9L2.25 5.9M0,5.15L0 2.9L2.25 2.9L2.25 5.15L0 5.15M0,11.15L0 8.9L2.25 8.9L2.25 11.15L0 11.15M8.15,11.9L8.15 14.15L5.9 14.15L5.9 11.9L8.15 11.9M5.25,11.9L5.25 14.15L3 14.15L3 11.9L5.25 11.9M2.25,17.1L0 17.1L0 14.85L2.25 14.85L2.25 17.1M2.25,17.85L2.25 20.1L0 20.1L0 17.85L2.25 17.85M2.25,23.15L0 23.15L0 20.9L2.25 20.9L2.25 23.15M8.45,23.85L8.45 26.1L6.2 26.1L6.2 23.85L8.45 23.85M5.25,23.85L5.25 26.1L3 26.1L3 23.85L5.25 23.85M20.1,17.9L20.1 20.15L17.85 20.15L17.85 17.9L20.1 17.9M20.1,14.9L20.1 17.15L17.85 17.15L17.85 14.9L20.1 14.9M14.35,23.85L14.35 26.1L12.1 26.1L12.1 23.85L14.35 23.85M20.1,23.15L17.85 23.15L17.85 20.9L20.1 20.9L20.1 23.15M17.25,23.85L17.25 26.1L15 26.1L15 23.85L17.25 23.85M11.35,23.85L11.35 26.1L9.1 26.1L9.1 23.85L11.35 23.85M11.15,11.9L11.15 14.15L8.9 14.15L8.9 11.9L11.15 11.9" />
</g>
</svg>
