<?xml version="1.0" encoding="utf-8"?>
<svg version="1.1" id="Layer_1"
xmlns="http://www.w3.org/2000/svg"
xmlns:xlink="http://www.w3.org/1999/xlink"
xmlns:author="http://www.sothink.com"
width="15px" height="15px"
xml:space="preserve">
<g id="724" transform="matrix(1, 0, 0, 1, 0, 0)">
<path style="fill:#FFFF00;fill-opacity:1" d="M14.05,11.15L11.9 11.15L11.9 9L14.05 9L14.05 11.15M14.05,8.25L11.9 8.25L11.9 6.1L14.05 6.1L14.05 8.25M14.05,5.25L11.9 5.25L11.9 3.1L14.05 3.1L14.05 5.25M10.95,0L10.95 2.15L8.8 2.15L8.8 0L10.95 0M8.05,0L8.05 2.15L5.9 2.15L5.9 0L8.05 0M8.05,5.25L5.9 5.25L5.9 3.1L8.05 3.1L8.05 5.25M8.05,6L8.05 8.25L5.9 8.25L5.9 6L8.05 6M5.05,5.25L2.9 5.25L2.9 3.1L5.05 3.1L5.05 5.25M10.95,6L10.95 8.25L8.8 8.25L8.8 6L10.95 6M8.8,3.1L10.95 3.1L10.95 5.25L8.8 5.25L8.8 3.1M5.05,2.15L2.9 2.15L2.9 0L5.05 0L5.05 2.15M2.15,6L2.15 8.25L0 8.25L0 6L2.15 6M2.15,5.25L0 5.25L0 3.1L2.15 3.1L2.15 5.25M2.9,12L5.05 12L5.05 14.15L2.9 14.15L2.9 12M2.15,11.15L0 11.15L0 9L2.15 9L2.15 11.15M2.9,9L5.05 9L5.05 11.15L2.9 11.15L2.9 9M10.95,12L10.95 14.15L8.8 14.15L8.8 12L10.95 12M10.95,11.15L8.8 11.15L8.8 9L10.95 9L10.95 11.15M8.05,12L8.05 14.15L5.9 14.15L5.9 12L8.05 12M5.9,11.15L5.9 9L8.05 9L8.05 11.15L5.9 11.15M5.05,8.25L2.9 8.25L2.9 6L5.05 6L5.05 8.25" />
</g>
</svg>
