<?xml version="1.0" encoding="utf-8"?>
<svg version="1.1" id="Layer_1"
xmlns="http://www.w3.org/2000/svg"
xmlns:xlink="http://www.w3.org/1999/xlink"
xmlns:author="http://www.sothink.com"
width="18px" height="15px"
xml:space="preserve">
<g id="789" transform="matrix(1, 0, 0, 1, 0, 0)">
<path style="fill:#FFFFFF;fill-opacity:1" d="M5.2,3L5.2 5.25L2.95 5.25L2.95 3L5.2 3M5.9,2.25L5.9 0L8.15 0L8.15 2.25L5.9 2.25M14.15,8.35L11.9 8.35L11.9 6.1L14.15 6.1L14.15 8.35M17.2,6.1L17.2 8.35L14.95 8.35L14.95 6.1L17.2 6.1M11.15,8.35L8.9 8.35L8.9 6.1L11.15 6.1L11.15 8.35M5.2,8.25L2.95 8.25L2.95 6L5.2 6L5.2 8.25M5.9,6.1L8.15 6.1L8.15 8.35L5.9 8.35L5.9 6.1M0,6.1L2.25 6.1L2.25 8.35L0 8.35L0 6.1M8.15,14.25L5.9 14.25L5.9 12L8.15 12L8.15 14.25M5.2,9L5.2 11.25L2.95 11.25L2.95 9L5.2 9" />
</g>
</svg>
