<?xml version="1.0" encoding="utf-8"?>
<svg version="1.1" id="Layer_1"
xmlns="http://www.w3.org/2000/svg"
xmlns:xlink="http://www.w3.org/1999/xlink"
xmlns:author="http://www.sothink.com"
width="149px" height="209px"
xml:space="preserve">
<g id="707" transform="matrix(1, 0, 0, 1, 0.5, 0.1)">
<path style="fill:#FF9900;fill-opacity:1" d="M37.65,0.4L37.65 0L104.65 0L104.65 0.4Q79.25 12.05 79.35 38L79.65 80.25Q79.9 96.5 80.6 113.45Q81.35 130.3 83.6 151.05Q85.85 171.85 106.85 186.4Q123.55 198 136.1 203.65Q139.3 205.05 147.45 208.05L0 208.05L0 206.15Q14.5 200.95 35.5 186.4Q56.45 171.85 58.7 151.05Q61 130.3 61.7 113.45Q62.4 96.6 62.35 83.8Q62.2 70.95 62.6 41.8Q62.9 12.65 37.65 0.4" />
<path style="fill:none;stroke-width:1;stroke-linecap:round;stroke-linejoin:round;stroke-miterlimit:3;stroke:#FF9900;stroke-opacity:1" d="M104.65,0.4Q79.25 12.05 79.35 38L79.65 80.25Q79.9 96.5 80.6 113.45Q81.35 130.3 83.6 151.05Q85.85 171.85 106.85 186.4Q123.55 198 136.1 203.65Q139.3 205.05 147.45 208.05M0,206.15Q14.5 200.95 35.5 186.4Q56.45 171.85 58.7 151.05Q61 130.3 61.7 113.45Q62.4 96.6 62.35 83.8Q62.2 70.95 62.6 41.8Q62.9 12.65 37.65 0.4" />
</g>
</svg>
