<?xml version="1.0" encoding="utf-8"?>
<svg version="1.1" id="Layer_1"
xmlns="http://www.w3.org/2000/svg"
xmlns:xlink="http://www.w3.org/1999/xlink"
xmlns:author="http://www.sothink.com"
width="15px" height="12px"
xml:space="preserve">
<g id="655" transform="matrix(1, 0, 0, 1, 7.25, 5.55)">
<path style="fill:#0066FF;fill-opacity:1" d="M2.85,-4.4L5.65 -5.45L4.5 -2.85L7.35 -2.85L5.25 -0.7L3.55 -0.7L2.85 0.75L5.9 0.75L3.8 2.85L1.95 2.85L1.2 4.6L-1.6 5.65L-0.4 2.85L-2 2.85L-2.7 4.5L-5.5 5.55L-4.3 2.85L-7.25 2.85L-5.1 0.75L-3.35 0.75L-2.7 -0.7L-5.75 -0.7L-3.6 -2.85L-1.75 -2.85L-1.05 -4.45L1.75 -5.55L0.55 -2.85L2.15 -2.85L2.85 -4.4M1.25,-0.7L-0.4 -0.7L-1.05 0.75L0.55 0.75L1.25 -0.7" />
<path style="fill:#FF9900;fill-opacity:1" d="M0.55,0.75L-1.05 0.75L-0.4 -0.7L1.25 -0.7L0.55 0.75" />
</g>
</svg>
