<?xml version="1.0" encoding="utf-8"?>
<svg version="1.1" id="Layer_1"
xmlns="http://www.w3.org/2000/svg"
xmlns:xlink="http://www.w3.org/1999/xlink"
xmlns:author="http://www.sothink.com"
width="18px" height="18px"
xml:space="preserve">
<g id="884" transform="matrix(1, 0, 0, 1, 0.25, 0.25)">
<radialGradient
id="RadialGradID_735" gradientUnits="userSpaceOnUse" gradientTransform="matrix(0.0137024, 0, 0, 0.0137024, 8.3, 8.3)" spreadMethod ="pad" cx="0" cy="0" r="819.2" fx="0" fy="0" >
<stop  offset="0"  style="stop-color:#FFCC00;stop-opacity:1" />
<stop  offset="1"  style="stop-color:#CC9900;stop-opacity:1" />
</radialGradient>
<path style="fill:url(#RadialGradID_735) " d="M16.3,8.3Q16.3 11.65 14 14Q11.6 16.35 8.25 16.35Q5 16.35 2.6 14Q0.25 11.65 0.25 8.3Q0.25 4.95 2.6 2.6Q5 0.25 8.25 0.25Q11.6 0.25 14 2.6Q16.3 4.95 16.3 8.3" />
<path style="fill:#996699;fill-opacity:1" d="M16.8,8.3Q16.8 11.85 14.35 14.35Q11.8 16.85 8.25 16.85Q4.8 16.85 2.25 14.35Q-0.25 11.85 -0.25 8.3Q-0.25 4.75 2.25 2.25Q4.8 -0.25 8.25 -0.25Q11.8 -0.25 14.35 2.25Q16.8 4.75 16.8 8.3M14,2.6Q11.6 0.25 8.25 0.25Q5 0.25 2.6 2.6Q0.25 4.95 0.25 8.3Q0.25 11.65 2.6 14Q5 16.35 8.25 16.35Q11.6 16.35 14 14Q16.3 11.65 16.3 8.3Q16.3 4.95 14 2.6" />
<path style="fill:#CC9900;fill-opacity:1" d="M10.25,4.05L12.15 4.05L12.15 8.95L12 11.35L11.45 12.5L10.35 13.25L8.55 13.6L6.5 13.25L5.45 12.45L4.9 11.45L4.7 9.05L4.7 4.05L6.6 4.05L6.6 9.15L6.65 10.7Q6.8 11.25 7.25 11.6Q7.7 11.95 8.5 11.95L9.7 11.6L10.2 10.8L10.25 9.2L10.25 4.05" />
</g>
</svg>
