<?xml version="1.0" encoding="utf-8"?>
<svg version="1.1" id="Layer_1"
xmlns="http://www.w3.org/2000/svg"
xmlns:xlink="http://www.w3.org/1999/xlink"
xmlns:author="http://www.sothink.com"
width="21px" height="27px"
xml:space="preserve">
<g id="781" transform="matrix(1, 0, 0, 1, 0.1, 0)">
<path style="fill:#FF00FF;fill-opacity:1" d="M17.05,2.25L14.8 2.25L14.8 0L17.05 0L17.05 2.25M17.6,2.9L19.85 2.9L19.85 5.15L17.6 5.15L17.6 2.9M19.85,5.8L19.85 8.05L17.6 8.05L17.6 5.8L19.85 5.8M17.05,5.15L14.8 5.15L14.8 2.9L17.05 2.9L17.05 5.15M11.15,2.25L8.9 2.25L8.9 0L11.15 0L11.15 2.25M11.8,0L14.05 0L14.05 2.25L11.8 2.25L11.8 0M14.8,8.8L17.05 8.8L17.05 11.05L14.8 11.05L14.8 8.8M14.05,11.9L14.05 14.15L11.8 14.15L11.8 11.9L14.05 11.9M19.95,8.8L19.95 11.05L17.7 11.05L17.7 8.8L19.95 8.8M16.95,11.9L16.95 14.15L14.7 14.15L14.7 11.9L16.95 11.9M8.25,0L8.25 2.25L6 2.25L6 0L8.25 0M5.25,2.25L3 2.25L3 0L5.25 0L5.25 2.25M5.25,5.15L3 5.15L3 2.9L5.25 2.9L5.25 5.15M2.25,2.9L2.25 5.15L0 5.15L0 2.9L2.25 2.9M8.25,11.9L8.25 14.15L6 14.15L6 11.9L8.25 11.9M5.35,23.85L5.35 26.1L3.1 26.1L3.1 23.85L5.35 23.85M8.25,23.85L8.25 26.1L6 26.1L6 23.85L8.25 23.85M3.1,20.85L5.35 20.85L5.35 23.1L3.1 23.1L3.1 20.85M2.15,23.15L-0.1 23.15L-0.1 20.9L2.15 20.9L2.15 23.15M20.05,18L20.05 20.25L17.8 20.25L17.8 18L20.05 18M17.05,17.25L14.8 17.25L14.8 15L17.05 15L17.05 17.25M17.8,17.25L17.8 15L20.05 15L20.05 17.25L17.8 17.25M14.05,23.85L14.05 26.1L11.8 26.1L11.8 23.85L14.05 23.85M15,20.9L17.25 20.9L17.25 23.15L15 23.15L15 20.9M17.8,23.15L17.8 20.9L20.05 20.9L20.05 23.15L17.8 23.15M17.05,23.85L17.05 26.1L14.8 26.1L14.8 23.85L17.05 23.85M11.15,23.85L11.15 26.1L8.9 26.1L8.9 23.85L11.15 23.85M11.15,11.9L11.15 14.15L8.9 14.15L8.9 11.9L11.15 11.9" />
</g>
</svg>
