<?xml version="1.0" encoding="utf-8"?>
<svg version="1.1" id="Layer_1"
xmlns="http://www.w3.org/2000/svg"
xmlns:xlink="http://www.w3.org/1999/xlink"
xmlns:author="http://www.sothink.com"
width="69px" height="24px"
xml:space="preserve">
<g id="777" transform="matrix(1, 0, 0, 1, -48.2, 0)">
<path style="fill:#FFFFFF;fill-opacity:1" d="M113.45,2.45L111.15 2.45L111.15 0.2L113.45 0.2L113.45 2.45M116.45,0.2L116.45 2.45L114.2 2.45L114.2 0.2L116.45 0.2M108.2,0.2L110.45 0.2L110.45 2.45L108.2 2.45L108.2 0.2M107.4,5.45L105.15 5.45L105.15 3.2L107.4 3.2L107.4 5.45M107.4,2.45L105.15 2.45L105.15 0.2L107.4 0.2L107.4 2.45M101.45,2.45L99.15 2.45L99.15 0.2L101.45 0.2L101.45 2.45M104.45,0.2L104.45 2.45L102.2 2.45L102.2 0.2L104.45 0.2M105.15,6.2L107.4 6.2L107.4 8.5L105.15 8.5L105.15 6.2M105.15,9.2L107.4 9.2L107.4 11.45L105.15 11.45L105.15 9.2M107.4,12.2L107.4 14.45L105.15 14.45L105.15 12.2L107.4 12.2M107.4,17.45L105.15 17.45L105.15 15.2L107.4 15.2L107.4 17.45M105.15,21.2L107.4 21.2L107.4 23.45L105.15 23.45L105.15 21.2M107.4,20.45L105.15 20.45L105.15 18.2L107.4 18.2L107.4 20.45M98.45,0.2L98.45 2.45L96.2 2.45L96.2 0.2L98.45 0.2M86.4,5.25L84.15 5.25L84.15 3L86.4 3L86.4 5.25M86.4,2.25L84.15 2.25L84.15 0L86.4 0L86.4 2.25M84.15,9L86.4 9L86.4 11.25L84.15 11.25L84.15 9M86.4,12L86.4 14.25L84.15 14.25L84.15 12L86.4 12M84.15,8.25L84.15 6L86.4 6L86.4 8.25L84.15 8.25M86.4,17.25L84.15 17.25L84.15 14.95L86.4 14.95L86.4 17.25M84.15,21L86.4 21L86.4 23.25L84.15 23.25L84.15 21M87.2,21L89.45 21L89.45 23.25L87.2 23.25L87.2 21M90.15,21L92.45 21L92.45 23.25L90.15 23.25L90.15 21M86.4,18L86.4 20.25L84.15 20.25L84.15 18L86.4 18M93.2,21L95.45 21L95.45 23.25L93.2 23.25L93.2 21M77.3,5.3L75.05 5.3L75.05 3.05L77.3 3.05L77.3 5.3M77.3,2.4L75.05 2.4L75.05 0.15L77.3 0.15L77.3 2.4M75.05,9.15L77.3 9.15L77.3 11.4L75.05 11.4L75.05 9.15M75.05,8.4L75.05 6.15L77.3 6.15L77.3 8.4L75.05 8.4M77.3,12.15L77.3 14.4L75.05 14.4L75.05 12.15L77.3 12.15M66.2,0.2L68.45 0.2L68.45 2.45L66.2 2.45L66.2 0.2M65.45,0.2L65.45 2.45L63.15 2.45L63.15 0.2L65.45 0.2M62.45,2.45L60.2 2.45L60.2 0.2L62.45 0.2L62.45 2.45M77.3,17.4L75.05 17.4L75.05 15.1L77.3 15.1L77.3 17.4M75.05,21.15L77.3 21.15L77.3 23.4L75.05 23.4L75.05 21.15M78.15,21.15L78.15 23.4L78.1 23.4L78.1 21.15L78.15 21.15M75.05,18.15L77.3 18.15L77.3 20.4L75.05 20.4L75.05 18.15M59.4,2.45L57.15 2.45L57.15 0.2L59.4 0.2L59.4 2.45M56.45,2.45L54.2 2.45L54.2 0.2L56.45 0.2L56.45 2.45M57.15,3.2L59.4 3.2L59.4 5.45L57.15 5.45L57.15 3.2M51.15,2.45L51.15 0.2L53.45 0.2L53.45 2.45L51.15 2.45M59.4,8.5L57.15 8.5L57.15 6.2L59.4 6.2L59.4 8.5M59.4,12.2L59.4 14.45L57.15 14.45L57.15 12.2L59.4 12.2M57.15,9.2L59.4 9.2L59.4 11.45L57.15 11.45L57.15 9.2M50.45,0.2L50.45 2.45L48.2 2.45L48.2 0.2L50.45 0.2M57.15,17.45L57.15 15.2L59.4 15.2L59.4 17.45L57.15 17.45M59.4,18.2L59.4 20.45L57.15 20.45L57.15 18.2L59.4 18.2M57.15,21.2L59.4 21.2L59.4 23.45L57.15 23.45L57.15 21.2" />
</g>
</svg>
