<?xml version="1.0" encoding="utf-8"?>
<svg version="1.1" id="Layer_1"
xmlns="http://www.w3.org/2000/svg"
xmlns:xlink="http://www.w3.org/1999/xlink"
xmlns:author="http://www.sothink.com"
width="141px" height="57px"
xml:space="preserve">
<g id="749" transform="matrix(1, 0, 0, 1, 0, 0)">
<path style="fill:#FFFFFF;fill-opacity:1" d="M26,0.05L26 2.35L23.75 2.35L23.75 0.05L26 0.05M20.75,0.05L23 0.05L23 2.35L20.75 2.35L20.75 0.05M20.75,6.05L23 6.05L23 8.3L20.75 8.3L20.75 6.05M20.75,5.3L20.75 3.05L23 3.05L23 5.3L20.75 5.3M23.75,8.3L23.75 6.05L26 6.05L26 8.3L23.75 8.3M23.75,3.05L26 3.05L26 5.3L23.75 5.3L23.75 3.05M35.85,0.1L38.1 0.1L38.1 2.4L35.85 2.4L35.85 0.1M38.1,5.35L35.85 5.35L35.85 3.1L38.1 3.1L38.1 5.35M35.85,8.35L35.85 6.1L38.1 6.1L38.1 8.35L35.85 8.35M47.1,0.1L47.1 2.4L44.85 2.4L44.85 0.1L47.1 0.1M47.85,0.1L50.1 0.1L50.1 2.4L47.85 2.4L47.85 0.1M41.1,0.1L41.1 2.4L38.85 2.4L38.85 0.1L41.1 0.1M38.85,6.1L41.1 6.1L41.1 8.35L38.85 8.35L38.85 6.1M38.85,3.1L41.1 3.1L41.1 5.35L38.85 5.35L38.85 3.1M47.1,5.35L44.85 5.35L44.85 3.1L47.1 3.1L47.1 5.35M47.85,3.1L50.1 3.1L50.1 5.35L47.85 5.35L47.85 3.1M44.85,6.1L47.1 6.1L47.1 8.35L44.85 8.35L44.85 6.1M47.85,6.1L50.1 6.1L50.1 8.35L47.85 8.35L47.85 6.1M56.85,0.1L59.1 0.1L59.1 2.35L56.85 2.35L56.85 0.1M56.1,2.35L53.85 2.35L53.85 0.1L56.1 0.1L56.1 2.35M50.8,0.1L53.1 0.1L53.1 2.35L50.8 2.35L50.8 0.1M53.1,3.1L53.1 5.35L50.8 5.35L50.8 3.1L53.1 3.1M56.1,3.1L56.1 5.35L53.85 5.35L53.85 3.1L56.1 3.1M56.85,3.1L59.1 3.1L59.1 5.35L56.85 5.35L56.85 3.1M59.8,2.35L59.8 0.1L62.1 0.1L62.1 2.35L59.8 2.35M62.1,5.35L59.8 5.35L59.8 3.05L62.05 3.05L62.05 3.1L62.1 3.1L62.1 5.35M62.8,3.05L65.05 3.05L65.05 5.35L62.8 5.35L62.8 3.05M59.8,6.1L62.05 6.1L62.05 8.35L59.8 8.35L59.8 6.1M62.8,6.1L65.05 6.1L65.05 8.35L62.8 8.35L62.8 6.1M77.25,0.1L77.25 2.35L74.95 2.35L74.95 0.1L77.25 0.1M78,0.1L80.25 0.1L80.25 2.35L78 2.35L78 0.1M74.2,2.4L71.95 2.4L71.95 0.1L74.2 0.1L74.2 2.4M68.95,2.4L68.95 0.1L71.2 0.1L71.2 2.4L68.95 2.4M71.95,3.1L74.2 3.1L74.2 5.35L71.95 5.35L71.95 3.1M68.95,3.1L71.2 3.1L71.2 5.35L68.95 5.35L68.95 3.1M71.2,8.35L68.95 8.35L68.95 6.1L71.2 6.1L71.2 8.35M71.95,6.1L74.2 6.1L74.2 8.35L71.95 8.35L71.95 6.1M74.95,5.35L74.95 3.1L77.25 3.1L77.25 5.35L74.95 5.35M78,3.1L80.25 3.1L80.25 5.35L78 5.35L78 3.1M86.35,2.35L84.05 2.35L84.05 0.1L86.35 0.1L86.35 2.35M83.25,2.35L81 2.35L81 0.1L83.25 0.1L83.25 2.35M81,3.1L83.25 3.1L83.25 5.35L81 5.35L81 3.1M84.05,3.05L86.3 3.05L86.3 3.1L86.35 3.1L86.35 5.35L84.05 5.35L84.05 3.05M98.3,0.1L98.3 2.35L96 2.35L96 0.1L98.3 0.1M95.3,2.4L93.05 2.4L93.05 0.1L95.3 0.1L95.3 2.4M92.3,2.4L90.05 2.4L90.05 0.1L92.3 0.1L92.3 2.4M93.05,3.1L95.3 3.1L95.3 5.35L93.05 5.35L93.05 3.1M92.3,5.35L90.05 5.35L90.05 3.1L92.3 3.1L92.3 5.35M90.05,6.1L92.3 6.1L92.3 8.35L90.05 8.35L90.05 6.1M93.05,6.1L95.3 6.1L95.3 8.35L93.05 8.35L93.05 6.1M96,5.35L96 3.1L98.3 3.1L98.3 5.35L96 5.35M107.3,2.35L105 2.35L105 0.1L107.3 0.1L107.3 2.35M104.3,2.35L102.05 2.35L102.05 0.1L104.3 0.1L104.3 2.35M101.3,0.1L101.3 2.35L99.05 2.35L99.05 0.1L101.3 0.1M101.3,3.1L101.3 5.35L99.05 5.35L99.05 3.1L101.3 3.1M102.05,3.1L104.3 3.1L104.3 5.35L102.05 5.35L102.05 3.1M107.25,3.1L107.3 3.1L107.3 5.35L105 5.35L105 3.05L107.25 3.05L107.25 3.1M108,3.05L110.25 3.05L110.25 5.35L108 5.35L108 3.05M105,6.1L107.25 6.1L107.25 8.35L105 8.35L105 6.1M108,6.1L110.25 6.1L110.25 8.35L108 8.35L108 6.1M140.15,56.25L137.9 56.25L137.9 54L140.15 54L140.15 56.25M140.05,35.2L137.8 35.2L137.8 32.95L140.05 32.95L140.05 35.2M122.2,33.05L122.2 35.3L119.95 35.3L119.95 33.05L122.2 33.05M128.15,32.95L128.15 35.2L125.9 35.2L125.9 32.95L128.15 32.95M110.3,14.35L108 14.35L108 12.1L110.3 12.1L110.3 14.35M110.25,11.35L108 11.35L108 9.1L110.25 9.1L110.25 11.35M107.25,11.35L105 11.35L105 9.1L107.25 9.1L107.25 11.35M104.3,14.35L102.05 14.35L102.05 12.1L104.3 12.1L104.3 14.35M105,12.1L107.3 12.1L107.3 14.35L105 14.35L105 12.1M101.3,15.1L101.3 17.35L99.05 17.35L99.05 15.1L101.3 15.1M99.05,12.1L101.3 12.1L101.3 14.35L99.05 14.35L99.05 12.1M101.3,18.1L101.3 20.4L99.05 20.4L99.05 18.1L101.3 18.1M101.3,21.1L101.3 23.35L99.05 23.35L99.05 21.1L101.3 21.1M102.05,15.1L104.3 15.1L104.3 17.35L102.05 17.35L102.05 15.1M104.3,21.1L104.3 23.35L102.05 23.35L102.05 21.1L104.3 21.1M104.3,26.35L102.05 26.35L102.05 24.1L104.3 24.1L104.3 26.35M105.05,24.1L107.3 24.1L107.3 26.35L105.05 26.35L105.05 24.1M107.3,27.1L107.3 29.35L105.05 29.35L105.05 27.1L107.3 27.1M101.45,33.1L101.45 35.35L99.2 35.35L99.2 33.1L101.45 33.1M104.45,33.1L104.45 35.35L102.2 35.35L102.2 33.1L104.45 33.1M108.1,27.1L110.35 27.1L110.35 29.35L108.1 29.35L108.1 27.1M119.2,33.05L119.2 35.3L116.95 35.3L116.95 33.05L119.2 33.05M113.2,33.05L113.2 35.3L110.95 35.3L110.95 33.05L113.2 33.05M116.2,33.05L116.2 35.3L113.9 35.3L113.9 33.05L116.2 33.05M110.15,33.05L110.15 35.3L107.9 35.3L107.9 33.05L110.15 33.05M110.15,38.3L107.9 38.3L107.9 36.05L110.15 36.05L110.15 38.3M110.15,44.3L107.9 44.3L107.9 42.05L110.15 42.05L110.15 44.3M111,44.35L111 42.1L113.25 42.1L113.25 44.35L111 44.35M113.95,42.1L116.25 42.1L116.25 44.35L113.95 44.35L113.95 42.1M119.25,42.1L119.25 44.35L117 44.35L117 42.1L119.25 42.1M110.15,41.35L107.9 41.35L107.9 39.05L110.15 39.05L110.15 41.35M101.45,44.35L99.2 44.35L99.2 42.1L101.45 42.1L101.45 44.35M107.9,48.05L110.15 48.05L110.15 50.3L107.9 50.3L107.9 48.05M101.45,54L101.45 56.25L99.2 56.25L99.2 54L101.45 54M102.2,54L104.45 54L104.45 56.25L102.2 56.25L102.2 54M107.9,54.05L110.15 54.05L110.15 56.3L107.9 56.3L107.9 54.05M107.9,51.05L110.15 51.05L110.15 53.3L107.9 53.3L107.9 51.05M110.15,47.3L107.9 47.3L107.9 45.05L110.15 45.05L110.15 47.3M134.7,38.2L134.7 35.95L136.95 35.95L136.95 38.2L134.7 38.2M134.1,39.05L134.1 41.3L131.85 41.3L131.85 39.05L134.1 39.05M131.15,44.2L128.9 44.2L128.9 41.95L131.15 41.95L131.15 44.2M128.15,38.95L128.15 41.2L125.9 41.2L125.9 38.95L128.15 38.95M125.9,35.95L128.15 35.95L128.15 38.2L125.9 38.2L125.9 35.95M119.9,36.15L122.15 36.15L122.15 38.4L119.9 38.4L119.9 36.15M122.15,39.15L122.15 41.4L119.9 41.4L119.9 39.15L122.15 39.15M122.2,45.05L122.2 47.3L119.95 47.3L119.95 45.05L122.2 45.05M122.2,42.05L122.2 44.3L119.95 44.3L119.95 42.05L122.2 42.05M125.9,44.2L125.9 41.95L128.15 41.95L128.15 44.2L125.9 44.2M128.25,45L128.25 47.25L126 47.25L126 45L128.25 45M128.25,51L128.25 53.25L126 53.25L126 51L128.25 51M126,48L128.25 48L128.25 50.25L126 50.25L126 48M119.9,48.15L122.15 48.15L122.15 50.4L119.9 50.4L119.9 48.15M122.15,51.15L122.15 53.4L119.9 53.4L119.9 51.15L122.15 51.15M122.2,54.05L122.2 56.3L119.95 56.3L119.95 54.05L122.2 54.05M126,56.25L126 54L128.25 54L128.25 56.25L126 56.25M137.05,51L137.05 53.25L134.8 53.25L134.8 51L137.05 51M134.2,50.15L131.95 50.15L131.95 47.9L134.2 47.9L134.2 50.15M129,45L131.25 45L131.25 47.25L129 47.25L129 45M98.3,15.1L98.3 17.35L96 17.35L96 15.1L98.3 15.1M96,14.35L96 12.1L98.3 12.1L98.3 14.35L96 14.35M95.3,11.4L93.05 11.4L93.05 9.1L95.3 9.1L95.3 11.4M95.3,14.35L93.05 14.35L93.05 12.1L95.3 12.1L95.3 14.35M92.3,11.4L90.05 11.4L90.05 9.1L92.3 9.1L92.3 11.4M90.05,12.1L92.3 12.1L92.3 14.35L90.05 14.35L90.05 12.1M92.3,15.1L92.3 17.35L90.05 17.35L90.05 15.1L92.3 15.1M93.05,18.1L95.3 18.1L95.3 20.4L93.05 20.4L93.05 18.1M92.3,21.1L92.3 23.35L90.05 23.35L90.05 21.1L92.3 21.1M92.3,18.1L92.3 20.4L90.05 20.4L90.05 18.1L92.3 18.1M98.35,20.4L96.1 20.4L96.1 18.15L98.35 18.15L98.35 20.4M93.05,15.1L95.3 15.1L95.3 17.35L93.05 17.35L93.05 15.1M95.3,21.1L95.3 23.35L93.05 23.35L93.05 21.1L95.3 21.1M83.35,15.1L83.35 17.35L81.1 17.35L81.1 15.1L83.35 15.1M83.35,12.1L83.35 14.35L81.1 14.35L81.1 12.1L83.35 12.1M80.35,14.35L78.1 14.35L78.1 12.1L80.35 12.1L80.35 14.35M80.35,17.35L78.1 17.35L78.1 15.1L80.35 15.1L80.35 17.35M86.4,26.3L84.1 26.3L84.1 24.05L86.4 24.05L86.4 26.3M86.4,27.05L86.4 29.3L84.1 29.3L84.1 27L86.35 27L86.35 27.05L86.4 27.05M83.3,24.05L83.3 26.3L81.05 26.3L81.05 24.05L83.3 24.05M83.3,27.05L83.3 29.3L81.05 29.3L81.05 27.05L83.3 27.05M80.3,26.3L78.05 26.3L78.05 24.05L80.3 24.05L80.3 26.3M83.3,33L83.3 35.25L81.05 35.25L81.05 33L83.3 33M86.3,33L86.3 35.25L84.05 35.25L84.05 33L86.3 33M80.3,29.3L78.05 29.3L78.05 27.05L80.3 27.05L80.3 29.3M95.3,26.35L93.05 26.35L93.05 24.1L95.3 24.1L95.3 26.35M92.3,27.1L92.3 29.35L90.05 29.35L90.05 27.1L92.3 27.1M92.3,26.35L90.05 26.35L90.05 24.1L92.3 24.1L92.3 26.35M92.4,33.1L92.4 35.35L90.15 35.35L90.15 33.1L92.4 33.1M98.45,33.1L98.45 35.35L96.15 35.35L96.15 33.1L98.45 33.1M93.05,27.1L95.3 27.1L95.3 29.35L93.05 29.35L93.05 27.1M95.45,33.1L95.45 35.35L93.2 35.35L93.2 33.1L95.45 33.1M77.35,15.1L77.35 17.35L75.05 17.35L75.05 15.1L77.35 15.1M75.05,14.35L75.05 12.1L77.35 12.1L77.35 14.35L75.05 14.35M74.2,11.4L71.95 11.4L71.95 9.1L74.2 9.1L74.2 11.4M74.2,14.4L71.95 14.4L71.95 12.1L74.2 12.1L74.2 14.4M68.95,9.1L71.2 9.1L71.2 11.4L68.95 11.4L68.95 9.1M71.2,12.1L71.2 14.4L68.95 14.4L68.95 12.1L71.2 12.1M71.2,15.1L71.2 17.35L68.95 17.35L68.95 15.1L71.2 15.1M68.95,20.35L68.95 18.1L71.2 18.1L71.2 20.35L68.95 20.35M71.2,21.1L71.2 23.4L68.95 23.4L68.95 21.1L71.2 21.1M71.95,18.1L74.2 18.1L74.2 20.35L71.95 20.35L71.95 18.1M71.95,15.1L74.2 15.1L74.2 17.35L71.95 17.35L71.95 15.1M74.2,21.1L74.2 23.4L71.95 23.4L71.95 21.1L74.2 21.1M65.05,11.35L62.8 11.35L62.8 9.1L65.05 9.1L65.05 11.35M62.05,11.35L59.8 11.35L59.8 9.1L62.05 9.1L62.05 11.35M59.8,12.1L62.1 12.1L62.1 14.35L59.8 14.35L59.8 12.1M59.1,14.35L56.85 14.35L56.85 12.1L59.1 12.1L59.1 14.35M62.1,15.1L62.1 17.35L59.8 17.35L59.8 15.05L62.05 15.05L62.05 15.1L62.1 15.1M59.1,17.35L56.85 17.35L56.85 15.1L59.1 15.1L59.1 17.35M62.35,33.1L62.35 35.35L60.05 35.35L60.05 33.1L62.35 33.1M68.35,33.1L68.35 35.35L66.1 35.35L66.1 33.1L68.35 33.1M65.35,33.1L65.35 35.35L63.1 35.35L63.1 33.1L65.35 33.1M77.3,27.05L77.3 29.3L75 29.3L75 27.05L77.3 27.05M74.25,26.35L72 26.35L72 24.1L74.25 24.1L74.25 26.35M75,24.05L77.3 24.05L77.3 26.3L75 26.3L75 24.05M71.25,26.35L69 26.35L69 24.1L71.25 24.1L71.25 26.35M71.25,27.1L71.25 29.35L69 29.35L69 27.1L71.25 27.1M77.3,33L77.3 35.25L75.05 35.25L75.05 33L77.3 33M72,27.1L74.25 27.1L74.25 29.35L72 29.35L72 27.1M74.25,33L74.25 35.25L72 35.25L72 33L74.25 33M74.25,38.25L72 38.25L72 36L74.25 36L74.25 38.25M72,42L74.25 42L74.25 44.25L72 44.25L72 42M77.25,45L77.25 47.25L75 47.25L75 45L77.25 45M78,42L80.3 42L80.3 44.25L78 44.25L78 42M75.05,44.25L75.05 42L77.3 42L77.3 44.25L75.05 44.25M72,39L74.25 39L74.25 41.3L72 41.3L72 39M74.25,45L74.25 47.25L72 47.25L72 45L74.25 45M63.1,42.1L65.35 42.1L65.35 44.35L63.1 44.35L63.1 42.1M59.35,44.35L57.1 44.35L57.1 42.1L59.35 42.1L59.35 44.35M60.05,42.1L62.35 42.1L62.35 44.35L60.05 44.35L60.05 42.1M77.95,47.9L80.2 47.9L80.2 50.15L77.95 50.15L77.95 47.9M74.25,50.25L72 50.25L72 48L74.25 48L74.25 50.25M72,54L74.25 54L74.25 56.25L72 56.25L72 54M72,51L74.25 51L74.25 53.25L72 53.25L72 51M92.4,39.1L92.4 41.4L90.15 41.4L90.15 39.1L92.4 39.1M90.15,38.35L90.15 36.1L92.4 36.1L92.4 38.35L90.15 38.35M92.4,45.1L92.4 47.35L90.15 47.35L90.15 45.1L92.4 45.1M90.15,44.35L90.15 42.1L92.4 42.1L92.4 44.35L90.15 44.35M93.2,42.1L95.45 42.1L95.45 44.35L93.2 44.35L93.2 42.1M96.15,44.35L96.15 42.1L98.45 42.1L98.45 44.35L96.15 44.35M84,38.35L84 36.1L86.25 36.1L86.25 38.35L84 38.35M86.25,39.1L86.25 41.35L84 41.35L84 39.1L86.25 39.1M83.3,44.25L81.05 44.25L81.05 42L83.3 42L83.3 44.25M86.3,42L86.3 44.25L84.05 44.25L84.05 42L86.3 42M83.05,51L83.05 53.25L80.8 53.25L80.8 51L83.05 51M86.15,56.25L83.9 56.25L83.9 54L86.15 54L86.15 56.25M92.4,51.1L92.4 53.35L90.15 53.35L90.15 51.1L92.4 51.1M92.4,50.35L90.15 50.35L90.15 48.1L92.4 48.1L92.4 50.35M90.15,56.35L90.15 54.1L92.4 54.1L92.4 56.35L90.15 56.35M93.2,54L95.45 54L95.45 56.25L93.2 56.25L93.2 54M96.15,56.25L96.15 54L98.45 54L98.45 56.25L96.15 56.25M59.35,35.35L57.1 35.35L57.1 33.1L59.35 33.1L59.35 35.35M78,33L80.3 33L80.3 35.25L78 35.25L78 33M56.1,15.1L56.1 17.35L53.85 17.35L53.85 15.1L56.1 15.1M56.1,14.35L53.85 14.35L53.85 12.1L56.1 12.1L56.1 14.35M53.1,12.1L53.1 14.35L50.8 14.35L50.8 12.1L53.1 12.1M50.1,11.4L47.85 11.4L47.85 9.1L50.1 9.1L50.1 11.4M53.1,15.1L53.1 17.35L50.8 17.35L50.8 15.1L53.1 15.1M50.1,14.35L47.85 14.35L47.85 12.1L50.1 12.1L50.1 14.35M50.1,20.4L47.85 20.4L47.85 18.1L50.1 18.1L50.1 20.4M50.1,17.35L47.85 17.35L47.85 15.1L50.1 15.1L50.1 17.35M47.1,11.4L44.85 11.4L44.85 9.1L47.1 9.1L47.1 11.4M44.85,12.1L47.1 12.1L47.1 14.35L44.85 14.35L44.85 12.1M47.1,15.1L47.1 17.35L44.85 17.35L44.85 15.1L47.1 15.1M41.1,11.4L38.85 11.4L38.85 9.1L41.1 9.1L41.1 11.4M38.85,12.1L41.1 12.1L41.1 14.35L38.85 14.35L38.85 12.1M41.1,15.1L41.1 17.35L38.85 17.35L38.85 15.1L41.1 15.1M38.85,20.4L38.85 18.1L41.1 18.1L41.1 20.4L38.85 20.4M41.1,21.1L41.1 23.35L38.85 23.35L38.85 21.1L41.1 21.1M47.1,18.1L47.1 20.4L44.85 20.4L44.85 18.1L47.1 18.1M47.1,21.1L47.1 23.35L44.85 23.35L44.85 21.1L47.1 21.1M47.1,27.1L47.1 29.35L44.85 29.35L44.85 27.1L47.1 27.1M47.1,26.35L44.85 26.35L44.85 24.1L47.1 24.1L47.1 26.35M47.85,24.1L50.1 24.1L50.1 26.35L47.85 26.35L47.85 24.1M41.1,24.1L41.1 26.35L38.85 26.35L38.85 24.1L41.1 24.1M47.85,27.1L50.1 27.1L50.1 29.35L47.85 29.35L47.85 27.1M56.3,33.1L56.3 35.35L54.05 35.35L54.05 33.1L56.3 33.1M47.85,21.1L50.1 21.1L50.1 23.35L47.85 23.35L47.85 21.1M35.85,9.1L38.1 9.1L38.1 11.4L35.85 11.4L35.85 9.1M38.1,12.1L38.1 14.35L35.85 14.35L35.85 12.1L38.1 12.1M38.1,15.1L38.1 17.35L35.85 17.35L35.85 15.1L38.1 15.1M38.1,18.1L38.1 20.4L35.85 20.4L35.85 18.1L38.1 18.1M38.1,21.1L38.1 23.35L35.85 23.35L35.85 21.1L38.1 21.1M26,11.35L23.75 11.35L23.75 9.05L26 9.05L26 11.35M23.75,12.05L26 12.05L26 14.3L23.75 14.3L23.75 12.05M26,15.05L26 17.3L23.75 17.3L23.75 15.05L26 15.05M20.75,11.35L20.75 9.05L23 9.05L23 11.35L20.75 11.35M20.75,14.3L20.75 12.05L23 12.05L23 14.3L20.75 14.3M23,15.05L23 17.3L20.75 17.3L20.75 15.05L23 15.05M23,20.35L20.75 20.35L20.75 18.05L23 18.05L23 20.35M23,21.05L23 23.3L20.75 23.3L20.75 21.05L23 21.05M23.75,20.35L23.75 18.05L26 18.05L26 20.35L23.75 20.35M26,21.05L26 23.3L23.75 23.3L23.75 21.05L26 21.05M26.85,23.95L29.1 23.95L29.1 26.2L26.85 26.2L26.85 23.95M26,24.05L26 26.3L23.75 26.3L23.75 24.05L26 24.05M20.75,24.05L23 24.05L23 26.3L20.75 26.3L20.75 24.05M26.85,26.95L29.1 26.95L29.1 29.2L26.85 29.2L26.85 26.95M38.1,26.35L35.85 26.35L35.85 24.1L38.1 24.1L38.1 26.35M35.1,26.2L32.8 26.2L32.8 23.95L35.1 23.95L35.1 26.2M29.85,23.95L32.1 23.95L32.1 26.2L29.85 26.2L29.85 23.95M32.1,26.95L32.1 29.2L29.85 29.2L29.85 26.95L32.1 26.95M32.8,26.95L35.1 26.95L35.1 29.2L32.8 29.2L32.8 26.95M56.3,39.1L56.3 41.4L54.05 41.4L54.05 39.1L56.3 39.1M54.05,38.35L54.05 36.1L56.3 36.1L56.3 38.35L54.05 38.35M56.3,42.1L56.3 44.35L54.05 44.35L54.05 42.1L56.3 42.1M56.3,45.1L56.3 47.35L54.05 47.35L54.05 45.1L56.3 45.1M56.3,51.1L56.3 53.35L54.05 53.35L54.05 51.1L56.3 51.1M56.3,50.35L54.05 50.35L54.05 48.1L56.3 48.1L56.3 50.35M56.3,56.35L54.05 56.35L54.05 54.1L56.3 54.1L56.3 56.35M5.25,0L5.25 2.25L3 2.25L3 0L5.25 0M6,0L8.25 0L8.25 2.25L6 2.25L6 0M0,6.05L2.25 6.05L2.25 8.3L0 8.3L0 6.05M2.25,5.3L0 5.3L0 3.05L2.25 3.05L2.25 5.3M6,3L8.25 3L8.25 5.25L6 5.25L6 3M3,3.05L5.25 3.05L5.25 5.3L3 5.3L3 3.05M5.25,8.3L3 8.3L3 6.05L5.25 6.05L5.25 8.3M14.25,2.25L12 2.25L12 0L14.25 0L14.25 2.25M9,0L11.25 0L11.25 2.25L9 2.25L9 0M11.25,5.25L9 5.25L9 3L11.25 3L11.25 5.25M12,3L14.25 3L14.25 5.25L12 5.25L12 3M17.25,5.25L15 5.25L15 3L17.25 3L17.25 5.25M17.25,15L17.25 17.3L15 17.3L15 15L17.25 15M14.25,14.3L12 14.3L12 12.05L14.25 12.05L14.25 14.3M8.25,14.3L6 14.3L6 12.05L8.25 12.05L8.25 14.3M9,12.05L11.25 12.05L11.25 14.3L9 14.3L9 12.05M11.25,15.05L11.25 17.3L9 17.3L9 15.05L11.25 15.05M12,18L14.25 18L14.25 20.25L12 20.25L12 18M15,18L17.25 18L17.25 20.25L15 20.25L15 18M17.25,21L17.25 23.25L15 23.25L15 21L17.25 21M14.25,21L14.25 23.25L12 23.25L12 21L14.25 21M12,17.3L12 15L14.25 15L14.25 17.3L12 17.3M8.25,17.3L6 17.3L6 15.05L8.25 15.05L8.25 17.3M3,9.05L5.25 9.05L5.25 11.3L3 11.3L3 9.05M5.25,12L5.25 14.25L3 14.25L3 12L5.25 12M5.25,15.05L5.25 17.3L3 17.3L3 15.05L5.25 15.05M2.25,11.3L0 11.3L0 9.05L2.25 9.05L2.25 11.3M0,14.25L0 12L2.25 12L2.25 14.25L0 14.25M5.25,24.05L5.25 26.3L3 26.3L3 24.05L5.25 24.05M5.25,27.05L5.25 29.3L3 29.3L3 27.05L5.25 27.05M6,24.05L8.25 24.05L8.25 26.3L6 26.3L6 24.05M2.25,26.3L0 26.3L0 24.05L2.25 24.05L2.25 26.3M6,27.05L8.25 27.05L8.25 29.3L6 29.3L6 27.05M14.25,26.25L12 26.25L12 24L14.25 24L14.25 26.25M15,26.25L15 24L17.25 24L17.25 26.25L15 26.25M11.25,26.3L9 26.3L9 24.05L11.25 24.05L11.25 26.3M11.25,27.05L11.25 29.3L9 29.3L9 27.05L11.25 27.05M12,27.05L14.25 27.05L14.25 29.3L12 29.3L12 27.05" />
</g>
</svg>
