<?xml version="1.0" encoding="utf-8"?>
<svg version="1.1" id="Layer_1"
xmlns="http://www.w3.org/2000/svg"
xmlns:xlink="http://www.w3.org/1999/xlink"
xmlns:author="http://www.sothink.com"
width="42px" height="42px"
xml:space="preserve">
<g id="963" transform="matrix(1, 0, 0, 1, 1.6, 1.55)">
<path style="fill:#FFFF00;fill-opacity:1" d="M5.2,34.3L4.4 34.1L4.05 33.85L5.2 34.3M3.7,4.5L3.85 4.25L3.7 4.55L3.7 4.5" />
<path style="fill:#FF9900;fill-opacity:1" d="M30.75,7.3Q25.85 2.65 19.05 2.65Q12.15 2.65 7.25 7.4L7.1 7.5Q2.55 12.25 2.55 19Q2.55 25.8 7.25 30.6L7.3 30.65Q12.15 35.4 19.05 35.4Q25.85 35.4 30.8 30.65L30.8 30.6Q35.6 25.8 35.6 19Q35.6 12.2 30.8 7.35L30.75 7.3M5.2,34.3L4.45 33.6L4.45 33.55Q-1.6 27.5 -1.6 18.95Q-1.6 10.6 4.25 4.55L4.45 4.35Q10.55 -1.55 19 -1.55Q26.95 -1.55 32.7 3.55L33.7 3.8L33.95 4L32.75 3.6L33.55 4.3L33.65 4.45Q39.7 10.45 39.7 18.95Q39.7 27.5 33.6 33.55Q27.55 39.5 19 39.5Q11.1 39.5 5.25 34.3L5.2 34.3" />
</g>
</svg>
