<?xml version="1.0" encoding="utf-8"?>
<svg version="1.1" id="Layer_1"
xmlns="http://www.w3.org/2000/svg"
xmlns:xlink="http://www.w3.org/1999/xlink"
xmlns:author="http://www.sothink.com"
width="69px" height="20px"
xml:space="preserve">
<g id="957" transform="matrix(1, 0, 0, 1, 34.45, 9.95)">
<path style="fill:#E7F2F6;fill-opacity:1" d="M31.55,-7Q32.9 -5.65 33.65 -3.85Q34.5 -2 34.5 0.05Q34.5 2.05 33.65 3.9Q32.9 5.7 31.55 7.1Q30.05 8.45 28.3 9.25L24.3 9.95L-24.25 9.95Q-26.3 9.95 -28.2 9.25Q-30 8.45 -31.45 7.1Q-32.85 5.7 -33.6 3.9Q-34.45 2.05 -34.45 0.05Q-34.45 -2 -33.6 -3.85Q-32.85 -5.65 -31.45 -7Q-30 -8.4 -28.2 -9.15Q-26.3 -9.95 -24.25 -9.95L24.3 -9.95Q26.35 -9.95 28.3 -9.15Q30.05 -8.4 31.55 -7" />
</g>
</svg>
