<?xml version="1.0" encoding="utf-8"?>
<svg version="1.1" id="Layer_1"
xmlns="http://www.w3.org/2000/svg"
xmlns:xlink="http://www.w3.org/1999/xlink"
xmlns:author="http://www.sothink.com"
width="656px" height="504px"
xml:space="preserve">
<g id="856" transform="matrix(1, 0, 0, 1, -2.7, 0.75)">
<path style="fill:#FFFFFF;fill-opacity:1" d="M652.05,497L652.05 3.35L652.05 3.3L653.55 1.5L653.55 498.5L370.15 498.5L371.75 497L652.05 497M368.4,497L368.4 3.35L368.4 3.3L369.85 1.5L6.95 1.5L6.85 1.4L6.85 498.45L6.9 498.5L5.3 500.45L5.45 500.45Q3.55 502.4 3.4 501L2.7 500.45L2.7 497L5.35 497L5.05 1.3L4.7 1.35L4.7 0L655.2 0L653.55 1.5L369.95 1.5L369.9 1.45L369.9 498.7L369.75 498.5L7.05 498.55L8.7 497L368.4 497M657.2,502.9L655.75 500.65L658.2 497L657.2 502.9M6.85,498.7L6.95 498.6L6.85 498.7M6.8,498.8L6.8 498.85L6.8 498.8" />
<path style="fill:#000000;fill-opacity:1" d="M371.75,3.35L371.75 497L370.15 498.5L653.55 498.5L653.55 1.5L652.05 3.3L652.05 3.35L371.75 3.35M5.45,500.45L5.3 500.45L6.9 498.5L6.85 498.45L6.85 1.4L6.95 1.5L369.85 1.5L368.4 3.3L368.4 3.35L8.7 3.35L8.7 497L7.05 498.55L369.75 498.5L369.9 498.7L369.9 1.45L369.95 1.5L653.55 1.5L655.2 0L655.75 -0.75L655.6 500.4L655.65 500.45L655.6 500.45L655.6 500.85L655.25 500.45L5.45 500.45M6.95,498.6L6.85 498.7L6.95 498.6M6.8,498.85L6.75 499L6.8 498.8L6.8 498.85" />
</g>
</svg>
