<?xml version="1.0" encoding="utf-8"?>
<svg version="1.1" id="Layer_1"
xmlns="http://www.w3.org/2000/svg"
xmlns:xlink="http://www.w3.org/1999/xlink"
xmlns:author="http://www.sothink.com"
width="128px" height="147px"
xml:space="preserve">
<g id="688" transform="matrix(1, 0, 0, 1, 0, 4.4)">
<radialGradient
id="RadialGradID_528" gradientUnits="userSpaceOnUse" gradientTransform="matrix(0.280991, -0.00144958, 0.00144958, 0.280991, 80, 31.95)" spreadMethod ="pad" cx="0" cy="0" r="819.2" fx="0" fy="0" >
<stop  offset="0.164706"  style="stop-color:#FFFF00;stop-opacity:1" />
<stop  offset="0.364706"  style="stop-color:#00FF00;stop-opacity:1" />
<stop  offset="0.498039"  style="stop-color:#00FFFF;stop-opacity:1" />
<stop  offset="0.831373"  style="stop-color:#FF00FF;stop-opacity:1" />
<stop  offset="1"  style="stop-color:#FF0000;stop-opacity:1" />
</radialGradient>
<path style="fill:url(#RadialGradID_528) " d="M70.65,-3.5Q73.2 -4.35 77.7 -4.4L84.2 -4.25Q86.15 -4.1 86.9 -3.5Q92.45 -3.15 96.35 -0.7Q102.35 3.05 103.95 3.4Q112.75 8.55 112.75 14.05L112.15 17.4L112.55 19.8L114.2 22.95L117.25 26.5Q120.4 29.85 120.5 36.25L120.1 45.5L120.6 47.85Q121.4 51.4 124.85 57.2L125.2 57.8Q126.85 63.7 126.85 76.3L126.35 89.5Q125.85 102.6 125.85 109.3L126.95 116Q128 122.05 127.8 126.15Q127.15 139.55 104.95 141.75Q82.75 143.9 52.9 129Q23.05 114.05 11.55 106Q0 97.95 0 95.55Q0 95.15 1.25 94.05Q0.8 93.55 0.65 92.5L0.65 90.3Q0.65 85.85 2.3 82.8Q4.4 78.7 9.6 76.15Q14.15 73.95 18.45 70.7L27.25 63.75Q31.55 60.5 34.3 56.8Q37 53.15 37.85 49.65Q39 44.95 42.15 41.85Q44.75 39.35 44.75 35.85Q44.75 33.65 43.45 31.1Q42.15 28.5 42.15 26.5Q42.15 24.55 44 22.4Q45.2 19.85 47.75 16.4Q49.1 14.6 50.6 12.9Q50.65 11 55.4 6.35Q59.25 2.6 61.6 1L65.6 -2Q67.45 -3 70.65 -3.5" />
</g>
</svg>
