<?xml version="1.0" encoding="utf-8"?>
<svg version="1.1" id="Layer_1"
xmlns="http://www.w3.org/2000/svg"
xmlns:xlink="http://www.w3.org/1999/xlink"
xmlns:author="http://www.sothink.com"
width="99px" height="27px"
xml:space="preserve">
<g id="757" transform="matrix(1, 0, 0, 1, -3, -6.05)">
<path style="fill:#FFFFFF;fill-opacity:1" d="M95.7,6.2L97.95 6.2L97.95 8.45L95.7 8.45L95.7 6.2M92.7,8.45L92.7 6.2L95 6.2L95 8.45L92.7 8.45M91.95,8.45L89.7 8.45L89.7 6.2L91.95 6.2L91.95 8.45M101,9.2L101 11.45L98.75 11.45L98.75 9.2L101 9.2M98.75,6.2L101 6.2L101 8.45L98.75 8.45L98.75 6.2M101,12.2L101 14.5L98.75 14.5L98.75 12.2L101 12.2M83.1,11.3L80.85 11.3L80.85 9.05L83.1 9.05L83.1 11.3M89,8.45L86.7 8.45L86.7 6.2L89 6.2L89 8.45M86.75,11.45L86.75 9.2L89 9.2L89 11.45L86.75 11.45M89,12.2L89 14.45L86.75 14.45L86.75 12.2L89 12.2M83.1,8.3L80.85 8.3L80.85 6.05L83.1 6.05L83.1 8.3M86.75,17.45L86.75 15.2L89 15.2L89 17.45L86.75 17.45M89,18.2L89 20.45L86.75 20.45L86.75 18.2L89 18.2M83.1,17.3L80.85 17.3L80.85 15.05L83.1 15.05L83.1 17.3M83.1,23.3L80.85 23.3L80.85 21.05L83.1 21.05L83.1 23.3M89,23.45L86.75 23.45L86.75 21.15L89 21.15L89 23.45M89,24.2L89 26.45L86.75 26.45L86.75 24.2L89 24.2M83.1,20.3L80.85 20.3L80.85 18.05L83.1 18.05L83.1 20.3M101,18.2L101 20.45L98.75 20.45L98.75 18.2L101 18.2M98.75,15.2L101 15.2L101 17.45L98.75 17.45L98.75 15.2M101,24.2L101 26.45L98.75 26.45L98.75 24.2L101 24.2M101,23.45L98.75 23.45L98.75 21.2L101 21.2L101 23.45M83.1,14.35L80.85 14.35L80.85 12.05L83.1 12.05L83.1 14.35M101.05,29.45L98.75 29.45L98.75 27.2L101.05 27.2L101.05 29.45M98.05,29.45L95.8 29.45L95.8 27.2L98.05 27.2L98.05 29.45M92.05,29.45L89.8 29.45L89.8 27.2L92.05 27.2L92.05 29.45M95.05,27.2L95.05 29.45L92.75 29.45L92.75 27.2L95.05 27.2M83.15,29.3L80.85 29.3L80.85 27.05L83.15 27.05L83.15 29.3M89,29.45L86.75 29.45L86.75 27.2L89 27.2L89 29.45M83.1,26.3L80.85 26.3L80.85 24.05L83.1 24.05L83.1 26.3M80.05,6.05L80.05 8.3L77.8 8.3L77.8 6.05L80.05 6.05M74.05,6.05L74.05 8.3L71.8 8.3L71.8 6.05L74.05 6.05M71.1,11.3L68.85 11.3L68.85 9.05L71.1 9.05L71.1 11.3M77.1,8.3L74.8 8.3L74.8 6.05L77.1 6.05L77.1 8.3M71.1,8.3L68.8 8.3L68.8 6.05L71.1 6.05L71.1 8.3M65,6.05L65 8.3L62.75 8.3L62.75 6.05L65 6.05M62.75,11.3L62.75 9.05L65 9.05L65 11.3L62.75 11.3M65,12.05L65 14.35L62.75 14.35L62.75 12.05L65 12.05M61.95,8.3L59.7 8.3L59.7 6.05L61.95 6.05L61.95 8.3M68.85,15.05L71.1 15.05L71.1 17.3L68.85 17.3L68.85 15.05M62.75,15.05L65 15.05L65 17.3L62.75 17.3L62.75 15.05M65,18.05L65 20.3L62.75 20.3L62.75 18.05L65 18.05M62.75,21.05L65 21.05L65 23.3L62.75 23.3L62.75 21.05M65,24.05L65 26.3L62.75 26.3L62.75 24.05L65 24.05M68.85,21L71.1 21L71.1 23.3L68.85 23.3L68.85 21M68.85,18.05L71.1 18.05L71.1 20.3L68.85 20.3L68.85 18.05M71.1,12.05L71.1 14.3L68.85 14.3L68.85 12.05L71.1 12.05M71.1,24.05L71.1 26.3L68.85 26.3L68.85 24.05L71.1 24.05M59,6.05L59 8.3L56.7 8.3L56.7 6.05L59 6.05M53,6.05L53 8.3L50.7 8.3L50.7 6.05L53 6.05M53,12.05L53 14.3L50.75 14.3L50.75 12.05L53 12.05M53,9.05L53 11.3L50.75 11.3L50.75 9.05L53 9.05M55.95,6.05L55.95 8.3L53.7 8.3L53.7 6.05L55.95 6.05M44,8.45L41.75 8.45L41.75 6.2L44 6.2L44 8.45M41.05,8.45L38.75 8.45L38.75 6.2L41.05 6.2L41.05 8.45M44.8,6.2L47.05 6.2L47.05 8.45L44.8 8.45L44.8 6.2M44.8,9.2L47.05 9.2L47.05 11.45L44.8 11.45L44.8 9.2M47.05,12.2L47.05 14.5L44.8 14.5L44.8 12.2L47.05 12.2M47.05,17.45L44.8 17.45L44.8 15.2L47.05 15.2L47.05 17.45M44.8,21.2L47.05 21.2L47.05 23.45L44.8 23.45L44.8 21.2M44.8,20.45L44.8 18.2L47.05 18.2L47.05 20.45L44.8 20.45M47.05,24.2L47.05 26.45L44.8 26.45L44.8 24.2L47.05 24.2M53,18.05L53 20.3L50.75 20.3L50.75 18.05L53 18.05M50.75,17.3L50.75 15.05L53 15.05L53 17.3L50.75 17.3M50.75,21L53 21L53 23.3L50.75 23.3L50.75 21M53,24.05L53 26.3L50.75 26.3L50.75 24.05L53 24.05M59.8,27.05L62.05 27.05L62.05 29.3L59.8 29.3L59.8 27.05M56.75,27.05L59.05 27.05L59.05 29.3L56.75 29.3L56.75 27.05M56.05,29.3L53.8 29.3L53.8 27.05L56.05 27.05L56.05 29.3M53,27.05L53 29.3L50.75 29.3L50.75 27.05L53 27.05M47.1,29.45L44.8 29.45L44.8 27.2L47.1 27.2L47.1 29.45M44.1,29.45L41.85 29.45L41.85 27.2L44.1 27.2L44.1 29.45M41.1,29.45L38.8 29.45L38.8 27.2L41.1 27.2L41.1 29.45M80.15,29.3L77.9 29.3L77.9 27.05L80.15 27.05L80.15 29.3M77.15,29.3L74.85 29.3L74.85 27.05L77.15 27.05L77.15 29.3M71.1,29.3L68.85 29.3L68.85 27.05L71.1 27.05L71.1 29.3M74.15,29.3L71.9 29.3L71.9 27.05L74.15 27.05L74.15 29.3M62.75,29.3L62.75 27.05L65.05 27.05L65.05 29.3L62.75 29.3M35.05,8.45L32.75 8.45L32.75 6.2L35.05 6.2L35.05 8.45M35.05,11.45L32.8 11.45L32.8 9.2L35.05 9.2L35.05 11.45M35.05,12.2L35.05 14.45L32.8 14.45L32.8 12.2L35.05 12.2M38,8.45L35.75 8.45L35.75 6.2L38 6.2L38 8.45M29.3,6.1L29.3 8.35L27.05 8.35L27.05 6.1L29.3 6.1M23.3,6.1L23.3 8.35L21 8.35L21 6.1L23.3 6.1M29.3,9.1L29.3 11.35L27.05 11.35L27.05 9.1L29.3 9.1M29.3,12.1L29.3 14.4L27.05 14.4L27.05 12.1L29.3 12.1M26.25,6.1L26.25 8.35L24 8.35L24 6.1L26.25 6.1M20.25,8.35L18 8.35L18 6.1L20.25 6.1L20.25 8.35M29.3,18.1L29.3 20.35L27.05 20.35L27.05 18.1L29.3 18.1M27.05,15.1L29.3 15.1L29.3 17.35L27.05 17.35L27.05 15.1M29.3,23.35L27.05 23.35L27.05 21.1L29.3 21.1L29.3 23.35M29.3,24.1L29.3 26.35L27.05 26.35L27.05 24.1L29.3 24.1M35.05,15.2L35.05 17.45L32.8 17.45L32.8 15.2L35.05 15.2M35.05,18.2L35.05 20.45L32.8 20.45L32.8 18.2L35.05 18.2M35.05,23.45L32.8 23.45L32.8 21.15L35.05 21.15L35.05 23.45M35.05,24.2L35.05 26.45L32.8 26.45L32.8 24.2L35.05 24.2M11.1,11.35L8.85 11.35L8.85 9.1L11.1 9.1L11.1 11.35M15.05,9.1L17.3 9.1L17.3 11.35L15.05 11.35L15.05 9.1M17.3,6.1L17.3 8.35L15 8.35L15 6.1L17.3 6.1M17.3,12.1L17.3 14.35L15.05 14.35L15.05 12.1L17.3 12.1M11.1,8.35L8.8 8.35L8.8 6.1L11.1 6.1L11.1 8.35M5.3,12.15L5.3 14.4L3 14.4L3 12.15L5.3 12.15M5.55,9.1L7.85 9.1L7.85 11.35L5.55 11.35L5.55 9.1M8.85,18.1L11.1 18.1L11.1 20.35L8.85 20.35L8.85 18.1M8.85,15.1L11.1 15.1L11.1 17.35L8.85 17.35L8.85 15.1M8.85,21.05L11.1 21.05L11.1 23.35L8.85 23.35L8.85 21.05M17.3,17.35L15.05 17.35L15.05 15.1L17.3 15.1L17.3 17.35M15.05,21.05L17.3 21.05L17.3 23.35L15.05 23.35L15.05 21.05M15.05,18.1L17.3 18.1L17.3 20.35L15.05 20.35L15.05 18.1M17.3,24.1L17.3 26.35L15.05 26.35L15.05 24.1L17.3 24.1M11.1,24.1L11.1 26.35L8.85 26.35L8.85 24.1L11.1 24.1M11.1,12.1L11.1 14.35L8.85 14.35L8.85 12.1L11.1 12.1M11.1,29.35L8.85 29.35L8.85 27.1L11.1 27.1L11.1 29.35M15.05,27.1L17.3 27.1L17.3 29.35L15.05 29.35L15.05 27.1M18.1,27.1L20.35 27.1L20.35 29.35L18.1 29.35L18.1 27.1M35.85,27.2L38.1 27.2L38.1 29.45L35.85 29.45L35.85 27.2M35.05,27.2L35.05 29.45L32.8 29.45L32.8 27.2L35.05 27.2M27.05,27.1L29.35 27.1L29.35 29.35L27.05 29.35L27.05 27.1M26.35,29.35L24.1 29.35L24.1 27.1L26.35 27.1L26.35 29.35M21.05,29.35L21.05 27.1L23.35 27.1L23.35 29.35L21.05 29.35" />
<path style="fill:#CCCCCC;fill-opacity:1" d="M47.85,32.15L47.85 30.1L50.15 30.1L50.15 32.15L50.15 32.35L47.85 32.35L47.85 32.15M50.1,29.35L47.85 29.35L47.85 27.1L50.1 27.1L50.1 29.35" />
</g>
</svg>
