<?xml version="1.0" encoding="utf-8"?>
<svg version="1.1" id="Layer_1"
xmlns="http://www.w3.org/2000/svg"
xmlns:xlink="http://www.w3.org/1999/xlink"
xmlns:author="http://www.sothink.com"
width="18px" height="18px"
xml:space="preserve">
<g id="881" transform="matrix(1, 0, 0, 1, 0.25, 0.25)">
<radialGradient
id="RadialGradID_732" gradientUnits="userSpaceOnUse" gradientTransform="matrix(0.0137024, 0, 0, 0.0137024, 8.3, 8.3)" spreadMethod ="pad" cx="0" cy="0" r="819.2" fx="0" fy="0" >
<stop  offset="0"  style="stop-color:#FF0000;stop-opacity:1" />
<stop  offset="1"  style="stop-color:#FF00FF;stop-opacity:1" />
</radialGradient>
<path style="fill:url(#RadialGradID_732) " d="M16.3,8.3Q16.3 11.65 14 14Q11.6 16.35 8.25 16.35Q5 16.35 2.6 14Q0.25 11.65 0.25 8.3Q0.25 4.95 2.6 2.6Q5 0.25 8.25 0.25Q11.6 0.25 14 2.6Q16.3 4.95 16.3 8.3" />
<path style="fill:#996699;fill-opacity:1" d="M16.8,8.3Q16.8 11.85 14.35 14.35Q11.8 16.85 8.25 16.85Q4.8 16.85 2.25 14.35Q-0.25 11.85 -0.25 8.3Q-0.25 4.75 2.25 2.25Q4.8 -0.25 8.25 -0.25Q11.8 -0.25 14.35 2.25Q16.8 4.75 16.8 8.3M14,2.6Q11.6 0.25 8.25 0.25Q5 0.25 2.6 2.6Q0.25 4.95 0.25 8.3Q0.25 11.65 2.6 14Q5 16.35 8.25 16.35Q11.6 16.35 14 14Q16.3 11.65 16.3 8.3Q16.3 4.95 14 2.6" />
<path style="fill:#CC0000;fill-opacity:1" d="M9.35,3.2L13 12.2L11 12.2L10.2 10.15L6.6 10.15L5.85 12.2L3.9 12.2L7.4 3.2L9.35 3.2M7.15,8.6L9.6 8.6L8.35 5.3L7.15 8.6" />
</g>
</svg>
