<?xml version="1.0" encoding="utf-8"?>
<svg version="1.1" id="Layer_1"
xmlns="http://www.w3.org/2000/svg"
xmlns:xlink="http://www.w3.org/1999/xlink"
xmlns:author="http://www.sothink.com"
width="147px" height="45px"
xml:space="preserve">
<g id="654" transform="matrix(1, 0, 0, 1, 0.45, 0.5)">
<path style="fill:#82A0AB;fill-opacity:1" d="M58.05,2.25L109.05 2.25L146.05 0L146.05 18L109.05 15.75L62.8 16.5L73.05 31.75L74.05 33.75Q74.4 34.7 74 37.55Q73.55 40.4 72.2 42.1Q70.8 43.8 67.3 44L5.8 44Q2.6 43.65 1.35 41.75Q0.05 39.8 0.05 36.55Q0 33.25 1.7 31.65Q3.35 30.05 6.25 29.7L56.3 30.5L49.8 18Q48.1 8.9 51 5.85Q53.85 2.75 58.05 2.25" />
<path style="fill:none;stroke-width:1;stroke-linecap:round;stroke-linejoin:round;stroke-miterlimit:3;stroke:#FF9900;stroke-opacity:1" d="M58.05,2.25L109.05 2.25L146.05 0L146.05 18L109.05 15.75L62.8 16.5L73.05 31.75L74.05 33.75Q74.4 34.7 74 37.55Q73.55 40.4 72.2 42.1Q70.8 43.8 67.3 44L5.8 44Q2.6 43.65 1.35 41.75Q0.05 39.8 0.05 36.55Q0 33.25 1.7 31.65Q3.35 30.05 6.25 29.7L56.3 30.5L49.8 18Q48.1 8.9 51 5.85Q53.85 2.75 58.05 2.25z" />
</g>
</svg>
