<?xml version="1.0" encoding="utf-8"?>
<svg version="1.1" id="Layer_1"
xmlns="http://www.w3.org/2000/svg"
xmlns:xlink="http://www.w3.org/1999/xlink"
xmlns:author="http://www.sothink.com"
width="26px" height="20px"
xml:space="preserve">
<g id="947" transform="matrix(1, 0, 0, 1, -0.8, 0.5)">
<path style="fill:#0066CC;fill-opacity:1" d="M5.6,10.3Q6.15 6.6 7.95 4.2Q9.8 1.85 12.65 0.6Q15.55 -0.7 20.3 0.9Q25.1 2.45 26.15 10.2Q25.5 6.45 21.65 4.4Q17.75 2.25 15.2 3.8Q12.6 5.35 11.75 7.7Q10.95 10 11.1 10.65L15.7 8.65L7.75 18.75L1.3 8.3L5.6 10.3" />
<path style="fill:none;stroke-width:1;stroke-linecap:round;stroke-linejoin:round;stroke-miterlimit:3;stroke:#000000;stroke-opacity:1" d="M5.6,10.3Q6.15 6.6 7.95 4.2Q9.8 1.85 12.65 0.6Q15.55 -0.7 20.3 0.9Q25.1 2.45 26.15 10.2Q25.5 6.45 21.65 4.4Q17.75 2.25 15.2 3.8Q12.6 5.35 11.75 7.7Q10.95 10 11.1 10.65" />
<path style="fill:none;stroke-width:1;stroke-linecap:round;stroke-linejoin:round;stroke-miterlimit:3;stroke:#000000;stroke-opacity:1" d="M11.1,10.65L15.7 8.65L7.75 18.75L1.3 8.3L5.6 10.3" />
</g>
</svg>
