<?xml version="1.0" encoding="utf-8"?>
<svg version="1.1" id="Layer_1"
xmlns="http://www.w3.org/2000/svg"
xmlns:xlink="http://www.w3.org/1999/xlink"
xmlns:author="http://www.sothink.com"
width="50px" height="32px"
xml:space="preserve">
<g id="922" transform="matrix(1, 0, 0, 1, 24.95, 15.65)">
<path style="fill:#97E8F0;fill-opacity:1" d="M22.75,11.45L20.75 10L-11.2 -10.9Q-12.85 -11.95 -14.45 -12.65L-15.6 -13Q-19.25 -13.6 -21.55 -11.6Q-23.7 -9.75 -24.25 -7.4L-24.25 -7.35L-24.4 -6.6L-24.45 -7.4Q-24.6 -11 -21.55 -13.6Q-19.25 -15.6 -15.6 -15L-14.45 -14.65Q-12.85 -13.95 -11.2 -12.9L20.75 8L22.75 9.45L24.05 10.8L24.45 11.5L24.5 12.6L24.4 13.35L24.05 12.8L24 12.7L22.75 11.45" />
<path style="fill:#02BDEC;fill-opacity:1" d="M24,12.7L23.5 13.1L22.3 13.45L21 13.45L19.25 13.1L-18.15 -2.55L-20.7 -3.8L-22.55 -5Q-23.5 -5.7 -24.25 -7.35L-24.25 -7.4Q-23.7 -9.75 -21.55 -11.6Q-19.25 -13.6 -15.6 -13L-14.45 -12.65Q-12.85 -11.95 -11.2 -10.9L20.75 10L22.75 11.45L24 12.7" />
<path style="fill:#006699;fill-opacity:1" d="M-24.25,-7.35Q-23.5 -5.7 -22.55 -5L-20.7 -3.8L-18.15 -2.55L19.25 13.1L21 13.45L22.3 13.45L23.5 13.1L24 12.7L24.05 12.8L24.4 13.35L23.9 14.3Q23.25 15.1 22.3 15.15L20.55 15.05L18.9 14.55L-18.6 -1.1Q-20.5 -1.8 -21.8 -2.6L-22.7 -3.2Q-24.1 -4.6 -24.4 -6.55L-24.4 -6.6L-24.25 -7.35" />
<path style="fill:none;stroke-width:1;stroke-linecap:round;stroke-linejoin:round;stroke-miterlimit:3;stroke:#333333;stroke-opacity:1" d="M24.4,13.35L23.9 14.3Q23.25 15.1 22.3 15.15L20.55 15.05L18.9 14.55L-18.6 -1.1Q-20.5 -1.8 -21.8 -2.6L-22.7 -3.2Q-24.1 -4.6 -24.4 -6.55L-24.4 -6.6L-24.45 -7.4Q-24.6 -11 -21.55 -13.6Q-19.25 -15.6 -15.6 -15L-14.45 -14.65Q-12.85 -13.95 -11.2 -12.9L20.75 8L22.75 9.45L24.05 10.8L24.45 11.5L24.5 12.6L24.4 13.35z" />
</g>
</svg>
