<?xml version="1.0" encoding="utf-8"?>
<svg version="1.1" id="Layer_1"
xmlns="http://www.w3.org/2000/svg"
xmlns:xlink="http://www.w3.org/1999/xlink"
xmlns:author="http://www.sothink.com"
width="18px" height="18px"
xml:space="preserve">
<g id="879" transform="matrix(1, 0, 0, 1, 0.25, 0.25)">
<radialGradient
id="RadialGradID_730" gradientUnits="userSpaceOnUse" gradientTransform="matrix(0.0137024, 0, 0, 0.0137024, 8.3, 8.3)" spreadMethod ="pad" cx="0" cy="0" r="819.2" fx="0" fy="0" >
<stop  offset="0"  style="stop-color:#FF0000;stop-opacity:1" />
<stop  offset="1"  style="stop-color:#FF00FF;stop-opacity:1" />
</radialGradient>
<path style="fill:url(#RadialGradID_730) " d="M16.3,8.3Q16.3 11.65 14 14Q11.6 16.35 8.25 16.35Q5 16.35 2.6 14Q0.25 11.65 0.25 8.3Q0.25 4.95 2.6 2.6Q5 0.25 8.25 0.25Q11.6 0.25 14 2.6Q16.3 4.95 16.3 8.3" />
<path style="fill:#996699;fill-opacity:1" d="M16.8,8.3Q16.8 11.85 14.35 14.35Q11.8 16.85 8.25 16.85Q4.8 16.85 2.25 14.35Q-0.25 11.85 -0.25 8.3Q-0.25 4.75 2.25 2.25Q4.8 -0.25 8.25 -0.25Q11.8 -0.25 14.35 2.25Q16.8 4.75 16.8 8.3M14,2.6Q11.6 0.25 8.25 0.25Q5 0.25 2.6 2.6Q0.25 4.95 0.25 8.3Q0.25 11.65 2.6 14Q5 16.35 8.25 16.35Q11.6 16.35 14 14Q16.3 11.65 16.3 8.3Q16.3 4.95 14 2.6" />
<path style="fill:#CC0000;fill-opacity:1" d="M12.15,11.3L13.3 13.15L11 13.15L9.6 11.05L8.6 9.65L8 9.25L7 9.15L6.65 9.15L6.65 13.15L4.7 13.15L4.7 3.6L8.75 3.6L11 3.8Q11.7 4.1 12.1 4.75Q12.5 5.4 12.5 6.25Q12.5 7.35 11.9 8.05Q11.25 8.7 10 8.9Q10.6 9.25 11 9.7L12.15 11.3M10.3,5.6Q10.05 5.3 9.55 5.2L8.15 5.2L6.65 5.2L6.65 7.6L8.05 7.6L9.8 7.5L10.35 7.1L10.55 6.4L10.3 5.6" />
</g>
</svg>
