<?xml version="1.0" encoding="utf-8"?>
<svg version="1.1" id="Layer_1"
xmlns="http://www.w3.org/2000/svg"
xmlns:xlink="http://www.w3.org/1999/xlink"
xmlns:author="http://www.sothink.com"
width="18px" height="18px"
xml:space="preserve">
<g id="885" transform="matrix(1, 0, 0, 1, 0.25, 0.25)">
<radialGradient
id="RadialGradID_736" gradientUnits="userSpaceOnUse" gradientTransform="matrix(0.0137024, 0, 0, 0.0137024, 8.3, 8.3)" spreadMethod ="pad" cx="0" cy="0" r="819.2" fx="0" fy="0" >
<stop  offset="0"  style="stop-color:#FFCC00;stop-opacity:1" />
<stop  offset="1"  style="stop-color:#CC9900;stop-opacity:1" />
</radialGradient>
<path style="fill:url(#RadialGradID_736) " d="M16.3,8.3Q16.3 11.65 14 14Q11.6 16.35 8.25 16.35Q5 16.35 2.6 14Q0.25 11.65 0.25 8.3Q0.25 4.95 2.6 2.6Q5 0.25 8.25 0.25Q11.6 0.25 14 2.6Q16.3 4.95 16.3 8.3" />
<path style="fill:#996699;fill-opacity:1" d="M16.8,8.3Q16.8 11.85 14.35 14.35Q11.8 16.85 8.25 16.85Q4.8 16.85 2.25 14.35Q-0.25 11.85 -0.25 8.3Q-0.25 4.75 2.25 2.25Q4.8 -0.25 8.25 -0.25Q11.8 -0.25 14.35 2.25Q16.8 4.75 16.8 8.3M14,2.6Q11.6 0.25 8.25 0.25Q5 0.25 2.6 2.6Q0.25 4.95 0.25 8.3Q0.25 11.65 2.6 14Q5 16.35 8.25 16.35Q11.6 16.35 14 14Q16.3 11.65 16.3 8.3Q16.3 4.95 14 2.6" />
<path style="fill:#CC9900;fill-opacity:1" d="M12.6,6.95L12.3 8.35L11.5 9.3L10.5 9.75L8.55 9.9L7.35 9.9L7.35 13.4L5.45 13.4L5.45 4.05L8.45 4.05L10.7 4.2Q11.5 4.4 12.05 5.15Q12.6 5.8 12.6 6.95M10.35,6.1Q10.05 5.8 9.6 5.7L8.25 5.6L7.35 5.6L7.35 8.3L8.35 8.3L9.85 8.15L10.45 7.7L10.65 6.95Q10.65 6.45 10.35 6.1" />
</g>
</svg>
