<?xml version="1.0" encoding="utf-8"?>
<svg version="1.1" id="Layer_1"
xmlns="http://www.w3.org/2000/svg"
xmlns:xlink="http://www.w3.org/1999/xlink"
xmlns:author="http://www.sothink.com"
width="18px" height="18px"
xml:space="preserve">
<g id="882" transform="matrix(1, 0, 0, 1, 0.25, 0.25)">
<radialGradient
id="RadialGradID_733" gradientUnits="userSpaceOnUse" gradientTransform="matrix(0.0137024, 0, 0, 0.0137024, 8.3, 8.3)" spreadMethod ="pad" cx="0" cy="0" r="819.2" fx="0" fy="0" >
<stop  offset="0"  style="stop-color:#FF0000;stop-opacity:1" />
<stop  offset="1"  style="stop-color:#FF00FF;stop-opacity:1" />
</radialGradient>
<path style="fill:url(#RadialGradID_733) " d="M8.25,16.6Q4.9 16.6 2.4 14.15Q0 11.75 0 8.3Q0 4.85 2.4 2.4Q4.9 0 8.25 0Q11.7 0 14.15 2.4Q16.55 4.85 16.55 8.3Q16.55 11.75 14.15 14.15Q11.7 16.6 8.25 16.6" />
<path style="fill:none;stroke-width:0.5;stroke-linecap:round;stroke-linejoin:round;stroke-miterlimit:3;stroke:#996699;stroke-opacity:1" d="M8.25,16.6Q4.9 16.6 2.4 14.15Q0 11.75 0 8.3Q0 4.85 2.4 2.4Q4.9 0 8.25 0Q11.7 0 14.15 2.4Q16.55 4.85 16.55 8.3Q16.55 11.75 14.15 14.15Q11.7 16.6 8.25 16.6z" />
<path style="fill:#CC0000;fill-opacity:1" d="M12.8,3.95L9.4 7.45L12.95 12.95L10.6 12.95L8.15 8.7L6.65 10.2L6.65 12.95L4.85 12.95L4.85 3.95L6.65 3.95L6.65 7.95L10.35 3.95L12.8 3.95" />
</g>
</svg>
