<?xml version="1.0" encoding="utf-8"?>
<svg version="1.1" id="Layer_1"
xmlns="http://www.w3.org/2000/svg"
xmlns:xlink="http://www.w3.org/1999/xlink"
xmlns:author="http://www.sothink.com"
width="306px" height="245px"
xml:space="preserve">
<g id="953" transform="matrix(1, 0, 0, 1, 13.55, 34.45)">
<linearGradient
id="LinearGradID_772" gradientUnits="userSpaceOnUse" gradientTransform="matrix(0.186127, 0, 0, 0.148926, 139.4, 88)" spreadMethod ="pad" x1="-819.2" y1="0" x2="819.2" y2="0" >
<stop  offset="0" style="stop-color:#FFFFFF;stop-opacity:1" />
<stop  offset="0.533333" style="stop-color:#009966;stop-opacity:1" />
<stop  offset="1" style="stop-color:#FFFFFF;stop-opacity:1" />
</linearGradient>
<path style="fill:url(#LinearGradID_772) " d="M291.9,-18.25L291.9 194.3Q291.9 210 277.9 210.05L0.95 210.05Q-13.05 210 -13.05 194.3L-13.05 -18.25Q-13.05 -34 0.95 -33.95L277.9 -33.95Q291.9 -34 291.9 -18.25" />
<path style="fill:none;stroke-width:1;stroke-linecap:round;stroke-linejoin:round;stroke-miterlimit:3;stroke:#000000;stroke-opacity:1" d="M277.9,-33.95L0.95 -33.95Q-13.05 -34 -13.05 -18.25L-13.05 194.3Q-13.05 210 0.95 210.05L277.9 210.05Q291.9 210 291.9 194.3L291.9 -18.25Q291.9 -34 277.9 -33.95z" />
</g>
</svg>
