<?xml version="1.0" encoding="utf-8"?>
<svg version="1.1" id="Layer_1"
xmlns="http://www.w3.org/2000/svg"
xmlns:xlink="http://www.w3.org/1999/xlink"
xmlns:author="http://www.sothink.com"
width="20px" height="27px"
xml:space="preserve">
<g id="782" transform="matrix(1, 0, 0, 1, 0, 0.2)">
<path style="fill:#FF00FF;fill-opacity:1" d="M2.25,-0.2L2.25 2.05L0 2.05L0 -0.2L2.25 -0.2M14.1,-0.1L14.1 2.15L11.85 2.15L11.85 0L11.9 0L11.9 -0.1L14.1 -0.1M11.9,3L11.9 2.9L14.1 2.9L14.1 5.15L11.85 5.15L11.85 3L11.9 3M14.1,5.9L14.1 8.15L11.85 8.15L11.85 5.9L14.1 5.9M14.1,11.8L14.1 14.05L11.85 14.05L11.85 11.8L14.1 11.8M14.1,8.9L14.1 11.15L11.85 11.15L11.85 8.9L14.1 8.9M20,11.8L20 14.05L17.75 14.05L17.75 11.8L20 11.8M17,11.8L17 14.05L14.75 14.05L14.75 11.8L17 11.8M2.25,5.15L0 5.15L0 2.9L2.25 2.9L2.25 5.15M2.25,5.9L2.25 8.15L0 8.15L0 5.9L2.25 5.9M0,11.15L0 8.9L2.25 8.9L2.25 11.15L0 11.15M2.3,11.8L2.3 14.05L0.05 14.05L0.05 11.8L2.3 11.8M8.2,11.8L8.2 14.05L5.95 14.05L5.95 11.8L8.2 11.8M5.2,11.8L5.2 14.05L2.95 14.05L2.95 11.8L5.2 11.8M14.1,17.9L14.1 20.15L11.85 20.15L11.85 17.9L14.1 17.9M11.85,14.9L14.1 14.9L14.1 17.15L11.85 17.15L11.85 14.9M14.1,23.85L14.1 26.1L11.85 26.1L11.85 23.85L14.1 23.85M11.85,23.15L11.85 20.9L14.1 20.9L14.1 23.15L11.85 23.15M11.1,14.05L8.85 14.05L8.85 11.8L11.1 11.8L11.1 14.05" />
</g>
</svg>
