<?xml version="1.0" encoding="utf-8"?>
<svg version="1.1" id="Layer_1"
xmlns="http://www.w3.org/2000/svg"
xmlns:xlink="http://www.w3.org/1999/xlink"
xmlns:author="http://www.sothink.com"
width="102px" height="42px"
xml:space="preserve">
<g id="821" transform="matrix(1, 0, 0, 1, 0, 0)">
<path style="fill:#FFFF00;fill-opacity:1" d="M95.95,6.5Q95.25 7 95.25 9.65L95.5 13.4Q95.6 15.8 95.2 20.8Q95.2 21.55 95.35 21.8Q95.6 22.3 96.4 22.3Q98.1 22.3 98.5 19.5Q98.95 16.65 100.1 16.65Q101.15 16.65 101.35 21.55Q101.35 22.65 99.85 23.75Q98 25.05 95.35 25.05Q92.65 25.05 91.85 21.95L91.6 18.8Q91.6 17.7 92 15.9L92.35 13.15Q92.35 11.95 90.5 5.7Q90.5 5.1 93.55 4.8Q96.6 4.55 96.6 5.7L95.95 6.5M84,6.55Q84.7 10.95 85.2 12.55L86.1 17.4L86.6 20.95L86 21.8L85.2 22.05Q83.3 22.05 82.8 16.4L82.7 15.45L80.6 15.3L80.5 16.05Q79.65 21.3 78.1 21.3Q77.35 21.3 77.1 20.25L77 19.35L77.75 15.3L78.6 10.3Q78.7 5.95 78.85 5.45Q79.7 2.65 83.4 2.45L84 6.55M82.45,13L81.7 7.65Q81.35 9.25 80.9 13.05L82.1 13L82.45 13M84,31.2Q84.9 28.3 86.2 29.05Q87.5 29.8 88.05 34.3L88.15 34.95L88.95 31.8Q90 27.95 90.85 27.95Q91.8 27.95 91.85 29Q89.4 40.7 88.2 40.55Q86.95 40.4 86.15 37.25Q85.35 34.05 85.1 34.05Q85.1 35.1 84.05 37.4Q82.95 39.9 82.1 39.9Q81.05 39.9 80.2 34.55L79.6 29.35Q79.6 27.35 80.45 26.9Q81.3 26.5 81.6 29.8Q82.6 32.8 82.6 35.55L84 31.2M87.65,36.85L87.35 36.35L87.35 36.4L87.65 36.85M72.75,11.55L72.25 15.95Q71.5 20.05 69.85 20.05L69.05 19.9L68.85 19.95Q67.3 19.95 66.45 13.75Q66.05 10.7 65.95 7.55L65.7 4.65Q65.6 2.85 64.85 2.6Q64.1 2.35 64.1 2.1Q64.1 1.1 66.35 0.75Q68.6 0.45 68.6 2.2L68.35 3.1L68.1 3.95Q68.1 5.55 69.8 13.45L70.5 10.65L72.35 3.55Q71.35 3.35 71.35 2.6Q71.35 1.8 73.35 1.35Q75.35 0.95 75.35 2.2Q75.35 2.9 72.75 11.55M61.05,2.1Q60.35 2.85 60.35 5.8L60.45 10.55L60.7 16.1Q60.5 19.65 58.2 19.65Q57.25 19.65 57 19.1L56.95 18.5Q57.75 14.9 57.75 14.1L57.25 8.9Q56.7 4.7 56.7 3Q56.7 -0.2 59.25 0Q61.75 0.25 61.75 1.3L61.05 2.1M51.35,2.4L50.85 2.7L51.25 8.15L51.75 11.7Q51.3 19.7 49.95 19.7Q48.3 19.7 46.9 14.65Q45.1 8.05 44.6 7.2L44.3 12.45Q43.95 15.85 43.95 17.6Q43.95 18 44.3 18.1L44.85 18.15L45.1 18.55Q44.8 18.95 43.65 19.15L42.45 19.3L41.5 19.3Q41.35 19.35 41.35 18.75L41.45 18.4Q41.7 18.05 42.7 17.95Q41.6 4.3 41.6 2Q41.6 1.4 42.05 1.05L42.95 0.8Q43.6 0.8 45.95 4.85L49.1 10.8L49.1 10.45L48.8 6.7Q48.45 3.85 48.45 2.9Q48.45 1.1 50.15 0.9Q51.85 0.65 51.85 1.7L51.35 2.4M56.2,27.2L56.35 27.15Q56.3 28.05 56.75 29.05L56.6 29.55L56.6 29.6L57.3 30.25Q60.2 33 60.2 34.55Q60.2 35.3 59.35 36.2Q58.25 37.4 56.7 37.4Q55.1 37.4 54.1 35.6L53.45 33.8Q53.45 32.9 53.95 32.65L54.65 33.4L55.3 34.4Q56.6 36.4 57.1 36.4L58.1 35.85L58.35 35.05Q58.35 33.95 57.75 33.05Q56.8 32.65 55.35 30.35L54.4 28.7L54.3 27.75L53.9 27.3Q54.15 24.5 57.45 24.45Q61 24.45 61 27.2Q61 28.3 60.45 28.5L60.35 28.85L60.1 28.9L59.55 28.8L59.25 28.55L59.2 28.15L59.05 27.6Q58.55 26.7 57.2 26.7Q56.6 26.7 56.2 27.2M51.75,27L50.1 29.65L49.9 29.95L50.65 31.4Q52.75 35.95 52.75 37.2L52.45 37.95L51.85 38.2Q51.05 38.2 49.7 34.15L48.9 31.35L48.1 32.2L48.1 34.45L48.1 36.25Q47.95 37.4 47.1 37.4Q46.25 37.4 46.1 35.95L46.1 34.45Q45.85 32.7 45.85 30.7Q45.85 26.75 47.1 25.45Q47.8 26.25 48 29.2L49.3 27.05L49.75 26.4L49.75 26.35Q49.75 25.3 51 24.8Q52.2 24.25 52.2 25.55L51.6 26.85L51.75 27M43.35,36.85L43.1 37.65Q42.8 38.05 42.35 38.05Q41.55 38.05 40.5 33L39.45 33.05L38.5 32.95L38.1 34.45L38.1 34.6L37.55 36.55L37.1 37.9L36.6 37.75L36.35 37.8L35.45 37.65Q35.35 37.7 35.35 37.1L36.15 35.35L36.25 35.2Q36.35 33.3 36.85 31.05Q37.7 26.9 39.35 26.3Q39.4 22.2 41.35 28.55Q43.35 35.15 43.35 36.85M71.6,33.75Q71.6 24.7 75.05 25.9Q75.45 25.3 76.85 27.15Q78.85 29.75 78.85 32.1L78.8 32.85L78.6 33.15Q78.4 38.7 74.45 38.7Q72.5 38.7 71.85 36.25L71.6 33.75M75.8,36.9Q76.7 36.9 77.1 33.55Q77.1 29.95 75.35 28.7Q73.6 27.5 73.6 33.6Q73.6 36.9 75.8 36.9M67.75,26.55Q68.6 24.6 69.05 25.1Q69.35 25.45 69.35 26.65Q69.05 38.45 67.6 38.45Q66.9 38.45 66.7 37.7L66.6 36.85L67.05 32.15L65.95 32.2L64.45 32.15L64.6 35.15Q64.9 38.3 63.6 38.3Q62.95 38.3 62.35 32.75L61.85 27.25Q61.85 24.7 62.85 25.6Q63.85 26.45 64.25 28.95L64.35 30.3Q65.4 30.3 67.1 30.85L67.1 29.9Q67.1 28.25 67.75 26.55M37.35,4.8L36.1 10.15Q36.1 10.55 36.85 11.8Q37.6 13 37.6 14.45L37.7 18.4L38.6 18.8Q38.6 19.5 37.3 19.7L36.6 19.9L36.25 19.8L35.85 19.8Q34.6 19.8 34.8 19L35.2 18.05L34.5 14L33.1 11.15Q31.2 10.95 30.95 13.5Q30.7 16.05 30.8 17.1L30.75 17.6L30.7 17.8L31.3 18.6L31.85 19.45Q31.85 20.5 30.4 20.75Q30.2 21.2 29.45 21.2Q28.9 21.2 28.6 20.7L28.35 20.4L28.35 19.9L28.35 19.8L28.25 18.35Q28.25 16 28.9 13.8L28.7 12.05Q28.1 7.6 28.1 2.45Q28.1 0.2 29.35 1.25L29.75 1.7Q30.75 0.8 32.6 0.95Q34.4 1.1 35.85 2.25Q37.35 3.45 37.35 4.8M33.7,3.15Q32.45 2.95 31.35 6.55L31.35 9.3Q33.5 8.6 34.25 7.75Q34.85 7.05 34.85 5.85Q34.85 3.3 33.7 3.15M21.25,4.55L22.7 9.7Q24.7 18.4 24.7 20.5L24.35 21.3Q24 21.65 23.45 21.65Q21.75 21.65 21.75 20.7L22.1 19.55L21.7 18.05Q21.25 16.6 21.25 15.7L21.25 15.65L20.45 15.55L17.35 15.8L16.75 18.15Q16.45 19.3 16.45 20.2L17.2 21.45Q17.2 22.55 15.7 22.55L14.85 22.45L14.35 22.55L13.9 22.4Q13.75 22.3 13.75 21.85L13.85 21.3L14.25 21.3L16.2 13.85L17.9 7.9L17.6 5.2Q17.6 3.7 19.4 3.2Q19.85 2.15 20.5 3.05Q21.5 3.05 21.5 4.05L21.25 4.55M20.45,10.1Q20.15 8.15 19.6 7.6L19.4 7.95L17.85 13.2L17.85 13.3L21 13.05L20.45 10.1M10.35,11.3Q9.6 11.3 9.65 9.25Q9.75 7.2 8.35 7.2Q7.15 7.2 6.3 9.2L5.75 11.3L6.25 15.05L6 16.8L5.7 19.45L5.5 20.65L5.7 21.35Q6.4 22.55 7.95 22.55L8.3 22.55L8.25 22.2Q8.25 21.85 8.8 20.5L9.5 19.15Q9.5 18.1 10.35 18.35L10.5 18.4Q11 18.2 11.2 18.75Q11.95 18.9 11.85 19.85Q11.85 20.95 10.85 22.25Q9.95 23.4 8.65 23.85L6.95 24.3Q4.85 24.3 3.5 22.8L3.45 22.7L2.75 21.5L2.6 21.2L2.6 21L2.6 17.05Q0 17.3 0 15.75L1.3 14.85Q2.6 13.95 2.6 12.2Q2.6 9.8 3.75 8.45L4.1 8.1Q4.35 7.35 5.3 6.3Q6.55 4.9 7.8 5.15Q9.1 4.6 10.05 5.15Q11.7 6.1 11.7 8.75L10.7 11.2L10.35 11.3M16.35,30.25Q15.4 30.65 12.6 30.3L12.65 33.1L13.5 33Q15.5 32.9 15.5 34.05Q15.5 34.95 14.35 34.95L12.7 34.9L12.95 40.8Q12.95 41.9 11.95 41.9Q10.95 41.9 10.95 41L11 30.15Q11 27.9 13.95 28Q16.85 28.1 16.85 29.55L16.35 30.25M18.45,37.65L18.6 31.2Q18.7 26.65 21.25 26.1Q23.8 25.55 24.8 26.8Q25.75 28.05 25.75 30.8Q25.75 31.85 24.25 32.75L23.8 33.05Q24.45 33.6 24.9 34.75Q25.5 36.25 25.5 37.2Q25.5 39.55 24.35 39.55Q23.25 39.55 22.4 33.95L20.7 35.05L20.8 37.55Q20.7 39.55 19.6 39.55Q18.65 39.55 18.45 37.65M32.5,28.1L32.35 27.15L29.75 27.55L29.65 31.3L30.35 31.05Q32.2 30.5 32.2 31.8Q32.2 32.3 29.6 33.35L29.6 33.7L29.6 36.9L32.45 36.55Q33.5 36.55 34.1 36.9L34.2 36.85L34.25 37.3Q34.25 37.85 32.6 38.25L29.85 38.55Q28.4 38.55 28 34.4L27.95 30.2Q27.95 25.4 31.2 25.05Q32.4 24.9 33.45 25.55Q34.45 26.15 34.45 26.95L34.45 27.9Q34.35 28.65 33.6 28.65Q32.7 28.65 32.5 28.1M40.25,31.55L39.65 28.35L38.85 31.6L39.15 31.55L40.25 31.55M21.6,28Q20 28.8 20.95 31.25L21 32.45Q21.8 32.4 22.8 31.65Q23.7 31 23.45 29.1Q23.15 27.15 21.6 28" />
</g>
</svg>
