<?xml version="1.0" encoding="utf-8"?>
<svg version="1.1" id="Layer_1"
xmlns="http://www.w3.org/2000/svg"
xmlns:xlink="http://www.w3.org/1999/xlink"
xmlns:author="http://www.sothink.com"
width="76px" height="206px"
xml:space="preserve">
<g id="708" transform="matrix(1, 0, 0, 1, 0.5, 0.1)">
<path style="fill:#6699FF;fill-opacity:1" d="M2.5,203.3Q9.55 198.2 19.75 183.85Q29.95 169.5 31.05 149Q32.15 128.5 32.5 111.9L32.95 80L33.15 38.75Q33.25 12.7 20.8 0.4L20.8 0L53.4 0L53.4 0.4Q40.95 11.8 40.7 37.1Q40.45 62.35 40.9 78.8L41.7 111.9Q42.05 128.5 43.15 149Q44.25 169.5 54.45 183.85Q64.65 198.2 71.7 203.3L71.7 205.2L2.5 205.2L2.5 203.3" />
<path style="fill:none;stroke-width:1;stroke-linecap:round;stroke-linejoin:round;stroke-miterlimit:3;stroke:#6699FF;stroke-opacity:1" d="M53.4,0.4Q40.95 11.8 40.7 37.1Q40.45 62.35 40.9 78.8L41.7 111.9Q42.05 128.5 43.15 149Q44.25 169.5 54.45 183.85Q64.65 198.2 71.7 203.3L74.2 205.2M2.5,203.3Q9.55 198.2 19.75 183.85Q29.95 169.5 31.05 149Q32.15 128.5 32.5 111.9L32.95 80L33.15 38.75Q33.25 12.7 20.8 0.4M2.5,203.3L2 203.65L0 205.2" />
</g>
</svg>
