<?xml version="1.0" encoding="utf-8"?>
<svg version="1.1" id="Layer_1"
xmlns="http://www.w3.org/2000/svg"
xmlns:xlink="http://www.w3.org/1999/xlink"
xmlns:author="http://www.sothink.com"
width="327px" height="475px"
xml:space="preserve">
<g id="853" transform="matrix(1, 0, 0, 1, 6, 0)">
<path style="fill:#000000;fill-opacity:1" d="M292.75,0.6Q301.6 2.1 306.45 5.65L293 4.4Q285.65 4.05 275.95 4.15L52.8 4.15L42.65 5.25Q-4.3 18.55 3 69.4Q3.4 73.75 4.75 78L5.4 79.9L48.45 180.75Q65.25 218.1 44.65 238.75Q40.75 241.2 35.9 236.25Q57.65 215.95 42.15 178.45L-0.6 79.15Q-20 20.45 30.6 1.15L33.75 0.35L38.25 0L38.4 0L283.75 0L292.75 0.6M308.25,37.65L306.6 34.25Q305.85 32.6 305 31.5Q301.35 27.85 297.05 24.95L295.7 23.9Q301.55 25 305.95 29.2L308.6 31.5Q311.65 34.85 312.4 36.35Q317.95 43.95 319.35 51.75Q320.9 60.65 320.6 72.85L320.6 470.2L313.25 470.05L313.15 87.1L313 61.35Q312.9 52.25 312.65 50.15Q312.25 47.35 311.7 45.85Q309.55 39.85 308.25 37.65M278.85,27.45L288.1 31.45L267.8 29.35Q258.3 28.45 250.55 30.5Q242.75 32.5 241.8 33.3L238.45 35.4Q236.05 36.7 231.5 41Q226.9 45.3 225.35 50.3Q223.8 55.25 223.45 57.25L222.3 64.05L221.75 67.1Q220.4 74.95 218.45 76.55Q216.45 78.1 213.8 77.8Q211.15 77.5 207.35 75.6Q203.55 73.65 203.55 72.5L203.75 71.55L209.5 71.55Q213.45 70.7 213.35 66.8L213.75 64.05Q214.2 60.8 214.55 59.55L218 47.5Q219.65 41.45 225.25 35.5Q229.65 30.85 236.6 27.4Q240 25.7 241.95 25.6Q256.3 23.2 264.55 23.9Q272.15 24.55 278.85 27.45M182.8,34.8L181.3 33.25Q180.55 32.75 182.1 33.45L183.95 34.45L190.35 38.6L191.15 40.45L191.15 73.4Q190.45 77.65 189.7 78.3Q187.7 79.85 185.05 79.55Q182.4 79.25 178.6 77.35Q174.8 75.4 174.8 74.25L175 73.3L180.75 73.3Q182.35 72.95 183.3 72.1Q183.7 57.3 183.7 36.75Q183.55 35.9 182.8 34.8M162.25,73.4Q161.55 77.65 160.8 78.3Q158.8 79.85 156.15 79.55Q153.5 79.25 149.7 77.35Q145.9 75.4 145.9 74.25L146.1 73.3L151.85 73.3Q153.45 72.95 154.4 72.1Q154.8 57.3 154.8 36.75Q154.65 35.9 153.9 34.8L152.4 33.25Q151.65 32.75 153.2 33.45L155.05 34.45L161.45 38.6L162.25 40.45L162.25 73.4M131.45,38.6L132.25 40.45L132.25 73.4Q131.55 77.65 130.8 78.3Q128.8 79.85 126.15 79.55Q123.5 79.25 119.7 77.35Q115.9 75.4 115.9 74.25L116.1 73.3L121.85 73.3Q123.45 72.95 124.4 72.1Q124.8 57.3 124.8 36.75Q124.65 35.9 123.9 34.8L122.4 33.25Q121.65 32.75 123.2 33.45L125.05 34.45L131.45 38.6M101.5,25.9L101.95 27.2L102.15 28.3L102.2 30.45L101.75 68.15Q101.9 69.6 100.4 70.5L86.35 77L86.45 77L45.95 95.3Q42.2 96.85 38.1 95L34.3 93.35Q35.8 93.95 80.5 74.15L80.5 74.1L94.75 67.7L94.75 18L101.5 25.9M21.95,269.95L20.9 271.4L20.65 271.65L2.15 291L2.15 400.65L100.4 474.95L96.6 474.95L2.15 403.45L2.15 403.65L-4.1 398.8L-3.7 398.9L-5.85 397.15L-5.85 287.5L16.65 264.65Q-9.4 224.05 1.15 142.15Q2.35 205.1 12.25 233.45Q22.1 261.75 22.2 265.55Q22.3 269.35 21.95 269.95M60.8,344.45L102.2 396.35Q108.75 404 100.95 405.55L93.95 401.8Q102.3 399.85 97.7 392.85L97.15 392.1L58.05 342.95L60.8 344.45M36.8,353.25L36.8 385.85Q80.15 414.05 95.15 424.55L95.2 424.6L100.8 428.65Q102.25 430.65 100.8 433.05L93.7 441.5L87 437.5L86.75 436.75Q96.05 428.1 93.6 425.15L30.05 383.1L30.05 349.9Q29.85 348.5 26.5 345.95L35.75 351.3Q36.85 351.8 36.8 353.25M256.6,345.6L257.05 346.25L257.25 346.85L257.3 347.95L256.85 371.55Q257 373.75 255.5 375.05L251.9 377.85L213.8 403.6Q210.05 405.9 205.95 403.2L202.15 400.75Q207.8 401.25 249.85 370.9L249.85 341.4L256.6 345.6M276.8,348.2L284 352L284.55 352.9L284.75 353.75L284.7 355.35L284.7 388.4Q284.25 392.55 278.95 396.25L274.85 399L223.2 440.25Q218.1 443.95 213.05 440.5L208.4 437.4L276.8 386.45L276.8 348.2" />
</g>
</svg>
