<?xml version="1.0" encoding="utf-8"?>
<svg version="1.1" id="Layer_1"
xmlns="http://www.w3.org/2000/svg"
xmlns:xlink="http://www.w3.org/1999/xlink"
xmlns:author="http://www.sothink.com"
width="8px" height="9px"
xml:space="preserve">
<g id="723" transform="matrix(1, 0, 0, 1, -114, -6.05)">
<path style="fill:#FFFF00;fill-opacity:1" d="M121.95,11.2L119.8 11.2L119.8 8.95L121.95 8.95L121.95 11.2M121.95,8.2L119.8 8.2L119.8 6.05L121.95 6.05L121.95 8.2M121.95,14.1L119.8 14.1L119.8 11.95L121.95 11.95L121.95 14.1M119.05,6.05L119.05 8.2L116.9 8.2L116.9 6.05L119.05 6.05M116.15,6.05L116.15 8.2L114 8.2L114 6.05L116.15 6.05M116.15,11.95L116.15 14.1L114 14.1L114 11.95L116.15 11.95M116.15,8.95L116.15 11.2L114 11.2L114 8.95L116.15 8.95M119.05,11.95L119.05 14.1L116.9 14.1L116.9 11.95L119.05 11.95M119.05,8.95L119.05 11.2L116.9 11.2L116.9 8.95L119.05 8.95" />
</g>
</svg>
