<?xml version="1.0" encoding="utf-8"?>
<svg version="1.1" id="Layer_1"
xmlns="http://www.w3.org/2000/svg"
xmlns:xlink="http://www.w3.org/1999/xlink"
xmlns:author="http://www.sothink.com"
width="14px" height="27px"
xml:space="preserve">
<g id="779" transform="matrix(1, 0, 0, 1, -3.3, 0)">
<path style="fill:#FF00FF;fill-opacity:1" d="M11.3,5.15L9.05 5.15L9.05 2.9L11.3 2.9L11.3 5.15M11.3,11.15L9.05 11.15L9.05 8.9L11.3 8.9L11.3 11.15M11.3,8.15L9.05 8.15L9.05 5.9L11.3 5.9L11.3 8.15M11.35,2.25L9.1 2.25L9.1 0L11.35 0L11.35 2.25M8.25,5.25L6 5.25L6 3L8.25 3L8.25 5.25M9.05,14.9L11.3 14.9L11.3 17.15L9.05 17.15L9.05 14.9M9.05,20.9L11.3 20.9L11.3 23.15L9.05 23.15L9.05 20.9M9.05,17.9L11.3 17.9L11.3 20.15L9.05 20.15L9.05 17.9M5.55,23.85L5.55 26.1L3.3 26.1L3.3 23.85L5.55 23.85M8.45,23.85L8.45 26.1L6.2 26.1L6.2 23.85L8.45 23.85M14.25,23.85L14.25 26.1L12 26.1L12 23.85L14.25 23.85M17.25,23.85L17.25 26.1L15 26.1L15 23.85L17.25 23.85M9.05,11.9L11.3 11.9L11.3 14.15L9.05 14.15L9.05 11.9M11.35,23.85L11.35 26.1L9.1 26.1L9.1 23.85L11.35 23.85" />
</g>
</svg>
