<?xml version="1.0" encoding="utf-8"?>
<svg version="1.1" id="Layer_1"
xmlns="http://www.w3.org/2000/svg"
xmlns:xlink="http://www.w3.org/1999/xlink"
xmlns:author="http://www.sothink.com"
width="18px" height="18px"
xml:space="preserve">
<g id="883" transform="matrix(1, 0, 0, 1, 0.25, 0.25)">
<radialGradient
id="RadialGradID_734" gradientUnits="userSpaceOnUse" gradientTransform="matrix(0.0137024, 0, 0, 0.0137024, 8.3, 8.3)" spreadMethod ="pad" cx="0" cy="0" r="819.2" fx="0" fy="0" >
<stop  offset="0"  style="stop-color:#FFCC00;stop-opacity:1" />
<stop  offset="1"  style="stop-color:#CC9900;stop-opacity:1" />
</radialGradient>
<path style="fill:url(#RadialGradID_734) " d="M16.3,8.3Q16.3 11.65 14 14Q11.6 16.35 8.25 16.35Q5 16.35 2.6 14Q0.25 11.65 0.25 8.3Q0.25 4.95 2.6 2.6Q5 0.25 8.25 0.25Q11.6 0.25 14 2.6Q16.3 4.95 16.3 8.3" />
<path style="fill:#996699;fill-opacity:1" d="M16.8,8.3Q16.8 11.85 14.35 14.35Q11.8 16.85 8.25 16.85Q4.8 16.85 2.25 14.35Q-0.25 11.85 -0.25 8.3Q-0.25 4.75 2.25 2.25Q4.8 -0.25 8.25 -0.25Q11.8 -0.25 14.35 2.25Q16.8 4.75 16.8 8.3M14,2.6Q11.6 0.25 8.25 0.25Q5 0.25 2.6 2.6Q0.25 4.95 0.25 8.3Q0.25 11.65 2.6 14Q5 16.35 8.25 16.35Q11.6 16.35 14 14Q16.3 11.65 16.3 8.3Q16.3 4.95 14 2.6" />
<path style="fill:#CC9900;fill-opacity:1" d="M11.55,8.95Q11.9 9.55 11.9 10.45L11.45 11.9Q11.05 12.65 10.2 12.95L8.2 13.3Q6.4 13.3 5.5 12.5Q4.55 11.65 4.3 10.05L6.15 9.9Q6.35 10.85 6.85 11.3Q7.3 11.7 8.2 11.7L9.55 11.35L10 10.45L9.85 9.85Q9.65 9.6 9.15 9.45L7.65 9.05Q6.15 8.7 5.5 8.15Q4.65 7.35 4.65 6.25Q4.65 5.55 5.05 4.9Q5.5 4.25 6.25 3.95L8.1 3.65Q9.85 3.65 10.75 4.4Q11.6 5.15 11.65 6.45L9.75 6.55L9.25 5.55Q8.85 5.15 8.05 5.15Q7.25 5.15 6.8 5.55Q6.45 5.75 6.45 6.1Q6.45 6.45 6.75 6.65Q7.1 6.95 8.5 7.3L10.5 7.95Q11.2 8.3 11.55 8.95" />
</g>
</svg>
