<?xml version="1.0" encoding="utf-8"?>
<svg version="1.1" id="Layer_1"
xmlns="http://www.w3.org/2000/svg"
xmlns:xlink="http://www.w3.org/1999/xlink"
xmlns:author="http://www.sothink.com"
width="118px" height="7px"
xml:space="preserve">
<g id="857" transform="matrix(1, 0, 0, 1, 0, 0)">
<path style="fill:#000000;fill-opacity:1" d="M114.5,0L117.35 0L117.35 6.65L115.6 6.65L115.75 1.55L115.7 1.55L114 6.65L112.5 6.65L110.8 1.55L110.75 1.55L110.9 6.65L109.15 6.65L109.15 0L111.95 0L113.2 4.2L113.25 4.2L114.5 0M107.8,5.8Q107.5 6.3 106.9 6.5L105.3 6.7L103.7 6.55Q103.15 6.45 102.85 6.15L102.45 5.45L102.35 4.45L102.35 0L104.15 0L104.15 4.4L104.25 4.95L104.65 5.15L105.3 5.15L105.9 5.1L106.2 4.9L106.3 4.3L106.3 0L108.05 0L108.05 4.45L107.8 5.8M100.6,0L100.6 6.65L98.85 6.65L98.85 0L100.6 0M97.3,4L97.05 5.5L96.3 6.35L94.85 6.65L91.25 6.65L91.25 0L94.6 0L96.15 0.25Q96.75 0.5 97 1.1L97.3 2.6L97.3 4M95.4,1.95L95.1 1.65L94.6 1.55L93.05 1.55L93.05 5.1L94.6 5.1L95.25 4.8L95.45 4L95.45 2.6L95.4 1.95M87.75,4.2L86.9 1.35L86.1 4.2L87.75 4.2M81.05,6.65L79.2 4.05L78.7 4.05L78.7 6.65L76.9 6.65L76.9 0L78.7 0L78.7 2.5L79.2 2.5L80.95 0L83.05 0L80.75 3.25L83.25 6.65L81.05 6.65M83.55,6.65L85.55 0L88.25 0L90.25 6.65L88.45 6.65L88.1 5.5L85.7 5.5L85.4 6.65L83.55 6.65M75.35,2.75L75.2 3.35L74.8 3.8L74.1 4.05L74.1 4.15Q74.65 4.15 74.95 4.45Q75.3 4.75 75.3 5.3L75.3 6.65L73.5 6.65L73.5 5.7L73.35 5.1L72.8 4.9L71.45 4.9L71.45 6.65L69.65 6.65L69.65 0L73.05 0L74.35 0.2Q74.85 0.35 75.1 0.75L75.35 2L75.35 2.75M73.55,2.3L73.4 1.7L72.8 1.55L71.45 1.55L71.45 3.35L72.8 3.35L73.3 3.25L73.5 2.9L73.55 2.3M64.45,4.2L66.1 4.2L65.25 1.35L64.45 4.2M61.9,6.65L63.9 0L66.6 0L68.6 6.65L66.8 6.65L66.45 5.5L64.05 5.5L63.75 6.65L61.9 6.65" />
<path style="fill:#FFFFFF;fill-opacity:1" d="M58,0.65L55.75 4.15L55.75 6.65L55.05 6.65L55.05 4.15L52.85 0.65L53.65 0.65L55.4 3.45L57.2 0.65L58 0.65M51.6,1.35L51.7 2.25L51.65 2.8L51.45 3.2L50.95 3.5L51.55 3.8L51.85 4.3L51.9 5Q51.9 5.8 51.55 6.2Q51.25 6.65 50.5 6.65L47.3 6.65L47.3 0.65L50.35 0.65L51.2 0.85L51.6 1.35M50.95,1.55L50.6 1.3L50 1.25L47.95 1.25L47.95 3.25L49.95 3.25L50.6 3.2L50.95 2.85L51.05 2.15L50.95 1.55M51.15,4.4L50.85 4L50.2 3.85L47.95 3.85L47.95 6.05L50.1 6.05L50.75 6L51.1 5.7L51.2 5.05L51.15 4.4M41.85,2.35L41.7 1.85L41.35 1.45L40.65 1.25L38.3 1.25L38.3 6.05L40.55 6.05L41.4 5.85L41.8 5.2L41.9 4.3L41.9 2.7L41.85 2.35M42.35,1.65L42.6 2.95L42.6 4.4L42.55 4.85L42.45 5.45L42.15 6.05L41.6 6.45L40.7 6.65L37.6 6.65L37.6 0.65L40.55 0.65L41.15 0.7L41.85 0.95L42.35 1.65M36.25,1.25L33.05 1.25L33.05 3.3L36.1 3.3L36.1 3.85L33.05 3.85L33.05 6.05L36.25 6.05L36.25 6.65L32.4 6.65L32.4 0.65L36.25 0.65L36.25 1.25M30.75,3.7L30.05 3.95L30.05 4Q30.55 4 30.8 4.3L31 5.05L31 6.65L30.35 6.65L30.35 5.4L30.25 4.75L29.95 4.35L29.3 4.25L27.15 4.25L27.15 6.65L26.45 6.65L26.45 0.65L29.2 0.65L30.3 0.8Q30.7 0.95 30.9 1.3L31.1 2.4L31.05 3.15L30.75 3.7M30,1.35L29.25 1.25L27.15 1.25L27.15 3.65L29.25 3.65L30 3.5L30.35 3.1L30.4 2.3L30.35 1.7L30 1.35M25.05,1.25L21.85 1.25L21.85 3.3L24.9 3.3L24.9 3.85L21.85 3.85L21.85 6.05L25.05 6.05L25.05 6.65L21.2 6.65L21.2 0.65L25.05 0.65L25.05 1.25M17.9,6.15L19.55 0.65L20.25 0.65L18.4 6.65L17.35 6.65L15.8 1.25L15.75 1.25L14.15 6.65L13.15 6.65L11.3 0.65L12 0.65L13.65 6.15L15.3 0.65L16.3 0.65L17.9 6.15M10.45,2.6L10.45 4.75L10.25 5.9L9.65 6.5L8.5 6.7L7.7 6.7L6.55 6.5L5.9 5.9Q5.7 5.45 5.75 4.75L5.75 2.6Q5.7 1.85 5.9 1.45Q6.1 1 6.5 0.8L7.7 0.6L8.5 0.6L9.65 0.8L10.25 1.45L10.45 2.6M9.25,1.3L8.5 1.2L7.7 1.2L6.9 1.3L6.5 1.75L6.4 2.6L6.4 4.75Q6.4 5.35 6.55 5.65L6.95 6L7.7 6.1L8.5 6.1L9.2 6L9.65 5.65L9.75 4.75L9.75 2.6L9.65 1.75L9.25 1.3M4.5,2.45L4.5 3L4.3 3.6L3.9 4.1L3.05 4.3L0.7 4.3L0.7 6.65L0 6.65L0 0.65L3.1 0.65Q3.65 0.65 3.95 0.9L4.4 1.55L4.5 2.45M3.45,1.35L2.8 1.25L0.7 1.25L0.7 3.7L2.45 3.7L3.05 3.7L3.5 3.55L3.75 3.25L3.85 2.55L3.75 1.7L3.45 1.35" />
</g>
</svg>
