<?xml version="1.0" encoding="utf-8"?>
<svg version="1.1" id="Layer_1"
xmlns="http://www.w3.org/2000/svg"
xmlns:xlink="http://www.w3.org/1999/xlink"
xmlns:author="http://www.sothink.com"
width="17px" height="9px"
xml:space="preserve">
<g id="902" transform="matrix(1, 0, 0, 1, 0, 0)">
<path style="fill:#A00101;fill-opacity:1" d="M16.7,0.45L13.9 4.3L16.7 8.35L16.7 8.55L16.7 8.7L16.55 8.75L14.05 8.75L13.95 8.65L12.3 6.15L10.7 8.65L10.65 8.75L10.5 8.75L8.15 8.75L8.05 8.7L7.95 8.55L8 8.35L10.85 4.4L8.1 0.45L8.05 0.3L8.15 0.15L8.25 0.1L10.7 0.1L10.85 0.15L12.4 2.45L14 0.15L14.05 0.15L14.1 0.1L16.5 0.1L16.7 0.15L16.7 0.3L16.7 0.45M11.35,4.4L11.3 4.45L8.6 8.3L10.45 8.3L12.15 5.7L12.3 5.65L12.4 5.65L12.45 5.7L14.2 8.3L16.2 8.3L13.5 4.4L13.45 4.3L13.5 4.15L16.15 0.5L14.25 0.5L12.55 2.95L12.45 3.05L12.35 3.05L12.25 2.95L10.6 0.5L8.7 0.5L11.3 4.25L11.35 4.4M0.35,0.55L1.55 0.15L3.2 0Q4.8 0 5.65 0.7Q6.45 1.35 6.45 2.65L6.1 4.25L4.9 5.75L4.85 5.75L3.8 6.6L3.65 6.75L6.7 6.75L6.85 6.85L6.9 7L6.9 8.55L6.85 8.75L6.7 8.75L0.2 8.75L0.1 8.75L0 8.55L0 7.2L0.05 7.1L0.1 7.05L1.55 5.95L2.8 4.9L3.65 3.8L3.9 2.95L3.65 2.25Q3.3 1.95 2.75 1.95L1.7 2.2Q1.25 2.3 0.75 2.65L0.6 2.7L0.45 2.7L0.3 2.65L0.2 2.5L0.2 0.7L0.25 0.65L0.35 0.55M6.05,2.65Q6.05 1.6 5.4 1Q4.6 0.4 3.2 0.4L1.6 0.55L0.6 0.85L0.6 2.25L1.55 1.75L2.75 1.6Q3.5 1.6 3.85 1.9L3.9 1.95Q4.3 2.25 4.3 2.95L4 3.95L4.05 3.95L3.1 5.2L1.85 6.2L0.45 7.35L0.45 8.35L6.45 8.35L6.45 7.15L3 7.15L2.85 7.1L2.8 7.05L2.8 6.95L2.85 6.8L3.6 6.25L4.6 5.5L4.6 5.45L5.8 4L6.05 2.65" />
<path style="fill:#B10101;fill-opacity:1" d="M11.3,4.25L8.7 0.5L10.6 0.5L12.25 2.95L12.35 3.05L12.45 3.05L12.55 2.95L14.25 0.5L16.15 0.5L13.5 4.15L13.45 4.3L13.5 4.4L16.2 8.3L14.2 8.3L12.45 5.7L12.4 5.65L12.3 5.65L12.15 5.7L10.45 8.3L8.6 8.3L11.3 4.45L11.35 4.4L11.3 4.25M5.8,4L4.6 5.45L4.6 5.5L3.6 6.25L2.85 6.8L2.8 6.95L2.8 7.05L2.85 7.1L3 7.15L6.45 7.15L6.45 8.35L0.45 8.35L0.45 7.35L1.85 6.2L3.1 5.2L4.05 3.95L4 3.95L4.3 2.95Q4.3 2.25 3.9 1.95L3.85 1.9Q3.5 1.6 2.75 1.6L1.55 1.75L0.6 2.25L0.6 0.85L1.6 0.55L3.2 0.4Q4.6 0.4 5.4 1Q6.05 1.6 6.05 2.65L5.8 4" />
</g>
</svg>
